G04 EAGLE Gerber RS-274X export*
G75*
%MOMM*%
%FSLAX34Y34*%
%LPD*%
%INSilkscreen Top*%
%IPPOS*%
%AMOC8*
5,1,8,0,0,1.08239X$1,22.5*%
G01*
%ADD10C,0.127000*%
%ADD11C,0.152400*%
%ADD12C,0.076200*%
%ADD13C,0.101600*%
%ADD14C,0.200000*%
%ADD15C,0.150000*%


D10*
X871300Y2084500D02*
X824500Y2084500D01*
X824500Y2130000D01*
X824500Y2250000D02*
X824500Y2295500D01*
X871300Y2295500D01*
X928700Y2084500D02*
X979500Y2084500D01*
X979500Y2135000D01*
X979500Y2245000D02*
X979500Y2295500D01*
X928700Y2295500D01*
D11*
X846276Y2047013D02*
X841761Y2047013D01*
X846276Y2047014D02*
X846409Y2047012D01*
X846541Y2047006D01*
X846673Y2046996D01*
X846805Y2046983D01*
X846937Y2046965D01*
X847067Y2046944D01*
X847198Y2046919D01*
X847327Y2046890D01*
X847455Y2046857D01*
X847583Y2046821D01*
X847709Y2046781D01*
X847834Y2046737D01*
X847958Y2046689D01*
X848080Y2046638D01*
X848201Y2046583D01*
X848320Y2046525D01*
X848438Y2046463D01*
X848553Y2046398D01*
X848667Y2046329D01*
X848778Y2046258D01*
X848887Y2046182D01*
X848994Y2046104D01*
X849099Y2046023D01*
X849201Y2045938D01*
X849301Y2045851D01*
X849398Y2045761D01*
X849493Y2045668D01*
X849584Y2045572D01*
X849673Y2045474D01*
X849759Y2045373D01*
X849842Y2045269D01*
X849922Y2045163D01*
X849998Y2045055D01*
X850072Y2044945D01*
X850142Y2044832D01*
X850209Y2044718D01*
X850272Y2044601D01*
X850332Y2044483D01*
X850389Y2044363D01*
X850442Y2044241D01*
X850491Y2044118D01*
X850537Y2043994D01*
X850579Y2043868D01*
X850617Y2043741D01*
X850652Y2043613D01*
X850683Y2043484D01*
X850710Y2043355D01*
X850733Y2043224D01*
X850753Y2043093D01*
X850768Y2042961D01*
X850780Y2042829D01*
X850788Y2042697D01*
X850792Y2042564D01*
X850792Y2042432D01*
X850788Y2042299D01*
X850780Y2042167D01*
X850768Y2042035D01*
X850753Y2041903D01*
X850733Y2041772D01*
X850710Y2041641D01*
X850683Y2041512D01*
X850652Y2041383D01*
X850617Y2041255D01*
X850579Y2041128D01*
X850537Y2041002D01*
X850491Y2040878D01*
X850442Y2040755D01*
X850389Y2040633D01*
X850332Y2040513D01*
X850272Y2040395D01*
X850209Y2040278D01*
X850142Y2040164D01*
X850072Y2040051D01*
X849998Y2039941D01*
X849922Y2039833D01*
X849842Y2039727D01*
X849759Y2039623D01*
X849673Y2039522D01*
X849584Y2039424D01*
X849493Y2039328D01*
X849398Y2039235D01*
X849301Y2039145D01*
X849201Y2039058D01*
X849099Y2038973D01*
X848994Y2038892D01*
X848887Y2038814D01*
X848778Y2038738D01*
X848667Y2038667D01*
X848553Y2038598D01*
X848438Y2038533D01*
X848320Y2038471D01*
X848201Y2038413D01*
X848080Y2038358D01*
X847958Y2038307D01*
X847834Y2038259D01*
X847709Y2038215D01*
X847583Y2038175D01*
X847455Y2038139D01*
X847327Y2038106D01*
X847198Y2038077D01*
X847067Y2038052D01*
X846937Y2038031D01*
X846805Y2038013D01*
X846673Y2038000D01*
X846541Y2037990D01*
X846409Y2037984D01*
X846276Y2037982D01*
X841761Y2037982D01*
X841761Y2054238D01*
X846276Y2054238D01*
X846395Y2054236D01*
X846515Y2054230D01*
X846634Y2054220D01*
X846752Y2054206D01*
X846871Y2054189D01*
X846988Y2054167D01*
X847105Y2054142D01*
X847220Y2054112D01*
X847335Y2054079D01*
X847449Y2054042D01*
X847561Y2054002D01*
X847672Y2053957D01*
X847781Y2053909D01*
X847889Y2053858D01*
X847995Y2053803D01*
X848099Y2053744D01*
X848201Y2053682D01*
X848301Y2053617D01*
X848399Y2053548D01*
X848495Y2053476D01*
X848588Y2053401D01*
X848678Y2053324D01*
X848766Y2053243D01*
X848851Y2053159D01*
X848933Y2053072D01*
X849013Y2052983D01*
X849089Y2052891D01*
X849163Y2052797D01*
X849233Y2052700D01*
X849300Y2052602D01*
X849364Y2052501D01*
X849424Y2052397D01*
X849481Y2052292D01*
X849534Y2052185D01*
X849584Y2052077D01*
X849630Y2051967D01*
X849672Y2051855D01*
X849711Y2051742D01*
X849746Y2051628D01*
X849777Y2051513D01*
X849805Y2051396D01*
X849828Y2051279D01*
X849848Y2051162D01*
X849864Y2051043D01*
X849876Y2050924D01*
X849884Y2050805D01*
X849888Y2050686D01*
X849888Y2050566D01*
X849884Y2050447D01*
X849876Y2050328D01*
X849864Y2050209D01*
X849848Y2050090D01*
X849828Y2049973D01*
X849805Y2049856D01*
X849777Y2049739D01*
X849746Y2049624D01*
X849711Y2049510D01*
X849672Y2049397D01*
X849630Y2049285D01*
X849584Y2049175D01*
X849534Y2049067D01*
X849481Y2048960D01*
X849424Y2048855D01*
X849364Y2048751D01*
X849300Y2048650D01*
X849233Y2048552D01*
X849163Y2048455D01*
X849089Y2048361D01*
X849013Y2048269D01*
X848933Y2048180D01*
X848851Y2048093D01*
X848766Y2048009D01*
X848678Y2047928D01*
X848588Y2047851D01*
X848495Y2047776D01*
X848399Y2047704D01*
X848301Y2047635D01*
X848201Y2047570D01*
X848099Y2047508D01*
X847995Y2047449D01*
X847889Y2047394D01*
X847781Y2047343D01*
X847672Y2047295D01*
X847561Y2047250D01*
X847449Y2047210D01*
X847335Y2047173D01*
X847220Y2047140D01*
X847105Y2047110D01*
X846988Y2047085D01*
X846871Y2047063D01*
X846752Y2047046D01*
X846634Y2047032D01*
X846515Y2047022D01*
X846395Y2047016D01*
X846276Y2047014D01*
X860133Y2054238D02*
X860133Y2037982D01*
X855618Y2054238D02*
X864649Y2054238D01*
X870207Y2050626D02*
X874722Y2054238D01*
X874722Y2037982D01*
X870207Y2037982D02*
X879238Y2037982D01*
D12*
X860869Y1994558D02*
X860869Y1992469D01*
X860867Y1992380D01*
X860861Y1992292D01*
X860852Y1992204D01*
X860839Y1992116D01*
X860822Y1992029D01*
X860802Y1991943D01*
X860777Y1991858D01*
X860750Y1991773D01*
X860718Y1991690D01*
X860684Y1991609D01*
X860645Y1991529D01*
X860604Y1991451D01*
X860559Y1991374D01*
X860511Y1991300D01*
X860460Y1991227D01*
X860406Y1991157D01*
X860348Y1991090D01*
X860288Y1991024D01*
X860226Y1990962D01*
X860160Y1990902D01*
X860093Y1990844D01*
X860023Y1990790D01*
X859950Y1990739D01*
X859876Y1990691D01*
X859799Y1990646D01*
X859721Y1990605D01*
X859641Y1990566D01*
X859560Y1990532D01*
X859477Y1990500D01*
X859392Y1990473D01*
X859307Y1990448D01*
X859221Y1990428D01*
X859134Y1990411D01*
X859046Y1990398D01*
X858958Y1990389D01*
X858870Y1990383D01*
X858781Y1990381D01*
X853559Y1990381D01*
X853468Y1990383D01*
X853377Y1990389D01*
X853286Y1990399D01*
X853196Y1990413D01*
X853107Y1990431D01*
X853018Y1990452D01*
X852931Y1990478D01*
X852845Y1990507D01*
X852760Y1990540D01*
X852676Y1990577D01*
X852594Y1990617D01*
X852515Y1990661D01*
X852437Y1990708D01*
X852361Y1990759D01*
X852287Y1990813D01*
X852216Y1990870D01*
X852148Y1990930D01*
X852082Y1990993D01*
X852019Y1991059D01*
X851959Y1991127D01*
X851902Y1991198D01*
X851848Y1991272D01*
X851797Y1991348D01*
X851750Y1991425D01*
X851706Y1991505D01*
X851666Y1991587D01*
X851629Y1991671D01*
X851596Y1991755D01*
X851567Y1991842D01*
X851541Y1991929D01*
X851520Y1992018D01*
X851502Y1992107D01*
X851488Y1992197D01*
X851478Y1992288D01*
X851472Y1992379D01*
X851470Y1992470D01*
X851471Y1992469D02*
X851471Y1994558D01*
X853559Y1998027D02*
X851471Y2000637D01*
X860869Y2000637D01*
X860869Y1998027D02*
X860869Y2003248D01*
X862469Y1955381D02*
X864558Y1955381D01*
X862469Y1955381D02*
X862380Y1955383D01*
X862292Y1955389D01*
X862204Y1955398D01*
X862116Y1955411D01*
X862029Y1955428D01*
X861943Y1955448D01*
X861858Y1955473D01*
X861773Y1955500D01*
X861690Y1955532D01*
X861609Y1955566D01*
X861529Y1955605D01*
X861451Y1955646D01*
X861374Y1955691D01*
X861300Y1955739D01*
X861227Y1955790D01*
X861157Y1955844D01*
X861090Y1955902D01*
X861024Y1955962D01*
X860962Y1956024D01*
X860902Y1956090D01*
X860844Y1956157D01*
X860790Y1956227D01*
X860739Y1956300D01*
X860691Y1956374D01*
X860646Y1956451D01*
X860605Y1956529D01*
X860566Y1956609D01*
X860532Y1956690D01*
X860500Y1956773D01*
X860473Y1956858D01*
X860448Y1956943D01*
X860428Y1957029D01*
X860411Y1957116D01*
X860398Y1957204D01*
X860389Y1957292D01*
X860383Y1957380D01*
X860381Y1957469D01*
X860381Y1962691D01*
X860383Y1962782D01*
X860389Y1962873D01*
X860399Y1962964D01*
X860413Y1963054D01*
X860430Y1963143D01*
X860452Y1963231D01*
X860478Y1963319D01*
X860507Y1963405D01*
X860540Y1963490D01*
X860577Y1963573D01*
X860617Y1963655D01*
X860661Y1963735D01*
X860708Y1963813D01*
X860759Y1963889D01*
X860812Y1963962D01*
X860869Y1964033D01*
X860930Y1964102D01*
X860993Y1964167D01*
X861058Y1964230D01*
X861127Y1964290D01*
X861198Y1964348D01*
X861271Y1964401D01*
X861347Y1964452D01*
X861425Y1964499D01*
X861505Y1964543D01*
X861587Y1964583D01*
X861670Y1964620D01*
X861755Y1964653D01*
X861841Y1964682D01*
X861929Y1964708D01*
X862017Y1964730D01*
X862106Y1964747D01*
X862196Y1964761D01*
X862287Y1964771D01*
X862378Y1964777D01*
X862469Y1964779D01*
X864558Y1964779D01*
X870898Y1964780D02*
X870993Y1964778D01*
X871087Y1964772D01*
X871181Y1964763D01*
X871275Y1964750D01*
X871368Y1964733D01*
X871460Y1964712D01*
X871552Y1964687D01*
X871642Y1964659D01*
X871731Y1964627D01*
X871819Y1964592D01*
X871905Y1964553D01*
X871990Y1964511D01*
X872073Y1964465D01*
X872154Y1964416D01*
X872233Y1964364D01*
X872310Y1964309D01*
X872384Y1964250D01*
X872456Y1964189D01*
X872526Y1964125D01*
X872593Y1964058D01*
X872657Y1963988D01*
X872718Y1963916D01*
X872777Y1963842D01*
X872832Y1963765D01*
X872884Y1963686D01*
X872933Y1963605D01*
X872979Y1963522D01*
X873021Y1963437D01*
X873060Y1963351D01*
X873095Y1963263D01*
X873127Y1963174D01*
X873155Y1963084D01*
X873180Y1962992D01*
X873201Y1962900D01*
X873218Y1962807D01*
X873231Y1962713D01*
X873240Y1962619D01*
X873246Y1962525D01*
X873248Y1962430D01*
X870898Y1964779D02*
X870790Y1964777D01*
X870681Y1964771D01*
X870573Y1964761D01*
X870466Y1964748D01*
X870359Y1964730D01*
X870252Y1964709D01*
X870147Y1964684D01*
X870042Y1964655D01*
X869939Y1964623D01*
X869837Y1964586D01*
X869736Y1964546D01*
X869637Y1964503D01*
X869539Y1964456D01*
X869443Y1964405D01*
X869349Y1964351D01*
X869257Y1964294D01*
X869167Y1964233D01*
X869079Y1964169D01*
X868994Y1964103D01*
X868911Y1964033D01*
X868831Y1963960D01*
X868753Y1963884D01*
X868678Y1963806D01*
X868606Y1963725D01*
X868537Y1963641D01*
X868471Y1963555D01*
X868408Y1963467D01*
X868349Y1963376D01*
X868292Y1963284D01*
X868239Y1963189D01*
X868190Y1963093D01*
X868144Y1962994D01*
X868101Y1962895D01*
X868062Y1962793D01*
X868027Y1962691D01*
X872465Y1960602D02*
X872534Y1960671D01*
X872600Y1960742D01*
X872664Y1960815D01*
X872725Y1960891D01*
X872783Y1960970D01*
X872837Y1961050D01*
X872889Y1961133D01*
X872937Y1961217D01*
X872983Y1961303D01*
X873024Y1961391D01*
X873063Y1961481D01*
X873098Y1961572D01*
X873129Y1961664D01*
X873157Y1961757D01*
X873181Y1961851D01*
X873201Y1961946D01*
X873218Y1962042D01*
X873231Y1962139D01*
X873240Y1962236D01*
X873246Y1962333D01*
X873248Y1962430D01*
X872465Y1960602D02*
X868027Y1955381D01*
X873248Y1955381D01*
X1027469Y1830381D02*
X1029558Y1830381D01*
X1027469Y1830381D02*
X1027380Y1830383D01*
X1027292Y1830389D01*
X1027204Y1830398D01*
X1027116Y1830411D01*
X1027029Y1830428D01*
X1026943Y1830448D01*
X1026858Y1830473D01*
X1026773Y1830500D01*
X1026690Y1830532D01*
X1026609Y1830566D01*
X1026529Y1830605D01*
X1026451Y1830646D01*
X1026374Y1830691D01*
X1026300Y1830739D01*
X1026227Y1830790D01*
X1026157Y1830844D01*
X1026090Y1830902D01*
X1026024Y1830962D01*
X1025962Y1831024D01*
X1025902Y1831090D01*
X1025844Y1831157D01*
X1025790Y1831227D01*
X1025739Y1831300D01*
X1025691Y1831374D01*
X1025646Y1831451D01*
X1025605Y1831529D01*
X1025566Y1831609D01*
X1025532Y1831690D01*
X1025500Y1831773D01*
X1025473Y1831858D01*
X1025448Y1831943D01*
X1025428Y1832029D01*
X1025411Y1832116D01*
X1025398Y1832204D01*
X1025389Y1832292D01*
X1025383Y1832380D01*
X1025381Y1832469D01*
X1025381Y1837691D01*
X1025383Y1837782D01*
X1025389Y1837873D01*
X1025399Y1837964D01*
X1025413Y1838054D01*
X1025430Y1838143D01*
X1025452Y1838231D01*
X1025478Y1838319D01*
X1025507Y1838405D01*
X1025540Y1838490D01*
X1025577Y1838573D01*
X1025617Y1838655D01*
X1025661Y1838735D01*
X1025708Y1838813D01*
X1025759Y1838889D01*
X1025812Y1838962D01*
X1025869Y1839033D01*
X1025930Y1839102D01*
X1025993Y1839167D01*
X1026058Y1839230D01*
X1026127Y1839290D01*
X1026198Y1839348D01*
X1026271Y1839401D01*
X1026347Y1839452D01*
X1026425Y1839499D01*
X1026505Y1839543D01*
X1026587Y1839583D01*
X1026670Y1839620D01*
X1026755Y1839653D01*
X1026841Y1839682D01*
X1026929Y1839708D01*
X1027017Y1839730D01*
X1027106Y1839747D01*
X1027196Y1839761D01*
X1027287Y1839771D01*
X1027378Y1839777D01*
X1027469Y1839779D01*
X1029558Y1839779D01*
X1033027Y1830381D02*
X1035637Y1830381D01*
X1035738Y1830383D01*
X1035839Y1830389D01*
X1035940Y1830399D01*
X1036040Y1830412D01*
X1036140Y1830430D01*
X1036239Y1830451D01*
X1036337Y1830477D01*
X1036434Y1830506D01*
X1036530Y1830538D01*
X1036624Y1830575D01*
X1036717Y1830615D01*
X1036809Y1830659D01*
X1036898Y1830706D01*
X1036986Y1830757D01*
X1037072Y1830811D01*
X1037155Y1830868D01*
X1037237Y1830928D01*
X1037315Y1830992D01*
X1037392Y1831058D01*
X1037465Y1831128D01*
X1037536Y1831200D01*
X1037604Y1831275D01*
X1037669Y1831353D01*
X1037731Y1831433D01*
X1037790Y1831515D01*
X1037846Y1831600D01*
X1037898Y1831687D01*
X1037947Y1831775D01*
X1037993Y1831866D01*
X1038034Y1831958D01*
X1038073Y1832052D01*
X1038107Y1832147D01*
X1038138Y1832243D01*
X1038165Y1832341D01*
X1038189Y1832439D01*
X1038208Y1832539D01*
X1038224Y1832639D01*
X1038236Y1832739D01*
X1038244Y1832840D01*
X1038248Y1832941D01*
X1038248Y1833043D01*
X1038244Y1833144D01*
X1038236Y1833245D01*
X1038224Y1833345D01*
X1038208Y1833445D01*
X1038189Y1833545D01*
X1038165Y1833643D01*
X1038138Y1833741D01*
X1038107Y1833837D01*
X1038073Y1833932D01*
X1038034Y1834026D01*
X1037993Y1834118D01*
X1037947Y1834209D01*
X1037898Y1834298D01*
X1037846Y1834384D01*
X1037790Y1834469D01*
X1037731Y1834551D01*
X1037669Y1834631D01*
X1037604Y1834709D01*
X1037536Y1834784D01*
X1037465Y1834856D01*
X1037392Y1834926D01*
X1037315Y1834992D01*
X1037237Y1835056D01*
X1037155Y1835116D01*
X1037072Y1835173D01*
X1036986Y1835227D01*
X1036898Y1835278D01*
X1036809Y1835325D01*
X1036717Y1835369D01*
X1036624Y1835409D01*
X1036530Y1835446D01*
X1036434Y1835478D01*
X1036337Y1835507D01*
X1036239Y1835533D01*
X1036140Y1835554D01*
X1036040Y1835572D01*
X1035940Y1835585D01*
X1035839Y1835595D01*
X1035738Y1835601D01*
X1035637Y1835603D01*
X1036159Y1839779D02*
X1033027Y1839779D01*
X1036159Y1839779D02*
X1036249Y1839777D01*
X1036338Y1839771D01*
X1036428Y1839762D01*
X1036517Y1839748D01*
X1036605Y1839731D01*
X1036692Y1839710D01*
X1036779Y1839685D01*
X1036864Y1839656D01*
X1036948Y1839624D01*
X1037030Y1839589D01*
X1037111Y1839549D01*
X1037190Y1839507D01*
X1037267Y1839461D01*
X1037342Y1839411D01*
X1037415Y1839359D01*
X1037486Y1839303D01*
X1037554Y1839245D01*
X1037619Y1839183D01*
X1037682Y1839119D01*
X1037742Y1839052D01*
X1037799Y1838983D01*
X1037853Y1838911D01*
X1037904Y1838837D01*
X1037952Y1838761D01*
X1037996Y1838683D01*
X1038037Y1838603D01*
X1038075Y1838521D01*
X1038109Y1838438D01*
X1038139Y1838353D01*
X1038166Y1838267D01*
X1038189Y1838181D01*
X1038208Y1838093D01*
X1038223Y1838004D01*
X1038235Y1837915D01*
X1038243Y1837826D01*
X1038247Y1837736D01*
X1038247Y1837646D01*
X1038243Y1837556D01*
X1038235Y1837467D01*
X1038223Y1837378D01*
X1038208Y1837289D01*
X1038189Y1837201D01*
X1038166Y1837115D01*
X1038139Y1837029D01*
X1038109Y1836944D01*
X1038075Y1836861D01*
X1038037Y1836779D01*
X1037996Y1836699D01*
X1037952Y1836621D01*
X1037904Y1836545D01*
X1037853Y1836471D01*
X1037799Y1836399D01*
X1037742Y1836330D01*
X1037682Y1836263D01*
X1037619Y1836199D01*
X1037554Y1836137D01*
X1037486Y1836079D01*
X1037415Y1836023D01*
X1037342Y1835971D01*
X1037267Y1835921D01*
X1037190Y1835875D01*
X1037111Y1835833D01*
X1037030Y1835793D01*
X1036948Y1835758D01*
X1036864Y1835726D01*
X1036779Y1835697D01*
X1036692Y1835672D01*
X1036605Y1835651D01*
X1036517Y1835634D01*
X1036428Y1835620D01*
X1036338Y1835611D01*
X1036249Y1835605D01*
X1036159Y1835603D01*
X1036159Y1835602D02*
X1034071Y1835602D01*
X954558Y1880381D02*
X952469Y1880381D01*
X952380Y1880383D01*
X952292Y1880389D01*
X952204Y1880398D01*
X952116Y1880411D01*
X952029Y1880428D01*
X951943Y1880448D01*
X951858Y1880473D01*
X951773Y1880500D01*
X951690Y1880532D01*
X951609Y1880566D01*
X951529Y1880605D01*
X951451Y1880646D01*
X951374Y1880691D01*
X951300Y1880739D01*
X951227Y1880790D01*
X951157Y1880844D01*
X951090Y1880902D01*
X951024Y1880962D01*
X950962Y1881024D01*
X950902Y1881090D01*
X950844Y1881157D01*
X950790Y1881227D01*
X950739Y1881300D01*
X950691Y1881374D01*
X950646Y1881451D01*
X950605Y1881529D01*
X950566Y1881609D01*
X950532Y1881690D01*
X950500Y1881773D01*
X950473Y1881858D01*
X950448Y1881943D01*
X950428Y1882029D01*
X950411Y1882116D01*
X950398Y1882204D01*
X950389Y1882292D01*
X950383Y1882380D01*
X950381Y1882469D01*
X950381Y1887691D01*
X950383Y1887782D01*
X950389Y1887873D01*
X950399Y1887964D01*
X950413Y1888054D01*
X950430Y1888143D01*
X950452Y1888231D01*
X950478Y1888319D01*
X950507Y1888405D01*
X950540Y1888490D01*
X950577Y1888573D01*
X950617Y1888655D01*
X950661Y1888735D01*
X950708Y1888813D01*
X950759Y1888889D01*
X950812Y1888962D01*
X950869Y1889033D01*
X950930Y1889102D01*
X950993Y1889167D01*
X951058Y1889230D01*
X951127Y1889290D01*
X951198Y1889348D01*
X951271Y1889401D01*
X951347Y1889452D01*
X951425Y1889499D01*
X951505Y1889543D01*
X951587Y1889583D01*
X951670Y1889620D01*
X951755Y1889653D01*
X951841Y1889682D01*
X951929Y1889708D01*
X952017Y1889730D01*
X952106Y1889747D01*
X952196Y1889761D01*
X952287Y1889771D01*
X952378Y1889777D01*
X952469Y1889779D01*
X954558Y1889779D01*
X960115Y1889779D02*
X958027Y1882469D01*
X963248Y1882469D01*
X961681Y1880381D02*
X961681Y1884558D01*
X1122469Y1960381D02*
X1124558Y1960381D01*
X1122469Y1960381D02*
X1122380Y1960383D01*
X1122292Y1960389D01*
X1122204Y1960398D01*
X1122116Y1960411D01*
X1122029Y1960428D01*
X1121943Y1960448D01*
X1121858Y1960473D01*
X1121773Y1960500D01*
X1121690Y1960532D01*
X1121609Y1960566D01*
X1121529Y1960605D01*
X1121451Y1960646D01*
X1121374Y1960691D01*
X1121300Y1960739D01*
X1121227Y1960790D01*
X1121157Y1960844D01*
X1121090Y1960902D01*
X1121024Y1960962D01*
X1120962Y1961024D01*
X1120902Y1961090D01*
X1120844Y1961157D01*
X1120790Y1961227D01*
X1120739Y1961300D01*
X1120691Y1961374D01*
X1120646Y1961451D01*
X1120605Y1961529D01*
X1120566Y1961609D01*
X1120532Y1961690D01*
X1120500Y1961773D01*
X1120473Y1961858D01*
X1120448Y1961943D01*
X1120428Y1962029D01*
X1120411Y1962116D01*
X1120398Y1962204D01*
X1120389Y1962292D01*
X1120383Y1962380D01*
X1120381Y1962469D01*
X1120381Y1967691D01*
X1120383Y1967782D01*
X1120389Y1967873D01*
X1120399Y1967964D01*
X1120413Y1968054D01*
X1120430Y1968143D01*
X1120452Y1968231D01*
X1120478Y1968319D01*
X1120507Y1968405D01*
X1120540Y1968490D01*
X1120577Y1968573D01*
X1120617Y1968655D01*
X1120661Y1968735D01*
X1120708Y1968813D01*
X1120759Y1968889D01*
X1120812Y1968962D01*
X1120869Y1969033D01*
X1120930Y1969102D01*
X1120993Y1969167D01*
X1121058Y1969230D01*
X1121127Y1969290D01*
X1121198Y1969348D01*
X1121271Y1969401D01*
X1121347Y1969452D01*
X1121425Y1969499D01*
X1121505Y1969543D01*
X1121587Y1969583D01*
X1121670Y1969620D01*
X1121755Y1969653D01*
X1121841Y1969682D01*
X1121929Y1969708D01*
X1122017Y1969730D01*
X1122106Y1969747D01*
X1122196Y1969761D01*
X1122287Y1969771D01*
X1122378Y1969777D01*
X1122469Y1969779D01*
X1124558Y1969779D01*
X1128027Y1960381D02*
X1131159Y1960381D01*
X1131248Y1960383D01*
X1131336Y1960389D01*
X1131424Y1960398D01*
X1131512Y1960411D01*
X1131599Y1960428D01*
X1131685Y1960448D01*
X1131770Y1960473D01*
X1131855Y1960500D01*
X1131938Y1960532D01*
X1132019Y1960566D01*
X1132099Y1960605D01*
X1132177Y1960646D01*
X1132254Y1960691D01*
X1132328Y1960739D01*
X1132401Y1960790D01*
X1132471Y1960844D01*
X1132538Y1960902D01*
X1132604Y1960962D01*
X1132666Y1961024D01*
X1132726Y1961090D01*
X1132784Y1961157D01*
X1132838Y1961227D01*
X1132889Y1961300D01*
X1132937Y1961374D01*
X1132982Y1961451D01*
X1133023Y1961529D01*
X1133062Y1961609D01*
X1133096Y1961690D01*
X1133128Y1961773D01*
X1133155Y1961858D01*
X1133180Y1961943D01*
X1133200Y1962029D01*
X1133217Y1962116D01*
X1133230Y1962204D01*
X1133239Y1962292D01*
X1133245Y1962380D01*
X1133247Y1962469D01*
X1133248Y1962469D02*
X1133248Y1963514D01*
X1133247Y1963514D02*
X1133245Y1963603D01*
X1133239Y1963691D01*
X1133230Y1963779D01*
X1133217Y1963867D01*
X1133200Y1963954D01*
X1133180Y1964040D01*
X1133155Y1964125D01*
X1133128Y1964210D01*
X1133096Y1964293D01*
X1133062Y1964374D01*
X1133023Y1964454D01*
X1132982Y1964532D01*
X1132937Y1964609D01*
X1132889Y1964683D01*
X1132838Y1964756D01*
X1132784Y1964826D01*
X1132726Y1964893D01*
X1132666Y1964959D01*
X1132604Y1965021D01*
X1132538Y1965081D01*
X1132471Y1965139D01*
X1132401Y1965193D01*
X1132328Y1965244D01*
X1132254Y1965292D01*
X1132177Y1965337D01*
X1132099Y1965378D01*
X1132019Y1965417D01*
X1131938Y1965451D01*
X1131855Y1965483D01*
X1131770Y1965510D01*
X1131685Y1965535D01*
X1131599Y1965555D01*
X1131512Y1965572D01*
X1131424Y1965585D01*
X1131336Y1965594D01*
X1131248Y1965600D01*
X1131159Y1965602D01*
X1128027Y1965602D01*
X1128027Y1969779D01*
X1133248Y1969779D01*
D10*
X1043175Y2155237D02*
X1036825Y2160000D01*
X1043175Y2160000D02*
X1043175Y2155237D01*
X1043175Y2160000D02*
X1043175Y2164763D01*
X1036825Y2160000D01*
X1036825Y2155237D01*
X1036825Y2160000D02*
X1036825Y2164763D01*
X1043175Y2160000D02*
X1051113Y2160000D01*
X1036825Y2160000D02*
X1028887Y2160000D01*
D13*
X1032940Y2171933D02*
X1032940Y2183617D01*
X1036185Y2183617D01*
X1036298Y2183615D01*
X1036411Y2183609D01*
X1036524Y2183599D01*
X1036637Y2183585D01*
X1036749Y2183568D01*
X1036860Y2183546D01*
X1036970Y2183521D01*
X1037080Y2183491D01*
X1037188Y2183458D01*
X1037295Y2183421D01*
X1037401Y2183381D01*
X1037505Y2183336D01*
X1037608Y2183288D01*
X1037709Y2183237D01*
X1037808Y2183182D01*
X1037905Y2183124D01*
X1038000Y2183062D01*
X1038093Y2182997D01*
X1038183Y2182929D01*
X1038271Y2182858D01*
X1038357Y2182783D01*
X1038440Y2182706D01*
X1038520Y2182626D01*
X1038597Y2182543D01*
X1038672Y2182457D01*
X1038743Y2182369D01*
X1038811Y2182279D01*
X1038876Y2182186D01*
X1038938Y2182091D01*
X1038996Y2181994D01*
X1039051Y2181895D01*
X1039102Y2181794D01*
X1039150Y2181691D01*
X1039195Y2181587D01*
X1039235Y2181481D01*
X1039272Y2181374D01*
X1039305Y2181266D01*
X1039335Y2181156D01*
X1039360Y2181046D01*
X1039382Y2180935D01*
X1039399Y2180823D01*
X1039413Y2180710D01*
X1039423Y2180597D01*
X1039429Y2180484D01*
X1039431Y2180371D01*
X1039431Y2175179D01*
X1039432Y2175179D02*
X1039430Y2175066D01*
X1039424Y2174953D01*
X1039414Y2174840D01*
X1039400Y2174727D01*
X1039383Y2174615D01*
X1039361Y2174504D01*
X1039336Y2174394D01*
X1039306Y2174284D01*
X1039273Y2174176D01*
X1039236Y2174069D01*
X1039196Y2173963D01*
X1039151Y2173859D01*
X1039103Y2173756D01*
X1039052Y2173655D01*
X1038997Y2173556D01*
X1038939Y2173459D01*
X1038877Y2173364D01*
X1038812Y2173271D01*
X1038744Y2173181D01*
X1038673Y2173093D01*
X1038598Y2173007D01*
X1038521Y2172924D01*
X1038441Y2172844D01*
X1038358Y2172767D01*
X1038272Y2172692D01*
X1038184Y2172621D01*
X1038094Y2172553D01*
X1038001Y2172488D01*
X1037906Y2172426D01*
X1037809Y2172368D01*
X1037710Y2172313D01*
X1037609Y2172262D01*
X1037506Y2172214D01*
X1037402Y2172169D01*
X1037296Y2172129D01*
X1037189Y2172092D01*
X1037081Y2172059D01*
X1036971Y2172029D01*
X1036861Y2172004D01*
X1036750Y2171982D01*
X1036638Y2171965D01*
X1036525Y2171951D01*
X1036412Y2171941D01*
X1036299Y2171935D01*
X1036186Y2171933D01*
X1036185Y2171933D02*
X1032940Y2171933D01*
X1048321Y2183617D02*
X1048428Y2183615D01*
X1048534Y2183609D01*
X1048640Y2183599D01*
X1048746Y2183586D01*
X1048852Y2183568D01*
X1048956Y2183547D01*
X1049060Y2183522D01*
X1049163Y2183493D01*
X1049264Y2183461D01*
X1049364Y2183424D01*
X1049463Y2183384D01*
X1049561Y2183341D01*
X1049657Y2183294D01*
X1049751Y2183243D01*
X1049843Y2183189D01*
X1049933Y2183132D01*
X1050021Y2183072D01*
X1050106Y2183008D01*
X1050189Y2182941D01*
X1050270Y2182871D01*
X1050348Y2182799D01*
X1050424Y2182723D01*
X1050496Y2182645D01*
X1050566Y2182564D01*
X1050633Y2182481D01*
X1050697Y2182396D01*
X1050757Y2182308D01*
X1050814Y2182218D01*
X1050868Y2182126D01*
X1050919Y2182032D01*
X1050966Y2181936D01*
X1051009Y2181838D01*
X1051049Y2181739D01*
X1051086Y2181639D01*
X1051118Y2181538D01*
X1051147Y2181435D01*
X1051172Y2181331D01*
X1051193Y2181227D01*
X1051211Y2181121D01*
X1051224Y2181015D01*
X1051234Y2180909D01*
X1051240Y2180803D01*
X1051242Y2180696D01*
X1048321Y2183617D02*
X1048200Y2183615D01*
X1048079Y2183609D01*
X1047959Y2183599D01*
X1047838Y2183586D01*
X1047719Y2183568D01*
X1047599Y2183547D01*
X1047481Y2183522D01*
X1047364Y2183493D01*
X1047247Y2183460D01*
X1047132Y2183424D01*
X1047018Y2183383D01*
X1046905Y2183340D01*
X1046793Y2183292D01*
X1046684Y2183241D01*
X1046576Y2183186D01*
X1046469Y2183128D01*
X1046365Y2183067D01*
X1046263Y2183002D01*
X1046163Y2182934D01*
X1046065Y2182863D01*
X1045969Y2182789D01*
X1045876Y2182712D01*
X1045786Y2182631D01*
X1045698Y2182548D01*
X1045613Y2182462D01*
X1045530Y2182373D01*
X1045451Y2182282D01*
X1045374Y2182188D01*
X1045301Y2182092D01*
X1045231Y2181994D01*
X1045164Y2181893D01*
X1045100Y2181790D01*
X1045040Y2181685D01*
X1044983Y2181578D01*
X1044929Y2181470D01*
X1044879Y2181360D01*
X1044833Y2181248D01*
X1044790Y2181135D01*
X1044751Y2181020D01*
X1050269Y2178424D02*
X1050348Y2178501D01*
X1050424Y2178582D01*
X1050497Y2178665D01*
X1050567Y2178750D01*
X1050634Y2178838D01*
X1050698Y2178928D01*
X1050758Y2179020D01*
X1050815Y2179115D01*
X1050869Y2179211D01*
X1050920Y2179309D01*
X1050967Y2179409D01*
X1051011Y2179511D01*
X1051051Y2179614D01*
X1051087Y2179718D01*
X1051119Y2179824D01*
X1051148Y2179930D01*
X1051173Y2180038D01*
X1051195Y2180146D01*
X1051212Y2180256D01*
X1051226Y2180365D01*
X1051235Y2180475D01*
X1051241Y2180586D01*
X1051243Y2180696D01*
X1050268Y2178424D02*
X1044751Y2171933D01*
X1051242Y2171933D01*
D10*
X1047700Y2135200D02*
X1057000Y2135200D01*
X1057000Y2127200D01*
X1043000Y2122300D02*
X1043000Y2117700D01*
X1047700Y2104800D02*
X1057000Y2104800D01*
X1057000Y2112800D01*
D14*
X1029000Y2130000D02*
X1029002Y2130063D01*
X1029008Y2130125D01*
X1029018Y2130187D01*
X1029031Y2130249D01*
X1029049Y2130309D01*
X1029070Y2130368D01*
X1029095Y2130426D01*
X1029124Y2130482D01*
X1029156Y2130536D01*
X1029191Y2130588D01*
X1029229Y2130637D01*
X1029271Y2130685D01*
X1029315Y2130729D01*
X1029363Y2130771D01*
X1029412Y2130809D01*
X1029464Y2130844D01*
X1029518Y2130876D01*
X1029574Y2130905D01*
X1029632Y2130930D01*
X1029691Y2130951D01*
X1029751Y2130969D01*
X1029813Y2130982D01*
X1029875Y2130992D01*
X1029937Y2130998D01*
X1030000Y2131000D01*
X1030063Y2130998D01*
X1030125Y2130992D01*
X1030187Y2130982D01*
X1030249Y2130969D01*
X1030309Y2130951D01*
X1030368Y2130930D01*
X1030426Y2130905D01*
X1030482Y2130876D01*
X1030536Y2130844D01*
X1030588Y2130809D01*
X1030637Y2130771D01*
X1030685Y2130729D01*
X1030729Y2130685D01*
X1030771Y2130637D01*
X1030809Y2130588D01*
X1030844Y2130536D01*
X1030876Y2130482D01*
X1030905Y2130426D01*
X1030930Y2130368D01*
X1030951Y2130309D01*
X1030969Y2130249D01*
X1030982Y2130187D01*
X1030992Y2130125D01*
X1030998Y2130063D01*
X1031000Y2130000D01*
X1030998Y2129937D01*
X1030992Y2129875D01*
X1030982Y2129813D01*
X1030969Y2129751D01*
X1030951Y2129691D01*
X1030930Y2129632D01*
X1030905Y2129574D01*
X1030876Y2129518D01*
X1030844Y2129464D01*
X1030809Y2129412D01*
X1030771Y2129363D01*
X1030729Y2129315D01*
X1030685Y2129271D01*
X1030637Y2129229D01*
X1030588Y2129191D01*
X1030536Y2129156D01*
X1030482Y2129124D01*
X1030426Y2129095D01*
X1030368Y2129070D01*
X1030309Y2129049D01*
X1030249Y2129031D01*
X1030187Y2129018D01*
X1030125Y2129008D01*
X1030063Y2129002D01*
X1030000Y2129000D01*
X1029937Y2129002D01*
X1029875Y2129008D01*
X1029813Y2129018D01*
X1029751Y2129031D01*
X1029691Y2129049D01*
X1029632Y2129070D01*
X1029574Y2129095D01*
X1029518Y2129124D01*
X1029464Y2129156D01*
X1029412Y2129191D01*
X1029363Y2129229D01*
X1029315Y2129271D01*
X1029271Y2129315D01*
X1029229Y2129363D01*
X1029191Y2129412D01*
X1029156Y2129464D01*
X1029124Y2129518D01*
X1029095Y2129574D01*
X1029070Y2129632D01*
X1029049Y2129691D01*
X1029031Y2129751D01*
X1029018Y2129813D01*
X1029008Y2129875D01*
X1029002Y2129937D01*
X1029000Y2130000D01*
D13*
X1072054Y2106008D02*
X1077246Y2106008D01*
X1072054Y2106008D02*
X1071941Y2106010D01*
X1071828Y2106016D01*
X1071715Y2106026D01*
X1071602Y2106040D01*
X1071490Y2106057D01*
X1071379Y2106079D01*
X1071269Y2106104D01*
X1071159Y2106134D01*
X1071051Y2106167D01*
X1070944Y2106204D01*
X1070838Y2106244D01*
X1070734Y2106289D01*
X1070631Y2106337D01*
X1070530Y2106388D01*
X1070431Y2106443D01*
X1070334Y2106501D01*
X1070239Y2106563D01*
X1070146Y2106628D01*
X1070056Y2106696D01*
X1069968Y2106767D01*
X1069882Y2106842D01*
X1069799Y2106919D01*
X1069719Y2106999D01*
X1069642Y2107082D01*
X1069567Y2107168D01*
X1069496Y2107256D01*
X1069428Y2107346D01*
X1069363Y2107439D01*
X1069301Y2107534D01*
X1069243Y2107631D01*
X1069188Y2107730D01*
X1069137Y2107831D01*
X1069089Y2107934D01*
X1069044Y2108038D01*
X1069004Y2108144D01*
X1068967Y2108251D01*
X1068934Y2108359D01*
X1068904Y2108469D01*
X1068879Y2108579D01*
X1068857Y2108690D01*
X1068840Y2108802D01*
X1068826Y2108915D01*
X1068816Y2109028D01*
X1068810Y2109141D01*
X1068808Y2109254D01*
X1068810Y2109367D01*
X1068816Y2109480D01*
X1068826Y2109593D01*
X1068840Y2109706D01*
X1068857Y2109818D01*
X1068879Y2109929D01*
X1068904Y2110039D01*
X1068934Y2110149D01*
X1068967Y2110257D01*
X1069004Y2110364D01*
X1069044Y2110470D01*
X1069089Y2110574D01*
X1069137Y2110677D01*
X1069188Y2110778D01*
X1069243Y2110877D01*
X1069301Y2110974D01*
X1069363Y2111069D01*
X1069428Y2111162D01*
X1069496Y2111252D01*
X1069567Y2111340D01*
X1069642Y2111426D01*
X1069719Y2111509D01*
X1069799Y2111589D01*
X1069882Y2111666D01*
X1069968Y2111741D01*
X1070056Y2111812D01*
X1070146Y2111880D01*
X1070239Y2111945D01*
X1070334Y2112007D01*
X1070431Y2112065D01*
X1070530Y2112120D01*
X1070631Y2112171D01*
X1070734Y2112219D01*
X1070838Y2112264D01*
X1070944Y2112304D01*
X1071051Y2112341D01*
X1071159Y2112374D01*
X1071269Y2112404D01*
X1071379Y2112429D01*
X1071490Y2112451D01*
X1071602Y2112468D01*
X1071715Y2112482D01*
X1071828Y2112492D01*
X1071941Y2112498D01*
X1072054Y2112500D01*
X1072054Y2112499D02*
X1077246Y2112499D01*
X1077246Y2112500D02*
X1077359Y2112498D01*
X1077472Y2112492D01*
X1077585Y2112482D01*
X1077698Y2112468D01*
X1077810Y2112451D01*
X1077921Y2112429D01*
X1078031Y2112404D01*
X1078141Y2112374D01*
X1078249Y2112341D01*
X1078356Y2112304D01*
X1078462Y2112264D01*
X1078566Y2112219D01*
X1078669Y2112171D01*
X1078770Y2112120D01*
X1078869Y2112065D01*
X1078966Y2112007D01*
X1079061Y2111945D01*
X1079154Y2111880D01*
X1079244Y2111812D01*
X1079332Y2111741D01*
X1079418Y2111666D01*
X1079501Y2111589D01*
X1079581Y2111509D01*
X1079658Y2111426D01*
X1079733Y2111340D01*
X1079804Y2111252D01*
X1079872Y2111162D01*
X1079937Y2111069D01*
X1079999Y2110974D01*
X1080057Y2110877D01*
X1080112Y2110778D01*
X1080163Y2110677D01*
X1080211Y2110574D01*
X1080256Y2110470D01*
X1080296Y2110364D01*
X1080333Y2110257D01*
X1080366Y2110149D01*
X1080396Y2110039D01*
X1080421Y2109929D01*
X1080443Y2109818D01*
X1080460Y2109706D01*
X1080474Y2109593D01*
X1080484Y2109480D01*
X1080490Y2109367D01*
X1080492Y2109254D01*
X1080490Y2109141D01*
X1080484Y2109028D01*
X1080474Y2108915D01*
X1080460Y2108802D01*
X1080443Y2108690D01*
X1080421Y2108579D01*
X1080396Y2108469D01*
X1080366Y2108359D01*
X1080333Y2108251D01*
X1080296Y2108144D01*
X1080256Y2108038D01*
X1080211Y2107934D01*
X1080163Y2107831D01*
X1080112Y2107730D01*
X1080057Y2107631D01*
X1079999Y2107534D01*
X1079937Y2107439D01*
X1079872Y2107346D01*
X1079804Y2107256D01*
X1079733Y2107168D01*
X1079658Y2107082D01*
X1079581Y2106999D01*
X1079501Y2106919D01*
X1079418Y2106842D01*
X1079332Y2106767D01*
X1079244Y2106696D01*
X1079154Y2106628D01*
X1079061Y2106563D01*
X1078966Y2106501D01*
X1078869Y2106443D01*
X1078770Y2106388D01*
X1078669Y2106337D01*
X1078566Y2106289D01*
X1078462Y2106244D01*
X1078356Y2106204D01*
X1078249Y2106167D01*
X1078141Y2106134D01*
X1078031Y2106104D01*
X1077921Y2106079D01*
X1077810Y2106057D01*
X1077698Y2106040D01*
X1077585Y2106026D01*
X1077472Y2106016D01*
X1077359Y2106010D01*
X1077246Y2106008D01*
X1077896Y2111201D02*
X1080492Y2113797D01*
X1071404Y2117152D02*
X1068808Y2120397D01*
X1080492Y2120397D01*
X1080492Y2117152D02*
X1080492Y2123643D01*
D12*
X835381Y1964779D02*
X835381Y1955381D01*
X835381Y1964779D02*
X837992Y1964779D01*
X838093Y1964777D01*
X838194Y1964771D01*
X838295Y1964761D01*
X838395Y1964748D01*
X838495Y1964730D01*
X838594Y1964709D01*
X838692Y1964683D01*
X838789Y1964654D01*
X838885Y1964622D01*
X838979Y1964585D01*
X839072Y1964545D01*
X839164Y1964501D01*
X839253Y1964454D01*
X839341Y1964403D01*
X839427Y1964349D01*
X839510Y1964292D01*
X839592Y1964232D01*
X839670Y1964168D01*
X839747Y1964102D01*
X839820Y1964032D01*
X839891Y1963960D01*
X839959Y1963885D01*
X840024Y1963807D01*
X840086Y1963727D01*
X840145Y1963645D01*
X840201Y1963560D01*
X840253Y1963474D01*
X840302Y1963385D01*
X840348Y1963294D01*
X840389Y1963202D01*
X840428Y1963108D01*
X840462Y1963013D01*
X840493Y1962917D01*
X840520Y1962819D01*
X840544Y1962721D01*
X840563Y1962621D01*
X840579Y1962521D01*
X840591Y1962421D01*
X840599Y1962320D01*
X840603Y1962219D01*
X840603Y1962117D01*
X840599Y1962016D01*
X840591Y1961915D01*
X840579Y1961815D01*
X840563Y1961715D01*
X840544Y1961615D01*
X840520Y1961517D01*
X840493Y1961419D01*
X840462Y1961323D01*
X840428Y1961228D01*
X840389Y1961134D01*
X840348Y1961042D01*
X840302Y1960951D01*
X840253Y1960863D01*
X840201Y1960776D01*
X840145Y1960691D01*
X840086Y1960609D01*
X840024Y1960529D01*
X839959Y1960451D01*
X839891Y1960376D01*
X839820Y1960304D01*
X839747Y1960234D01*
X839670Y1960168D01*
X839592Y1960104D01*
X839510Y1960044D01*
X839427Y1959987D01*
X839341Y1959933D01*
X839253Y1959882D01*
X839164Y1959835D01*
X839072Y1959791D01*
X838979Y1959751D01*
X838885Y1959714D01*
X838789Y1959682D01*
X838692Y1959653D01*
X838594Y1959627D01*
X838495Y1959606D01*
X838395Y1959588D01*
X838295Y1959575D01*
X838194Y1959565D01*
X838093Y1959559D01*
X837992Y1959557D01*
X837992Y1959558D02*
X835381Y1959558D01*
X838514Y1959558D02*
X840602Y1955381D01*
X844468Y1962691D02*
X847078Y1964779D01*
X847078Y1955381D01*
X844468Y1955381D02*
X849689Y1955381D01*
X1000381Y1839779D02*
X1000381Y1830381D01*
X1000381Y1839779D02*
X1002992Y1839779D01*
X1003093Y1839777D01*
X1003194Y1839771D01*
X1003295Y1839761D01*
X1003395Y1839748D01*
X1003495Y1839730D01*
X1003594Y1839709D01*
X1003692Y1839683D01*
X1003789Y1839654D01*
X1003885Y1839622D01*
X1003979Y1839585D01*
X1004072Y1839545D01*
X1004164Y1839501D01*
X1004253Y1839454D01*
X1004341Y1839403D01*
X1004427Y1839349D01*
X1004510Y1839292D01*
X1004592Y1839232D01*
X1004670Y1839168D01*
X1004747Y1839102D01*
X1004820Y1839032D01*
X1004891Y1838960D01*
X1004959Y1838885D01*
X1005024Y1838807D01*
X1005086Y1838727D01*
X1005145Y1838645D01*
X1005201Y1838560D01*
X1005253Y1838474D01*
X1005302Y1838385D01*
X1005348Y1838294D01*
X1005389Y1838202D01*
X1005428Y1838108D01*
X1005462Y1838013D01*
X1005493Y1837917D01*
X1005520Y1837819D01*
X1005544Y1837721D01*
X1005563Y1837621D01*
X1005579Y1837521D01*
X1005591Y1837421D01*
X1005599Y1837320D01*
X1005603Y1837219D01*
X1005603Y1837117D01*
X1005599Y1837016D01*
X1005591Y1836915D01*
X1005579Y1836815D01*
X1005563Y1836715D01*
X1005544Y1836615D01*
X1005520Y1836517D01*
X1005493Y1836419D01*
X1005462Y1836323D01*
X1005428Y1836228D01*
X1005389Y1836134D01*
X1005348Y1836042D01*
X1005302Y1835951D01*
X1005253Y1835863D01*
X1005201Y1835776D01*
X1005145Y1835691D01*
X1005086Y1835609D01*
X1005024Y1835529D01*
X1004959Y1835451D01*
X1004891Y1835376D01*
X1004820Y1835304D01*
X1004747Y1835234D01*
X1004670Y1835168D01*
X1004592Y1835104D01*
X1004510Y1835044D01*
X1004427Y1834987D01*
X1004341Y1834933D01*
X1004253Y1834882D01*
X1004164Y1834835D01*
X1004072Y1834791D01*
X1003979Y1834751D01*
X1003885Y1834714D01*
X1003789Y1834682D01*
X1003692Y1834653D01*
X1003594Y1834627D01*
X1003495Y1834606D01*
X1003395Y1834588D01*
X1003295Y1834575D01*
X1003194Y1834565D01*
X1003093Y1834559D01*
X1002992Y1834557D01*
X1002992Y1834558D02*
X1000381Y1834558D01*
X1003514Y1834558D02*
X1005602Y1830381D01*
X1014690Y1837430D02*
X1014688Y1837525D01*
X1014682Y1837619D01*
X1014673Y1837713D01*
X1014660Y1837807D01*
X1014643Y1837900D01*
X1014622Y1837992D01*
X1014597Y1838084D01*
X1014569Y1838174D01*
X1014537Y1838263D01*
X1014502Y1838351D01*
X1014463Y1838437D01*
X1014421Y1838522D01*
X1014375Y1838605D01*
X1014326Y1838686D01*
X1014274Y1838765D01*
X1014219Y1838842D01*
X1014160Y1838916D01*
X1014099Y1838988D01*
X1014035Y1839058D01*
X1013968Y1839125D01*
X1013898Y1839189D01*
X1013826Y1839250D01*
X1013752Y1839309D01*
X1013675Y1839364D01*
X1013596Y1839416D01*
X1013515Y1839465D01*
X1013432Y1839511D01*
X1013347Y1839553D01*
X1013261Y1839592D01*
X1013173Y1839627D01*
X1013084Y1839659D01*
X1012994Y1839687D01*
X1012902Y1839712D01*
X1012810Y1839733D01*
X1012717Y1839750D01*
X1012623Y1839763D01*
X1012529Y1839772D01*
X1012435Y1839778D01*
X1012340Y1839780D01*
X1012340Y1839779D02*
X1012232Y1839777D01*
X1012123Y1839771D01*
X1012015Y1839761D01*
X1011908Y1839748D01*
X1011801Y1839730D01*
X1011694Y1839709D01*
X1011589Y1839684D01*
X1011484Y1839655D01*
X1011381Y1839623D01*
X1011279Y1839586D01*
X1011178Y1839546D01*
X1011079Y1839503D01*
X1010981Y1839456D01*
X1010885Y1839405D01*
X1010791Y1839351D01*
X1010699Y1839294D01*
X1010609Y1839233D01*
X1010521Y1839169D01*
X1010436Y1839103D01*
X1010353Y1839033D01*
X1010273Y1838960D01*
X1010195Y1838884D01*
X1010120Y1838806D01*
X1010048Y1838725D01*
X1009979Y1838641D01*
X1009913Y1838555D01*
X1009850Y1838467D01*
X1009791Y1838376D01*
X1009734Y1838284D01*
X1009681Y1838189D01*
X1009632Y1838093D01*
X1009586Y1837994D01*
X1009543Y1837895D01*
X1009504Y1837793D01*
X1009469Y1837691D01*
X1013906Y1835602D02*
X1013975Y1835671D01*
X1014041Y1835742D01*
X1014105Y1835815D01*
X1014166Y1835891D01*
X1014224Y1835970D01*
X1014278Y1836050D01*
X1014330Y1836133D01*
X1014378Y1836217D01*
X1014424Y1836303D01*
X1014465Y1836391D01*
X1014504Y1836481D01*
X1014539Y1836572D01*
X1014570Y1836664D01*
X1014598Y1836757D01*
X1014622Y1836851D01*
X1014642Y1836946D01*
X1014659Y1837042D01*
X1014672Y1837139D01*
X1014681Y1837236D01*
X1014687Y1837333D01*
X1014689Y1837430D01*
X1013906Y1835602D02*
X1009468Y1830381D01*
X1014689Y1830381D01*
X975381Y1880381D02*
X975381Y1889779D01*
X977992Y1889779D01*
X978093Y1889777D01*
X978194Y1889771D01*
X978295Y1889761D01*
X978395Y1889748D01*
X978495Y1889730D01*
X978594Y1889709D01*
X978692Y1889683D01*
X978789Y1889654D01*
X978885Y1889622D01*
X978979Y1889585D01*
X979072Y1889545D01*
X979164Y1889501D01*
X979253Y1889454D01*
X979341Y1889403D01*
X979427Y1889349D01*
X979510Y1889292D01*
X979592Y1889232D01*
X979670Y1889168D01*
X979747Y1889102D01*
X979820Y1889032D01*
X979891Y1888960D01*
X979959Y1888885D01*
X980024Y1888807D01*
X980086Y1888727D01*
X980145Y1888645D01*
X980201Y1888560D01*
X980253Y1888474D01*
X980302Y1888385D01*
X980348Y1888294D01*
X980389Y1888202D01*
X980428Y1888108D01*
X980462Y1888013D01*
X980493Y1887917D01*
X980520Y1887819D01*
X980544Y1887721D01*
X980563Y1887621D01*
X980579Y1887521D01*
X980591Y1887421D01*
X980599Y1887320D01*
X980603Y1887219D01*
X980603Y1887117D01*
X980599Y1887016D01*
X980591Y1886915D01*
X980579Y1886815D01*
X980563Y1886715D01*
X980544Y1886615D01*
X980520Y1886517D01*
X980493Y1886419D01*
X980462Y1886323D01*
X980428Y1886228D01*
X980389Y1886134D01*
X980348Y1886042D01*
X980302Y1885951D01*
X980253Y1885863D01*
X980201Y1885776D01*
X980145Y1885691D01*
X980086Y1885609D01*
X980024Y1885529D01*
X979959Y1885451D01*
X979891Y1885376D01*
X979820Y1885304D01*
X979747Y1885234D01*
X979670Y1885168D01*
X979592Y1885104D01*
X979510Y1885044D01*
X979427Y1884987D01*
X979341Y1884933D01*
X979253Y1884882D01*
X979164Y1884835D01*
X979072Y1884791D01*
X978979Y1884751D01*
X978885Y1884714D01*
X978789Y1884682D01*
X978692Y1884653D01*
X978594Y1884627D01*
X978495Y1884606D01*
X978395Y1884588D01*
X978295Y1884575D01*
X978194Y1884565D01*
X978093Y1884559D01*
X977992Y1884557D01*
X977992Y1884558D02*
X975381Y1884558D01*
X978514Y1884558D02*
X980602Y1880381D01*
X984468Y1880381D02*
X987078Y1880381D01*
X987179Y1880383D01*
X987280Y1880389D01*
X987381Y1880399D01*
X987481Y1880412D01*
X987581Y1880430D01*
X987680Y1880451D01*
X987778Y1880477D01*
X987875Y1880506D01*
X987971Y1880538D01*
X988065Y1880575D01*
X988158Y1880615D01*
X988250Y1880659D01*
X988339Y1880706D01*
X988427Y1880757D01*
X988513Y1880811D01*
X988596Y1880868D01*
X988678Y1880928D01*
X988756Y1880992D01*
X988833Y1881058D01*
X988906Y1881128D01*
X988977Y1881200D01*
X989045Y1881275D01*
X989110Y1881353D01*
X989172Y1881433D01*
X989231Y1881515D01*
X989287Y1881600D01*
X989339Y1881687D01*
X989388Y1881775D01*
X989434Y1881866D01*
X989475Y1881958D01*
X989514Y1882052D01*
X989548Y1882147D01*
X989579Y1882243D01*
X989606Y1882341D01*
X989630Y1882439D01*
X989649Y1882539D01*
X989665Y1882639D01*
X989677Y1882739D01*
X989685Y1882840D01*
X989689Y1882941D01*
X989689Y1883043D01*
X989685Y1883144D01*
X989677Y1883245D01*
X989665Y1883345D01*
X989649Y1883445D01*
X989630Y1883545D01*
X989606Y1883643D01*
X989579Y1883741D01*
X989548Y1883837D01*
X989514Y1883932D01*
X989475Y1884026D01*
X989434Y1884118D01*
X989388Y1884209D01*
X989339Y1884298D01*
X989287Y1884384D01*
X989231Y1884469D01*
X989172Y1884551D01*
X989110Y1884631D01*
X989045Y1884709D01*
X988977Y1884784D01*
X988906Y1884856D01*
X988833Y1884926D01*
X988756Y1884992D01*
X988678Y1885056D01*
X988596Y1885116D01*
X988513Y1885173D01*
X988427Y1885227D01*
X988339Y1885278D01*
X988250Y1885325D01*
X988158Y1885369D01*
X988065Y1885409D01*
X987971Y1885446D01*
X987875Y1885478D01*
X987778Y1885507D01*
X987680Y1885533D01*
X987581Y1885554D01*
X987481Y1885572D01*
X987381Y1885585D01*
X987280Y1885595D01*
X987179Y1885601D01*
X987078Y1885603D01*
X987601Y1889779D02*
X984468Y1889779D01*
X987601Y1889779D02*
X987691Y1889777D01*
X987780Y1889771D01*
X987870Y1889762D01*
X987959Y1889748D01*
X988047Y1889731D01*
X988134Y1889710D01*
X988221Y1889685D01*
X988306Y1889656D01*
X988390Y1889624D01*
X988472Y1889589D01*
X988553Y1889549D01*
X988632Y1889507D01*
X988709Y1889461D01*
X988784Y1889411D01*
X988857Y1889359D01*
X988928Y1889303D01*
X988996Y1889245D01*
X989061Y1889183D01*
X989124Y1889119D01*
X989184Y1889052D01*
X989241Y1888983D01*
X989295Y1888911D01*
X989346Y1888837D01*
X989394Y1888761D01*
X989438Y1888683D01*
X989479Y1888603D01*
X989517Y1888521D01*
X989551Y1888438D01*
X989581Y1888353D01*
X989608Y1888267D01*
X989631Y1888181D01*
X989650Y1888093D01*
X989665Y1888004D01*
X989677Y1887915D01*
X989685Y1887826D01*
X989689Y1887736D01*
X989689Y1887646D01*
X989685Y1887556D01*
X989677Y1887467D01*
X989665Y1887378D01*
X989650Y1887289D01*
X989631Y1887201D01*
X989608Y1887115D01*
X989581Y1887029D01*
X989551Y1886944D01*
X989517Y1886861D01*
X989479Y1886779D01*
X989438Y1886699D01*
X989394Y1886621D01*
X989346Y1886545D01*
X989295Y1886471D01*
X989241Y1886399D01*
X989184Y1886330D01*
X989124Y1886263D01*
X989061Y1886199D01*
X988996Y1886137D01*
X988928Y1886079D01*
X988857Y1886023D01*
X988784Y1885971D01*
X988709Y1885921D01*
X988632Y1885875D01*
X988553Y1885833D01*
X988472Y1885793D01*
X988390Y1885758D01*
X988306Y1885726D01*
X988221Y1885697D01*
X988134Y1885672D01*
X988047Y1885651D01*
X987959Y1885634D01*
X987870Y1885620D01*
X987780Y1885611D01*
X987691Y1885605D01*
X987601Y1885603D01*
X987601Y1885602D02*
X985512Y1885602D01*
X1000381Y2090381D02*
X1000381Y2099779D01*
X1002992Y2099779D01*
X1003093Y2099777D01*
X1003194Y2099771D01*
X1003295Y2099761D01*
X1003395Y2099748D01*
X1003495Y2099730D01*
X1003594Y2099709D01*
X1003692Y2099683D01*
X1003789Y2099654D01*
X1003885Y2099622D01*
X1003979Y2099585D01*
X1004072Y2099545D01*
X1004164Y2099501D01*
X1004253Y2099454D01*
X1004341Y2099403D01*
X1004427Y2099349D01*
X1004510Y2099292D01*
X1004592Y2099232D01*
X1004670Y2099168D01*
X1004747Y2099102D01*
X1004820Y2099032D01*
X1004891Y2098960D01*
X1004959Y2098885D01*
X1005024Y2098807D01*
X1005086Y2098727D01*
X1005145Y2098645D01*
X1005201Y2098560D01*
X1005253Y2098474D01*
X1005302Y2098385D01*
X1005348Y2098294D01*
X1005389Y2098202D01*
X1005428Y2098108D01*
X1005462Y2098013D01*
X1005493Y2097917D01*
X1005520Y2097819D01*
X1005544Y2097721D01*
X1005563Y2097621D01*
X1005579Y2097521D01*
X1005591Y2097421D01*
X1005599Y2097320D01*
X1005603Y2097219D01*
X1005603Y2097117D01*
X1005599Y2097016D01*
X1005591Y2096915D01*
X1005579Y2096815D01*
X1005563Y2096715D01*
X1005544Y2096615D01*
X1005520Y2096517D01*
X1005493Y2096419D01*
X1005462Y2096323D01*
X1005428Y2096228D01*
X1005389Y2096134D01*
X1005348Y2096042D01*
X1005302Y2095951D01*
X1005253Y2095863D01*
X1005201Y2095776D01*
X1005145Y2095691D01*
X1005086Y2095609D01*
X1005024Y2095529D01*
X1004959Y2095451D01*
X1004891Y2095376D01*
X1004820Y2095304D01*
X1004747Y2095234D01*
X1004670Y2095168D01*
X1004592Y2095104D01*
X1004510Y2095044D01*
X1004427Y2094987D01*
X1004341Y2094933D01*
X1004253Y2094882D01*
X1004164Y2094835D01*
X1004072Y2094791D01*
X1003979Y2094751D01*
X1003885Y2094714D01*
X1003789Y2094682D01*
X1003692Y2094653D01*
X1003594Y2094627D01*
X1003495Y2094606D01*
X1003395Y2094588D01*
X1003295Y2094575D01*
X1003194Y2094565D01*
X1003093Y2094559D01*
X1002992Y2094557D01*
X1002992Y2094558D02*
X1000381Y2094558D01*
X1003514Y2094558D02*
X1005602Y2090381D01*
X1009468Y2092469D02*
X1011556Y2099779D01*
X1009468Y2092469D02*
X1014689Y2092469D01*
X1013123Y2094558D02*
X1013123Y2090381D01*
X964031Y1947479D02*
X964031Y1938081D01*
X964031Y1947479D02*
X966642Y1947479D01*
X966743Y1947477D01*
X966844Y1947471D01*
X966945Y1947461D01*
X967045Y1947448D01*
X967145Y1947430D01*
X967244Y1947409D01*
X967342Y1947383D01*
X967439Y1947354D01*
X967535Y1947322D01*
X967629Y1947285D01*
X967722Y1947245D01*
X967814Y1947201D01*
X967903Y1947154D01*
X967991Y1947103D01*
X968077Y1947049D01*
X968160Y1946992D01*
X968242Y1946932D01*
X968320Y1946868D01*
X968397Y1946802D01*
X968470Y1946732D01*
X968541Y1946660D01*
X968609Y1946585D01*
X968674Y1946507D01*
X968736Y1946427D01*
X968795Y1946345D01*
X968851Y1946260D01*
X968903Y1946174D01*
X968952Y1946085D01*
X968998Y1945994D01*
X969039Y1945902D01*
X969078Y1945808D01*
X969112Y1945713D01*
X969143Y1945617D01*
X969170Y1945519D01*
X969194Y1945421D01*
X969213Y1945321D01*
X969229Y1945221D01*
X969241Y1945121D01*
X969249Y1945020D01*
X969253Y1944919D01*
X969253Y1944817D01*
X969249Y1944716D01*
X969241Y1944615D01*
X969229Y1944515D01*
X969213Y1944415D01*
X969194Y1944315D01*
X969170Y1944217D01*
X969143Y1944119D01*
X969112Y1944023D01*
X969078Y1943928D01*
X969039Y1943834D01*
X968998Y1943742D01*
X968952Y1943651D01*
X968903Y1943563D01*
X968851Y1943476D01*
X968795Y1943391D01*
X968736Y1943309D01*
X968674Y1943229D01*
X968609Y1943151D01*
X968541Y1943076D01*
X968470Y1943004D01*
X968397Y1942934D01*
X968320Y1942868D01*
X968242Y1942804D01*
X968160Y1942744D01*
X968077Y1942687D01*
X967991Y1942633D01*
X967903Y1942582D01*
X967814Y1942535D01*
X967722Y1942491D01*
X967629Y1942451D01*
X967535Y1942414D01*
X967439Y1942382D01*
X967342Y1942353D01*
X967244Y1942327D01*
X967145Y1942306D01*
X967045Y1942288D01*
X966945Y1942275D01*
X966844Y1942265D01*
X966743Y1942259D01*
X966642Y1942257D01*
X966642Y1942258D02*
X964031Y1942258D01*
X967164Y1942258D02*
X969252Y1938081D01*
X973118Y1938081D02*
X976251Y1938081D01*
X976340Y1938083D01*
X976428Y1938089D01*
X976516Y1938098D01*
X976604Y1938111D01*
X976691Y1938128D01*
X976777Y1938148D01*
X976862Y1938173D01*
X976947Y1938200D01*
X977030Y1938232D01*
X977111Y1938266D01*
X977191Y1938305D01*
X977269Y1938346D01*
X977346Y1938391D01*
X977420Y1938439D01*
X977493Y1938490D01*
X977563Y1938544D01*
X977630Y1938602D01*
X977696Y1938662D01*
X977758Y1938724D01*
X977818Y1938790D01*
X977876Y1938857D01*
X977930Y1938927D01*
X977981Y1939000D01*
X978029Y1939074D01*
X978074Y1939151D01*
X978115Y1939229D01*
X978154Y1939309D01*
X978188Y1939390D01*
X978220Y1939473D01*
X978247Y1939558D01*
X978272Y1939643D01*
X978292Y1939729D01*
X978309Y1939816D01*
X978322Y1939904D01*
X978331Y1939992D01*
X978337Y1940080D01*
X978339Y1940169D01*
X978339Y1941214D01*
X978337Y1941303D01*
X978331Y1941391D01*
X978322Y1941479D01*
X978309Y1941567D01*
X978292Y1941654D01*
X978272Y1941740D01*
X978247Y1941825D01*
X978220Y1941910D01*
X978188Y1941993D01*
X978154Y1942074D01*
X978115Y1942154D01*
X978074Y1942232D01*
X978029Y1942309D01*
X977981Y1942383D01*
X977930Y1942456D01*
X977876Y1942526D01*
X977818Y1942593D01*
X977758Y1942659D01*
X977696Y1942721D01*
X977630Y1942781D01*
X977563Y1942839D01*
X977493Y1942893D01*
X977420Y1942944D01*
X977346Y1942992D01*
X977269Y1943037D01*
X977191Y1943078D01*
X977111Y1943117D01*
X977030Y1943151D01*
X976947Y1943183D01*
X976862Y1943210D01*
X976777Y1943235D01*
X976691Y1943255D01*
X976604Y1943272D01*
X976516Y1943285D01*
X976428Y1943294D01*
X976340Y1943300D01*
X976251Y1943302D01*
X973118Y1943302D01*
X973118Y1947479D01*
X978339Y1947479D01*
X1095381Y1960381D02*
X1095381Y1969779D01*
X1097992Y1969779D01*
X1098093Y1969777D01*
X1098194Y1969771D01*
X1098295Y1969761D01*
X1098395Y1969748D01*
X1098495Y1969730D01*
X1098594Y1969709D01*
X1098692Y1969683D01*
X1098789Y1969654D01*
X1098885Y1969622D01*
X1098979Y1969585D01*
X1099072Y1969545D01*
X1099164Y1969501D01*
X1099253Y1969454D01*
X1099341Y1969403D01*
X1099427Y1969349D01*
X1099510Y1969292D01*
X1099592Y1969232D01*
X1099670Y1969168D01*
X1099747Y1969102D01*
X1099820Y1969032D01*
X1099891Y1968960D01*
X1099959Y1968885D01*
X1100024Y1968807D01*
X1100086Y1968727D01*
X1100145Y1968645D01*
X1100201Y1968560D01*
X1100253Y1968474D01*
X1100302Y1968385D01*
X1100348Y1968294D01*
X1100389Y1968202D01*
X1100428Y1968108D01*
X1100462Y1968013D01*
X1100493Y1967917D01*
X1100520Y1967819D01*
X1100544Y1967721D01*
X1100563Y1967621D01*
X1100579Y1967521D01*
X1100591Y1967421D01*
X1100599Y1967320D01*
X1100603Y1967219D01*
X1100603Y1967117D01*
X1100599Y1967016D01*
X1100591Y1966915D01*
X1100579Y1966815D01*
X1100563Y1966715D01*
X1100544Y1966615D01*
X1100520Y1966517D01*
X1100493Y1966419D01*
X1100462Y1966323D01*
X1100428Y1966228D01*
X1100389Y1966134D01*
X1100348Y1966042D01*
X1100302Y1965951D01*
X1100253Y1965863D01*
X1100201Y1965776D01*
X1100145Y1965691D01*
X1100086Y1965609D01*
X1100024Y1965529D01*
X1099959Y1965451D01*
X1099891Y1965376D01*
X1099820Y1965304D01*
X1099747Y1965234D01*
X1099670Y1965168D01*
X1099592Y1965104D01*
X1099510Y1965044D01*
X1099427Y1964987D01*
X1099341Y1964933D01*
X1099253Y1964882D01*
X1099164Y1964835D01*
X1099072Y1964791D01*
X1098979Y1964751D01*
X1098885Y1964714D01*
X1098789Y1964682D01*
X1098692Y1964653D01*
X1098594Y1964627D01*
X1098495Y1964606D01*
X1098395Y1964588D01*
X1098295Y1964575D01*
X1098194Y1964565D01*
X1098093Y1964559D01*
X1097992Y1964557D01*
X1097992Y1964558D02*
X1095381Y1964558D01*
X1098514Y1964558D02*
X1100602Y1960381D01*
X1104468Y1965602D02*
X1107601Y1965602D01*
X1107690Y1965600D01*
X1107778Y1965594D01*
X1107866Y1965585D01*
X1107954Y1965572D01*
X1108041Y1965555D01*
X1108127Y1965535D01*
X1108212Y1965510D01*
X1108297Y1965483D01*
X1108380Y1965451D01*
X1108461Y1965417D01*
X1108541Y1965378D01*
X1108619Y1965337D01*
X1108696Y1965292D01*
X1108770Y1965244D01*
X1108843Y1965193D01*
X1108913Y1965139D01*
X1108980Y1965081D01*
X1109046Y1965021D01*
X1109108Y1964959D01*
X1109168Y1964893D01*
X1109226Y1964826D01*
X1109280Y1964756D01*
X1109331Y1964683D01*
X1109379Y1964609D01*
X1109424Y1964532D01*
X1109465Y1964454D01*
X1109504Y1964374D01*
X1109538Y1964293D01*
X1109570Y1964210D01*
X1109597Y1964125D01*
X1109622Y1964040D01*
X1109642Y1963954D01*
X1109659Y1963867D01*
X1109672Y1963779D01*
X1109681Y1963691D01*
X1109687Y1963603D01*
X1109689Y1963514D01*
X1109689Y1962992D01*
X1109687Y1962891D01*
X1109681Y1962790D01*
X1109671Y1962689D01*
X1109658Y1962589D01*
X1109640Y1962489D01*
X1109619Y1962390D01*
X1109593Y1962292D01*
X1109564Y1962195D01*
X1109532Y1962099D01*
X1109495Y1962005D01*
X1109455Y1961912D01*
X1109411Y1961820D01*
X1109364Y1961731D01*
X1109313Y1961643D01*
X1109259Y1961557D01*
X1109202Y1961474D01*
X1109142Y1961392D01*
X1109078Y1961314D01*
X1109012Y1961237D01*
X1108942Y1961164D01*
X1108870Y1961093D01*
X1108795Y1961025D01*
X1108717Y1960960D01*
X1108637Y1960898D01*
X1108555Y1960839D01*
X1108470Y1960783D01*
X1108384Y1960731D01*
X1108295Y1960682D01*
X1108204Y1960636D01*
X1108112Y1960595D01*
X1108018Y1960556D01*
X1107923Y1960522D01*
X1107827Y1960491D01*
X1107729Y1960464D01*
X1107631Y1960440D01*
X1107531Y1960421D01*
X1107431Y1960405D01*
X1107331Y1960393D01*
X1107230Y1960385D01*
X1107129Y1960381D01*
X1107027Y1960381D01*
X1106926Y1960385D01*
X1106825Y1960393D01*
X1106725Y1960405D01*
X1106625Y1960421D01*
X1106525Y1960440D01*
X1106427Y1960464D01*
X1106329Y1960491D01*
X1106233Y1960522D01*
X1106138Y1960556D01*
X1106044Y1960595D01*
X1105952Y1960636D01*
X1105861Y1960682D01*
X1105773Y1960731D01*
X1105686Y1960783D01*
X1105601Y1960839D01*
X1105519Y1960898D01*
X1105439Y1960960D01*
X1105361Y1961025D01*
X1105286Y1961093D01*
X1105214Y1961164D01*
X1105144Y1961237D01*
X1105078Y1961314D01*
X1105014Y1961392D01*
X1104954Y1961474D01*
X1104897Y1961557D01*
X1104843Y1961643D01*
X1104792Y1961731D01*
X1104745Y1961820D01*
X1104701Y1961912D01*
X1104661Y1962005D01*
X1104624Y1962099D01*
X1104592Y1962195D01*
X1104563Y1962292D01*
X1104537Y1962390D01*
X1104516Y1962489D01*
X1104498Y1962589D01*
X1104485Y1962689D01*
X1104475Y1962790D01*
X1104469Y1962891D01*
X1104467Y1962992D01*
X1104468Y1962992D02*
X1104468Y1965602D01*
X1104470Y1965731D01*
X1104476Y1965859D01*
X1104486Y1965987D01*
X1104500Y1966115D01*
X1104517Y1966243D01*
X1104539Y1966370D01*
X1104565Y1966496D01*
X1104594Y1966621D01*
X1104627Y1966745D01*
X1104665Y1966868D01*
X1104705Y1966990D01*
X1104750Y1967111D01*
X1104798Y1967230D01*
X1104850Y1967348D01*
X1104906Y1967464D01*
X1104965Y1967578D01*
X1105028Y1967690D01*
X1105094Y1967801D01*
X1105163Y1967909D01*
X1105236Y1968015D01*
X1105312Y1968119D01*
X1105391Y1968221D01*
X1105473Y1968320D01*
X1105558Y1968416D01*
X1105646Y1968510D01*
X1105737Y1968601D01*
X1105831Y1968689D01*
X1105927Y1968774D01*
X1106026Y1968856D01*
X1106128Y1968935D01*
X1106232Y1969011D01*
X1106338Y1969084D01*
X1106446Y1969153D01*
X1106556Y1969219D01*
X1106669Y1969282D01*
X1106783Y1969341D01*
X1106899Y1969397D01*
X1107017Y1969449D01*
X1107136Y1969497D01*
X1107257Y1969542D01*
X1107379Y1969582D01*
X1107502Y1969620D01*
X1107626Y1969653D01*
X1107751Y1969682D01*
X1107877Y1969708D01*
X1108004Y1969730D01*
X1108132Y1969747D01*
X1108260Y1969761D01*
X1108388Y1969771D01*
X1108516Y1969777D01*
X1108645Y1969779D01*
X989031Y1947479D02*
X989031Y1938081D01*
X989031Y1947479D02*
X991642Y1947479D01*
X991743Y1947477D01*
X991844Y1947471D01*
X991945Y1947461D01*
X992045Y1947448D01*
X992145Y1947430D01*
X992244Y1947409D01*
X992342Y1947383D01*
X992439Y1947354D01*
X992535Y1947322D01*
X992629Y1947285D01*
X992722Y1947245D01*
X992814Y1947201D01*
X992903Y1947154D01*
X992991Y1947103D01*
X993077Y1947049D01*
X993160Y1946992D01*
X993242Y1946932D01*
X993320Y1946868D01*
X993397Y1946802D01*
X993470Y1946732D01*
X993541Y1946660D01*
X993609Y1946585D01*
X993674Y1946507D01*
X993736Y1946427D01*
X993795Y1946345D01*
X993851Y1946260D01*
X993903Y1946174D01*
X993952Y1946085D01*
X993998Y1945994D01*
X994039Y1945902D01*
X994078Y1945808D01*
X994112Y1945713D01*
X994143Y1945617D01*
X994170Y1945519D01*
X994194Y1945421D01*
X994213Y1945321D01*
X994229Y1945221D01*
X994241Y1945121D01*
X994249Y1945020D01*
X994253Y1944919D01*
X994253Y1944817D01*
X994249Y1944716D01*
X994241Y1944615D01*
X994229Y1944515D01*
X994213Y1944415D01*
X994194Y1944315D01*
X994170Y1944217D01*
X994143Y1944119D01*
X994112Y1944023D01*
X994078Y1943928D01*
X994039Y1943834D01*
X993998Y1943742D01*
X993952Y1943651D01*
X993903Y1943563D01*
X993851Y1943476D01*
X993795Y1943391D01*
X993736Y1943309D01*
X993674Y1943229D01*
X993609Y1943151D01*
X993541Y1943076D01*
X993470Y1943004D01*
X993397Y1942934D01*
X993320Y1942868D01*
X993242Y1942804D01*
X993160Y1942744D01*
X993077Y1942687D01*
X992991Y1942633D01*
X992903Y1942582D01*
X992814Y1942535D01*
X992722Y1942491D01*
X992629Y1942451D01*
X992535Y1942414D01*
X992439Y1942382D01*
X992342Y1942353D01*
X992244Y1942327D01*
X992145Y1942306D01*
X992045Y1942288D01*
X991945Y1942275D01*
X991844Y1942265D01*
X991743Y1942259D01*
X991642Y1942257D01*
X991642Y1942258D02*
X989031Y1942258D01*
X992164Y1942258D02*
X994252Y1938081D01*
X998118Y1946435D02*
X998118Y1947479D01*
X1003339Y1947479D01*
X1000728Y1938081D01*
D10*
X832000Y1949000D02*
X808000Y1949000D01*
X832000Y1949000D02*
X832000Y1864000D01*
X808000Y1864000D01*
X808000Y1949000D01*
D12*
X818548Y1854890D02*
X818546Y1854812D01*
X818541Y1854734D01*
X818531Y1854657D01*
X818518Y1854580D01*
X818502Y1854504D01*
X818482Y1854429D01*
X818458Y1854355D01*
X818431Y1854282D01*
X818400Y1854210D01*
X818366Y1854140D01*
X818329Y1854072D01*
X818288Y1854005D01*
X818244Y1853940D01*
X818198Y1853878D01*
X818148Y1853818D01*
X818096Y1853760D01*
X818041Y1853705D01*
X817983Y1853653D01*
X817923Y1853603D01*
X817861Y1853557D01*
X817796Y1853513D01*
X817730Y1853472D01*
X817661Y1853435D01*
X817591Y1853401D01*
X817519Y1853370D01*
X817446Y1853343D01*
X817372Y1853319D01*
X817297Y1853299D01*
X817221Y1853283D01*
X817144Y1853270D01*
X817067Y1853260D01*
X816989Y1853255D01*
X816911Y1853253D01*
X816797Y1853255D01*
X816684Y1853260D01*
X816570Y1853270D01*
X816457Y1853283D01*
X816345Y1853300D01*
X816233Y1853320D01*
X816122Y1853344D01*
X816011Y1853372D01*
X815902Y1853403D01*
X815794Y1853438D01*
X815687Y1853477D01*
X815581Y1853519D01*
X815477Y1853564D01*
X815374Y1853613D01*
X815273Y1853666D01*
X815174Y1853721D01*
X815076Y1853780D01*
X814981Y1853842D01*
X814888Y1853907D01*
X814796Y1853975D01*
X814708Y1854046D01*
X814621Y1854120D01*
X814537Y1854197D01*
X814456Y1854276D01*
X814660Y1858982D02*
X814662Y1859060D01*
X814667Y1859138D01*
X814677Y1859215D01*
X814690Y1859292D01*
X814706Y1859368D01*
X814726Y1859443D01*
X814750Y1859517D01*
X814777Y1859590D01*
X814808Y1859662D01*
X814842Y1859732D01*
X814879Y1859801D01*
X814920Y1859867D01*
X814964Y1859932D01*
X815010Y1859994D01*
X815060Y1860054D01*
X815112Y1860112D01*
X815167Y1860167D01*
X815225Y1860219D01*
X815285Y1860269D01*
X815347Y1860315D01*
X815412Y1860359D01*
X815479Y1860400D01*
X815547Y1860437D01*
X815617Y1860471D01*
X815689Y1860502D01*
X815762Y1860529D01*
X815836Y1860553D01*
X815911Y1860573D01*
X815987Y1860589D01*
X816064Y1860602D01*
X816141Y1860612D01*
X816219Y1860617D01*
X816297Y1860619D01*
X816407Y1860617D01*
X816516Y1860611D01*
X816626Y1860601D01*
X816734Y1860588D01*
X816843Y1860570D01*
X816950Y1860549D01*
X817057Y1860523D01*
X817163Y1860494D01*
X817268Y1860462D01*
X817371Y1860425D01*
X817473Y1860385D01*
X817574Y1860341D01*
X817673Y1860293D01*
X817770Y1860243D01*
X817865Y1860188D01*
X817958Y1860130D01*
X818049Y1860069D01*
X818138Y1860005D01*
X815479Y1857549D02*
X815412Y1857591D01*
X815347Y1857635D01*
X815285Y1857683D01*
X815225Y1857733D01*
X815167Y1857786D01*
X815112Y1857842D01*
X815060Y1857901D01*
X815010Y1857961D01*
X814963Y1858025D01*
X814920Y1858090D01*
X814879Y1858157D01*
X814842Y1858226D01*
X814808Y1858297D01*
X814777Y1858369D01*
X814750Y1858443D01*
X814726Y1858517D01*
X814706Y1858593D01*
X814690Y1858670D01*
X814677Y1858747D01*
X814667Y1858825D01*
X814662Y1858904D01*
X814660Y1858982D01*
X817729Y1856322D02*
X817795Y1856280D01*
X817860Y1856236D01*
X817922Y1856189D01*
X817982Y1856138D01*
X818040Y1856085D01*
X818095Y1856029D01*
X818148Y1855971D01*
X818197Y1855910D01*
X818244Y1855847D01*
X818287Y1855782D01*
X818328Y1855715D01*
X818365Y1855646D01*
X818399Y1855575D01*
X818430Y1855503D01*
X818457Y1855429D01*
X818481Y1855354D01*
X818501Y1855279D01*
X818517Y1855202D01*
X818530Y1855125D01*
X818540Y1855047D01*
X818545Y1854968D01*
X818547Y1854890D01*
X817729Y1856322D02*
X815478Y1857550D01*
X821527Y1858982D02*
X823573Y1860619D01*
X823573Y1853253D01*
X821527Y1853253D02*
X825619Y1853253D01*
D10*
X1050000Y1890000D02*
X1152000Y1890000D01*
X1152000Y1840000D01*
X1050000Y1840000D01*
X1050000Y1890000D01*
X1075000Y1865000D02*
X1140000Y1865000D01*
X1140000Y1875000D01*
X1075000Y1875000D01*
X1105114Y1875227D02*
X1112857Y1869968D01*
X1112085Y1875227D02*
X1119829Y1869968D01*
X1112816Y1864854D01*
X1075000Y1865000D02*
X1075000Y1875000D01*
X1105844Y1864854D02*
X1112857Y1869968D01*
X1119844Y1864854D02*
X1126857Y1869968D01*
X1119114Y1875227D01*
D12*
X1100779Y1827309D02*
X1100777Y1827220D01*
X1100771Y1827132D01*
X1100762Y1827044D01*
X1100749Y1826956D01*
X1100732Y1826869D01*
X1100712Y1826783D01*
X1100687Y1826698D01*
X1100660Y1826613D01*
X1100628Y1826530D01*
X1100594Y1826449D01*
X1100555Y1826369D01*
X1100514Y1826291D01*
X1100469Y1826214D01*
X1100421Y1826140D01*
X1100370Y1826067D01*
X1100316Y1825997D01*
X1100258Y1825930D01*
X1100198Y1825864D01*
X1100136Y1825802D01*
X1100070Y1825742D01*
X1100003Y1825684D01*
X1099933Y1825630D01*
X1099860Y1825579D01*
X1099786Y1825531D01*
X1099709Y1825486D01*
X1099631Y1825445D01*
X1099551Y1825406D01*
X1099470Y1825372D01*
X1099387Y1825340D01*
X1099302Y1825313D01*
X1099217Y1825288D01*
X1099131Y1825268D01*
X1099044Y1825251D01*
X1098956Y1825238D01*
X1098868Y1825229D01*
X1098780Y1825223D01*
X1098691Y1825221D01*
X1098562Y1825223D01*
X1098433Y1825229D01*
X1098304Y1825238D01*
X1098176Y1825251D01*
X1098048Y1825268D01*
X1097921Y1825289D01*
X1097794Y1825313D01*
X1097668Y1825341D01*
X1097543Y1825373D01*
X1097419Y1825408D01*
X1097296Y1825447D01*
X1097174Y1825490D01*
X1097054Y1825536D01*
X1096935Y1825586D01*
X1096817Y1825639D01*
X1096701Y1825695D01*
X1096587Y1825755D01*
X1096474Y1825818D01*
X1096364Y1825885D01*
X1096255Y1825954D01*
X1096149Y1826027D01*
X1096044Y1826103D01*
X1095942Y1826182D01*
X1095843Y1826264D01*
X1095745Y1826348D01*
X1095650Y1826436D01*
X1095558Y1826526D01*
X1095820Y1832531D02*
X1095822Y1832620D01*
X1095828Y1832708D01*
X1095837Y1832796D01*
X1095850Y1832884D01*
X1095867Y1832971D01*
X1095887Y1833057D01*
X1095912Y1833142D01*
X1095939Y1833227D01*
X1095971Y1833310D01*
X1096005Y1833391D01*
X1096044Y1833471D01*
X1096085Y1833549D01*
X1096130Y1833626D01*
X1096178Y1833700D01*
X1096229Y1833773D01*
X1096283Y1833843D01*
X1096341Y1833910D01*
X1096401Y1833976D01*
X1096463Y1834038D01*
X1096529Y1834098D01*
X1096596Y1834156D01*
X1096666Y1834210D01*
X1096739Y1834261D01*
X1096813Y1834309D01*
X1096890Y1834354D01*
X1096968Y1834395D01*
X1097048Y1834434D01*
X1097129Y1834468D01*
X1097212Y1834500D01*
X1097297Y1834527D01*
X1097382Y1834552D01*
X1097468Y1834572D01*
X1097555Y1834589D01*
X1097643Y1834602D01*
X1097731Y1834611D01*
X1097819Y1834617D01*
X1097908Y1834619D01*
X1098028Y1834617D01*
X1098148Y1834612D01*
X1098268Y1834602D01*
X1098387Y1834590D01*
X1098506Y1834573D01*
X1098624Y1834553D01*
X1098742Y1834529D01*
X1098858Y1834502D01*
X1098974Y1834471D01*
X1099089Y1834437D01*
X1099203Y1834399D01*
X1099316Y1834357D01*
X1099427Y1834312D01*
X1099537Y1834264D01*
X1099645Y1834213D01*
X1099752Y1834158D01*
X1099857Y1834100D01*
X1099960Y1834038D01*
X1100061Y1833974D01*
X1100161Y1833906D01*
X1100258Y1833836D01*
X1096864Y1830704D02*
X1096786Y1830752D01*
X1096710Y1830804D01*
X1096637Y1830858D01*
X1096566Y1830916D01*
X1096497Y1830977D01*
X1096431Y1831041D01*
X1096368Y1831108D01*
X1096308Y1831177D01*
X1096251Y1831249D01*
X1096197Y1831323D01*
X1096147Y1831400D01*
X1096099Y1831479D01*
X1096056Y1831559D01*
X1096015Y1831642D01*
X1095979Y1831726D01*
X1095946Y1831811D01*
X1095917Y1831898D01*
X1095891Y1831987D01*
X1095869Y1832076D01*
X1095852Y1832166D01*
X1095838Y1832256D01*
X1095828Y1832348D01*
X1095822Y1832439D01*
X1095820Y1832531D01*
X1099736Y1829136D02*
X1099814Y1829088D01*
X1099890Y1829036D01*
X1099963Y1828982D01*
X1100034Y1828924D01*
X1100103Y1828863D01*
X1100169Y1828799D01*
X1100232Y1828732D01*
X1100292Y1828663D01*
X1100349Y1828591D01*
X1100403Y1828517D01*
X1100453Y1828440D01*
X1100501Y1828361D01*
X1100544Y1828281D01*
X1100585Y1828198D01*
X1100621Y1828114D01*
X1100654Y1828029D01*
X1100683Y1827942D01*
X1100709Y1827853D01*
X1100731Y1827764D01*
X1100748Y1827674D01*
X1100762Y1827584D01*
X1100772Y1827492D01*
X1100778Y1827401D01*
X1100780Y1827309D01*
X1099736Y1829137D02*
X1096864Y1830703D01*
X1107270Y1834620D02*
X1107365Y1834618D01*
X1107459Y1834612D01*
X1107553Y1834603D01*
X1107647Y1834590D01*
X1107740Y1834573D01*
X1107832Y1834552D01*
X1107924Y1834527D01*
X1108014Y1834499D01*
X1108103Y1834467D01*
X1108191Y1834432D01*
X1108277Y1834393D01*
X1108362Y1834351D01*
X1108445Y1834305D01*
X1108526Y1834256D01*
X1108605Y1834204D01*
X1108682Y1834149D01*
X1108756Y1834090D01*
X1108828Y1834029D01*
X1108898Y1833965D01*
X1108965Y1833898D01*
X1109029Y1833828D01*
X1109090Y1833756D01*
X1109149Y1833682D01*
X1109204Y1833605D01*
X1109256Y1833526D01*
X1109305Y1833445D01*
X1109351Y1833362D01*
X1109393Y1833277D01*
X1109432Y1833191D01*
X1109467Y1833103D01*
X1109499Y1833014D01*
X1109527Y1832924D01*
X1109552Y1832832D01*
X1109573Y1832740D01*
X1109590Y1832647D01*
X1109603Y1832553D01*
X1109612Y1832459D01*
X1109618Y1832365D01*
X1109620Y1832270D01*
X1107270Y1834619D02*
X1107162Y1834617D01*
X1107053Y1834611D01*
X1106945Y1834601D01*
X1106838Y1834588D01*
X1106731Y1834570D01*
X1106624Y1834549D01*
X1106519Y1834524D01*
X1106414Y1834495D01*
X1106311Y1834463D01*
X1106209Y1834426D01*
X1106108Y1834386D01*
X1106009Y1834343D01*
X1105911Y1834296D01*
X1105815Y1834245D01*
X1105721Y1834191D01*
X1105629Y1834134D01*
X1105539Y1834073D01*
X1105451Y1834009D01*
X1105366Y1833943D01*
X1105283Y1833873D01*
X1105203Y1833800D01*
X1105125Y1833724D01*
X1105050Y1833646D01*
X1104978Y1833565D01*
X1104909Y1833481D01*
X1104843Y1833395D01*
X1104780Y1833307D01*
X1104721Y1833216D01*
X1104664Y1833124D01*
X1104611Y1833029D01*
X1104562Y1832933D01*
X1104516Y1832834D01*
X1104473Y1832735D01*
X1104434Y1832633D01*
X1104399Y1832531D01*
X1108836Y1830442D02*
X1108905Y1830511D01*
X1108971Y1830582D01*
X1109035Y1830655D01*
X1109096Y1830731D01*
X1109154Y1830810D01*
X1109208Y1830890D01*
X1109260Y1830973D01*
X1109308Y1831057D01*
X1109354Y1831143D01*
X1109395Y1831231D01*
X1109434Y1831321D01*
X1109469Y1831412D01*
X1109500Y1831504D01*
X1109528Y1831597D01*
X1109552Y1831691D01*
X1109572Y1831786D01*
X1109589Y1831882D01*
X1109602Y1831979D01*
X1109611Y1832076D01*
X1109617Y1832173D01*
X1109619Y1832270D01*
X1108836Y1830442D02*
X1104398Y1825221D01*
X1109619Y1825221D01*
D10*
X945000Y1840000D02*
X843000Y1840000D01*
X843000Y1890000D01*
X945000Y1890000D01*
X945000Y1840000D01*
X920000Y1865000D02*
X855000Y1865000D01*
X855000Y1855000D01*
X920000Y1855000D01*
X889886Y1854773D02*
X882143Y1860032D01*
X882915Y1854773D02*
X875171Y1860032D01*
X882184Y1865146D01*
X920000Y1865000D02*
X920000Y1855000D01*
X889156Y1865146D02*
X882143Y1860032D01*
X875156Y1865146D02*
X868143Y1860032D01*
X875886Y1854773D01*
D12*
X890602Y1827469D02*
X890600Y1827380D01*
X890594Y1827292D01*
X890585Y1827204D01*
X890572Y1827116D01*
X890555Y1827029D01*
X890535Y1826943D01*
X890510Y1826858D01*
X890483Y1826773D01*
X890451Y1826690D01*
X890417Y1826609D01*
X890378Y1826529D01*
X890337Y1826451D01*
X890292Y1826374D01*
X890244Y1826300D01*
X890193Y1826227D01*
X890139Y1826157D01*
X890081Y1826090D01*
X890021Y1826024D01*
X889959Y1825962D01*
X889893Y1825902D01*
X889826Y1825844D01*
X889756Y1825790D01*
X889683Y1825739D01*
X889609Y1825691D01*
X889532Y1825646D01*
X889454Y1825605D01*
X889374Y1825566D01*
X889293Y1825532D01*
X889210Y1825500D01*
X889125Y1825473D01*
X889040Y1825448D01*
X888954Y1825428D01*
X888867Y1825411D01*
X888779Y1825398D01*
X888691Y1825389D01*
X888603Y1825383D01*
X888514Y1825381D01*
X888385Y1825383D01*
X888256Y1825389D01*
X888127Y1825398D01*
X887999Y1825411D01*
X887871Y1825428D01*
X887744Y1825449D01*
X887617Y1825473D01*
X887491Y1825501D01*
X887366Y1825533D01*
X887242Y1825568D01*
X887119Y1825607D01*
X886997Y1825650D01*
X886877Y1825696D01*
X886758Y1825746D01*
X886640Y1825799D01*
X886524Y1825855D01*
X886410Y1825915D01*
X886297Y1825978D01*
X886187Y1826045D01*
X886078Y1826114D01*
X885972Y1826187D01*
X885867Y1826263D01*
X885765Y1826342D01*
X885666Y1826424D01*
X885568Y1826508D01*
X885473Y1826596D01*
X885381Y1826686D01*
X885642Y1832691D02*
X885644Y1832780D01*
X885650Y1832868D01*
X885659Y1832956D01*
X885672Y1833044D01*
X885689Y1833131D01*
X885709Y1833217D01*
X885734Y1833302D01*
X885761Y1833387D01*
X885793Y1833470D01*
X885827Y1833551D01*
X885866Y1833631D01*
X885907Y1833709D01*
X885952Y1833786D01*
X886000Y1833860D01*
X886051Y1833933D01*
X886105Y1834003D01*
X886163Y1834070D01*
X886223Y1834136D01*
X886285Y1834198D01*
X886351Y1834258D01*
X886418Y1834316D01*
X886488Y1834370D01*
X886561Y1834421D01*
X886635Y1834469D01*
X886712Y1834514D01*
X886790Y1834555D01*
X886870Y1834594D01*
X886951Y1834628D01*
X887034Y1834660D01*
X887119Y1834687D01*
X887204Y1834712D01*
X887290Y1834732D01*
X887377Y1834749D01*
X887465Y1834762D01*
X887553Y1834771D01*
X887641Y1834777D01*
X887730Y1834779D01*
X887850Y1834777D01*
X887970Y1834772D01*
X888090Y1834762D01*
X888209Y1834750D01*
X888328Y1834733D01*
X888446Y1834713D01*
X888564Y1834689D01*
X888680Y1834662D01*
X888796Y1834631D01*
X888911Y1834597D01*
X889025Y1834559D01*
X889138Y1834517D01*
X889249Y1834472D01*
X889359Y1834424D01*
X889467Y1834373D01*
X889574Y1834318D01*
X889679Y1834260D01*
X889782Y1834198D01*
X889883Y1834134D01*
X889983Y1834066D01*
X890080Y1833996D01*
X886686Y1830864D02*
X886608Y1830912D01*
X886532Y1830964D01*
X886459Y1831018D01*
X886388Y1831076D01*
X886319Y1831137D01*
X886253Y1831201D01*
X886190Y1831268D01*
X886130Y1831337D01*
X886073Y1831409D01*
X886019Y1831483D01*
X885969Y1831560D01*
X885921Y1831639D01*
X885878Y1831719D01*
X885837Y1831802D01*
X885801Y1831886D01*
X885768Y1831971D01*
X885739Y1832058D01*
X885713Y1832147D01*
X885691Y1832236D01*
X885674Y1832326D01*
X885660Y1832416D01*
X885650Y1832508D01*
X885644Y1832599D01*
X885642Y1832691D01*
X889558Y1829296D02*
X889636Y1829248D01*
X889712Y1829196D01*
X889785Y1829142D01*
X889856Y1829084D01*
X889925Y1829023D01*
X889991Y1828959D01*
X890054Y1828892D01*
X890114Y1828823D01*
X890171Y1828751D01*
X890225Y1828677D01*
X890275Y1828600D01*
X890323Y1828521D01*
X890366Y1828441D01*
X890407Y1828358D01*
X890443Y1828274D01*
X890476Y1828189D01*
X890505Y1828102D01*
X890531Y1828013D01*
X890553Y1827924D01*
X890570Y1827834D01*
X890584Y1827744D01*
X890594Y1827652D01*
X890600Y1827561D01*
X890602Y1827469D01*
X889558Y1829297D02*
X886686Y1830863D01*
X894220Y1825381D02*
X896831Y1825381D01*
X896932Y1825383D01*
X897033Y1825389D01*
X897134Y1825399D01*
X897234Y1825412D01*
X897334Y1825430D01*
X897433Y1825451D01*
X897531Y1825477D01*
X897628Y1825506D01*
X897724Y1825538D01*
X897818Y1825575D01*
X897911Y1825615D01*
X898003Y1825659D01*
X898092Y1825706D01*
X898180Y1825757D01*
X898266Y1825811D01*
X898349Y1825868D01*
X898431Y1825928D01*
X898509Y1825992D01*
X898586Y1826058D01*
X898659Y1826128D01*
X898730Y1826200D01*
X898798Y1826275D01*
X898863Y1826353D01*
X898925Y1826433D01*
X898984Y1826515D01*
X899040Y1826600D01*
X899092Y1826687D01*
X899141Y1826775D01*
X899187Y1826866D01*
X899228Y1826958D01*
X899267Y1827052D01*
X899301Y1827147D01*
X899332Y1827243D01*
X899359Y1827341D01*
X899383Y1827439D01*
X899402Y1827539D01*
X899418Y1827639D01*
X899430Y1827739D01*
X899438Y1827840D01*
X899442Y1827941D01*
X899442Y1828043D01*
X899438Y1828144D01*
X899430Y1828245D01*
X899418Y1828345D01*
X899402Y1828445D01*
X899383Y1828545D01*
X899359Y1828643D01*
X899332Y1828741D01*
X899301Y1828837D01*
X899267Y1828932D01*
X899228Y1829026D01*
X899187Y1829118D01*
X899141Y1829209D01*
X899092Y1829298D01*
X899040Y1829384D01*
X898984Y1829469D01*
X898925Y1829551D01*
X898863Y1829631D01*
X898798Y1829709D01*
X898730Y1829784D01*
X898659Y1829856D01*
X898586Y1829926D01*
X898509Y1829992D01*
X898431Y1830056D01*
X898349Y1830116D01*
X898266Y1830173D01*
X898180Y1830227D01*
X898092Y1830278D01*
X898003Y1830325D01*
X897911Y1830369D01*
X897818Y1830409D01*
X897724Y1830446D01*
X897628Y1830478D01*
X897531Y1830507D01*
X897433Y1830533D01*
X897334Y1830554D01*
X897234Y1830572D01*
X897134Y1830585D01*
X897033Y1830595D01*
X896932Y1830601D01*
X896831Y1830603D01*
X897353Y1834779D02*
X894220Y1834779D01*
X897353Y1834779D02*
X897443Y1834777D01*
X897532Y1834771D01*
X897622Y1834762D01*
X897711Y1834748D01*
X897799Y1834731D01*
X897886Y1834710D01*
X897973Y1834685D01*
X898058Y1834656D01*
X898142Y1834624D01*
X898224Y1834589D01*
X898305Y1834549D01*
X898384Y1834507D01*
X898461Y1834461D01*
X898536Y1834411D01*
X898609Y1834359D01*
X898680Y1834303D01*
X898748Y1834245D01*
X898813Y1834183D01*
X898876Y1834119D01*
X898936Y1834052D01*
X898993Y1833983D01*
X899047Y1833911D01*
X899098Y1833837D01*
X899146Y1833761D01*
X899190Y1833683D01*
X899231Y1833603D01*
X899269Y1833521D01*
X899303Y1833438D01*
X899333Y1833353D01*
X899360Y1833267D01*
X899383Y1833181D01*
X899402Y1833093D01*
X899417Y1833004D01*
X899429Y1832915D01*
X899437Y1832826D01*
X899441Y1832736D01*
X899441Y1832646D01*
X899437Y1832556D01*
X899429Y1832467D01*
X899417Y1832378D01*
X899402Y1832289D01*
X899383Y1832201D01*
X899360Y1832115D01*
X899333Y1832029D01*
X899303Y1831944D01*
X899269Y1831861D01*
X899231Y1831779D01*
X899190Y1831699D01*
X899146Y1831621D01*
X899098Y1831545D01*
X899047Y1831471D01*
X898993Y1831399D01*
X898936Y1831330D01*
X898876Y1831263D01*
X898813Y1831199D01*
X898748Y1831137D01*
X898680Y1831079D01*
X898609Y1831023D01*
X898536Y1830971D01*
X898461Y1830921D01*
X898384Y1830875D01*
X898305Y1830833D01*
X898224Y1830793D01*
X898142Y1830758D01*
X898058Y1830726D01*
X897973Y1830697D01*
X897886Y1830672D01*
X897799Y1830651D01*
X897711Y1830634D01*
X897622Y1830620D01*
X897532Y1830611D01*
X897443Y1830605D01*
X897353Y1830603D01*
X897353Y1830602D02*
X895264Y1830602D01*
D10*
X1043090Y2083240D02*
X1148710Y2083240D01*
X1148710Y1980160D01*
D13*
X1150308Y1989052D02*
X1158097Y1989052D01*
X1154203Y1992946D02*
X1154203Y1985157D01*
X1150308Y2077952D02*
X1158097Y2077952D01*
D10*
X1067250Y1980190D02*
X1044390Y2003050D01*
X1067250Y1980190D02*
X1148530Y1980190D01*
X1043120Y2004320D02*
X1043120Y2083060D01*
X1043120Y2004320D02*
X1044390Y2003050D01*
D15*
X889000Y1955700D02*
X889002Y1955789D01*
X889008Y1955878D01*
X889018Y1955967D01*
X889032Y1956055D01*
X889049Y1956142D01*
X889071Y1956228D01*
X889097Y1956314D01*
X889126Y1956398D01*
X889159Y1956481D01*
X889195Y1956562D01*
X889236Y1956642D01*
X889279Y1956719D01*
X889326Y1956795D01*
X889377Y1956868D01*
X889430Y1956939D01*
X889487Y1957008D01*
X889547Y1957074D01*
X889610Y1957138D01*
X889675Y1957198D01*
X889743Y1957256D01*
X889814Y1957310D01*
X889887Y1957361D01*
X889962Y1957409D01*
X890039Y1957454D01*
X890118Y1957495D01*
X890199Y1957532D01*
X890281Y1957566D01*
X890365Y1957597D01*
X890450Y1957623D01*
X890536Y1957646D01*
X890623Y1957664D01*
X890711Y1957679D01*
X890800Y1957690D01*
X890889Y1957697D01*
X890978Y1957700D01*
X891067Y1957699D01*
X891156Y1957694D01*
X891244Y1957685D01*
X891333Y1957672D01*
X891420Y1957655D01*
X891507Y1957635D01*
X891593Y1957610D01*
X891677Y1957582D01*
X891760Y1957550D01*
X891842Y1957514D01*
X891922Y1957475D01*
X892000Y1957432D01*
X892076Y1957386D01*
X892150Y1957336D01*
X892222Y1957283D01*
X892291Y1957227D01*
X892358Y1957168D01*
X892422Y1957106D01*
X892483Y1957042D01*
X892542Y1956974D01*
X892597Y1956904D01*
X892649Y1956832D01*
X892698Y1956757D01*
X892743Y1956681D01*
X892785Y1956602D01*
X892823Y1956522D01*
X892858Y1956440D01*
X892889Y1956356D01*
X892917Y1956271D01*
X892940Y1956185D01*
X892960Y1956098D01*
X892976Y1956011D01*
X892988Y1955922D01*
X892996Y1955834D01*
X893000Y1955745D01*
X893000Y1955655D01*
X892996Y1955566D01*
X892988Y1955478D01*
X892976Y1955389D01*
X892960Y1955302D01*
X892940Y1955215D01*
X892917Y1955129D01*
X892889Y1955044D01*
X892858Y1954960D01*
X892823Y1954878D01*
X892785Y1954798D01*
X892743Y1954719D01*
X892698Y1954643D01*
X892649Y1954568D01*
X892597Y1954496D01*
X892542Y1954426D01*
X892483Y1954358D01*
X892422Y1954294D01*
X892358Y1954232D01*
X892291Y1954173D01*
X892222Y1954117D01*
X892150Y1954064D01*
X892076Y1954014D01*
X892000Y1953968D01*
X891922Y1953925D01*
X891842Y1953886D01*
X891760Y1953850D01*
X891677Y1953818D01*
X891593Y1953790D01*
X891507Y1953765D01*
X891420Y1953745D01*
X891333Y1953728D01*
X891244Y1953715D01*
X891156Y1953706D01*
X891067Y1953701D01*
X890978Y1953700D01*
X890889Y1953703D01*
X890800Y1953710D01*
X890711Y1953721D01*
X890623Y1953736D01*
X890536Y1953754D01*
X890450Y1953777D01*
X890365Y1953803D01*
X890281Y1953834D01*
X890199Y1953868D01*
X890118Y1953905D01*
X890039Y1953946D01*
X889962Y1953991D01*
X889887Y1954039D01*
X889814Y1954090D01*
X889743Y1954144D01*
X889675Y1954202D01*
X889610Y1954262D01*
X889547Y1954326D01*
X889487Y1954392D01*
X889430Y1954461D01*
X889377Y1954532D01*
X889326Y1954605D01*
X889279Y1954681D01*
X889236Y1954758D01*
X889195Y1954838D01*
X889159Y1954919D01*
X889126Y1955002D01*
X889097Y1955086D01*
X889071Y1955172D01*
X889049Y1955258D01*
X889032Y1955345D01*
X889018Y1955433D01*
X889008Y1955522D01*
X889002Y1955611D01*
X889000Y1955700D01*
D10*
X891750Y1980500D02*
X891750Y2019500D01*
X978250Y2019500D02*
X978250Y1980500D01*
D13*
X882583Y1964723D02*
X874145Y1964723D01*
X882583Y1964723D02*
X882696Y1964725D01*
X882809Y1964731D01*
X882922Y1964741D01*
X883035Y1964755D01*
X883147Y1964772D01*
X883258Y1964794D01*
X883368Y1964819D01*
X883478Y1964849D01*
X883586Y1964882D01*
X883693Y1964919D01*
X883799Y1964959D01*
X883903Y1965004D01*
X884006Y1965052D01*
X884107Y1965103D01*
X884206Y1965158D01*
X884303Y1965216D01*
X884398Y1965278D01*
X884491Y1965343D01*
X884581Y1965411D01*
X884669Y1965482D01*
X884755Y1965557D01*
X884838Y1965634D01*
X884918Y1965714D01*
X884995Y1965797D01*
X885070Y1965883D01*
X885141Y1965971D01*
X885209Y1966061D01*
X885274Y1966154D01*
X885336Y1966249D01*
X885394Y1966346D01*
X885449Y1966445D01*
X885500Y1966546D01*
X885548Y1966649D01*
X885593Y1966753D01*
X885633Y1966859D01*
X885670Y1966966D01*
X885703Y1967074D01*
X885733Y1967184D01*
X885758Y1967294D01*
X885780Y1967405D01*
X885797Y1967517D01*
X885811Y1967630D01*
X885821Y1967743D01*
X885827Y1967856D01*
X885829Y1967969D01*
X885827Y1968082D01*
X885821Y1968195D01*
X885811Y1968308D01*
X885797Y1968421D01*
X885780Y1968533D01*
X885758Y1968644D01*
X885733Y1968754D01*
X885703Y1968864D01*
X885670Y1968972D01*
X885633Y1969079D01*
X885593Y1969185D01*
X885548Y1969289D01*
X885500Y1969392D01*
X885449Y1969493D01*
X885394Y1969592D01*
X885336Y1969689D01*
X885274Y1969784D01*
X885209Y1969877D01*
X885141Y1969967D01*
X885070Y1970055D01*
X884995Y1970141D01*
X884918Y1970224D01*
X884838Y1970304D01*
X884755Y1970381D01*
X884669Y1970456D01*
X884581Y1970527D01*
X884491Y1970595D01*
X884398Y1970660D01*
X884303Y1970722D01*
X884206Y1970780D01*
X884107Y1970835D01*
X884006Y1970886D01*
X883903Y1970934D01*
X883799Y1970979D01*
X883693Y1971019D01*
X883586Y1971056D01*
X883478Y1971089D01*
X883368Y1971119D01*
X883258Y1971144D01*
X883147Y1971166D01*
X883035Y1971183D01*
X882922Y1971197D01*
X882809Y1971207D01*
X882696Y1971213D01*
X882583Y1971215D01*
X882583Y1971214D02*
X874145Y1971214D01*
X876741Y1976534D02*
X874145Y1979780D01*
X885829Y1979780D01*
X885829Y1983025D02*
X885829Y1976534D01*
X1240483Y2021373D02*
X1240483Y2030461D01*
X1240482Y2021373D02*
X1240480Y2021274D01*
X1240474Y2021174D01*
X1240465Y2021075D01*
X1240452Y2020977D01*
X1240435Y2020879D01*
X1240414Y2020781D01*
X1240389Y2020685D01*
X1240361Y2020590D01*
X1240329Y2020496D01*
X1240294Y2020403D01*
X1240255Y2020311D01*
X1240212Y2020221D01*
X1240167Y2020133D01*
X1240117Y2020046D01*
X1240065Y2019962D01*
X1240009Y2019879D01*
X1239951Y2019799D01*
X1239889Y2019721D01*
X1239824Y2019646D01*
X1239756Y2019573D01*
X1239686Y2019503D01*
X1239613Y2019435D01*
X1239538Y2019370D01*
X1239460Y2019308D01*
X1239380Y2019250D01*
X1239297Y2019194D01*
X1239213Y2019142D01*
X1239126Y2019092D01*
X1239038Y2019047D01*
X1238948Y2019004D01*
X1238856Y2018965D01*
X1238763Y2018930D01*
X1238669Y2018898D01*
X1238574Y2018870D01*
X1238478Y2018845D01*
X1238380Y2018824D01*
X1238282Y2018807D01*
X1238184Y2018794D01*
X1238085Y2018785D01*
X1237985Y2018779D01*
X1237886Y2018777D01*
X1236588Y2018777D01*
X1245756Y2027865D02*
X1249002Y2030461D01*
X1249002Y2018777D01*
X1252247Y2018777D02*
X1245756Y2018777D01*
D10*
X1210000Y1810000D02*
X1160000Y1810000D01*
X1160000Y1950000D01*
X1210000Y1950000D02*
X1210000Y1810000D01*
X1210000Y1950000D02*
X1160000Y1950000D01*
D12*
X1154831Y1919252D02*
X1154920Y1919250D01*
X1155008Y1919244D01*
X1155096Y1919235D01*
X1155184Y1919222D01*
X1155271Y1919205D01*
X1155357Y1919185D01*
X1155442Y1919160D01*
X1155527Y1919133D01*
X1155610Y1919101D01*
X1155691Y1919067D01*
X1155771Y1919028D01*
X1155849Y1918987D01*
X1155926Y1918942D01*
X1156000Y1918894D01*
X1156073Y1918843D01*
X1156143Y1918789D01*
X1156210Y1918731D01*
X1156276Y1918671D01*
X1156338Y1918609D01*
X1156398Y1918543D01*
X1156456Y1918476D01*
X1156510Y1918406D01*
X1156561Y1918333D01*
X1156609Y1918259D01*
X1156654Y1918182D01*
X1156695Y1918104D01*
X1156734Y1918024D01*
X1156768Y1917943D01*
X1156800Y1917860D01*
X1156827Y1917775D01*
X1156852Y1917690D01*
X1156872Y1917604D01*
X1156889Y1917517D01*
X1156902Y1917429D01*
X1156911Y1917341D01*
X1156917Y1917253D01*
X1156919Y1917164D01*
X1156917Y1917035D01*
X1156911Y1916906D01*
X1156902Y1916777D01*
X1156889Y1916649D01*
X1156872Y1916521D01*
X1156851Y1916394D01*
X1156827Y1916267D01*
X1156799Y1916141D01*
X1156767Y1916016D01*
X1156732Y1915892D01*
X1156693Y1915769D01*
X1156650Y1915647D01*
X1156604Y1915527D01*
X1156554Y1915408D01*
X1156501Y1915290D01*
X1156445Y1915174D01*
X1156385Y1915060D01*
X1156322Y1914947D01*
X1156255Y1914837D01*
X1156186Y1914728D01*
X1156113Y1914622D01*
X1156037Y1914517D01*
X1155958Y1914415D01*
X1155876Y1914316D01*
X1155792Y1914218D01*
X1155704Y1914123D01*
X1155614Y1914031D01*
X1149609Y1914293D02*
X1149520Y1914295D01*
X1149432Y1914301D01*
X1149344Y1914310D01*
X1149256Y1914323D01*
X1149169Y1914340D01*
X1149083Y1914360D01*
X1148998Y1914385D01*
X1148913Y1914412D01*
X1148830Y1914444D01*
X1148749Y1914478D01*
X1148669Y1914517D01*
X1148591Y1914558D01*
X1148514Y1914603D01*
X1148440Y1914651D01*
X1148367Y1914702D01*
X1148297Y1914756D01*
X1148230Y1914814D01*
X1148164Y1914874D01*
X1148102Y1914936D01*
X1148042Y1915002D01*
X1147984Y1915069D01*
X1147930Y1915139D01*
X1147879Y1915212D01*
X1147831Y1915286D01*
X1147786Y1915363D01*
X1147745Y1915441D01*
X1147706Y1915521D01*
X1147672Y1915602D01*
X1147640Y1915685D01*
X1147613Y1915770D01*
X1147588Y1915855D01*
X1147568Y1915941D01*
X1147551Y1916028D01*
X1147538Y1916116D01*
X1147529Y1916204D01*
X1147523Y1916292D01*
X1147521Y1916381D01*
X1147523Y1916501D01*
X1147528Y1916621D01*
X1147538Y1916740D01*
X1147550Y1916860D01*
X1147567Y1916979D01*
X1147587Y1917097D01*
X1147611Y1917215D01*
X1147638Y1917331D01*
X1147669Y1917447D01*
X1147703Y1917562D01*
X1147741Y1917676D01*
X1147783Y1917789D01*
X1147828Y1917900D01*
X1147876Y1918010D01*
X1147927Y1918118D01*
X1147982Y1918225D01*
X1148040Y1918330D01*
X1148102Y1918433D01*
X1148166Y1918534D01*
X1148234Y1918634D01*
X1148304Y1918731D01*
X1151436Y1915336D02*
X1151388Y1915258D01*
X1151336Y1915182D01*
X1151282Y1915109D01*
X1151224Y1915038D01*
X1151163Y1914969D01*
X1151099Y1914903D01*
X1151032Y1914840D01*
X1150963Y1914780D01*
X1150891Y1914723D01*
X1150817Y1914669D01*
X1150740Y1914619D01*
X1150661Y1914571D01*
X1150581Y1914528D01*
X1150498Y1914487D01*
X1150414Y1914451D01*
X1150329Y1914418D01*
X1150242Y1914389D01*
X1150153Y1914363D01*
X1150064Y1914341D01*
X1149974Y1914324D01*
X1149884Y1914310D01*
X1149792Y1914300D01*
X1149701Y1914294D01*
X1149609Y1914292D01*
X1153004Y1918208D02*
X1153052Y1918286D01*
X1153104Y1918362D01*
X1153158Y1918435D01*
X1153216Y1918506D01*
X1153277Y1918575D01*
X1153341Y1918641D01*
X1153408Y1918704D01*
X1153477Y1918764D01*
X1153549Y1918821D01*
X1153623Y1918875D01*
X1153700Y1918925D01*
X1153779Y1918973D01*
X1153859Y1919016D01*
X1153942Y1919057D01*
X1154026Y1919093D01*
X1154111Y1919126D01*
X1154198Y1919155D01*
X1154287Y1919181D01*
X1154376Y1919203D01*
X1154466Y1919220D01*
X1154556Y1919234D01*
X1154648Y1919244D01*
X1154739Y1919250D01*
X1154831Y1919252D01*
X1153003Y1918208D02*
X1151437Y1915336D01*
X1156919Y1922870D02*
X1156919Y1926003D01*
X1156917Y1926092D01*
X1156911Y1926180D01*
X1156902Y1926268D01*
X1156889Y1926356D01*
X1156872Y1926443D01*
X1156852Y1926529D01*
X1156827Y1926614D01*
X1156800Y1926699D01*
X1156768Y1926782D01*
X1156734Y1926863D01*
X1156695Y1926943D01*
X1156654Y1927021D01*
X1156609Y1927098D01*
X1156561Y1927172D01*
X1156510Y1927245D01*
X1156456Y1927315D01*
X1156398Y1927382D01*
X1156338Y1927448D01*
X1156276Y1927510D01*
X1156210Y1927570D01*
X1156143Y1927628D01*
X1156073Y1927682D01*
X1156000Y1927733D01*
X1155926Y1927781D01*
X1155849Y1927826D01*
X1155771Y1927867D01*
X1155691Y1927906D01*
X1155610Y1927940D01*
X1155527Y1927972D01*
X1155442Y1927999D01*
X1155357Y1928024D01*
X1155271Y1928044D01*
X1155184Y1928061D01*
X1155096Y1928074D01*
X1155008Y1928083D01*
X1154920Y1928089D01*
X1154831Y1928091D01*
X1153786Y1928091D01*
X1153697Y1928089D01*
X1153609Y1928083D01*
X1153521Y1928074D01*
X1153433Y1928061D01*
X1153346Y1928044D01*
X1153260Y1928024D01*
X1153175Y1927999D01*
X1153090Y1927972D01*
X1153007Y1927940D01*
X1152926Y1927906D01*
X1152846Y1927867D01*
X1152768Y1927826D01*
X1152691Y1927781D01*
X1152617Y1927733D01*
X1152544Y1927682D01*
X1152474Y1927628D01*
X1152407Y1927570D01*
X1152341Y1927510D01*
X1152279Y1927448D01*
X1152219Y1927382D01*
X1152161Y1927315D01*
X1152107Y1927245D01*
X1152056Y1927172D01*
X1152008Y1927098D01*
X1151963Y1927021D01*
X1151922Y1926943D01*
X1151883Y1926863D01*
X1151849Y1926782D01*
X1151817Y1926699D01*
X1151790Y1926614D01*
X1151765Y1926529D01*
X1151745Y1926443D01*
X1151728Y1926356D01*
X1151715Y1926268D01*
X1151706Y1926180D01*
X1151700Y1926092D01*
X1151698Y1926003D01*
X1151698Y1922870D01*
X1147521Y1922870D01*
X1147521Y1928091D01*
M02*
