G04 EAGLE Gerber RS-274X export*
G75*
%MOMM*%
%FSLAX34Y34*%
%LPD*%
%INSolderpaste Top*%
%IPPOS*%
%AMOC8*
5,1,8,0,0,1.08239X$1,22.5*%
G01*
%ADD10R,5.100000X2.500000*%
%ADD11R,1.600000X1.300000*%
%ADD12R,1.800000X1.700000*%
%ADD13R,0.900000X0.800000*%
%ADD14R,1.450000X2.100000*%
%ADD15R,1.500000X1.500000*%
%ADD16R,2.500000X2.500000*%
%ADD17C,0.025000*%
%ADD18C,0.295000*%
%ADD19R,1.270000X2.540000*%
%ADD20R,1.300000X1.500000*%


D10*
X900000Y2075500D03*
X900000Y2304500D03*
D11*
X870000Y1990000D03*
X870000Y2010000D03*
X870000Y1945000D03*
X870000Y1925000D03*
X1035000Y1870000D03*
X1035000Y1850000D03*
X960000Y1870000D03*
X960000Y1850000D03*
X1130000Y1950000D03*
X1130000Y1930000D03*
D12*
X1060500Y2160000D03*
X1019500Y2160000D03*
D13*
X1060000Y2120000D03*
X1040000Y2129500D03*
X1040000Y2110500D03*
D11*
X845000Y1944500D03*
X845000Y1925500D03*
X1010000Y1869500D03*
X1010000Y1850500D03*
X985000Y1869500D03*
X985000Y1850500D03*
X1010000Y2110500D03*
X1010000Y2129500D03*
X975000Y1924500D03*
X975000Y1905500D03*
X1103900Y1929900D03*
X1103900Y1948900D03*
X1000000Y1905500D03*
X1000000Y1924500D03*
D14*
X820000Y1875000D03*
X820000Y1938500D03*
D15*
X1076000Y1905500D03*
X1126000Y1905500D03*
X1076000Y1824500D03*
X1126000Y1824500D03*
X919000Y1824500D03*
X869000Y1824500D03*
X919000Y1905500D03*
X869000Y1905500D03*
D16*
X1060900Y1996700D03*
D17*
X1118525Y1984325D02*
X1143275Y1984325D01*
X1118525Y1984325D02*
X1118525Y2009075D01*
X1143275Y2009075D01*
X1143275Y1984325D01*
X1143275Y1984562D02*
X1118525Y1984562D01*
X1118525Y1984799D02*
X1143275Y1984799D01*
X1143275Y1985036D02*
X1118525Y1985036D01*
X1118525Y1985273D02*
X1143275Y1985273D01*
X1143275Y1985510D02*
X1118525Y1985510D01*
X1118525Y1985747D02*
X1143275Y1985747D01*
X1143275Y1985984D02*
X1118525Y1985984D01*
X1118525Y1986221D02*
X1143275Y1986221D01*
X1143275Y1986458D02*
X1118525Y1986458D01*
X1118525Y1986695D02*
X1143275Y1986695D01*
X1143275Y1986932D02*
X1118525Y1986932D01*
X1118525Y1987169D02*
X1143275Y1987169D01*
X1143275Y1987406D02*
X1118525Y1987406D01*
X1118525Y1987643D02*
X1143275Y1987643D01*
X1143275Y1987880D02*
X1118525Y1987880D01*
X1118525Y1988117D02*
X1143275Y1988117D01*
X1143275Y1988354D02*
X1118525Y1988354D01*
X1118525Y1988591D02*
X1143275Y1988591D01*
X1143275Y1988828D02*
X1118525Y1988828D01*
X1118525Y1989065D02*
X1143275Y1989065D01*
X1143275Y1989302D02*
X1118525Y1989302D01*
X1118525Y1989539D02*
X1143275Y1989539D01*
X1143275Y1989776D02*
X1118525Y1989776D01*
X1118525Y1990013D02*
X1143275Y1990013D01*
X1143275Y1990250D02*
X1118525Y1990250D01*
X1118525Y1990487D02*
X1143275Y1990487D01*
X1143275Y1990724D02*
X1118525Y1990724D01*
X1118525Y1990961D02*
X1143275Y1990961D01*
X1143275Y1991198D02*
X1118525Y1991198D01*
X1118525Y1991435D02*
X1143275Y1991435D01*
X1143275Y1991672D02*
X1118525Y1991672D01*
X1118525Y1991909D02*
X1143275Y1991909D01*
X1143275Y1992146D02*
X1118525Y1992146D01*
X1118525Y1992383D02*
X1143275Y1992383D01*
X1143275Y1992620D02*
X1118525Y1992620D01*
X1118525Y1992857D02*
X1143275Y1992857D01*
X1143275Y1993094D02*
X1118525Y1993094D01*
X1118525Y1993331D02*
X1143275Y1993331D01*
X1143275Y1993568D02*
X1118525Y1993568D01*
X1118525Y1993805D02*
X1143275Y1993805D01*
X1143275Y1994042D02*
X1118525Y1994042D01*
X1118525Y1994279D02*
X1143275Y1994279D01*
X1143275Y1994516D02*
X1118525Y1994516D01*
X1118525Y1994753D02*
X1143275Y1994753D01*
X1143275Y1994990D02*
X1118525Y1994990D01*
X1118525Y1995227D02*
X1143275Y1995227D01*
X1143275Y1995464D02*
X1118525Y1995464D01*
X1118525Y1995701D02*
X1143275Y1995701D01*
X1143275Y1995938D02*
X1118525Y1995938D01*
X1118525Y1996175D02*
X1143275Y1996175D01*
X1143275Y1996412D02*
X1118525Y1996412D01*
X1118525Y1996649D02*
X1143275Y1996649D01*
X1143275Y1996886D02*
X1118525Y1996886D01*
X1118525Y1997123D02*
X1143275Y1997123D01*
X1143275Y1997360D02*
X1118525Y1997360D01*
X1118525Y1997597D02*
X1143275Y1997597D01*
X1143275Y1997834D02*
X1118525Y1997834D01*
X1118525Y1998071D02*
X1143275Y1998071D01*
X1143275Y1998308D02*
X1118525Y1998308D01*
X1118525Y1998545D02*
X1143275Y1998545D01*
X1143275Y1998782D02*
X1118525Y1998782D01*
X1118525Y1999019D02*
X1143275Y1999019D01*
X1143275Y1999256D02*
X1118525Y1999256D01*
X1118525Y1999493D02*
X1143275Y1999493D01*
X1143275Y1999730D02*
X1118525Y1999730D01*
X1118525Y1999967D02*
X1143275Y1999967D01*
X1143275Y2000204D02*
X1118525Y2000204D01*
X1118525Y2000441D02*
X1143275Y2000441D01*
X1143275Y2000678D02*
X1118525Y2000678D01*
X1118525Y2000915D02*
X1143275Y2000915D01*
X1143275Y2001152D02*
X1118525Y2001152D01*
X1118525Y2001389D02*
X1143275Y2001389D01*
X1143275Y2001626D02*
X1118525Y2001626D01*
X1118525Y2001863D02*
X1143275Y2001863D01*
X1143275Y2002100D02*
X1118525Y2002100D01*
X1118525Y2002337D02*
X1143275Y2002337D01*
X1143275Y2002574D02*
X1118525Y2002574D01*
X1118525Y2002811D02*
X1143275Y2002811D01*
X1143275Y2003048D02*
X1118525Y2003048D01*
X1118525Y2003285D02*
X1143275Y2003285D01*
X1143275Y2003522D02*
X1118525Y2003522D01*
X1118525Y2003759D02*
X1143275Y2003759D01*
X1143275Y2003996D02*
X1118525Y2003996D01*
X1118525Y2004233D02*
X1143275Y2004233D01*
X1143275Y2004470D02*
X1118525Y2004470D01*
X1118525Y2004707D02*
X1143275Y2004707D01*
X1143275Y2004944D02*
X1118525Y2004944D01*
X1118525Y2005181D02*
X1143275Y2005181D01*
X1143275Y2005418D02*
X1118525Y2005418D01*
X1118525Y2005655D02*
X1143275Y2005655D01*
X1143275Y2005892D02*
X1118525Y2005892D01*
X1118525Y2006129D02*
X1143275Y2006129D01*
X1143275Y2006366D02*
X1118525Y2006366D01*
X1118525Y2006603D02*
X1143275Y2006603D01*
X1143275Y2006840D02*
X1118525Y2006840D01*
X1118525Y2007077D02*
X1143275Y2007077D01*
X1143275Y2007314D02*
X1118525Y2007314D01*
X1118525Y2007551D02*
X1143275Y2007551D01*
X1143275Y2007788D02*
X1118525Y2007788D01*
X1118525Y2008025D02*
X1143275Y2008025D01*
X1143275Y2008262D02*
X1118525Y2008262D01*
X1118525Y2008499D02*
X1143275Y2008499D01*
X1143275Y2008736D02*
X1118525Y2008736D01*
X1118525Y2008973D02*
X1143275Y2008973D01*
D16*
X1060900Y2066700D03*
X1130900Y2066700D03*
D18*
X898375Y1983475D02*
X898375Y1966925D01*
X895425Y1966925D01*
X895425Y1983475D01*
X898375Y1983475D01*
X898375Y1969727D02*
X895425Y1969727D01*
X895425Y1972529D02*
X898375Y1972529D01*
X898375Y1975331D02*
X895425Y1975331D01*
X895425Y1978133D02*
X898375Y1978133D01*
X898375Y1980935D02*
X895425Y1980935D01*
X911075Y1983475D02*
X911075Y1966925D01*
X908125Y1966925D01*
X908125Y1983475D01*
X911075Y1983475D01*
X911075Y1969727D02*
X908125Y1969727D01*
X908125Y1972529D02*
X911075Y1972529D01*
X911075Y1975331D02*
X908125Y1975331D01*
X908125Y1978133D02*
X911075Y1978133D01*
X911075Y1980935D02*
X908125Y1980935D01*
X923775Y1983475D02*
X923775Y1966925D01*
X920825Y1966925D01*
X920825Y1983475D01*
X923775Y1983475D01*
X923775Y1969727D02*
X920825Y1969727D01*
X920825Y1972529D02*
X923775Y1972529D01*
X923775Y1975331D02*
X920825Y1975331D01*
X920825Y1978133D02*
X923775Y1978133D01*
X923775Y1980935D02*
X920825Y1980935D01*
X936475Y1983475D02*
X936475Y1966925D01*
X933525Y1966925D01*
X933525Y1983475D01*
X936475Y1983475D01*
X936475Y1969727D02*
X933525Y1969727D01*
X933525Y1972529D02*
X936475Y1972529D01*
X936475Y1975331D02*
X933525Y1975331D01*
X933525Y1978133D02*
X936475Y1978133D01*
X936475Y1980935D02*
X933525Y1980935D01*
X949175Y1983475D02*
X949175Y1966925D01*
X946225Y1966925D01*
X946225Y1983475D01*
X949175Y1983475D01*
X949175Y1969727D02*
X946225Y1969727D01*
X946225Y1972529D02*
X949175Y1972529D01*
X949175Y1975331D02*
X946225Y1975331D01*
X946225Y1978133D02*
X949175Y1978133D01*
X949175Y1980935D02*
X946225Y1980935D01*
X961875Y1983475D02*
X961875Y1966925D01*
X958925Y1966925D01*
X958925Y1983475D01*
X961875Y1983475D01*
X961875Y1969727D02*
X958925Y1969727D01*
X958925Y1972529D02*
X961875Y1972529D01*
X961875Y1975331D02*
X958925Y1975331D01*
X958925Y1978133D02*
X961875Y1978133D01*
X961875Y1980935D02*
X958925Y1980935D01*
X974575Y1983475D02*
X974575Y1966925D01*
X971625Y1966925D01*
X971625Y1983475D01*
X974575Y1983475D01*
X974575Y1969727D02*
X971625Y1969727D01*
X971625Y1972529D02*
X974575Y1972529D01*
X974575Y1975331D02*
X971625Y1975331D01*
X971625Y1978133D02*
X974575Y1978133D01*
X974575Y1980935D02*
X971625Y1980935D01*
X974575Y2016525D02*
X974575Y2033075D01*
X974575Y2016525D02*
X971625Y2016525D01*
X971625Y2033075D01*
X974575Y2033075D01*
X974575Y2019327D02*
X971625Y2019327D01*
X971625Y2022129D02*
X974575Y2022129D01*
X974575Y2024931D02*
X971625Y2024931D01*
X971625Y2027733D02*
X974575Y2027733D01*
X974575Y2030535D02*
X971625Y2030535D01*
X961875Y2033075D02*
X961875Y2016525D01*
X958925Y2016525D01*
X958925Y2033075D01*
X961875Y2033075D01*
X961875Y2019327D02*
X958925Y2019327D01*
X958925Y2022129D02*
X961875Y2022129D01*
X961875Y2024931D02*
X958925Y2024931D01*
X958925Y2027733D02*
X961875Y2027733D01*
X961875Y2030535D02*
X958925Y2030535D01*
X949175Y2033075D02*
X949175Y2016525D01*
X946225Y2016525D01*
X946225Y2033075D01*
X949175Y2033075D01*
X949175Y2019327D02*
X946225Y2019327D01*
X946225Y2022129D02*
X949175Y2022129D01*
X949175Y2024931D02*
X946225Y2024931D01*
X946225Y2027733D02*
X949175Y2027733D01*
X949175Y2030535D02*
X946225Y2030535D01*
X936475Y2033075D02*
X936475Y2016525D01*
X933525Y2016525D01*
X933525Y2033075D01*
X936475Y2033075D01*
X936475Y2019327D02*
X933525Y2019327D01*
X933525Y2022129D02*
X936475Y2022129D01*
X936475Y2024931D02*
X933525Y2024931D01*
X933525Y2027733D02*
X936475Y2027733D01*
X936475Y2030535D02*
X933525Y2030535D01*
X923775Y2033075D02*
X923775Y2016525D01*
X920825Y2016525D01*
X920825Y2033075D01*
X923775Y2033075D01*
X923775Y2019327D02*
X920825Y2019327D01*
X920825Y2022129D02*
X923775Y2022129D01*
X923775Y2024931D02*
X920825Y2024931D01*
X920825Y2027733D02*
X923775Y2027733D01*
X923775Y2030535D02*
X920825Y2030535D01*
X911075Y2033075D02*
X911075Y2016525D01*
X908125Y2016525D01*
X908125Y2033075D01*
X911075Y2033075D01*
X911075Y2019327D02*
X908125Y2019327D01*
X908125Y2022129D02*
X911075Y2022129D01*
X911075Y2024931D02*
X908125Y2024931D01*
X908125Y2027733D02*
X911075Y2027733D01*
X911075Y2030535D02*
X908125Y2030535D01*
X898375Y2033075D02*
X898375Y2016525D01*
X895425Y2016525D01*
X895425Y2033075D01*
X898375Y2033075D01*
X898375Y2019327D02*
X895425Y2019327D01*
X895425Y2022129D02*
X898375Y2022129D01*
X898375Y2024931D02*
X895425Y2024931D01*
X895425Y2027733D02*
X898375Y2027733D01*
X898375Y2030535D02*
X895425Y2030535D01*
D19*
X1245000Y2047000D03*
X1210000Y2047000D03*
X1175000Y2047000D03*
D20*
X1175500Y1820000D03*
X1194500Y1820000D03*
M02*
