G04 EAGLE Gerber RS-274X export*
G75*
%MOMM*%
%FSLAX34Y34*%
%LPD*%
%INSoldermask Top*%
%IPPOS*%
%AMOC8*
5,1,8,0,0,1.08239X$1,22.5*%
G01*
%ADD10C,18.003200*%
%ADD11R,5.303200X2.703200*%
%ADD12R,1.803200X1.503200*%
%ADD13R,2.003200X1.903200*%
%ADD14R,1.103200X1.003200*%
%ADD15R,1.653200X2.303200*%
%ADD16R,1.703200X1.703200*%
%ADD17R,2.703200X2.703200*%
%ADD18C,0.216253*%
%ADD19C,0.499716*%
%ADD20R,1.473200X2.743200*%
%ADD21R,1.503200X1.703200*%
%ADD22C,0.959600*%


D10*
X900000Y2190000D03*
D11*
X900000Y2075500D03*
X900000Y2304500D03*
D12*
X870000Y1990000D03*
X870000Y2010000D03*
X870000Y1945000D03*
X870000Y1925000D03*
X1035000Y1870000D03*
X1035000Y1850000D03*
X960000Y1870000D03*
X960000Y1850000D03*
X1130000Y1950000D03*
X1130000Y1930000D03*
D13*
X1060500Y2160000D03*
X1019500Y2160000D03*
D14*
X1060000Y2120000D03*
X1040000Y2129500D03*
X1040000Y2110500D03*
D12*
X845000Y1944500D03*
X845000Y1925500D03*
X1010000Y1869500D03*
X1010000Y1850500D03*
X985000Y1869500D03*
X985000Y1850500D03*
X1010000Y2110500D03*
X1010000Y2129500D03*
X975000Y1924500D03*
X975000Y1905500D03*
X1103900Y1929900D03*
X1103900Y1948900D03*
X1000000Y1905500D03*
X1000000Y1924500D03*
D15*
X820000Y1875000D03*
X820000Y1938500D03*
D16*
X1076000Y1905500D03*
X1126000Y1905500D03*
X1076000Y1824500D03*
X1126000Y1824500D03*
X919000Y1824500D03*
X869000Y1824500D03*
X919000Y1905500D03*
X869000Y1905500D03*
D17*
X1060900Y1996700D03*
D18*
X1118465Y1984265D02*
X1143335Y1984265D01*
X1118465Y1984265D02*
X1118465Y2009135D01*
X1143335Y2009135D01*
X1143335Y1984265D01*
X1143335Y1986320D02*
X1118465Y1986320D01*
X1118465Y1988375D02*
X1143335Y1988375D01*
X1143335Y1990430D02*
X1118465Y1990430D01*
X1118465Y1992485D02*
X1143335Y1992485D01*
X1143335Y1994540D02*
X1118465Y1994540D01*
X1118465Y1996595D02*
X1143335Y1996595D01*
X1143335Y1998650D02*
X1118465Y1998650D01*
X1118465Y2000705D02*
X1143335Y2000705D01*
X1143335Y2002760D02*
X1118465Y2002760D01*
X1118465Y2004815D02*
X1143335Y2004815D01*
X1143335Y2006870D02*
X1118465Y2006870D01*
X1118465Y2008925D02*
X1143335Y2008925D01*
D17*
X1060900Y2066700D03*
X1130900Y2066700D03*
D19*
X898368Y1983468D02*
X898368Y1966932D01*
X895432Y1966932D01*
X895432Y1983468D01*
X898368Y1983468D01*
X898368Y1971679D02*
X895432Y1971679D01*
X895432Y1976426D02*
X898368Y1976426D01*
X898368Y1981173D02*
X895432Y1981173D01*
X911068Y1983468D02*
X911068Y1966932D01*
X908132Y1966932D01*
X908132Y1983468D01*
X911068Y1983468D01*
X911068Y1971679D02*
X908132Y1971679D01*
X908132Y1976426D02*
X911068Y1976426D01*
X911068Y1981173D02*
X908132Y1981173D01*
X923768Y1983468D02*
X923768Y1966932D01*
X920832Y1966932D01*
X920832Y1983468D01*
X923768Y1983468D01*
X923768Y1971679D02*
X920832Y1971679D01*
X920832Y1976426D02*
X923768Y1976426D01*
X923768Y1981173D02*
X920832Y1981173D01*
X936468Y1983468D02*
X936468Y1966932D01*
X933532Y1966932D01*
X933532Y1983468D01*
X936468Y1983468D01*
X936468Y1971679D02*
X933532Y1971679D01*
X933532Y1976426D02*
X936468Y1976426D01*
X936468Y1981173D02*
X933532Y1981173D01*
X949168Y1983468D02*
X949168Y1966932D01*
X946232Y1966932D01*
X946232Y1983468D01*
X949168Y1983468D01*
X949168Y1971679D02*
X946232Y1971679D01*
X946232Y1976426D02*
X949168Y1976426D01*
X949168Y1981173D02*
X946232Y1981173D01*
X961868Y1983468D02*
X961868Y1966932D01*
X958932Y1966932D01*
X958932Y1983468D01*
X961868Y1983468D01*
X961868Y1971679D02*
X958932Y1971679D01*
X958932Y1976426D02*
X961868Y1976426D01*
X961868Y1981173D02*
X958932Y1981173D01*
X974568Y1983468D02*
X974568Y1966932D01*
X971632Y1966932D01*
X971632Y1983468D01*
X974568Y1983468D01*
X974568Y1971679D02*
X971632Y1971679D01*
X971632Y1976426D02*
X974568Y1976426D01*
X974568Y1981173D02*
X971632Y1981173D01*
X974568Y2016532D02*
X974568Y2033068D01*
X974568Y2016532D02*
X971632Y2016532D01*
X971632Y2033068D01*
X974568Y2033068D01*
X974568Y2021279D02*
X971632Y2021279D01*
X971632Y2026026D02*
X974568Y2026026D01*
X974568Y2030773D02*
X971632Y2030773D01*
X961868Y2033068D02*
X961868Y2016532D01*
X958932Y2016532D01*
X958932Y2033068D01*
X961868Y2033068D01*
X961868Y2021279D02*
X958932Y2021279D01*
X958932Y2026026D02*
X961868Y2026026D01*
X961868Y2030773D02*
X958932Y2030773D01*
X949168Y2033068D02*
X949168Y2016532D01*
X946232Y2016532D01*
X946232Y2033068D01*
X949168Y2033068D01*
X949168Y2021279D02*
X946232Y2021279D01*
X946232Y2026026D02*
X949168Y2026026D01*
X949168Y2030773D02*
X946232Y2030773D01*
X936468Y2033068D02*
X936468Y2016532D01*
X933532Y2016532D01*
X933532Y2033068D01*
X936468Y2033068D01*
X936468Y2021279D02*
X933532Y2021279D01*
X933532Y2026026D02*
X936468Y2026026D01*
X936468Y2030773D02*
X933532Y2030773D01*
X923768Y2033068D02*
X923768Y2016532D01*
X920832Y2016532D01*
X920832Y2033068D01*
X923768Y2033068D01*
X923768Y2021279D02*
X920832Y2021279D01*
X920832Y2026026D02*
X923768Y2026026D01*
X923768Y2030773D02*
X920832Y2030773D01*
X911068Y2033068D02*
X911068Y2016532D01*
X908132Y2016532D01*
X908132Y2033068D01*
X911068Y2033068D01*
X911068Y2021279D02*
X908132Y2021279D01*
X908132Y2026026D02*
X911068Y2026026D01*
X911068Y2030773D02*
X908132Y2030773D01*
X898368Y2033068D02*
X898368Y2016532D01*
X895432Y2016532D01*
X895432Y2033068D01*
X898368Y2033068D01*
X898368Y2021279D02*
X895432Y2021279D01*
X895432Y2026026D02*
X898368Y2026026D01*
X898368Y2030773D02*
X895432Y2030773D01*
D20*
X1245000Y2047000D03*
X1210000Y2047000D03*
X1175000Y2047000D03*
D21*
X1175500Y1820000D03*
X1194500Y1820000D03*
D22*
X1030000Y2074000D03*
X963000Y2100000D03*
X952500Y1924050D03*
X902970Y1901190D03*
X985000Y1825000D03*
X1027000Y1888000D03*
X1100150Y2062150D03*
X1105000Y2010000D03*
X1150000Y1870000D03*
X1190000Y1870000D03*
X1051000Y2038000D03*
X994500Y2049500D03*
X1040130Y1939290D03*
X963930Y1992630D03*
X891540Y1889760D03*
M02*
