G04 EAGLE Gerber RS-274X export*
G75*
%MOMM*%
%FSLAX34Y34*%
%LPD*%
%INSilkscreen Top*%
%IPPOS*%
%AMOC8*
5,1,8,0,0,1.08239X$1,22.5*%
G01*
%ADD10C,0.127000*%
%ADD11C,0.200000*%
%ADD12C,0.101600*%
%ADD13C,0.152400*%
%ADD14R,0.508000X0.508000*%
%ADD15C,0.300000*%
%ADD16R,0.508000X2.032000*%
%ADD17R,1.905000X0.508000*%
%ADD18C,0.050800*%
%ADD19C,0.304800*%
%ADD20R,0.555000X0.600000*%
%ADD21C,0.177800*%
%ADD22R,0.600000X0.555000*%


D10*
X231300Y634300D02*
X378300Y634300D01*
X378300Y102300D02*
X231300Y102300D01*
X231300Y617800D02*
X231300Y634300D01*
X378300Y634300D02*
X378300Y617800D01*
X231300Y118800D02*
X231300Y102300D01*
X378300Y102300D02*
X378300Y118800D01*
D11*
X214625Y609600D02*
X214627Y609663D01*
X214633Y609725D01*
X214643Y609787D01*
X214656Y609849D01*
X214674Y609909D01*
X214695Y609968D01*
X214720Y610026D01*
X214749Y610082D01*
X214781Y610136D01*
X214816Y610188D01*
X214854Y610237D01*
X214896Y610285D01*
X214940Y610329D01*
X214988Y610371D01*
X215037Y610409D01*
X215089Y610444D01*
X215143Y610476D01*
X215199Y610505D01*
X215257Y610530D01*
X215316Y610551D01*
X215376Y610569D01*
X215438Y610582D01*
X215500Y610592D01*
X215562Y610598D01*
X215625Y610600D01*
X215688Y610598D01*
X215750Y610592D01*
X215812Y610582D01*
X215874Y610569D01*
X215934Y610551D01*
X215993Y610530D01*
X216051Y610505D01*
X216107Y610476D01*
X216161Y610444D01*
X216213Y610409D01*
X216262Y610371D01*
X216310Y610329D01*
X216354Y610285D01*
X216396Y610237D01*
X216434Y610188D01*
X216469Y610136D01*
X216501Y610082D01*
X216530Y610026D01*
X216555Y609968D01*
X216576Y609909D01*
X216594Y609849D01*
X216607Y609787D01*
X216617Y609725D01*
X216623Y609663D01*
X216625Y609600D01*
X216623Y609537D01*
X216617Y609475D01*
X216607Y609413D01*
X216594Y609351D01*
X216576Y609291D01*
X216555Y609232D01*
X216530Y609174D01*
X216501Y609118D01*
X216469Y609064D01*
X216434Y609012D01*
X216396Y608963D01*
X216354Y608915D01*
X216310Y608871D01*
X216262Y608829D01*
X216213Y608791D01*
X216161Y608756D01*
X216107Y608724D01*
X216051Y608695D01*
X215993Y608670D01*
X215934Y608649D01*
X215874Y608631D01*
X215812Y608618D01*
X215750Y608608D01*
X215688Y608602D01*
X215625Y608600D01*
X215562Y608602D01*
X215500Y608608D01*
X215438Y608618D01*
X215376Y608631D01*
X215316Y608649D01*
X215257Y608670D01*
X215199Y608695D01*
X215143Y608724D01*
X215089Y608756D01*
X215037Y608791D01*
X214988Y608829D01*
X214940Y608871D01*
X214896Y608915D01*
X214854Y608963D01*
X214816Y609012D01*
X214781Y609064D01*
X214749Y609118D01*
X214720Y609174D01*
X214695Y609232D01*
X214674Y609291D01*
X214656Y609351D01*
X214643Y609413D01*
X214633Y609475D01*
X214627Y609537D01*
X214625Y609600D01*
D12*
X219225Y642317D02*
X219225Y650764D01*
X219225Y642317D02*
X219227Y642205D01*
X219233Y642093D01*
X219242Y641981D01*
X219256Y641870D01*
X219273Y641759D01*
X219294Y641649D01*
X219319Y641539D01*
X219348Y641431D01*
X219381Y641324D01*
X219417Y641217D01*
X219456Y641113D01*
X219500Y641009D01*
X219547Y640907D01*
X219597Y640807D01*
X219651Y640709D01*
X219708Y640612D01*
X219769Y640518D01*
X219832Y640425D01*
X219899Y640335D01*
X219969Y640248D01*
X220042Y640163D01*
X220118Y640080D01*
X220197Y640000D01*
X220278Y639923D01*
X220362Y639848D01*
X220448Y639777D01*
X220537Y639708D01*
X220628Y639643D01*
X220722Y639581D01*
X220817Y639522D01*
X220915Y639467D01*
X221014Y639415D01*
X221115Y639366D01*
X221218Y639321D01*
X221322Y639279D01*
X221427Y639241D01*
X221534Y639207D01*
X221642Y639176D01*
X221751Y639149D01*
X221861Y639126D01*
X221971Y639107D01*
X222082Y639092D01*
X222194Y639080D01*
X222306Y639072D01*
X222418Y639068D01*
X222530Y639068D01*
X222642Y639072D01*
X222754Y639080D01*
X222866Y639092D01*
X222977Y639107D01*
X223087Y639126D01*
X223197Y639149D01*
X223306Y639176D01*
X223414Y639207D01*
X223521Y639241D01*
X223626Y639279D01*
X223730Y639321D01*
X223833Y639366D01*
X223934Y639415D01*
X224033Y639467D01*
X224131Y639522D01*
X224226Y639581D01*
X224320Y639643D01*
X224411Y639708D01*
X224500Y639777D01*
X224586Y639848D01*
X224670Y639923D01*
X224751Y640000D01*
X224830Y640080D01*
X224906Y640163D01*
X224979Y640248D01*
X225049Y640335D01*
X225116Y640425D01*
X225179Y640518D01*
X225240Y640612D01*
X225297Y640709D01*
X225351Y640807D01*
X225401Y640907D01*
X225448Y641009D01*
X225492Y641113D01*
X225531Y641217D01*
X225567Y641324D01*
X225600Y641431D01*
X225629Y641539D01*
X225654Y641649D01*
X225675Y641759D01*
X225692Y641870D01*
X225706Y641981D01*
X225715Y642093D01*
X225721Y642205D01*
X225723Y642317D01*
X225723Y650764D01*
X231047Y648165D02*
X234296Y650764D01*
X234296Y639068D01*
X231047Y639068D02*
X237545Y639068D01*
D13*
X660400Y469900D02*
X711200Y469900D01*
X711200Y342900D01*
X660400Y342900D01*
X660400Y469900D01*
X711200Y469900D02*
X781050Y469900D01*
X781050Y342900D01*
X711200Y342900D01*
D14*
X685800Y406400D03*
X685800Y457200D03*
X685800Y355600D03*
D12*
X662884Y420290D02*
X653796Y420290D01*
X662884Y420289D02*
X662983Y420287D01*
X663083Y420281D01*
X663182Y420272D01*
X663280Y420259D01*
X663378Y420242D01*
X663476Y420221D01*
X663572Y420196D01*
X663667Y420168D01*
X663761Y420136D01*
X663854Y420101D01*
X663946Y420062D01*
X664036Y420019D01*
X664124Y419974D01*
X664211Y419924D01*
X664295Y419872D01*
X664378Y419816D01*
X664458Y419758D01*
X664536Y419696D01*
X664611Y419631D01*
X664684Y419563D01*
X664754Y419493D01*
X664822Y419420D01*
X664887Y419345D01*
X664949Y419267D01*
X665007Y419187D01*
X665063Y419104D01*
X665115Y419020D01*
X665165Y418933D01*
X665210Y418845D01*
X665253Y418755D01*
X665292Y418663D01*
X665327Y418570D01*
X665359Y418476D01*
X665387Y418381D01*
X665412Y418285D01*
X665433Y418187D01*
X665450Y418089D01*
X665463Y417991D01*
X665472Y417892D01*
X665478Y417792D01*
X665480Y417693D01*
X665480Y416395D01*
X653796Y429133D02*
X653798Y429240D01*
X653804Y429346D01*
X653814Y429452D01*
X653827Y429558D01*
X653845Y429664D01*
X653866Y429768D01*
X653891Y429872D01*
X653920Y429975D01*
X653952Y430076D01*
X653989Y430176D01*
X654029Y430275D01*
X654072Y430373D01*
X654119Y430469D01*
X654170Y430563D01*
X654224Y430655D01*
X654281Y430745D01*
X654341Y430833D01*
X654405Y430918D01*
X654472Y431001D01*
X654542Y431082D01*
X654614Y431160D01*
X654690Y431236D01*
X654768Y431308D01*
X654849Y431378D01*
X654932Y431445D01*
X655017Y431509D01*
X655105Y431569D01*
X655195Y431626D01*
X655287Y431680D01*
X655381Y431731D01*
X655477Y431778D01*
X655575Y431821D01*
X655674Y431861D01*
X655774Y431898D01*
X655875Y431930D01*
X655978Y431959D01*
X656082Y431984D01*
X656186Y432005D01*
X656292Y432023D01*
X656398Y432036D01*
X656504Y432046D01*
X656610Y432052D01*
X656717Y432054D01*
X653796Y429133D02*
X653798Y429012D01*
X653804Y428891D01*
X653814Y428771D01*
X653827Y428650D01*
X653845Y428531D01*
X653866Y428411D01*
X653891Y428293D01*
X653920Y428176D01*
X653953Y428059D01*
X653989Y427944D01*
X654030Y427830D01*
X654073Y427717D01*
X654121Y427605D01*
X654172Y427496D01*
X654227Y427388D01*
X654285Y427281D01*
X654346Y427177D01*
X654411Y427075D01*
X654479Y426975D01*
X654550Y426877D01*
X654624Y426781D01*
X654701Y426688D01*
X654782Y426598D01*
X654865Y426510D01*
X654951Y426425D01*
X655040Y426342D01*
X655131Y426263D01*
X655225Y426186D01*
X655321Y426113D01*
X655419Y426043D01*
X655520Y425976D01*
X655623Y425912D01*
X655728Y425852D01*
X655835Y425794D01*
X655943Y425741D01*
X656053Y425691D01*
X656165Y425645D01*
X656278Y425602D01*
X656393Y425563D01*
X658989Y431080D02*
X658911Y431159D01*
X658831Y431235D01*
X658748Y431308D01*
X658662Y431378D01*
X658575Y431445D01*
X658484Y431509D01*
X658392Y431569D01*
X658298Y431627D01*
X658201Y431681D01*
X658103Y431731D01*
X658003Y431778D01*
X657902Y431822D01*
X657799Y431862D01*
X657694Y431898D01*
X657589Y431930D01*
X657482Y431959D01*
X657375Y431984D01*
X657266Y432006D01*
X657157Y432023D01*
X657048Y432037D01*
X656938Y432046D01*
X656827Y432052D01*
X656717Y432054D01*
X658989Y431080D02*
X665480Y425563D01*
X665480Y432054D01*
D13*
X660400Y647700D02*
X711200Y647700D01*
X711200Y520700D01*
X660400Y520700D01*
X660400Y647700D01*
X711200Y647700D02*
X781050Y647700D01*
X781050Y520700D01*
X711200Y520700D01*
D14*
X685800Y584200D03*
X685800Y635000D03*
X685800Y533400D03*
D12*
X662884Y598090D02*
X653796Y598090D01*
X662884Y598089D02*
X662983Y598087D01*
X663083Y598081D01*
X663182Y598072D01*
X663280Y598059D01*
X663378Y598042D01*
X663476Y598021D01*
X663572Y597996D01*
X663667Y597968D01*
X663761Y597936D01*
X663854Y597901D01*
X663946Y597862D01*
X664036Y597819D01*
X664124Y597774D01*
X664211Y597724D01*
X664295Y597672D01*
X664378Y597616D01*
X664458Y597558D01*
X664536Y597496D01*
X664611Y597431D01*
X664684Y597363D01*
X664754Y597293D01*
X664822Y597220D01*
X664887Y597145D01*
X664949Y597067D01*
X665007Y596987D01*
X665063Y596904D01*
X665115Y596820D01*
X665165Y596733D01*
X665210Y596645D01*
X665253Y596555D01*
X665292Y596463D01*
X665327Y596370D01*
X665359Y596276D01*
X665387Y596181D01*
X665412Y596085D01*
X665433Y595987D01*
X665450Y595889D01*
X665463Y595791D01*
X665472Y595692D01*
X665478Y595592D01*
X665480Y595493D01*
X665480Y594195D01*
X662884Y603363D02*
X653796Y605959D01*
X662884Y603363D02*
X662884Y609854D01*
X660287Y607907D02*
X665480Y607907D01*
D13*
X139700Y63500D02*
X88900Y63500D01*
X88900Y241300D01*
X139700Y241300D01*
X139700Y63500D01*
X88900Y63500D02*
X6350Y63500D01*
X6350Y241300D01*
X88900Y241300D01*
D14*
X114300Y127000D03*
X114300Y76200D03*
X114300Y177800D03*
X114300Y228600D03*
D12*
X134620Y130641D02*
X143708Y130641D01*
X143708Y130640D02*
X143807Y130638D01*
X143907Y130632D01*
X144006Y130623D01*
X144104Y130610D01*
X144202Y130593D01*
X144300Y130572D01*
X144396Y130547D01*
X144491Y130519D01*
X144585Y130487D01*
X144678Y130452D01*
X144770Y130413D01*
X144860Y130370D01*
X144948Y130325D01*
X145035Y130275D01*
X145119Y130223D01*
X145202Y130167D01*
X145282Y130109D01*
X145360Y130047D01*
X145435Y129982D01*
X145508Y129914D01*
X145578Y129844D01*
X145646Y129771D01*
X145711Y129696D01*
X145773Y129618D01*
X145831Y129538D01*
X145887Y129455D01*
X145939Y129371D01*
X145989Y129284D01*
X146034Y129196D01*
X146077Y129106D01*
X146116Y129014D01*
X146151Y128921D01*
X146183Y128827D01*
X146211Y128732D01*
X146236Y128636D01*
X146257Y128538D01*
X146274Y128440D01*
X146287Y128342D01*
X146296Y128243D01*
X146302Y128143D01*
X146304Y128044D01*
X146304Y126746D01*
X146304Y135914D02*
X146304Y139809D01*
X146302Y139908D01*
X146296Y140008D01*
X146287Y140107D01*
X146274Y140205D01*
X146257Y140303D01*
X146236Y140401D01*
X146211Y140497D01*
X146183Y140592D01*
X146151Y140686D01*
X146116Y140779D01*
X146077Y140871D01*
X146034Y140961D01*
X145989Y141049D01*
X145939Y141136D01*
X145887Y141220D01*
X145831Y141303D01*
X145773Y141383D01*
X145711Y141461D01*
X145646Y141536D01*
X145578Y141609D01*
X145508Y141679D01*
X145435Y141747D01*
X145360Y141812D01*
X145282Y141874D01*
X145202Y141932D01*
X145119Y141988D01*
X145035Y142040D01*
X144948Y142090D01*
X144860Y142135D01*
X144770Y142178D01*
X144678Y142217D01*
X144585Y142252D01*
X144491Y142284D01*
X144396Y142312D01*
X144300Y142337D01*
X144202Y142358D01*
X144104Y142375D01*
X144006Y142388D01*
X143907Y142397D01*
X143807Y142403D01*
X143708Y142405D01*
X142409Y142405D01*
X142310Y142403D01*
X142210Y142397D01*
X142111Y142388D01*
X142013Y142375D01*
X141915Y142358D01*
X141817Y142337D01*
X141721Y142312D01*
X141626Y142284D01*
X141532Y142252D01*
X141439Y142217D01*
X141347Y142178D01*
X141257Y142135D01*
X141169Y142090D01*
X141082Y142040D01*
X140998Y141988D01*
X140915Y141932D01*
X140835Y141874D01*
X140757Y141812D01*
X140682Y141747D01*
X140609Y141679D01*
X140539Y141609D01*
X140471Y141536D01*
X140406Y141461D01*
X140344Y141383D01*
X140286Y141303D01*
X140230Y141220D01*
X140178Y141136D01*
X140128Y141049D01*
X140083Y140961D01*
X140040Y140871D01*
X140001Y140779D01*
X139966Y140686D01*
X139934Y140592D01*
X139906Y140497D01*
X139881Y140401D01*
X139860Y140303D01*
X139843Y140205D01*
X139830Y140107D01*
X139821Y140008D01*
X139815Y139908D01*
X139813Y139809D01*
X139813Y135914D01*
X134620Y135914D01*
X134620Y142405D01*
D13*
X76200Y368300D02*
X50800Y368300D01*
X76200Y368300D02*
X76200Y266700D01*
X50800Y266700D01*
X50800Y368300D01*
X76200Y368300D02*
X82550Y368300D01*
X82550Y266700D01*
X76200Y266700D01*
D14*
X63500Y330200D03*
X63500Y304800D03*
X63500Y279400D03*
X63500Y355600D03*
D12*
X40584Y337740D02*
X31496Y337740D01*
X40584Y337739D02*
X40683Y337737D01*
X40783Y337731D01*
X40882Y337722D01*
X40980Y337709D01*
X41078Y337692D01*
X41176Y337671D01*
X41272Y337646D01*
X41367Y337618D01*
X41461Y337586D01*
X41554Y337551D01*
X41646Y337512D01*
X41736Y337469D01*
X41824Y337424D01*
X41911Y337374D01*
X41995Y337322D01*
X42078Y337266D01*
X42158Y337208D01*
X42236Y337146D01*
X42311Y337081D01*
X42384Y337013D01*
X42454Y336943D01*
X42522Y336870D01*
X42587Y336795D01*
X42649Y336717D01*
X42707Y336637D01*
X42763Y336554D01*
X42815Y336470D01*
X42865Y336383D01*
X42910Y336295D01*
X42953Y336205D01*
X42992Y336113D01*
X43027Y336020D01*
X43059Y335926D01*
X43087Y335831D01*
X43112Y335735D01*
X43133Y335637D01*
X43150Y335539D01*
X43163Y335441D01*
X43172Y335342D01*
X43178Y335242D01*
X43180Y335143D01*
X43180Y333845D01*
X36689Y343013D02*
X36689Y346908D01*
X36691Y347007D01*
X36697Y347107D01*
X36706Y347206D01*
X36719Y347304D01*
X36736Y347402D01*
X36757Y347500D01*
X36782Y347596D01*
X36810Y347691D01*
X36842Y347785D01*
X36877Y347878D01*
X36916Y347970D01*
X36959Y348060D01*
X37004Y348148D01*
X37054Y348235D01*
X37106Y348319D01*
X37162Y348402D01*
X37220Y348482D01*
X37282Y348560D01*
X37347Y348635D01*
X37415Y348708D01*
X37485Y348778D01*
X37558Y348846D01*
X37633Y348911D01*
X37711Y348973D01*
X37791Y349031D01*
X37874Y349087D01*
X37958Y349139D01*
X38045Y349189D01*
X38133Y349234D01*
X38223Y349277D01*
X38315Y349316D01*
X38408Y349351D01*
X38502Y349383D01*
X38597Y349411D01*
X38693Y349436D01*
X38791Y349457D01*
X38889Y349474D01*
X38987Y349487D01*
X39086Y349496D01*
X39186Y349502D01*
X39285Y349504D01*
X39934Y349504D01*
X40047Y349502D01*
X40160Y349496D01*
X40273Y349486D01*
X40386Y349472D01*
X40498Y349455D01*
X40609Y349433D01*
X40719Y349408D01*
X40829Y349378D01*
X40937Y349345D01*
X41044Y349308D01*
X41150Y349268D01*
X41254Y349223D01*
X41357Y349175D01*
X41458Y349124D01*
X41557Y349069D01*
X41654Y349011D01*
X41749Y348949D01*
X41842Y348884D01*
X41932Y348816D01*
X42020Y348745D01*
X42106Y348670D01*
X42189Y348593D01*
X42269Y348513D01*
X42346Y348430D01*
X42421Y348344D01*
X42492Y348256D01*
X42560Y348166D01*
X42625Y348073D01*
X42687Y347978D01*
X42745Y347881D01*
X42800Y347782D01*
X42851Y347681D01*
X42899Y347578D01*
X42944Y347474D01*
X42984Y347368D01*
X43021Y347261D01*
X43054Y347153D01*
X43084Y347043D01*
X43109Y346933D01*
X43131Y346822D01*
X43148Y346710D01*
X43162Y346597D01*
X43172Y346484D01*
X43178Y346371D01*
X43180Y346258D01*
X43178Y346145D01*
X43172Y346032D01*
X43162Y345919D01*
X43148Y345806D01*
X43131Y345694D01*
X43109Y345583D01*
X43084Y345473D01*
X43054Y345363D01*
X43021Y345255D01*
X42984Y345148D01*
X42944Y345042D01*
X42899Y344938D01*
X42851Y344835D01*
X42800Y344734D01*
X42745Y344635D01*
X42687Y344538D01*
X42625Y344443D01*
X42560Y344350D01*
X42492Y344260D01*
X42421Y344172D01*
X42346Y344086D01*
X42269Y344003D01*
X42189Y343923D01*
X42106Y343846D01*
X42020Y343771D01*
X41932Y343700D01*
X41842Y343632D01*
X41749Y343567D01*
X41654Y343505D01*
X41557Y343447D01*
X41458Y343392D01*
X41357Y343341D01*
X41254Y343293D01*
X41150Y343248D01*
X41044Y343208D01*
X40937Y343171D01*
X40829Y343138D01*
X40719Y343108D01*
X40609Y343083D01*
X40498Y343061D01*
X40386Y343044D01*
X40273Y343030D01*
X40160Y343020D01*
X40047Y343014D01*
X39934Y343012D01*
X39934Y343013D02*
X36689Y343013D01*
X36546Y343015D01*
X36403Y343021D01*
X36260Y343031D01*
X36118Y343045D01*
X35976Y343062D01*
X35834Y343084D01*
X35693Y343109D01*
X35553Y343139D01*
X35414Y343172D01*
X35276Y343209D01*
X35139Y343250D01*
X35003Y343294D01*
X34868Y343343D01*
X34735Y343395D01*
X34603Y343450D01*
X34473Y343510D01*
X34344Y343573D01*
X34217Y343639D01*
X34093Y343709D01*
X33970Y343782D01*
X33849Y343859D01*
X33730Y343938D01*
X33614Y344022D01*
X33499Y344108D01*
X33388Y344197D01*
X33279Y344290D01*
X33172Y344385D01*
X33068Y344484D01*
X32967Y344585D01*
X32868Y344689D01*
X32773Y344795D01*
X32680Y344905D01*
X32591Y345016D01*
X32505Y345130D01*
X32422Y345247D01*
X32342Y345366D01*
X32265Y345487D01*
X32192Y345609D01*
X32122Y345734D01*
X32056Y345861D01*
X31993Y345990D01*
X31933Y346120D01*
X31878Y346252D01*
X31826Y346385D01*
X31777Y346520D01*
X31733Y346656D01*
X31692Y346793D01*
X31655Y346931D01*
X31622Y347070D01*
X31592Y347210D01*
X31567Y347351D01*
X31545Y347493D01*
X31528Y347635D01*
X31514Y347777D01*
X31504Y347920D01*
X31498Y348063D01*
X31496Y348206D01*
D10*
X628900Y506700D02*
X628900Y661700D01*
X628900Y506700D02*
X437900Y506700D01*
X437900Y661700D01*
X628900Y661700D01*
D15*
X634400Y523010D02*
X634402Y523073D01*
X634408Y523135D01*
X634418Y523197D01*
X634431Y523259D01*
X634449Y523319D01*
X634470Y523378D01*
X634495Y523436D01*
X634524Y523492D01*
X634556Y523546D01*
X634591Y523598D01*
X634629Y523647D01*
X634671Y523695D01*
X634715Y523739D01*
X634763Y523781D01*
X634812Y523819D01*
X634864Y523854D01*
X634918Y523886D01*
X634974Y523915D01*
X635032Y523940D01*
X635091Y523961D01*
X635151Y523979D01*
X635213Y523992D01*
X635275Y524002D01*
X635337Y524008D01*
X635400Y524010D01*
X635463Y524008D01*
X635525Y524002D01*
X635587Y523992D01*
X635649Y523979D01*
X635709Y523961D01*
X635768Y523940D01*
X635826Y523915D01*
X635882Y523886D01*
X635936Y523854D01*
X635988Y523819D01*
X636037Y523781D01*
X636085Y523739D01*
X636129Y523695D01*
X636171Y523647D01*
X636209Y523598D01*
X636244Y523546D01*
X636276Y523492D01*
X636305Y523436D01*
X636330Y523378D01*
X636351Y523319D01*
X636369Y523259D01*
X636382Y523197D01*
X636392Y523135D01*
X636398Y523073D01*
X636400Y523010D01*
X636398Y522947D01*
X636392Y522885D01*
X636382Y522823D01*
X636369Y522761D01*
X636351Y522701D01*
X636330Y522642D01*
X636305Y522584D01*
X636276Y522528D01*
X636244Y522474D01*
X636209Y522422D01*
X636171Y522373D01*
X636129Y522325D01*
X636085Y522281D01*
X636037Y522239D01*
X635988Y522201D01*
X635936Y522166D01*
X635882Y522134D01*
X635826Y522105D01*
X635768Y522080D01*
X635709Y522059D01*
X635649Y522041D01*
X635587Y522028D01*
X635525Y522018D01*
X635463Y522012D01*
X635400Y522010D01*
X635337Y522012D01*
X635275Y522018D01*
X635213Y522028D01*
X635151Y522041D01*
X635091Y522059D01*
X635032Y522080D01*
X634974Y522105D01*
X634918Y522134D01*
X634864Y522166D01*
X634812Y522201D01*
X634763Y522239D01*
X634715Y522281D01*
X634671Y522325D01*
X634629Y522373D01*
X634591Y522422D01*
X634556Y522474D01*
X634524Y522528D01*
X634495Y522584D01*
X634470Y522642D01*
X634449Y522701D01*
X634431Y522761D01*
X634418Y522823D01*
X634408Y522885D01*
X634402Y522947D01*
X634400Y523010D01*
D12*
X581158Y501684D02*
X581158Y489999D01*
X581158Y501684D02*
X584404Y501684D01*
X584517Y501682D01*
X584630Y501676D01*
X584743Y501666D01*
X584856Y501652D01*
X584968Y501635D01*
X585079Y501613D01*
X585189Y501588D01*
X585299Y501558D01*
X585407Y501525D01*
X585514Y501488D01*
X585620Y501448D01*
X585724Y501403D01*
X585827Y501355D01*
X585928Y501304D01*
X586027Y501249D01*
X586124Y501191D01*
X586219Y501129D01*
X586312Y501064D01*
X586402Y500996D01*
X586490Y500925D01*
X586576Y500850D01*
X586659Y500773D01*
X586739Y500693D01*
X586816Y500610D01*
X586891Y500524D01*
X586962Y500436D01*
X587030Y500346D01*
X587095Y500253D01*
X587157Y500158D01*
X587215Y500061D01*
X587270Y499962D01*
X587321Y499861D01*
X587369Y499758D01*
X587414Y499654D01*
X587454Y499548D01*
X587491Y499441D01*
X587524Y499333D01*
X587554Y499223D01*
X587579Y499113D01*
X587601Y499002D01*
X587618Y498890D01*
X587632Y498777D01*
X587642Y498664D01*
X587648Y498551D01*
X587650Y498438D01*
X587648Y498325D01*
X587642Y498212D01*
X587632Y498099D01*
X587618Y497986D01*
X587601Y497874D01*
X587579Y497763D01*
X587554Y497653D01*
X587524Y497543D01*
X587491Y497435D01*
X587454Y497328D01*
X587414Y497222D01*
X587369Y497118D01*
X587321Y497015D01*
X587270Y496914D01*
X587215Y496815D01*
X587157Y496718D01*
X587095Y496623D01*
X587030Y496530D01*
X586962Y496440D01*
X586891Y496352D01*
X586816Y496266D01*
X586739Y496183D01*
X586659Y496103D01*
X586576Y496026D01*
X586490Y495951D01*
X586402Y495880D01*
X586312Y495812D01*
X586219Y495747D01*
X586124Y495685D01*
X586027Y495627D01*
X585928Y495572D01*
X585827Y495521D01*
X585724Y495473D01*
X585620Y495428D01*
X585514Y495388D01*
X585407Y495351D01*
X585299Y495318D01*
X585189Y495288D01*
X585079Y495263D01*
X584968Y495241D01*
X584856Y495224D01*
X584743Y495210D01*
X584630Y495200D01*
X584517Y495194D01*
X584404Y495192D01*
X581158Y495192D01*
X585053Y495192D02*
X587650Y489999D01*
X592919Y489999D02*
X598113Y489999D01*
X592919Y489999D02*
X592919Y501684D01*
X598113Y501684D01*
X596814Y496491D02*
X592919Y496491D01*
X602826Y501684D02*
X602826Y489999D01*
X608019Y489999D01*
X611680Y489999D02*
X615575Y501684D01*
X619470Y489999D01*
X618496Y492920D02*
X612654Y492920D01*
X623111Y501684D02*
X627006Y496166D01*
X630901Y501684D01*
X627006Y496166D02*
X627006Y489999D01*
D13*
X266700Y660400D02*
X260350Y660400D01*
X276860Y666750D02*
X276860Y654050D01*
X266700Y660400D01*
X281940Y660400D01*
X276860Y666750D02*
X266700Y660400D01*
X266700Y654050D01*
X266700Y666750D02*
X269240Y666750D01*
X266700Y666750D02*
X266700Y660400D01*
X287020Y670560D02*
X287120Y670558D01*
X287219Y670552D01*
X287319Y670542D01*
X287417Y670529D01*
X287516Y670511D01*
X287613Y670490D01*
X287709Y670465D01*
X287805Y670436D01*
X287899Y670403D01*
X287992Y670367D01*
X288083Y670327D01*
X288173Y670283D01*
X288261Y670236D01*
X288347Y670186D01*
X288431Y670132D01*
X288513Y670075D01*
X288592Y670015D01*
X288670Y669951D01*
X288744Y669885D01*
X288816Y669816D01*
X288885Y669744D01*
X288951Y669670D01*
X289015Y669592D01*
X289075Y669513D01*
X289132Y669431D01*
X289186Y669347D01*
X289236Y669261D01*
X289283Y669173D01*
X289327Y669083D01*
X289367Y668992D01*
X289403Y668899D01*
X289436Y668805D01*
X289465Y668709D01*
X289490Y668613D01*
X289511Y668516D01*
X289529Y668417D01*
X289542Y668319D01*
X289552Y668219D01*
X289558Y668120D01*
X289560Y668020D01*
X246380Y670560D02*
X246280Y670558D01*
X246181Y670552D01*
X246081Y670542D01*
X245983Y670529D01*
X245884Y670511D01*
X245787Y670490D01*
X245691Y670465D01*
X245595Y670436D01*
X245501Y670403D01*
X245408Y670367D01*
X245317Y670327D01*
X245227Y670283D01*
X245139Y670236D01*
X245053Y670186D01*
X244969Y670132D01*
X244887Y670075D01*
X244808Y670015D01*
X244730Y669951D01*
X244656Y669885D01*
X244584Y669816D01*
X244515Y669744D01*
X244449Y669670D01*
X244385Y669592D01*
X244325Y669513D01*
X244268Y669431D01*
X244214Y669347D01*
X244164Y669261D01*
X244117Y669173D01*
X244073Y669083D01*
X244033Y668992D01*
X243997Y668899D01*
X243964Y668805D01*
X243935Y668709D01*
X243910Y668613D01*
X243889Y668516D01*
X243871Y668417D01*
X243858Y668319D01*
X243848Y668219D01*
X243842Y668120D01*
X243840Y668020D01*
X243840Y652780D02*
X243842Y652680D01*
X243848Y652581D01*
X243858Y652481D01*
X243871Y652383D01*
X243889Y652284D01*
X243910Y652187D01*
X243935Y652091D01*
X243964Y651995D01*
X243997Y651901D01*
X244033Y651808D01*
X244073Y651717D01*
X244117Y651627D01*
X244164Y651539D01*
X244214Y651453D01*
X244268Y651369D01*
X244325Y651287D01*
X244385Y651208D01*
X244449Y651130D01*
X244515Y651056D01*
X244584Y650984D01*
X244656Y650915D01*
X244730Y650849D01*
X244808Y650785D01*
X244887Y650725D01*
X244969Y650668D01*
X245053Y650614D01*
X245139Y650564D01*
X245227Y650517D01*
X245317Y650473D01*
X245408Y650433D01*
X245501Y650397D01*
X245595Y650364D01*
X245691Y650335D01*
X245787Y650310D01*
X245884Y650289D01*
X245983Y650271D01*
X246081Y650258D01*
X246181Y650248D01*
X246280Y650242D01*
X246380Y650240D01*
X287020Y650240D02*
X287120Y650242D01*
X287219Y650248D01*
X287319Y650258D01*
X287417Y650271D01*
X287516Y650289D01*
X287613Y650310D01*
X287709Y650335D01*
X287805Y650364D01*
X287899Y650397D01*
X287992Y650433D01*
X288083Y650473D01*
X288173Y650517D01*
X288261Y650564D01*
X288347Y650614D01*
X288431Y650668D01*
X288513Y650725D01*
X288592Y650785D01*
X288670Y650849D01*
X288744Y650915D01*
X288816Y650984D01*
X288885Y651056D01*
X288951Y651130D01*
X289015Y651208D01*
X289075Y651287D01*
X289132Y651369D01*
X289186Y651453D01*
X289236Y651539D01*
X289283Y651627D01*
X289327Y651717D01*
X289367Y651808D01*
X289403Y651901D01*
X289436Y651995D01*
X289465Y652091D01*
X289490Y652187D01*
X289511Y652284D01*
X289529Y652383D01*
X289542Y652481D01*
X289552Y652581D01*
X289558Y652680D01*
X289560Y652780D01*
X289560Y668020D01*
X243840Y668020D02*
X243840Y652780D01*
X246380Y670560D02*
X287020Y670560D01*
X287020Y650240D02*
X246380Y650240D01*
D16*
X250190Y660400D03*
D17*
X299085Y660400D03*
X234315Y660400D03*
D10*
X244475Y673735D02*
X244475Y685165D01*
X247650Y685165D01*
X247761Y685163D01*
X247871Y685157D01*
X247982Y685148D01*
X248092Y685134D01*
X248201Y685117D01*
X248310Y685096D01*
X248418Y685071D01*
X248525Y685042D01*
X248631Y685010D01*
X248736Y684974D01*
X248839Y684934D01*
X248941Y684891D01*
X249042Y684844D01*
X249141Y684793D01*
X249238Y684740D01*
X249332Y684683D01*
X249425Y684622D01*
X249516Y684559D01*
X249605Y684492D01*
X249691Y684422D01*
X249774Y684349D01*
X249856Y684274D01*
X249934Y684196D01*
X250009Y684114D01*
X250082Y684031D01*
X250152Y683945D01*
X250219Y683856D01*
X250282Y683765D01*
X250343Y683672D01*
X250400Y683578D01*
X250453Y683481D01*
X250504Y683382D01*
X250551Y683281D01*
X250594Y683179D01*
X250634Y683076D01*
X250670Y682971D01*
X250702Y682865D01*
X250731Y682758D01*
X250756Y682650D01*
X250777Y682541D01*
X250794Y682432D01*
X250808Y682322D01*
X250817Y682211D01*
X250823Y682101D01*
X250825Y681990D01*
X250825Y676910D01*
X250823Y676799D01*
X250817Y676689D01*
X250808Y676578D01*
X250794Y676468D01*
X250777Y676359D01*
X250756Y676250D01*
X250731Y676142D01*
X250702Y676035D01*
X250670Y675929D01*
X250634Y675824D01*
X250594Y675721D01*
X250551Y675619D01*
X250504Y675518D01*
X250453Y675419D01*
X250400Y675323D01*
X250343Y675228D01*
X250282Y675135D01*
X250219Y675044D01*
X250152Y674955D01*
X250082Y674869D01*
X250009Y674786D01*
X249934Y674704D01*
X249856Y674626D01*
X249774Y674551D01*
X249691Y674478D01*
X249605Y674408D01*
X249516Y674341D01*
X249425Y674278D01*
X249332Y674217D01*
X249237Y674160D01*
X249141Y674107D01*
X249042Y674056D01*
X248941Y674009D01*
X248839Y673966D01*
X248736Y673926D01*
X248631Y673890D01*
X248525Y673858D01*
X248418Y673829D01*
X248310Y673804D01*
X248201Y673783D01*
X248092Y673766D01*
X247982Y673752D01*
X247871Y673743D01*
X247761Y673737D01*
X247650Y673735D01*
X244475Y673735D01*
X256286Y682625D02*
X259461Y685165D01*
X259461Y673735D01*
X256286Y673735D02*
X262636Y673735D01*
D13*
X571500Y469900D02*
X577850Y469900D01*
X561340Y463550D02*
X561340Y476250D01*
X571500Y469900D01*
X556260Y469900D01*
X561340Y463550D02*
X571500Y469900D01*
X571500Y476250D01*
X571500Y463550D02*
X568960Y463550D01*
X571500Y463550D02*
X571500Y469900D01*
X551180Y459740D02*
X551080Y459742D01*
X550981Y459748D01*
X550881Y459758D01*
X550783Y459771D01*
X550684Y459789D01*
X550587Y459810D01*
X550491Y459835D01*
X550395Y459864D01*
X550301Y459897D01*
X550208Y459933D01*
X550117Y459973D01*
X550027Y460017D01*
X549939Y460064D01*
X549853Y460114D01*
X549769Y460168D01*
X549687Y460225D01*
X549608Y460285D01*
X549530Y460349D01*
X549456Y460415D01*
X549384Y460484D01*
X549315Y460556D01*
X549249Y460630D01*
X549185Y460708D01*
X549125Y460787D01*
X549068Y460869D01*
X549014Y460953D01*
X548964Y461039D01*
X548917Y461127D01*
X548873Y461217D01*
X548833Y461308D01*
X548797Y461401D01*
X548764Y461495D01*
X548735Y461591D01*
X548710Y461687D01*
X548689Y461784D01*
X548671Y461883D01*
X548658Y461981D01*
X548648Y462081D01*
X548642Y462180D01*
X548640Y462280D01*
X591820Y459740D02*
X591920Y459742D01*
X592019Y459748D01*
X592119Y459758D01*
X592217Y459771D01*
X592316Y459789D01*
X592413Y459810D01*
X592509Y459835D01*
X592605Y459864D01*
X592699Y459897D01*
X592792Y459933D01*
X592883Y459973D01*
X592973Y460017D01*
X593061Y460064D01*
X593147Y460114D01*
X593231Y460168D01*
X593313Y460225D01*
X593392Y460285D01*
X593470Y460349D01*
X593544Y460415D01*
X593616Y460484D01*
X593685Y460556D01*
X593751Y460630D01*
X593815Y460708D01*
X593875Y460787D01*
X593932Y460869D01*
X593986Y460953D01*
X594036Y461039D01*
X594083Y461127D01*
X594127Y461217D01*
X594167Y461308D01*
X594203Y461401D01*
X594236Y461495D01*
X594265Y461591D01*
X594290Y461687D01*
X594311Y461784D01*
X594329Y461883D01*
X594342Y461981D01*
X594352Y462081D01*
X594358Y462180D01*
X594360Y462280D01*
X594360Y477520D02*
X594358Y477620D01*
X594352Y477719D01*
X594342Y477819D01*
X594329Y477917D01*
X594311Y478016D01*
X594290Y478113D01*
X594265Y478209D01*
X594236Y478305D01*
X594203Y478399D01*
X594167Y478492D01*
X594127Y478583D01*
X594083Y478673D01*
X594036Y478761D01*
X593986Y478847D01*
X593932Y478931D01*
X593875Y479013D01*
X593815Y479092D01*
X593751Y479170D01*
X593685Y479244D01*
X593616Y479316D01*
X593544Y479385D01*
X593470Y479451D01*
X593392Y479515D01*
X593313Y479575D01*
X593231Y479632D01*
X593147Y479686D01*
X593061Y479736D01*
X592973Y479783D01*
X592883Y479827D01*
X592792Y479867D01*
X592699Y479903D01*
X592605Y479936D01*
X592509Y479965D01*
X592413Y479990D01*
X592316Y480011D01*
X592217Y480029D01*
X592119Y480042D01*
X592019Y480052D01*
X591920Y480058D01*
X591820Y480060D01*
X551180Y480060D02*
X551080Y480058D01*
X550981Y480052D01*
X550881Y480042D01*
X550783Y480029D01*
X550684Y480011D01*
X550587Y479990D01*
X550491Y479965D01*
X550395Y479936D01*
X550301Y479903D01*
X550208Y479867D01*
X550117Y479827D01*
X550027Y479783D01*
X549939Y479736D01*
X549853Y479686D01*
X549769Y479632D01*
X549687Y479575D01*
X549608Y479515D01*
X549530Y479451D01*
X549456Y479385D01*
X549384Y479316D01*
X549315Y479244D01*
X549249Y479170D01*
X549185Y479092D01*
X549125Y479013D01*
X549068Y478931D01*
X549014Y478847D01*
X548964Y478761D01*
X548917Y478673D01*
X548873Y478583D01*
X548833Y478492D01*
X548797Y478399D01*
X548764Y478305D01*
X548735Y478209D01*
X548710Y478113D01*
X548689Y478016D01*
X548671Y477917D01*
X548658Y477819D01*
X548648Y477719D01*
X548642Y477620D01*
X548640Y477520D01*
X548640Y462280D01*
X594360Y462280D02*
X594360Y477520D01*
X591820Y459740D02*
X551180Y459740D01*
X551180Y480060D02*
X591820Y480060D01*
D16*
X588010Y469900D03*
D17*
X539115Y469900D03*
X603885Y469900D03*
D10*
X575564Y456565D02*
X575564Y445135D01*
X575564Y456565D02*
X578739Y456565D01*
X578850Y456563D01*
X578960Y456557D01*
X579071Y456548D01*
X579181Y456534D01*
X579290Y456517D01*
X579399Y456496D01*
X579507Y456471D01*
X579614Y456442D01*
X579720Y456410D01*
X579825Y456374D01*
X579928Y456334D01*
X580030Y456291D01*
X580131Y456244D01*
X580230Y456193D01*
X580327Y456140D01*
X580421Y456083D01*
X580514Y456022D01*
X580605Y455959D01*
X580694Y455892D01*
X580780Y455822D01*
X580863Y455749D01*
X580945Y455674D01*
X581023Y455596D01*
X581098Y455514D01*
X581171Y455431D01*
X581241Y455345D01*
X581308Y455256D01*
X581371Y455165D01*
X581432Y455072D01*
X581489Y454978D01*
X581542Y454881D01*
X581593Y454782D01*
X581640Y454681D01*
X581683Y454579D01*
X581723Y454476D01*
X581759Y454371D01*
X581791Y454265D01*
X581820Y454158D01*
X581845Y454050D01*
X581866Y453941D01*
X581883Y453832D01*
X581897Y453722D01*
X581906Y453611D01*
X581912Y453501D01*
X581914Y453390D01*
X581914Y448310D01*
X581912Y448199D01*
X581906Y448089D01*
X581897Y447978D01*
X581883Y447868D01*
X581866Y447759D01*
X581845Y447650D01*
X581820Y447542D01*
X581791Y447435D01*
X581759Y447329D01*
X581723Y447224D01*
X581683Y447121D01*
X581640Y447019D01*
X581593Y446918D01*
X581542Y446819D01*
X581489Y446722D01*
X581432Y446628D01*
X581371Y446535D01*
X581308Y446444D01*
X581241Y446355D01*
X581171Y446269D01*
X581098Y446186D01*
X581023Y446104D01*
X580945Y446026D01*
X580863Y445951D01*
X580780Y445878D01*
X580694Y445808D01*
X580605Y445741D01*
X580514Y445678D01*
X580421Y445617D01*
X580327Y445560D01*
X580230Y445507D01*
X580131Y445456D01*
X580030Y445409D01*
X579928Y445366D01*
X579825Y445326D01*
X579720Y445290D01*
X579614Y445258D01*
X579507Y445229D01*
X579399Y445204D01*
X579290Y445183D01*
X579181Y445166D01*
X579071Y445152D01*
X578960Y445143D01*
X578850Y445137D01*
X578739Y445135D01*
X575564Y445135D01*
X590868Y456566D02*
X590972Y456564D01*
X591077Y456558D01*
X591181Y456549D01*
X591284Y456536D01*
X591387Y456518D01*
X591489Y456498D01*
X591591Y456473D01*
X591691Y456445D01*
X591791Y456413D01*
X591889Y456377D01*
X591986Y456338D01*
X592081Y456296D01*
X592175Y456250D01*
X592267Y456200D01*
X592357Y456148D01*
X592445Y456092D01*
X592531Y456032D01*
X592615Y455970D01*
X592696Y455905D01*
X592775Y455837D01*
X592852Y455765D01*
X592925Y455692D01*
X592997Y455615D01*
X593065Y455536D01*
X593130Y455455D01*
X593192Y455371D01*
X593252Y455285D01*
X593308Y455197D01*
X593360Y455107D01*
X593410Y455015D01*
X593456Y454921D01*
X593498Y454826D01*
X593537Y454729D01*
X593573Y454631D01*
X593605Y454531D01*
X593633Y454431D01*
X593658Y454329D01*
X593678Y454227D01*
X593696Y454124D01*
X593709Y454021D01*
X593718Y453917D01*
X593724Y453812D01*
X593726Y453708D01*
X590868Y456565D02*
X590750Y456563D01*
X590631Y456557D01*
X590513Y456548D01*
X590396Y456535D01*
X590279Y456517D01*
X590162Y456497D01*
X590046Y456472D01*
X589931Y456444D01*
X589818Y456411D01*
X589705Y456376D01*
X589593Y456336D01*
X589483Y456294D01*
X589374Y456247D01*
X589266Y456197D01*
X589161Y456144D01*
X589057Y456087D01*
X588955Y456027D01*
X588855Y455964D01*
X588757Y455897D01*
X588661Y455828D01*
X588568Y455755D01*
X588477Y455679D01*
X588388Y455601D01*
X588302Y455519D01*
X588219Y455435D01*
X588138Y455349D01*
X588061Y455259D01*
X587986Y455168D01*
X587914Y455074D01*
X587845Y454977D01*
X587780Y454879D01*
X587717Y454778D01*
X587658Y454675D01*
X587602Y454571D01*
X587550Y454465D01*
X587501Y454357D01*
X587456Y454248D01*
X587414Y454137D01*
X587376Y454025D01*
X592773Y451486D02*
X592849Y451561D01*
X592924Y451640D01*
X592995Y451721D01*
X593064Y451805D01*
X593129Y451891D01*
X593191Y451979D01*
X593251Y452069D01*
X593307Y452161D01*
X593360Y452256D01*
X593409Y452352D01*
X593455Y452450D01*
X593498Y452549D01*
X593537Y452650D01*
X593572Y452752D01*
X593604Y452855D01*
X593632Y452959D01*
X593657Y453064D01*
X593678Y453171D01*
X593695Y453277D01*
X593708Y453384D01*
X593717Y453492D01*
X593723Y453600D01*
X593725Y453708D01*
X592773Y451485D02*
X587375Y445135D01*
X593725Y445135D01*
X474980Y496570D02*
X464820Y496570D01*
D18*
X460611Y479470D02*
X461156Y479690D01*
X461706Y479896D01*
X462260Y480089D01*
X462820Y480268D01*
X463383Y480433D01*
X463951Y480585D01*
X464522Y480723D01*
X465096Y480847D01*
X465673Y480957D01*
X466252Y481053D01*
X466834Y481134D01*
X467418Y481202D01*
X468002Y481255D01*
X468589Y481294D01*
X469175Y481319D01*
X469763Y481330D01*
X470350Y481326D01*
X470937Y481308D01*
X471524Y481275D01*
X472109Y481229D01*
X472693Y481168D01*
X473276Y481093D01*
X473856Y481003D01*
X474435Y480900D01*
X475010Y480783D01*
X475583Y480651D01*
X476152Y480506D01*
X476717Y480347D01*
X477278Y480174D01*
X477835Y479988D01*
X478388Y479788D01*
X478935Y479575D01*
X479477Y479348D01*
X480013Y479109D01*
X480543Y478856D01*
X481067Y478590D01*
X481585Y478312D01*
X482095Y478022D01*
X482598Y477719D01*
X483094Y477404D01*
X483582Y477076D01*
X484062Y476738D01*
X484533Y476387D01*
X484996Y476025D01*
X485449Y475652D01*
X485894Y475268D01*
X486329Y474874D01*
X486754Y474469D01*
X487170Y474053D01*
X487575Y473628D01*
X487969Y473193D01*
X488353Y472748D01*
X488726Y472295D01*
X489088Y471832D01*
X489439Y471361D01*
X489777Y470881D01*
X490105Y470393D01*
X490420Y469897D01*
X490723Y469394D01*
X491013Y468884D01*
X491291Y468366D01*
X491557Y467842D01*
X491810Y467312D01*
X492049Y466776D01*
X492276Y466234D01*
X492489Y465687D01*
X492689Y465134D01*
X492875Y464577D01*
X493048Y464016D01*
X493207Y463451D01*
X493352Y462882D01*
X493484Y462309D01*
X493601Y461734D01*
X493704Y461155D01*
X493794Y460575D01*
X493869Y459992D01*
X493930Y459408D01*
X493976Y458823D01*
X494009Y458236D01*
X494027Y457649D01*
X494031Y457062D01*
X494020Y456474D01*
X493995Y455888D01*
X493956Y455301D01*
X493903Y454717D01*
X493835Y454133D01*
X493754Y453551D01*
X493658Y452972D01*
X493548Y452395D01*
X493424Y451821D01*
X493286Y451250D01*
X493134Y450682D01*
X492969Y450119D01*
X492790Y449559D01*
X492597Y449005D01*
X492391Y448455D01*
X492171Y447910D01*
D10*
X464820Y485965D02*
X464820Y496570D01*
D18*
X447630Y466489D02*
X447414Y465953D01*
X447210Y465412D01*
X447020Y464866D01*
X446843Y464316D01*
X446679Y463762D01*
X446529Y463204D01*
X446392Y462643D01*
X446268Y462078D01*
X446158Y461511D01*
X446062Y460941D01*
X445979Y460369D01*
X445910Y459796D01*
X445855Y459220D01*
X445813Y458644D01*
X445786Y458067D01*
X445772Y457489D01*
X445772Y456911D01*
X445786Y456333D01*
X445813Y455756D01*
X445855Y455180D01*
X445910Y454604D01*
X445979Y454031D01*
X446062Y453459D01*
X446158Y452889D01*
X446268Y452322D01*
X446392Y451757D01*
X446529Y451196D01*
X446679Y450638D01*
X446843Y450084D01*
X447020Y449534D01*
X447210Y448988D01*
X447414Y448447D01*
X447630Y447911D01*
D10*
X474980Y485965D02*
X474980Y496570D01*
D18*
X479189Y434930D02*
X478653Y434714D01*
X478112Y434510D01*
X477566Y434320D01*
X477016Y434143D01*
X476462Y433979D01*
X475904Y433829D01*
X475343Y433692D01*
X474778Y433568D01*
X474211Y433458D01*
X473641Y433362D01*
X473069Y433279D01*
X472496Y433210D01*
X471920Y433155D01*
X471344Y433113D01*
X470767Y433086D01*
X470189Y433072D01*
X469611Y433072D01*
X469033Y433086D01*
X468456Y433113D01*
X467880Y433155D01*
X467304Y433210D01*
X466731Y433279D01*
X466159Y433362D01*
X465589Y433458D01*
X465022Y433568D01*
X464457Y433692D01*
X463896Y433829D01*
X463338Y433979D01*
X462784Y434143D01*
X462234Y434320D01*
X461688Y434510D01*
X461147Y434714D01*
X460611Y434930D01*
D10*
X440690Y457200D02*
X440699Y457917D01*
X440725Y458633D01*
X440769Y459349D01*
X440831Y460063D01*
X440910Y460776D01*
X441006Y461486D01*
X441120Y462194D01*
X441251Y462899D01*
X441400Y463600D01*
X441565Y464297D01*
X441748Y464991D01*
X441948Y465679D01*
X442164Y466363D01*
X442397Y467041D01*
X442647Y467713D01*
X442913Y468378D01*
X443196Y469037D01*
X443494Y469689D01*
X443809Y470333D01*
X444139Y470969D01*
X444485Y471598D01*
X444846Y472217D01*
X445222Y472827D01*
X445613Y473428D01*
X446018Y474019D01*
X446438Y474600D01*
X446872Y475171D01*
X447320Y475731D01*
X447782Y476279D01*
X448257Y476816D01*
X448745Y477341D01*
X449245Y477855D01*
X449759Y478355D01*
X450284Y478843D01*
X450821Y479318D01*
X451369Y479780D01*
X451929Y480228D01*
X452500Y480662D01*
X453081Y481082D01*
X453672Y481487D01*
X454273Y481878D01*
X454883Y482254D01*
X455502Y482615D01*
X456131Y482961D01*
X456767Y483291D01*
X457411Y483606D01*
X458063Y483904D01*
X458722Y484187D01*
X459387Y484453D01*
X460059Y484703D01*
X460737Y484936D01*
X461421Y485152D01*
X462109Y485352D01*
X462803Y485535D01*
X463500Y485700D01*
X464201Y485849D01*
X464906Y485980D01*
X465614Y486094D01*
X466324Y486190D01*
X467037Y486269D01*
X467751Y486331D01*
X468467Y486375D01*
X469183Y486401D01*
X469900Y486410D01*
X470617Y486401D01*
X471333Y486375D01*
X472049Y486331D01*
X472763Y486269D01*
X473476Y486190D01*
X474186Y486094D01*
X474894Y485980D01*
X475599Y485849D01*
X476300Y485700D01*
X476997Y485535D01*
X477691Y485352D01*
X478379Y485152D01*
X479063Y484936D01*
X479741Y484703D01*
X480413Y484453D01*
X481078Y484187D01*
X481737Y483904D01*
X482389Y483606D01*
X483033Y483291D01*
X483669Y482961D01*
X484298Y482615D01*
X484917Y482254D01*
X485527Y481878D01*
X486128Y481487D01*
X486719Y481082D01*
X487300Y480662D01*
X487871Y480228D01*
X488431Y479780D01*
X488979Y479318D01*
X489516Y478843D01*
X490041Y478355D01*
X490555Y477855D01*
X491055Y477341D01*
X491543Y476816D01*
X492018Y476279D01*
X492480Y475731D01*
X492928Y475171D01*
X493362Y474600D01*
X493782Y474019D01*
X494187Y473428D01*
X494578Y472827D01*
X494954Y472217D01*
X495315Y471598D01*
X495661Y470969D01*
X495991Y470333D01*
X496306Y469689D01*
X496604Y469037D01*
X496887Y468378D01*
X497153Y467713D01*
X497403Y467041D01*
X497636Y466363D01*
X497852Y465679D01*
X498052Y464991D01*
X498235Y464297D01*
X498400Y463600D01*
X498549Y462899D01*
X498680Y462194D01*
X498794Y461486D01*
X498890Y460776D01*
X498969Y460063D01*
X499031Y459349D01*
X499075Y458633D01*
X499101Y457917D01*
X499110Y457200D01*
X499101Y456483D01*
X499075Y455767D01*
X499031Y455051D01*
X498969Y454337D01*
X498890Y453624D01*
X498794Y452914D01*
X498680Y452206D01*
X498549Y451501D01*
X498400Y450800D01*
X498235Y450103D01*
X498052Y449409D01*
X497852Y448721D01*
X497636Y448037D01*
X497403Y447359D01*
X497153Y446687D01*
X496887Y446022D01*
X496604Y445363D01*
X496306Y444711D01*
X495991Y444067D01*
X495661Y443431D01*
X495315Y442802D01*
X494954Y442183D01*
X494578Y441573D01*
X494187Y440972D01*
X493782Y440381D01*
X493362Y439800D01*
X492928Y439229D01*
X492480Y438669D01*
X492018Y438121D01*
X491543Y437584D01*
X491055Y437059D01*
X490555Y436545D01*
X490041Y436045D01*
X489516Y435557D01*
X488979Y435082D01*
X488431Y434620D01*
X487871Y434172D01*
X487300Y433738D01*
X486719Y433318D01*
X486128Y432913D01*
X485527Y432522D01*
X484917Y432146D01*
X484298Y431785D01*
X483669Y431439D01*
X483033Y431109D01*
X482389Y430794D01*
X481737Y430496D01*
X481078Y430213D01*
X480413Y429947D01*
X479741Y429697D01*
X479063Y429464D01*
X478379Y429248D01*
X477691Y429048D01*
X476997Y428865D01*
X476300Y428700D01*
X475599Y428551D01*
X474894Y428420D01*
X474186Y428306D01*
X473476Y428210D01*
X472763Y428131D01*
X472049Y428069D01*
X471333Y428025D01*
X470617Y427999D01*
X469900Y427990D01*
X469183Y427999D01*
X468467Y428025D01*
X467751Y428069D01*
X467037Y428131D01*
X466324Y428210D01*
X465614Y428306D01*
X464906Y428420D01*
X464201Y428551D01*
X463500Y428700D01*
X462803Y428865D01*
X462109Y429048D01*
X461421Y429248D01*
X460737Y429464D01*
X460059Y429697D01*
X459387Y429947D01*
X458722Y430213D01*
X458063Y430496D01*
X457411Y430794D01*
X456767Y431109D01*
X456131Y431439D01*
X455502Y431785D01*
X454883Y432146D01*
X454273Y432522D01*
X453672Y432913D01*
X453081Y433318D01*
X452500Y433738D01*
X451929Y434172D01*
X451369Y434620D01*
X450821Y435082D01*
X450284Y435557D01*
X449759Y436045D01*
X449245Y436545D01*
X448745Y437059D01*
X448257Y437584D01*
X447782Y438121D01*
X447320Y438669D01*
X446872Y439229D01*
X446438Y439800D01*
X446018Y440381D01*
X445613Y440972D01*
X445222Y441573D01*
X444846Y442183D01*
X444485Y442802D01*
X444139Y443431D01*
X443809Y444067D01*
X443494Y444711D01*
X443196Y445363D01*
X442913Y446022D01*
X442647Y446687D01*
X442397Y447359D01*
X442164Y448037D01*
X441948Y448721D01*
X441748Y449409D01*
X441565Y450103D01*
X441400Y450800D01*
X441251Y451501D01*
X441120Y452206D01*
X441006Y452914D01*
X440910Y453624D01*
X440831Y454337D01*
X440769Y455051D01*
X440725Y455767D01*
X440699Y456483D01*
X440690Y457200D01*
X470535Y410972D02*
X481965Y410972D01*
X470535Y407797D02*
X470535Y414147D01*
X473075Y418465D02*
X470535Y421640D01*
X481965Y421640D01*
X481965Y418465D02*
X481965Y424815D01*
X481330Y322580D02*
X481330Y312420D01*
D18*
X498430Y308211D02*
X498210Y308756D01*
X498004Y309306D01*
X497811Y309860D01*
X497632Y310420D01*
X497467Y310983D01*
X497315Y311551D01*
X497177Y312122D01*
X497053Y312696D01*
X496943Y313273D01*
X496847Y313852D01*
X496766Y314434D01*
X496698Y315018D01*
X496645Y315602D01*
X496606Y316189D01*
X496581Y316775D01*
X496570Y317363D01*
X496574Y317950D01*
X496592Y318537D01*
X496625Y319124D01*
X496671Y319709D01*
X496732Y320293D01*
X496807Y320876D01*
X496897Y321456D01*
X497000Y322035D01*
X497117Y322610D01*
X497249Y323183D01*
X497394Y323752D01*
X497553Y324317D01*
X497726Y324878D01*
X497912Y325435D01*
X498112Y325988D01*
X498325Y326535D01*
X498552Y327077D01*
X498791Y327613D01*
X499044Y328143D01*
X499310Y328667D01*
X499588Y329185D01*
X499878Y329695D01*
X500181Y330198D01*
X500496Y330694D01*
X500824Y331182D01*
X501162Y331662D01*
X501513Y332133D01*
X501875Y332596D01*
X502248Y333049D01*
X502632Y333494D01*
X503026Y333929D01*
X503431Y334354D01*
X503847Y334770D01*
X504272Y335175D01*
X504707Y335569D01*
X505152Y335953D01*
X505605Y336326D01*
X506068Y336688D01*
X506539Y337039D01*
X507019Y337377D01*
X507507Y337705D01*
X508003Y338020D01*
X508506Y338323D01*
X509016Y338613D01*
X509534Y338891D01*
X510058Y339157D01*
X510588Y339410D01*
X511124Y339649D01*
X511666Y339876D01*
X512213Y340089D01*
X512766Y340289D01*
X513323Y340475D01*
X513884Y340648D01*
X514449Y340807D01*
X515018Y340952D01*
X515591Y341084D01*
X516166Y341201D01*
X516745Y341304D01*
X517325Y341394D01*
X517908Y341469D01*
X518492Y341530D01*
X519077Y341576D01*
X519664Y341609D01*
X520251Y341627D01*
X520838Y341631D01*
X521426Y341620D01*
X522012Y341595D01*
X522599Y341556D01*
X523183Y341503D01*
X523767Y341435D01*
X524349Y341354D01*
X524928Y341258D01*
X525505Y341148D01*
X526079Y341024D01*
X526650Y340886D01*
X527218Y340734D01*
X527781Y340569D01*
X528341Y340390D01*
X528895Y340197D01*
X529445Y339991D01*
X529990Y339771D01*
D10*
X491935Y312420D02*
X481330Y312420D01*
D18*
X511411Y295230D02*
X511947Y295014D01*
X512488Y294810D01*
X513034Y294620D01*
X513584Y294443D01*
X514138Y294279D01*
X514696Y294129D01*
X515257Y293992D01*
X515822Y293868D01*
X516389Y293758D01*
X516959Y293662D01*
X517531Y293579D01*
X518104Y293510D01*
X518680Y293455D01*
X519256Y293413D01*
X519833Y293386D01*
X520411Y293372D01*
X520989Y293372D01*
X521567Y293386D01*
X522144Y293413D01*
X522720Y293455D01*
X523296Y293510D01*
X523869Y293579D01*
X524441Y293662D01*
X525011Y293758D01*
X525578Y293868D01*
X526143Y293992D01*
X526704Y294129D01*
X527262Y294279D01*
X527816Y294443D01*
X528366Y294620D01*
X528912Y294810D01*
X529453Y295014D01*
X529989Y295230D01*
D10*
X491935Y322580D02*
X481330Y322580D01*
D18*
X542970Y326789D02*
X543186Y326253D01*
X543390Y325712D01*
X543580Y325166D01*
X543757Y324616D01*
X543921Y324062D01*
X544071Y323504D01*
X544208Y322943D01*
X544332Y322378D01*
X544442Y321811D01*
X544538Y321241D01*
X544621Y320669D01*
X544690Y320096D01*
X544745Y319520D01*
X544787Y318944D01*
X544814Y318367D01*
X544828Y317789D01*
X544828Y317211D01*
X544814Y316633D01*
X544787Y316056D01*
X544745Y315480D01*
X544690Y314904D01*
X544621Y314331D01*
X544538Y313759D01*
X544442Y313189D01*
X544332Y312622D01*
X544208Y312057D01*
X544071Y311496D01*
X543921Y310938D01*
X543757Y310384D01*
X543580Y309834D01*
X543390Y309288D01*
X543186Y308747D01*
X542970Y308211D01*
D10*
X491490Y317500D02*
X491499Y318217D01*
X491525Y318933D01*
X491569Y319649D01*
X491631Y320363D01*
X491710Y321076D01*
X491806Y321786D01*
X491920Y322494D01*
X492051Y323199D01*
X492200Y323900D01*
X492365Y324597D01*
X492548Y325291D01*
X492748Y325979D01*
X492964Y326663D01*
X493197Y327341D01*
X493447Y328013D01*
X493713Y328678D01*
X493996Y329337D01*
X494294Y329989D01*
X494609Y330633D01*
X494939Y331269D01*
X495285Y331898D01*
X495646Y332517D01*
X496022Y333127D01*
X496413Y333728D01*
X496818Y334319D01*
X497238Y334900D01*
X497672Y335471D01*
X498120Y336031D01*
X498582Y336579D01*
X499057Y337116D01*
X499545Y337641D01*
X500045Y338155D01*
X500559Y338655D01*
X501084Y339143D01*
X501621Y339618D01*
X502169Y340080D01*
X502729Y340528D01*
X503300Y340962D01*
X503881Y341382D01*
X504472Y341787D01*
X505073Y342178D01*
X505683Y342554D01*
X506302Y342915D01*
X506931Y343261D01*
X507567Y343591D01*
X508211Y343906D01*
X508863Y344204D01*
X509522Y344487D01*
X510187Y344753D01*
X510859Y345003D01*
X511537Y345236D01*
X512221Y345452D01*
X512909Y345652D01*
X513603Y345835D01*
X514300Y346000D01*
X515001Y346149D01*
X515706Y346280D01*
X516414Y346394D01*
X517124Y346490D01*
X517837Y346569D01*
X518551Y346631D01*
X519267Y346675D01*
X519983Y346701D01*
X520700Y346710D01*
X521417Y346701D01*
X522133Y346675D01*
X522849Y346631D01*
X523563Y346569D01*
X524276Y346490D01*
X524986Y346394D01*
X525694Y346280D01*
X526399Y346149D01*
X527100Y346000D01*
X527797Y345835D01*
X528491Y345652D01*
X529179Y345452D01*
X529863Y345236D01*
X530541Y345003D01*
X531213Y344753D01*
X531878Y344487D01*
X532537Y344204D01*
X533189Y343906D01*
X533833Y343591D01*
X534469Y343261D01*
X535098Y342915D01*
X535717Y342554D01*
X536327Y342178D01*
X536928Y341787D01*
X537519Y341382D01*
X538100Y340962D01*
X538671Y340528D01*
X539231Y340080D01*
X539779Y339618D01*
X540316Y339143D01*
X540841Y338655D01*
X541355Y338155D01*
X541855Y337641D01*
X542343Y337116D01*
X542818Y336579D01*
X543280Y336031D01*
X543728Y335471D01*
X544162Y334900D01*
X544582Y334319D01*
X544987Y333728D01*
X545378Y333127D01*
X545754Y332517D01*
X546115Y331898D01*
X546461Y331269D01*
X546791Y330633D01*
X547106Y329989D01*
X547404Y329337D01*
X547687Y328678D01*
X547953Y328013D01*
X548203Y327341D01*
X548436Y326663D01*
X548652Y325979D01*
X548852Y325291D01*
X549035Y324597D01*
X549200Y323900D01*
X549349Y323199D01*
X549480Y322494D01*
X549594Y321786D01*
X549690Y321076D01*
X549769Y320363D01*
X549831Y319649D01*
X549875Y318933D01*
X549901Y318217D01*
X549910Y317500D01*
X549901Y316783D01*
X549875Y316067D01*
X549831Y315351D01*
X549769Y314637D01*
X549690Y313924D01*
X549594Y313214D01*
X549480Y312506D01*
X549349Y311801D01*
X549200Y311100D01*
X549035Y310403D01*
X548852Y309709D01*
X548652Y309021D01*
X548436Y308337D01*
X548203Y307659D01*
X547953Y306987D01*
X547687Y306322D01*
X547404Y305663D01*
X547106Y305011D01*
X546791Y304367D01*
X546461Y303731D01*
X546115Y303102D01*
X545754Y302483D01*
X545378Y301873D01*
X544987Y301272D01*
X544582Y300681D01*
X544162Y300100D01*
X543728Y299529D01*
X543280Y298969D01*
X542818Y298421D01*
X542343Y297884D01*
X541855Y297359D01*
X541355Y296845D01*
X540841Y296345D01*
X540316Y295857D01*
X539779Y295382D01*
X539231Y294920D01*
X538671Y294472D01*
X538100Y294038D01*
X537519Y293618D01*
X536928Y293213D01*
X536327Y292822D01*
X535717Y292446D01*
X535098Y292085D01*
X534469Y291739D01*
X533833Y291409D01*
X533189Y291094D01*
X532537Y290796D01*
X531878Y290513D01*
X531213Y290247D01*
X530541Y289997D01*
X529863Y289764D01*
X529179Y289548D01*
X528491Y289348D01*
X527797Y289165D01*
X527100Y289000D01*
X526399Y288851D01*
X525694Y288720D01*
X524986Y288606D01*
X524276Y288510D01*
X523563Y288431D01*
X522849Y288369D01*
X522133Y288325D01*
X521417Y288299D01*
X520700Y288290D01*
X519983Y288299D01*
X519267Y288325D01*
X518551Y288369D01*
X517837Y288431D01*
X517124Y288510D01*
X516414Y288606D01*
X515706Y288720D01*
X515001Y288851D01*
X514300Y289000D01*
X513603Y289165D01*
X512909Y289348D01*
X512221Y289548D01*
X511537Y289764D01*
X510859Y289997D01*
X510187Y290247D01*
X509522Y290513D01*
X508863Y290796D01*
X508211Y291094D01*
X507567Y291409D01*
X506931Y291739D01*
X506302Y292085D01*
X505683Y292446D01*
X505073Y292822D01*
X504472Y293213D01*
X503881Y293618D01*
X503300Y294038D01*
X502729Y294472D01*
X502169Y294920D01*
X501621Y295382D01*
X501084Y295857D01*
X500559Y296345D01*
X500045Y296845D01*
X499545Y297359D01*
X499057Y297884D01*
X498582Y298421D01*
X498120Y298969D01*
X497672Y299529D01*
X497238Y300100D01*
X496818Y300681D01*
X496413Y301272D01*
X496022Y301873D01*
X495646Y302483D01*
X495285Y303102D01*
X494939Y303731D01*
X494609Y304367D01*
X494294Y305011D01*
X493996Y305663D01*
X493713Y306322D01*
X493447Y306987D01*
X493197Y307659D01*
X492964Y308337D01*
X492748Y309021D01*
X492548Y309709D01*
X492365Y310403D01*
X492200Y311100D01*
X492051Y311801D01*
X491920Y312506D01*
X491806Y313214D01*
X491710Y313924D01*
X491631Y314637D01*
X491569Y315351D01*
X491525Y316067D01*
X491499Y316783D01*
X491490Y317500D01*
X556260Y318135D02*
X556260Y329565D01*
X553085Y329565D02*
X559435Y329565D01*
X567246Y329566D02*
X567350Y329564D01*
X567455Y329558D01*
X567559Y329549D01*
X567662Y329536D01*
X567765Y329518D01*
X567867Y329498D01*
X567969Y329473D01*
X568069Y329445D01*
X568169Y329413D01*
X568267Y329377D01*
X568364Y329338D01*
X568459Y329296D01*
X568553Y329250D01*
X568645Y329200D01*
X568735Y329148D01*
X568823Y329092D01*
X568909Y329032D01*
X568993Y328970D01*
X569074Y328905D01*
X569153Y328837D01*
X569230Y328765D01*
X569303Y328692D01*
X569375Y328615D01*
X569443Y328536D01*
X569508Y328455D01*
X569570Y328371D01*
X569630Y328285D01*
X569686Y328197D01*
X569738Y328107D01*
X569788Y328015D01*
X569834Y327921D01*
X569876Y327826D01*
X569915Y327729D01*
X569951Y327631D01*
X569983Y327531D01*
X570011Y327431D01*
X570036Y327329D01*
X570056Y327227D01*
X570074Y327124D01*
X570087Y327021D01*
X570096Y326917D01*
X570102Y326812D01*
X570104Y326708D01*
X567246Y329565D02*
X567128Y329563D01*
X567009Y329557D01*
X566891Y329548D01*
X566774Y329535D01*
X566657Y329517D01*
X566540Y329497D01*
X566424Y329472D01*
X566309Y329444D01*
X566196Y329411D01*
X566083Y329376D01*
X565971Y329336D01*
X565861Y329294D01*
X565752Y329247D01*
X565644Y329197D01*
X565539Y329144D01*
X565435Y329087D01*
X565333Y329027D01*
X565233Y328964D01*
X565135Y328897D01*
X565039Y328828D01*
X564946Y328755D01*
X564855Y328679D01*
X564766Y328601D01*
X564680Y328519D01*
X564597Y328435D01*
X564516Y328349D01*
X564439Y328259D01*
X564364Y328168D01*
X564292Y328074D01*
X564223Y327977D01*
X564158Y327879D01*
X564095Y327778D01*
X564036Y327675D01*
X563980Y327571D01*
X563928Y327465D01*
X563879Y327357D01*
X563834Y327248D01*
X563792Y327137D01*
X563754Y327025D01*
X569151Y324486D02*
X569227Y324561D01*
X569302Y324640D01*
X569373Y324721D01*
X569442Y324805D01*
X569507Y324891D01*
X569569Y324979D01*
X569629Y325069D01*
X569685Y325161D01*
X569738Y325256D01*
X569787Y325352D01*
X569833Y325450D01*
X569876Y325549D01*
X569915Y325650D01*
X569950Y325752D01*
X569982Y325855D01*
X570010Y325959D01*
X570035Y326064D01*
X570056Y326171D01*
X570073Y326277D01*
X570086Y326384D01*
X570095Y326492D01*
X570101Y326600D01*
X570103Y326708D01*
X569151Y324485D02*
X563753Y318135D01*
X570103Y318135D01*
D13*
X146050Y295910D02*
X133350Y295910D01*
X133210Y295912D01*
X133070Y295918D01*
X132930Y295927D01*
X132791Y295941D01*
X132652Y295958D01*
X132514Y295979D01*
X132376Y296004D01*
X132239Y296033D01*
X132103Y296065D01*
X131968Y296102D01*
X131834Y296142D01*
X131701Y296185D01*
X131569Y296233D01*
X131438Y296283D01*
X131309Y296338D01*
X131182Y296396D01*
X131056Y296457D01*
X130932Y296522D01*
X130810Y296591D01*
X130690Y296662D01*
X130572Y296737D01*
X130455Y296815D01*
X130341Y296897D01*
X130230Y296981D01*
X130121Y297069D01*
X130014Y297159D01*
X129909Y297253D01*
X129808Y297349D01*
X129709Y297448D01*
X129613Y297549D01*
X129519Y297654D01*
X129429Y297761D01*
X129341Y297870D01*
X129257Y297981D01*
X129175Y298095D01*
X129097Y298212D01*
X129022Y298330D01*
X128951Y298450D01*
X128882Y298572D01*
X128817Y298696D01*
X128756Y298822D01*
X128698Y298949D01*
X128643Y299078D01*
X128593Y299209D01*
X128545Y299341D01*
X128502Y299474D01*
X128462Y299608D01*
X128425Y299743D01*
X128393Y299879D01*
X128364Y300016D01*
X128339Y300154D01*
X128318Y300292D01*
X128301Y300431D01*
X128287Y300570D01*
X128278Y300710D01*
X128272Y300850D01*
X128270Y300990D01*
X146050Y295910D02*
X146190Y295912D01*
X146330Y295918D01*
X146470Y295927D01*
X146609Y295941D01*
X146748Y295958D01*
X146886Y295979D01*
X147024Y296004D01*
X147161Y296033D01*
X147297Y296065D01*
X147432Y296102D01*
X147566Y296142D01*
X147699Y296185D01*
X147831Y296233D01*
X147962Y296283D01*
X148091Y296338D01*
X148218Y296396D01*
X148344Y296457D01*
X148468Y296522D01*
X148590Y296591D01*
X148710Y296662D01*
X148828Y296737D01*
X148945Y296815D01*
X149059Y296897D01*
X149170Y296981D01*
X149279Y297069D01*
X149386Y297159D01*
X149491Y297253D01*
X149592Y297349D01*
X149691Y297448D01*
X149787Y297549D01*
X149881Y297654D01*
X149971Y297761D01*
X150059Y297870D01*
X150143Y297981D01*
X150225Y298095D01*
X150303Y298212D01*
X150378Y298330D01*
X150449Y298450D01*
X150518Y298572D01*
X150583Y298696D01*
X150644Y298822D01*
X150702Y298949D01*
X150757Y299078D01*
X150807Y299209D01*
X150855Y299341D01*
X150898Y299474D01*
X150938Y299608D01*
X150975Y299743D01*
X151007Y299879D01*
X151036Y300016D01*
X151061Y300154D01*
X151082Y300292D01*
X151099Y300431D01*
X151113Y300570D01*
X151122Y300710D01*
X151128Y300850D01*
X151130Y300990D01*
X128270Y300990D02*
X128270Y334010D01*
X133350Y339090D02*
X146050Y339090D01*
X151130Y334010D02*
X151130Y300990D01*
X128270Y334010D02*
X128272Y334150D01*
X128278Y334290D01*
X128287Y334430D01*
X128301Y334569D01*
X128318Y334708D01*
X128339Y334846D01*
X128364Y334984D01*
X128393Y335121D01*
X128425Y335257D01*
X128462Y335392D01*
X128502Y335526D01*
X128545Y335659D01*
X128593Y335791D01*
X128643Y335922D01*
X128698Y336051D01*
X128756Y336178D01*
X128817Y336304D01*
X128882Y336428D01*
X128951Y336550D01*
X129022Y336670D01*
X129097Y336788D01*
X129175Y336905D01*
X129257Y337019D01*
X129341Y337130D01*
X129429Y337239D01*
X129519Y337346D01*
X129613Y337451D01*
X129709Y337552D01*
X129808Y337651D01*
X129909Y337747D01*
X130014Y337841D01*
X130121Y337931D01*
X130230Y338019D01*
X130341Y338103D01*
X130455Y338185D01*
X130572Y338263D01*
X130690Y338338D01*
X130810Y338409D01*
X130932Y338478D01*
X131056Y338543D01*
X131182Y338604D01*
X131309Y338662D01*
X131438Y338717D01*
X131569Y338767D01*
X131701Y338815D01*
X131834Y338858D01*
X131968Y338898D01*
X132103Y338935D01*
X132239Y338967D01*
X132376Y338996D01*
X132514Y339021D01*
X132652Y339042D01*
X132791Y339059D01*
X132930Y339073D01*
X133070Y339082D01*
X133210Y339088D01*
X133350Y339090D01*
X146050Y339090D02*
X146190Y339088D01*
X146330Y339082D01*
X146470Y339073D01*
X146609Y339059D01*
X146748Y339042D01*
X146886Y339021D01*
X147024Y338996D01*
X147161Y338967D01*
X147297Y338935D01*
X147432Y338898D01*
X147566Y338858D01*
X147699Y338815D01*
X147831Y338767D01*
X147962Y338717D01*
X148091Y338662D01*
X148218Y338604D01*
X148344Y338543D01*
X148468Y338478D01*
X148590Y338409D01*
X148710Y338338D01*
X148828Y338263D01*
X148945Y338185D01*
X149059Y338103D01*
X149170Y338019D01*
X149279Y337931D01*
X149386Y337841D01*
X149491Y337747D01*
X149592Y337651D01*
X149691Y337552D01*
X149787Y337451D01*
X149881Y337346D01*
X149971Y337239D01*
X150059Y337130D01*
X150143Y337019D01*
X150225Y336905D01*
X150303Y336788D01*
X150378Y336670D01*
X150449Y336550D01*
X150518Y336428D01*
X150583Y336304D01*
X150644Y336178D01*
X150702Y336051D01*
X150757Y335922D01*
X150807Y335791D01*
X150855Y335659D01*
X150898Y335526D01*
X150938Y335392D01*
X150975Y335257D01*
X151007Y335121D01*
X151036Y334984D01*
X151061Y334846D01*
X151082Y334708D01*
X151099Y334569D01*
X151113Y334430D01*
X151122Y334290D01*
X151128Y334150D01*
X151130Y334010D01*
D19*
X147320Y314452D02*
X132080Y314452D01*
X132080Y320802D02*
X147320Y320802D01*
D10*
X125095Y305435D02*
X125095Y302895D01*
X125093Y302795D01*
X125087Y302696D01*
X125077Y302596D01*
X125064Y302498D01*
X125046Y302399D01*
X125025Y302302D01*
X125000Y302206D01*
X124971Y302110D01*
X124938Y302016D01*
X124902Y301923D01*
X124862Y301832D01*
X124818Y301742D01*
X124771Y301654D01*
X124721Y301568D01*
X124667Y301484D01*
X124610Y301402D01*
X124550Y301323D01*
X124486Y301245D01*
X124420Y301171D01*
X124351Y301099D01*
X124279Y301030D01*
X124205Y300964D01*
X124127Y300900D01*
X124048Y300840D01*
X123966Y300783D01*
X123882Y300729D01*
X123796Y300679D01*
X123708Y300632D01*
X123618Y300588D01*
X123527Y300548D01*
X123434Y300512D01*
X123340Y300479D01*
X123244Y300450D01*
X123148Y300425D01*
X123051Y300404D01*
X122952Y300386D01*
X122854Y300373D01*
X122754Y300363D01*
X122655Y300357D01*
X122555Y300355D01*
X116205Y300355D01*
X116105Y300357D01*
X116006Y300363D01*
X115906Y300373D01*
X115808Y300386D01*
X115709Y300404D01*
X115612Y300425D01*
X115516Y300450D01*
X115420Y300479D01*
X115326Y300512D01*
X115233Y300548D01*
X115142Y300588D01*
X115052Y300632D01*
X114964Y300679D01*
X114878Y300729D01*
X114794Y300783D01*
X114712Y300840D01*
X114633Y300900D01*
X114555Y300964D01*
X114481Y301030D01*
X114409Y301099D01*
X114340Y301171D01*
X114274Y301245D01*
X114210Y301323D01*
X114150Y301402D01*
X114093Y301484D01*
X114039Y301568D01*
X113989Y301654D01*
X113942Y301742D01*
X113898Y301832D01*
X113858Y301923D01*
X113822Y302016D01*
X113789Y302110D01*
X113760Y302206D01*
X113735Y302302D01*
X113714Y302399D01*
X113696Y302498D01*
X113683Y302596D01*
X113673Y302696D01*
X113667Y302795D01*
X113665Y302895D01*
X113665Y305435D01*
X125095Y309917D02*
X125095Y313727D01*
X125093Y313827D01*
X125087Y313926D01*
X125077Y314026D01*
X125064Y314124D01*
X125046Y314223D01*
X125025Y314320D01*
X125000Y314416D01*
X124971Y314512D01*
X124938Y314606D01*
X124902Y314699D01*
X124862Y314790D01*
X124818Y314880D01*
X124771Y314968D01*
X124721Y315054D01*
X124667Y315138D01*
X124610Y315220D01*
X124550Y315299D01*
X124486Y315377D01*
X124420Y315451D01*
X124351Y315523D01*
X124279Y315592D01*
X124205Y315658D01*
X124127Y315722D01*
X124048Y315782D01*
X123966Y315839D01*
X123882Y315893D01*
X123796Y315943D01*
X123708Y315990D01*
X123618Y316034D01*
X123527Y316074D01*
X123434Y316110D01*
X123340Y316143D01*
X123244Y316172D01*
X123148Y316197D01*
X123051Y316218D01*
X122952Y316236D01*
X122854Y316249D01*
X122754Y316259D01*
X122655Y316265D01*
X122555Y316267D01*
X121285Y316267D01*
X121185Y316265D01*
X121086Y316259D01*
X120986Y316249D01*
X120888Y316236D01*
X120789Y316218D01*
X120692Y316197D01*
X120596Y316172D01*
X120500Y316143D01*
X120406Y316110D01*
X120313Y316074D01*
X120222Y316034D01*
X120132Y315990D01*
X120044Y315943D01*
X119958Y315893D01*
X119874Y315839D01*
X119792Y315782D01*
X119713Y315722D01*
X119635Y315658D01*
X119561Y315592D01*
X119489Y315523D01*
X119420Y315451D01*
X119354Y315377D01*
X119290Y315299D01*
X119230Y315220D01*
X119173Y315138D01*
X119119Y315054D01*
X119069Y314968D01*
X119022Y314880D01*
X118978Y314790D01*
X118938Y314699D01*
X118902Y314606D01*
X118869Y314512D01*
X118840Y314416D01*
X118815Y314320D01*
X118794Y314223D01*
X118776Y314124D01*
X118763Y314026D01*
X118753Y313926D01*
X118747Y313827D01*
X118745Y313727D01*
X118745Y309917D01*
X113665Y309917D01*
X113665Y316267D01*
D13*
X450800Y357050D02*
X514400Y357050D01*
X514400Y379550D02*
X450800Y379550D01*
X450800Y357050D01*
X514400Y357050D02*
X514400Y379550D01*
D20*
X447275Y368300D03*
X517925Y368300D03*
D21*
X451739Y359791D02*
X451739Y343789D01*
X451739Y359791D02*
X456184Y359791D01*
X456316Y359789D01*
X456447Y359783D01*
X456579Y359773D01*
X456710Y359760D01*
X456840Y359742D01*
X456970Y359721D01*
X457100Y359696D01*
X457228Y359667D01*
X457356Y359634D01*
X457482Y359597D01*
X457608Y359557D01*
X457732Y359513D01*
X457855Y359465D01*
X457976Y359414D01*
X458096Y359359D01*
X458214Y359301D01*
X458330Y359239D01*
X458444Y359173D01*
X458557Y359105D01*
X458667Y359033D01*
X458775Y358958D01*
X458881Y358879D01*
X458985Y358798D01*
X459086Y358713D01*
X459184Y358626D01*
X459280Y358535D01*
X459373Y358442D01*
X459464Y358346D01*
X459551Y358248D01*
X459636Y358147D01*
X459717Y358043D01*
X459796Y357937D01*
X459871Y357829D01*
X459943Y357719D01*
X460011Y357606D01*
X460077Y357492D01*
X460139Y357376D01*
X460197Y357258D01*
X460252Y357138D01*
X460303Y357017D01*
X460351Y356894D01*
X460395Y356770D01*
X460435Y356644D01*
X460472Y356518D01*
X460505Y356390D01*
X460534Y356262D01*
X460559Y356132D01*
X460580Y356002D01*
X460598Y355872D01*
X460611Y355741D01*
X460621Y355609D01*
X460627Y355478D01*
X460629Y355346D01*
X460627Y355214D01*
X460621Y355083D01*
X460611Y354951D01*
X460598Y354820D01*
X460580Y354690D01*
X460559Y354560D01*
X460534Y354430D01*
X460505Y354302D01*
X460472Y354174D01*
X460435Y354048D01*
X460395Y353922D01*
X460351Y353798D01*
X460303Y353675D01*
X460252Y353554D01*
X460197Y353434D01*
X460139Y353316D01*
X460077Y353200D01*
X460011Y353086D01*
X459943Y352973D01*
X459871Y352863D01*
X459796Y352755D01*
X459717Y352649D01*
X459636Y352545D01*
X459551Y352444D01*
X459464Y352346D01*
X459373Y352250D01*
X459280Y352157D01*
X459184Y352066D01*
X459086Y351979D01*
X458985Y351894D01*
X458881Y351813D01*
X458775Y351734D01*
X458667Y351659D01*
X458557Y351587D01*
X458444Y351519D01*
X458330Y351453D01*
X458214Y351391D01*
X458096Y351333D01*
X457976Y351278D01*
X457855Y351227D01*
X457732Y351179D01*
X457608Y351135D01*
X457482Y351095D01*
X457356Y351058D01*
X457228Y351025D01*
X457100Y350996D01*
X456970Y350971D01*
X456840Y350950D01*
X456710Y350932D01*
X456579Y350919D01*
X456447Y350909D01*
X456316Y350903D01*
X456184Y350901D01*
X451739Y350901D01*
X457073Y350901D02*
X460629Y343789D01*
X467269Y356235D02*
X471714Y359791D01*
X471714Y343789D01*
X467269Y343789D02*
X476159Y343789D01*
X482900Y351790D02*
X482904Y352105D01*
X482915Y352419D01*
X482934Y352734D01*
X482960Y353047D01*
X482994Y353360D01*
X483035Y353672D01*
X483084Y353983D01*
X483140Y354293D01*
X483203Y354602D01*
X483274Y354908D01*
X483352Y355213D01*
X483437Y355516D01*
X483530Y355817D01*
X483630Y356116D01*
X483737Y356412D01*
X483850Y356706D01*
X483971Y356996D01*
X484099Y357284D01*
X484234Y357569D01*
X484235Y357569D02*
X484273Y357675D01*
X484316Y357780D01*
X484361Y357884D01*
X484411Y357986D01*
X484464Y358086D01*
X484520Y358185D01*
X484580Y358281D01*
X484643Y358375D01*
X484709Y358467D01*
X484778Y358557D01*
X484850Y358644D01*
X484926Y358729D01*
X485004Y358811D01*
X485085Y358890D01*
X485168Y358967D01*
X485255Y359040D01*
X485343Y359111D01*
X485434Y359178D01*
X485528Y359243D01*
X485623Y359304D01*
X485721Y359361D01*
X485820Y359416D01*
X485921Y359466D01*
X486024Y359514D01*
X486129Y359558D01*
X486235Y359598D01*
X486342Y359634D01*
X486451Y359667D01*
X486560Y359696D01*
X486671Y359721D01*
X486782Y359742D01*
X486894Y359760D01*
X487007Y359773D01*
X487120Y359783D01*
X487233Y359789D01*
X487346Y359791D01*
X487459Y359789D01*
X487572Y359783D01*
X487685Y359773D01*
X487798Y359760D01*
X487910Y359742D01*
X488021Y359721D01*
X488132Y359696D01*
X488241Y359667D01*
X488350Y359634D01*
X488457Y359598D01*
X488563Y359558D01*
X488668Y359514D01*
X488771Y359466D01*
X488872Y359416D01*
X488971Y359361D01*
X489069Y359304D01*
X489164Y359243D01*
X489258Y359178D01*
X489349Y359111D01*
X489437Y359040D01*
X489524Y358967D01*
X489607Y358890D01*
X489688Y358811D01*
X489766Y358729D01*
X489842Y358644D01*
X489914Y358557D01*
X489983Y358467D01*
X490049Y358375D01*
X490112Y358281D01*
X490172Y358185D01*
X490228Y358086D01*
X490281Y357986D01*
X490331Y357884D01*
X490376Y357780D01*
X490419Y357675D01*
X490457Y357569D01*
X490592Y357284D01*
X490720Y356996D01*
X490841Y356706D01*
X490954Y356412D01*
X491061Y356116D01*
X491161Y355817D01*
X491254Y355516D01*
X491339Y355213D01*
X491417Y354908D01*
X491488Y354602D01*
X491551Y354293D01*
X491607Y353983D01*
X491656Y353672D01*
X491697Y353360D01*
X491731Y353047D01*
X491757Y352734D01*
X491776Y352419D01*
X491787Y352105D01*
X491791Y351790D01*
X482900Y351790D02*
X482904Y351475D01*
X482915Y351161D01*
X482934Y350846D01*
X482960Y350533D01*
X482994Y350220D01*
X483035Y349908D01*
X483084Y349597D01*
X483140Y349287D01*
X483203Y348978D01*
X483274Y348672D01*
X483352Y348367D01*
X483437Y348064D01*
X483530Y347763D01*
X483630Y347464D01*
X483737Y347168D01*
X483850Y346874D01*
X483971Y346584D01*
X484099Y346296D01*
X484234Y346011D01*
X484235Y346011D02*
X484273Y345905D01*
X484316Y345800D01*
X484361Y345696D01*
X484411Y345594D01*
X484464Y345494D01*
X484520Y345395D01*
X484580Y345299D01*
X484643Y345205D01*
X484709Y345113D01*
X484778Y345023D01*
X484850Y344936D01*
X484926Y344851D01*
X485004Y344769D01*
X485085Y344690D01*
X485168Y344613D01*
X485255Y344540D01*
X485343Y344469D01*
X485434Y344402D01*
X485528Y344337D01*
X485623Y344276D01*
X485721Y344219D01*
X485820Y344164D01*
X485921Y344114D01*
X486024Y344066D01*
X486129Y344022D01*
X486235Y343982D01*
X486342Y343946D01*
X486451Y343913D01*
X486560Y343884D01*
X486671Y343859D01*
X486782Y343838D01*
X486894Y343820D01*
X487007Y343807D01*
X487120Y343797D01*
X487233Y343791D01*
X487346Y343789D01*
X490457Y346011D02*
X490592Y346296D01*
X490720Y346584D01*
X490841Y346874D01*
X490954Y347168D01*
X491061Y347464D01*
X491161Y347763D01*
X491254Y348064D01*
X491339Y348367D01*
X491417Y348672D01*
X491488Y348978D01*
X491551Y349287D01*
X491607Y349597D01*
X491656Y349908D01*
X491697Y350220D01*
X491731Y350533D01*
X491757Y350846D01*
X491776Y351161D01*
X491787Y351475D01*
X491791Y351790D01*
X490457Y346011D02*
X490419Y345905D01*
X490376Y345800D01*
X490331Y345696D01*
X490281Y345594D01*
X490228Y345494D01*
X490172Y345395D01*
X490112Y345299D01*
X490049Y345205D01*
X489983Y345113D01*
X489914Y345023D01*
X489842Y344936D01*
X489766Y344851D01*
X489688Y344769D01*
X489607Y344690D01*
X489524Y344613D01*
X489437Y344540D01*
X489349Y344469D01*
X489258Y344402D01*
X489164Y344337D01*
X489069Y344276D01*
X488971Y344219D01*
X488872Y344164D01*
X488771Y344114D01*
X488668Y344066D01*
X488563Y344022D01*
X488457Y343982D01*
X488350Y343946D01*
X488241Y343913D01*
X488132Y343884D01*
X488021Y343859D01*
X487910Y343838D01*
X487798Y343820D01*
X487685Y343807D01*
X487572Y343797D01*
X487459Y343791D01*
X487346Y343789D01*
X483790Y347345D02*
X490902Y356235D01*
D13*
X139700Y393700D02*
X88900Y393700D01*
X88900Y469900D01*
X139700Y469900D02*
X139700Y393700D01*
X88900Y393700D02*
X31750Y393700D01*
X31750Y469900D01*
X88900Y469900D02*
X139700Y469900D01*
X88900Y469900D02*
X31750Y469900D01*
D14*
X114300Y457200D03*
X114300Y406400D03*
D12*
X134620Y410041D02*
X143708Y410041D01*
X143708Y410040D02*
X143807Y410038D01*
X143907Y410032D01*
X144006Y410023D01*
X144104Y410010D01*
X144202Y409993D01*
X144300Y409972D01*
X144396Y409947D01*
X144491Y409919D01*
X144585Y409887D01*
X144678Y409852D01*
X144770Y409813D01*
X144860Y409770D01*
X144948Y409725D01*
X145035Y409675D01*
X145119Y409623D01*
X145202Y409567D01*
X145282Y409509D01*
X145360Y409447D01*
X145435Y409382D01*
X145508Y409314D01*
X145578Y409244D01*
X145646Y409171D01*
X145711Y409096D01*
X145773Y409018D01*
X145831Y408938D01*
X145887Y408855D01*
X145939Y408771D01*
X145989Y408684D01*
X146034Y408596D01*
X146077Y408506D01*
X146116Y408414D01*
X146151Y408321D01*
X146183Y408227D01*
X146211Y408132D01*
X146236Y408036D01*
X146257Y407938D01*
X146274Y407840D01*
X146287Y407742D01*
X146296Y407643D01*
X146302Y407543D01*
X146304Y407444D01*
X146304Y406146D01*
X135918Y415314D02*
X134620Y415314D01*
X134620Y421805D01*
X146304Y418560D01*
D13*
X153850Y501600D02*
X153850Y565200D01*
X176350Y565200D02*
X176350Y501600D01*
X176350Y565200D02*
X153850Y565200D01*
X153850Y501600D02*
X176350Y501600D01*
D22*
X165100Y568725D03*
X165100Y498075D03*
D21*
X178689Y539841D02*
X194691Y539841D01*
X178689Y539841D02*
X178689Y544286D01*
X178691Y544418D01*
X178697Y544549D01*
X178707Y544681D01*
X178720Y544812D01*
X178738Y544942D01*
X178759Y545072D01*
X178784Y545202D01*
X178813Y545330D01*
X178846Y545458D01*
X178883Y545584D01*
X178923Y545710D01*
X178967Y545834D01*
X179015Y545957D01*
X179066Y546078D01*
X179121Y546198D01*
X179179Y546316D01*
X179241Y546432D01*
X179307Y546546D01*
X179375Y546659D01*
X179447Y546769D01*
X179522Y546877D01*
X179601Y546983D01*
X179682Y547087D01*
X179767Y547188D01*
X179854Y547286D01*
X179945Y547382D01*
X180038Y547475D01*
X180134Y547566D01*
X180232Y547653D01*
X180333Y547738D01*
X180437Y547819D01*
X180543Y547898D01*
X180651Y547973D01*
X180761Y548045D01*
X180874Y548113D01*
X180988Y548179D01*
X181104Y548241D01*
X181222Y548299D01*
X181342Y548354D01*
X181463Y548405D01*
X181586Y548453D01*
X181710Y548497D01*
X181836Y548537D01*
X181962Y548574D01*
X182090Y548607D01*
X182218Y548636D01*
X182348Y548661D01*
X182478Y548682D01*
X182608Y548700D01*
X182739Y548713D01*
X182871Y548723D01*
X183002Y548729D01*
X183134Y548731D01*
X183266Y548729D01*
X183397Y548723D01*
X183529Y548713D01*
X183660Y548700D01*
X183790Y548682D01*
X183920Y548661D01*
X184050Y548636D01*
X184178Y548607D01*
X184306Y548574D01*
X184432Y548537D01*
X184558Y548497D01*
X184682Y548453D01*
X184805Y548405D01*
X184926Y548354D01*
X185046Y548299D01*
X185164Y548241D01*
X185280Y548179D01*
X185394Y548113D01*
X185507Y548045D01*
X185617Y547973D01*
X185725Y547898D01*
X185831Y547819D01*
X185935Y547738D01*
X186036Y547653D01*
X186134Y547566D01*
X186230Y547475D01*
X186323Y547382D01*
X186414Y547286D01*
X186501Y547188D01*
X186586Y547087D01*
X186667Y546983D01*
X186746Y546877D01*
X186821Y546769D01*
X186893Y546659D01*
X186961Y546546D01*
X187027Y546432D01*
X187089Y546316D01*
X187147Y546198D01*
X187202Y546078D01*
X187253Y545957D01*
X187301Y545834D01*
X187345Y545710D01*
X187385Y545584D01*
X187422Y545458D01*
X187455Y545330D01*
X187484Y545202D01*
X187509Y545072D01*
X187530Y544942D01*
X187548Y544812D01*
X187561Y544681D01*
X187571Y544549D01*
X187577Y544418D01*
X187579Y544286D01*
X187579Y539841D01*
X187579Y545175D02*
X194691Y548731D01*
X182245Y555371D02*
X178689Y559816D01*
X194691Y559816D01*
X194691Y555371D02*
X194691Y564261D01*
D13*
X660400Y165100D02*
X711200Y165100D01*
X711200Y38100D01*
X660400Y38100D01*
X660400Y165100D01*
X711200Y165100D02*
X781050Y165100D01*
X781050Y38100D01*
X711200Y38100D01*
D14*
X685800Y101600D03*
X685800Y152400D03*
X685800Y50800D03*
D12*
X662884Y115490D02*
X653796Y115490D01*
X662884Y115489D02*
X662983Y115487D01*
X663083Y115481D01*
X663182Y115472D01*
X663280Y115459D01*
X663378Y115442D01*
X663476Y115421D01*
X663572Y115396D01*
X663667Y115368D01*
X663761Y115336D01*
X663854Y115301D01*
X663946Y115262D01*
X664036Y115219D01*
X664124Y115174D01*
X664211Y115124D01*
X664295Y115072D01*
X664378Y115016D01*
X664458Y114958D01*
X664536Y114896D01*
X664611Y114831D01*
X664684Y114763D01*
X664754Y114693D01*
X664822Y114620D01*
X664887Y114545D01*
X664949Y114467D01*
X665007Y114387D01*
X665063Y114304D01*
X665115Y114220D01*
X665165Y114133D01*
X665210Y114045D01*
X665253Y113955D01*
X665292Y113863D01*
X665327Y113770D01*
X665359Y113676D01*
X665387Y113581D01*
X665412Y113485D01*
X665433Y113387D01*
X665450Y113289D01*
X665463Y113191D01*
X665472Y113092D01*
X665478Y112992D01*
X665480Y112893D01*
X665480Y111595D01*
X662234Y120762D02*
X662121Y120764D01*
X662008Y120770D01*
X661895Y120780D01*
X661782Y120794D01*
X661670Y120811D01*
X661559Y120833D01*
X661449Y120858D01*
X661339Y120888D01*
X661231Y120921D01*
X661124Y120958D01*
X661018Y120998D01*
X660914Y121043D01*
X660811Y121091D01*
X660710Y121142D01*
X660611Y121197D01*
X660514Y121255D01*
X660419Y121317D01*
X660326Y121382D01*
X660236Y121450D01*
X660148Y121521D01*
X660062Y121596D01*
X659979Y121673D01*
X659899Y121753D01*
X659822Y121836D01*
X659747Y121922D01*
X659676Y122010D01*
X659608Y122100D01*
X659543Y122193D01*
X659481Y122288D01*
X659423Y122385D01*
X659368Y122484D01*
X659317Y122585D01*
X659269Y122688D01*
X659224Y122792D01*
X659184Y122898D01*
X659147Y123005D01*
X659114Y123113D01*
X659084Y123223D01*
X659059Y123333D01*
X659037Y123444D01*
X659020Y123556D01*
X659006Y123669D01*
X658996Y123782D01*
X658990Y123895D01*
X658988Y124008D01*
X658990Y124121D01*
X658996Y124234D01*
X659006Y124347D01*
X659020Y124460D01*
X659037Y124572D01*
X659059Y124683D01*
X659084Y124793D01*
X659114Y124903D01*
X659147Y125011D01*
X659184Y125118D01*
X659224Y125224D01*
X659269Y125328D01*
X659317Y125431D01*
X659368Y125532D01*
X659423Y125631D01*
X659481Y125728D01*
X659543Y125823D01*
X659608Y125916D01*
X659676Y126006D01*
X659747Y126094D01*
X659822Y126180D01*
X659899Y126263D01*
X659979Y126343D01*
X660062Y126420D01*
X660148Y126495D01*
X660236Y126566D01*
X660326Y126634D01*
X660419Y126699D01*
X660514Y126761D01*
X660611Y126819D01*
X660710Y126874D01*
X660811Y126925D01*
X660914Y126973D01*
X661018Y127018D01*
X661124Y127058D01*
X661231Y127095D01*
X661339Y127128D01*
X661449Y127158D01*
X661559Y127183D01*
X661670Y127205D01*
X661782Y127222D01*
X661895Y127236D01*
X662008Y127246D01*
X662121Y127252D01*
X662234Y127254D01*
X662347Y127252D01*
X662460Y127246D01*
X662573Y127236D01*
X662686Y127222D01*
X662798Y127205D01*
X662909Y127183D01*
X663019Y127158D01*
X663129Y127128D01*
X663237Y127095D01*
X663344Y127058D01*
X663450Y127018D01*
X663554Y126973D01*
X663657Y126925D01*
X663758Y126874D01*
X663857Y126819D01*
X663954Y126761D01*
X664049Y126699D01*
X664142Y126634D01*
X664232Y126566D01*
X664320Y126495D01*
X664406Y126420D01*
X664489Y126343D01*
X664569Y126263D01*
X664646Y126180D01*
X664721Y126094D01*
X664792Y126006D01*
X664860Y125916D01*
X664925Y125823D01*
X664987Y125728D01*
X665045Y125631D01*
X665100Y125532D01*
X665151Y125431D01*
X665199Y125328D01*
X665244Y125224D01*
X665284Y125118D01*
X665321Y125011D01*
X665354Y124903D01*
X665384Y124793D01*
X665409Y124683D01*
X665431Y124572D01*
X665448Y124460D01*
X665462Y124347D01*
X665472Y124234D01*
X665478Y124121D01*
X665480Y124008D01*
X665478Y123895D01*
X665472Y123782D01*
X665462Y123669D01*
X665448Y123556D01*
X665431Y123444D01*
X665409Y123333D01*
X665384Y123223D01*
X665354Y123113D01*
X665321Y123005D01*
X665284Y122898D01*
X665244Y122792D01*
X665199Y122688D01*
X665151Y122585D01*
X665100Y122484D01*
X665045Y122385D01*
X664987Y122288D01*
X664925Y122193D01*
X664860Y122100D01*
X664792Y122010D01*
X664721Y121922D01*
X664646Y121836D01*
X664569Y121753D01*
X664489Y121673D01*
X664406Y121596D01*
X664320Y121521D01*
X664232Y121450D01*
X664142Y121382D01*
X664049Y121317D01*
X663954Y121255D01*
X663857Y121197D01*
X663758Y121142D01*
X663657Y121091D01*
X663554Y121043D01*
X663450Y120998D01*
X663344Y120958D01*
X663237Y120921D01*
X663129Y120888D01*
X663019Y120858D01*
X662909Y120833D01*
X662798Y120811D01*
X662686Y120794D01*
X662573Y120780D01*
X662460Y120770D01*
X662347Y120764D01*
X662234Y120762D01*
X656392Y121412D02*
X656291Y121414D01*
X656191Y121420D01*
X656091Y121430D01*
X655991Y121443D01*
X655892Y121461D01*
X655793Y121482D01*
X655696Y121507D01*
X655599Y121536D01*
X655504Y121569D01*
X655410Y121605D01*
X655318Y121645D01*
X655227Y121688D01*
X655138Y121735D01*
X655051Y121785D01*
X654965Y121839D01*
X654882Y121896D01*
X654802Y121956D01*
X654723Y122019D01*
X654647Y122086D01*
X654574Y122155D01*
X654504Y122227D01*
X654436Y122301D01*
X654371Y122378D01*
X654310Y122458D01*
X654251Y122540D01*
X654196Y122624D01*
X654144Y122710D01*
X654095Y122798D01*
X654050Y122888D01*
X654008Y122980D01*
X653970Y123073D01*
X653936Y123168D01*
X653905Y123263D01*
X653878Y123360D01*
X653855Y123458D01*
X653835Y123557D01*
X653820Y123657D01*
X653808Y123757D01*
X653800Y123857D01*
X653796Y123958D01*
X653796Y124058D01*
X653800Y124159D01*
X653808Y124259D01*
X653820Y124359D01*
X653835Y124459D01*
X653855Y124558D01*
X653878Y124656D01*
X653905Y124753D01*
X653936Y124848D01*
X653970Y124943D01*
X654008Y125036D01*
X654050Y125128D01*
X654095Y125218D01*
X654144Y125306D01*
X654196Y125392D01*
X654251Y125476D01*
X654310Y125558D01*
X654371Y125638D01*
X654436Y125715D01*
X654504Y125789D01*
X654574Y125861D01*
X654647Y125930D01*
X654723Y125997D01*
X654802Y126060D01*
X654882Y126120D01*
X654965Y126177D01*
X655051Y126231D01*
X655138Y126281D01*
X655227Y126328D01*
X655318Y126371D01*
X655410Y126411D01*
X655504Y126447D01*
X655599Y126480D01*
X655696Y126509D01*
X655793Y126534D01*
X655892Y126555D01*
X655991Y126573D01*
X656091Y126586D01*
X656191Y126596D01*
X656291Y126602D01*
X656392Y126604D01*
X656493Y126602D01*
X656593Y126596D01*
X656693Y126586D01*
X656793Y126573D01*
X656892Y126555D01*
X656991Y126534D01*
X657088Y126509D01*
X657185Y126480D01*
X657280Y126447D01*
X657374Y126411D01*
X657466Y126371D01*
X657557Y126328D01*
X657646Y126281D01*
X657733Y126231D01*
X657819Y126177D01*
X657902Y126120D01*
X657982Y126060D01*
X658061Y125997D01*
X658137Y125930D01*
X658210Y125861D01*
X658280Y125789D01*
X658348Y125715D01*
X658413Y125638D01*
X658474Y125558D01*
X658533Y125476D01*
X658588Y125392D01*
X658640Y125306D01*
X658689Y125218D01*
X658734Y125128D01*
X658776Y125036D01*
X658814Y124943D01*
X658848Y124848D01*
X658879Y124753D01*
X658906Y124656D01*
X658929Y124558D01*
X658949Y124459D01*
X658964Y124359D01*
X658976Y124259D01*
X658984Y124159D01*
X658988Y124058D01*
X658988Y123958D01*
X658984Y123857D01*
X658976Y123757D01*
X658964Y123657D01*
X658949Y123557D01*
X658929Y123458D01*
X658906Y123360D01*
X658879Y123263D01*
X658848Y123168D01*
X658814Y123073D01*
X658776Y122980D01*
X658734Y122888D01*
X658689Y122798D01*
X658640Y122710D01*
X658588Y122624D01*
X658533Y122540D01*
X658474Y122458D01*
X658413Y122378D01*
X658348Y122301D01*
X658280Y122227D01*
X658210Y122155D01*
X658137Y122086D01*
X658061Y122019D01*
X657982Y121956D01*
X657902Y121896D01*
X657819Y121839D01*
X657733Y121785D01*
X657646Y121735D01*
X657557Y121688D01*
X657466Y121645D01*
X657374Y121605D01*
X657280Y121569D01*
X657185Y121536D01*
X657088Y121507D01*
X656991Y121482D01*
X656892Y121461D01*
X656793Y121443D01*
X656693Y121430D01*
X656593Y121420D01*
X656493Y121414D01*
X656392Y121412D01*
D10*
X481330Y68580D02*
X481330Y58420D01*
D18*
X498430Y54211D02*
X498210Y54756D01*
X498004Y55306D01*
X497811Y55860D01*
X497632Y56420D01*
X497467Y56983D01*
X497315Y57551D01*
X497177Y58122D01*
X497053Y58696D01*
X496943Y59273D01*
X496847Y59852D01*
X496766Y60434D01*
X496698Y61018D01*
X496645Y61602D01*
X496606Y62189D01*
X496581Y62775D01*
X496570Y63363D01*
X496574Y63950D01*
X496592Y64537D01*
X496625Y65124D01*
X496671Y65709D01*
X496732Y66293D01*
X496807Y66876D01*
X496897Y67456D01*
X497000Y68035D01*
X497117Y68610D01*
X497249Y69183D01*
X497394Y69752D01*
X497553Y70317D01*
X497726Y70878D01*
X497912Y71435D01*
X498112Y71988D01*
X498325Y72535D01*
X498552Y73077D01*
X498791Y73613D01*
X499044Y74143D01*
X499310Y74667D01*
X499588Y75185D01*
X499878Y75695D01*
X500181Y76198D01*
X500496Y76694D01*
X500824Y77182D01*
X501162Y77662D01*
X501513Y78133D01*
X501875Y78596D01*
X502248Y79049D01*
X502632Y79494D01*
X503026Y79929D01*
X503431Y80354D01*
X503847Y80770D01*
X504272Y81175D01*
X504707Y81569D01*
X505152Y81953D01*
X505605Y82326D01*
X506068Y82688D01*
X506539Y83039D01*
X507019Y83377D01*
X507507Y83705D01*
X508003Y84020D01*
X508506Y84323D01*
X509016Y84613D01*
X509534Y84891D01*
X510058Y85157D01*
X510588Y85410D01*
X511124Y85649D01*
X511666Y85876D01*
X512213Y86089D01*
X512766Y86289D01*
X513323Y86475D01*
X513884Y86648D01*
X514449Y86807D01*
X515018Y86952D01*
X515591Y87084D01*
X516166Y87201D01*
X516745Y87304D01*
X517325Y87394D01*
X517908Y87469D01*
X518492Y87530D01*
X519077Y87576D01*
X519664Y87609D01*
X520251Y87627D01*
X520838Y87631D01*
X521426Y87620D01*
X522012Y87595D01*
X522599Y87556D01*
X523183Y87503D01*
X523767Y87435D01*
X524349Y87354D01*
X524928Y87258D01*
X525505Y87148D01*
X526079Y87024D01*
X526650Y86886D01*
X527218Y86734D01*
X527781Y86569D01*
X528341Y86390D01*
X528895Y86197D01*
X529445Y85991D01*
X529990Y85771D01*
D10*
X491935Y58420D02*
X481330Y58420D01*
D18*
X511411Y41230D02*
X511947Y41014D01*
X512488Y40810D01*
X513034Y40620D01*
X513584Y40443D01*
X514138Y40279D01*
X514696Y40129D01*
X515257Y39992D01*
X515822Y39868D01*
X516389Y39758D01*
X516959Y39662D01*
X517531Y39579D01*
X518104Y39510D01*
X518680Y39455D01*
X519256Y39413D01*
X519833Y39386D01*
X520411Y39372D01*
X520989Y39372D01*
X521567Y39386D01*
X522144Y39413D01*
X522720Y39455D01*
X523296Y39510D01*
X523869Y39579D01*
X524441Y39662D01*
X525011Y39758D01*
X525578Y39868D01*
X526143Y39992D01*
X526704Y40129D01*
X527262Y40279D01*
X527816Y40443D01*
X528366Y40620D01*
X528912Y40810D01*
X529453Y41014D01*
X529989Y41230D01*
D10*
X491935Y68580D02*
X481330Y68580D01*
D18*
X542970Y72789D02*
X543186Y72253D01*
X543390Y71712D01*
X543580Y71166D01*
X543757Y70616D01*
X543921Y70062D01*
X544071Y69504D01*
X544208Y68943D01*
X544332Y68378D01*
X544442Y67811D01*
X544538Y67241D01*
X544621Y66669D01*
X544690Y66096D01*
X544745Y65520D01*
X544787Y64944D01*
X544814Y64367D01*
X544828Y63789D01*
X544828Y63211D01*
X544814Y62633D01*
X544787Y62056D01*
X544745Y61480D01*
X544690Y60904D01*
X544621Y60331D01*
X544538Y59759D01*
X544442Y59189D01*
X544332Y58622D01*
X544208Y58057D01*
X544071Y57496D01*
X543921Y56938D01*
X543757Y56384D01*
X543580Y55834D01*
X543390Y55288D01*
X543186Y54747D01*
X542970Y54211D01*
D10*
X491490Y63500D02*
X491499Y64217D01*
X491525Y64933D01*
X491569Y65649D01*
X491631Y66363D01*
X491710Y67076D01*
X491806Y67786D01*
X491920Y68494D01*
X492051Y69199D01*
X492200Y69900D01*
X492365Y70597D01*
X492548Y71291D01*
X492748Y71979D01*
X492964Y72663D01*
X493197Y73341D01*
X493447Y74013D01*
X493713Y74678D01*
X493996Y75337D01*
X494294Y75989D01*
X494609Y76633D01*
X494939Y77269D01*
X495285Y77898D01*
X495646Y78517D01*
X496022Y79127D01*
X496413Y79728D01*
X496818Y80319D01*
X497238Y80900D01*
X497672Y81471D01*
X498120Y82031D01*
X498582Y82579D01*
X499057Y83116D01*
X499545Y83641D01*
X500045Y84155D01*
X500559Y84655D01*
X501084Y85143D01*
X501621Y85618D01*
X502169Y86080D01*
X502729Y86528D01*
X503300Y86962D01*
X503881Y87382D01*
X504472Y87787D01*
X505073Y88178D01*
X505683Y88554D01*
X506302Y88915D01*
X506931Y89261D01*
X507567Y89591D01*
X508211Y89906D01*
X508863Y90204D01*
X509522Y90487D01*
X510187Y90753D01*
X510859Y91003D01*
X511537Y91236D01*
X512221Y91452D01*
X512909Y91652D01*
X513603Y91835D01*
X514300Y92000D01*
X515001Y92149D01*
X515706Y92280D01*
X516414Y92394D01*
X517124Y92490D01*
X517837Y92569D01*
X518551Y92631D01*
X519267Y92675D01*
X519983Y92701D01*
X520700Y92710D01*
X521417Y92701D01*
X522133Y92675D01*
X522849Y92631D01*
X523563Y92569D01*
X524276Y92490D01*
X524986Y92394D01*
X525694Y92280D01*
X526399Y92149D01*
X527100Y92000D01*
X527797Y91835D01*
X528491Y91652D01*
X529179Y91452D01*
X529863Y91236D01*
X530541Y91003D01*
X531213Y90753D01*
X531878Y90487D01*
X532537Y90204D01*
X533189Y89906D01*
X533833Y89591D01*
X534469Y89261D01*
X535098Y88915D01*
X535717Y88554D01*
X536327Y88178D01*
X536928Y87787D01*
X537519Y87382D01*
X538100Y86962D01*
X538671Y86528D01*
X539231Y86080D01*
X539779Y85618D01*
X540316Y85143D01*
X540841Y84655D01*
X541355Y84155D01*
X541855Y83641D01*
X542343Y83116D01*
X542818Y82579D01*
X543280Y82031D01*
X543728Y81471D01*
X544162Y80900D01*
X544582Y80319D01*
X544987Y79728D01*
X545378Y79127D01*
X545754Y78517D01*
X546115Y77898D01*
X546461Y77269D01*
X546791Y76633D01*
X547106Y75989D01*
X547404Y75337D01*
X547687Y74678D01*
X547953Y74013D01*
X548203Y73341D01*
X548436Y72663D01*
X548652Y71979D01*
X548852Y71291D01*
X549035Y70597D01*
X549200Y69900D01*
X549349Y69199D01*
X549480Y68494D01*
X549594Y67786D01*
X549690Y67076D01*
X549769Y66363D01*
X549831Y65649D01*
X549875Y64933D01*
X549901Y64217D01*
X549910Y63500D01*
X549901Y62783D01*
X549875Y62067D01*
X549831Y61351D01*
X549769Y60637D01*
X549690Y59924D01*
X549594Y59214D01*
X549480Y58506D01*
X549349Y57801D01*
X549200Y57100D01*
X549035Y56403D01*
X548852Y55709D01*
X548652Y55021D01*
X548436Y54337D01*
X548203Y53659D01*
X547953Y52987D01*
X547687Y52322D01*
X547404Y51663D01*
X547106Y51011D01*
X546791Y50367D01*
X546461Y49731D01*
X546115Y49102D01*
X545754Y48483D01*
X545378Y47873D01*
X544987Y47272D01*
X544582Y46681D01*
X544162Y46100D01*
X543728Y45529D01*
X543280Y44969D01*
X542818Y44421D01*
X542343Y43884D01*
X541855Y43359D01*
X541355Y42845D01*
X540841Y42345D01*
X540316Y41857D01*
X539779Y41382D01*
X539231Y40920D01*
X538671Y40472D01*
X538100Y40038D01*
X537519Y39618D01*
X536928Y39213D01*
X536327Y38822D01*
X535717Y38446D01*
X535098Y38085D01*
X534469Y37739D01*
X533833Y37409D01*
X533189Y37094D01*
X532537Y36796D01*
X531878Y36513D01*
X531213Y36247D01*
X530541Y35997D01*
X529863Y35764D01*
X529179Y35548D01*
X528491Y35348D01*
X527797Y35165D01*
X527100Y35000D01*
X526399Y34851D01*
X525694Y34720D01*
X524986Y34606D01*
X524276Y34510D01*
X523563Y34431D01*
X522849Y34369D01*
X522133Y34325D01*
X521417Y34299D01*
X520700Y34290D01*
X519983Y34299D01*
X519267Y34325D01*
X518551Y34369D01*
X517837Y34431D01*
X517124Y34510D01*
X516414Y34606D01*
X515706Y34720D01*
X515001Y34851D01*
X514300Y35000D01*
X513603Y35165D01*
X512909Y35348D01*
X512221Y35548D01*
X511537Y35764D01*
X510859Y35997D01*
X510187Y36247D01*
X509522Y36513D01*
X508863Y36796D01*
X508211Y37094D01*
X507567Y37409D01*
X506931Y37739D01*
X506302Y38085D01*
X505683Y38446D01*
X505073Y38822D01*
X504472Y39213D01*
X503881Y39618D01*
X503300Y40038D01*
X502729Y40472D01*
X502169Y40920D01*
X501621Y41382D01*
X501084Y41857D01*
X500559Y42345D01*
X500045Y42845D01*
X499545Y43359D01*
X499057Y43884D01*
X498582Y44421D01*
X498120Y44969D01*
X497672Y45529D01*
X497238Y46100D01*
X496818Y46681D01*
X496413Y47272D01*
X496022Y47873D01*
X495646Y48483D01*
X495285Y49102D01*
X494939Y49731D01*
X494609Y50367D01*
X494294Y51011D01*
X493996Y51663D01*
X493713Y52322D01*
X493447Y52987D01*
X493197Y53659D01*
X492964Y54337D01*
X492748Y55021D01*
X492548Y55709D01*
X492365Y56403D01*
X492200Y57100D01*
X492051Y57801D01*
X491920Y58506D01*
X491806Y59214D01*
X491710Y59924D01*
X491631Y60637D01*
X491569Y61351D01*
X491525Y62067D01*
X491499Y62783D01*
X491490Y63500D01*
X556260Y64135D02*
X556260Y75565D01*
X553085Y75565D02*
X559435Y75565D01*
X563753Y64135D02*
X567563Y64135D01*
X567663Y64137D01*
X567762Y64143D01*
X567862Y64153D01*
X567960Y64166D01*
X568059Y64184D01*
X568156Y64205D01*
X568252Y64230D01*
X568348Y64259D01*
X568442Y64292D01*
X568535Y64328D01*
X568626Y64368D01*
X568716Y64412D01*
X568804Y64459D01*
X568890Y64509D01*
X568974Y64563D01*
X569056Y64620D01*
X569135Y64680D01*
X569213Y64744D01*
X569287Y64810D01*
X569359Y64879D01*
X569428Y64951D01*
X569494Y65025D01*
X569558Y65103D01*
X569618Y65182D01*
X569675Y65264D01*
X569729Y65348D01*
X569779Y65434D01*
X569826Y65522D01*
X569870Y65612D01*
X569910Y65703D01*
X569946Y65796D01*
X569979Y65890D01*
X570008Y65986D01*
X570033Y66082D01*
X570054Y66179D01*
X570072Y66278D01*
X570085Y66376D01*
X570095Y66476D01*
X570101Y66575D01*
X570103Y66675D01*
X570103Y67945D01*
X570101Y68045D01*
X570095Y68144D01*
X570085Y68244D01*
X570072Y68342D01*
X570054Y68441D01*
X570033Y68538D01*
X570008Y68634D01*
X569979Y68730D01*
X569946Y68824D01*
X569910Y68917D01*
X569870Y69008D01*
X569826Y69098D01*
X569779Y69186D01*
X569729Y69272D01*
X569675Y69356D01*
X569618Y69438D01*
X569558Y69517D01*
X569494Y69595D01*
X569428Y69669D01*
X569359Y69741D01*
X569287Y69810D01*
X569213Y69876D01*
X569135Y69940D01*
X569056Y70000D01*
X568974Y70057D01*
X568890Y70111D01*
X568804Y70161D01*
X568716Y70208D01*
X568626Y70252D01*
X568535Y70292D01*
X568442Y70328D01*
X568348Y70361D01*
X568252Y70390D01*
X568156Y70415D01*
X568059Y70436D01*
X567960Y70454D01*
X567862Y70467D01*
X567762Y70477D01*
X567663Y70483D01*
X567563Y70485D01*
X563753Y70485D01*
X563753Y75565D01*
X570103Y75565D01*
D13*
X514400Y103050D02*
X450800Y103050D01*
X450800Y125550D02*
X514400Y125550D01*
X450800Y125550D02*
X450800Y103050D01*
X514400Y103050D02*
X514400Y125550D01*
D20*
X447275Y114300D03*
X517925Y114300D03*
D21*
X451739Y127889D02*
X451739Y143891D01*
X456184Y143891D01*
X456316Y143889D01*
X456447Y143883D01*
X456579Y143873D01*
X456710Y143860D01*
X456840Y143842D01*
X456970Y143821D01*
X457100Y143796D01*
X457228Y143767D01*
X457356Y143734D01*
X457482Y143697D01*
X457608Y143657D01*
X457732Y143613D01*
X457855Y143565D01*
X457976Y143514D01*
X458096Y143459D01*
X458214Y143401D01*
X458330Y143339D01*
X458444Y143273D01*
X458557Y143205D01*
X458667Y143133D01*
X458775Y143058D01*
X458881Y142979D01*
X458985Y142898D01*
X459086Y142813D01*
X459184Y142726D01*
X459280Y142635D01*
X459373Y142542D01*
X459464Y142446D01*
X459551Y142348D01*
X459636Y142247D01*
X459717Y142143D01*
X459796Y142037D01*
X459871Y141929D01*
X459943Y141819D01*
X460011Y141706D01*
X460077Y141592D01*
X460139Y141476D01*
X460197Y141358D01*
X460252Y141238D01*
X460303Y141117D01*
X460351Y140994D01*
X460395Y140870D01*
X460435Y140744D01*
X460472Y140618D01*
X460505Y140490D01*
X460534Y140362D01*
X460559Y140232D01*
X460580Y140102D01*
X460598Y139972D01*
X460611Y139841D01*
X460621Y139709D01*
X460627Y139578D01*
X460629Y139446D01*
X460627Y139314D01*
X460621Y139183D01*
X460611Y139051D01*
X460598Y138920D01*
X460580Y138790D01*
X460559Y138660D01*
X460534Y138530D01*
X460505Y138402D01*
X460472Y138274D01*
X460435Y138148D01*
X460395Y138022D01*
X460351Y137898D01*
X460303Y137775D01*
X460252Y137654D01*
X460197Y137534D01*
X460139Y137416D01*
X460077Y137300D01*
X460011Y137186D01*
X459943Y137073D01*
X459871Y136963D01*
X459796Y136855D01*
X459717Y136749D01*
X459636Y136645D01*
X459551Y136544D01*
X459464Y136446D01*
X459373Y136350D01*
X459280Y136257D01*
X459184Y136166D01*
X459086Y136079D01*
X458985Y135994D01*
X458881Y135913D01*
X458775Y135834D01*
X458667Y135759D01*
X458557Y135687D01*
X458444Y135619D01*
X458330Y135553D01*
X458214Y135491D01*
X458096Y135433D01*
X457976Y135378D01*
X457855Y135327D01*
X457732Y135279D01*
X457608Y135235D01*
X457482Y135195D01*
X457356Y135158D01*
X457228Y135125D01*
X457100Y135096D01*
X456970Y135071D01*
X456840Y135050D01*
X456710Y135032D01*
X456579Y135019D01*
X456447Y135009D01*
X456316Y135003D01*
X456184Y135001D01*
X451739Y135001D01*
X457073Y135001D02*
X460629Y127889D01*
X476160Y139891D02*
X476158Y140017D01*
X476152Y140142D01*
X476142Y140268D01*
X476128Y140392D01*
X476111Y140517D01*
X476089Y140641D01*
X476064Y140764D01*
X476034Y140886D01*
X476001Y141007D01*
X475964Y141127D01*
X475923Y141246D01*
X475879Y141364D01*
X475831Y141480D01*
X475779Y141595D01*
X475724Y141707D01*
X475665Y141818D01*
X475603Y141928D01*
X475537Y142035D01*
X475468Y142140D01*
X475396Y142243D01*
X475320Y142343D01*
X475242Y142441D01*
X475160Y142537D01*
X475076Y142630D01*
X474988Y142720D01*
X474898Y142808D01*
X474805Y142892D01*
X474709Y142974D01*
X474611Y143052D01*
X474511Y143128D01*
X474408Y143200D01*
X474303Y143269D01*
X474196Y143335D01*
X474086Y143397D01*
X473975Y143456D01*
X473863Y143511D01*
X473748Y143563D01*
X473632Y143611D01*
X473514Y143655D01*
X473395Y143696D01*
X473275Y143733D01*
X473154Y143766D01*
X473032Y143796D01*
X472909Y143821D01*
X472785Y143843D01*
X472660Y143860D01*
X472536Y143874D01*
X472410Y143884D01*
X472285Y143890D01*
X472159Y143892D01*
X472159Y143891D02*
X472018Y143889D01*
X471878Y143883D01*
X471738Y143874D01*
X471598Y143860D01*
X471459Y143843D01*
X471320Y143822D01*
X471181Y143797D01*
X471044Y143769D01*
X470907Y143736D01*
X470771Y143700D01*
X470636Y143660D01*
X470503Y143617D01*
X470370Y143570D01*
X470239Y143519D01*
X470110Y143465D01*
X469982Y143407D01*
X469855Y143346D01*
X469730Y143281D01*
X469608Y143213D01*
X469487Y143142D01*
X469367Y143067D01*
X469251Y142989D01*
X469136Y142908D01*
X469023Y142824D01*
X468913Y142736D01*
X468805Y142646D01*
X468700Y142553D01*
X468598Y142457D01*
X468498Y142358D01*
X468400Y142257D01*
X468306Y142153D01*
X468214Y142046D01*
X468126Y141937D01*
X468040Y141826D01*
X467958Y141712D01*
X467878Y141596D01*
X467802Y141478D01*
X467729Y141358D01*
X467660Y141236D01*
X467593Y141112D01*
X467530Y140986D01*
X467471Y140859D01*
X467415Y140730D01*
X467363Y140600D01*
X467314Y140468D01*
X467269Y140335D01*
X474826Y136779D02*
X474918Y136870D01*
X475008Y136963D01*
X475094Y137058D01*
X475178Y137156D01*
X475258Y137257D01*
X475336Y137360D01*
X475410Y137465D01*
X475481Y137573D01*
X475549Y137682D01*
X475613Y137794D01*
X475675Y137907D01*
X475732Y138022D01*
X475787Y138139D01*
X475838Y138258D01*
X475885Y138378D01*
X475928Y138499D01*
X475968Y138621D01*
X476004Y138745D01*
X476037Y138870D01*
X476066Y138995D01*
X476091Y139122D01*
X476112Y139249D01*
X476129Y139377D01*
X476143Y139505D01*
X476152Y139633D01*
X476158Y139762D01*
X476160Y139891D01*
X474826Y136779D02*
X467269Y127889D01*
X476159Y127889D01*
D13*
X660400Y317500D02*
X711200Y317500D01*
X711200Y190500D01*
X660400Y190500D01*
X660400Y317500D01*
X711200Y317500D02*
X781050Y317500D01*
X781050Y190500D01*
X711200Y190500D01*
D14*
X685800Y254000D03*
X685800Y304800D03*
X685800Y203200D03*
D12*
X662884Y267890D02*
X653796Y267890D01*
X662884Y267889D02*
X662983Y267887D01*
X663083Y267881D01*
X663182Y267872D01*
X663280Y267859D01*
X663378Y267842D01*
X663476Y267821D01*
X663572Y267796D01*
X663667Y267768D01*
X663761Y267736D01*
X663854Y267701D01*
X663946Y267662D01*
X664036Y267619D01*
X664124Y267574D01*
X664211Y267524D01*
X664295Y267472D01*
X664378Y267416D01*
X664458Y267358D01*
X664536Y267296D01*
X664611Y267231D01*
X664684Y267163D01*
X664754Y267093D01*
X664822Y267020D01*
X664887Y266945D01*
X664949Y266867D01*
X665007Y266787D01*
X665063Y266704D01*
X665115Y266620D01*
X665165Y266533D01*
X665210Y266445D01*
X665253Y266355D01*
X665292Y266263D01*
X665327Y266170D01*
X665359Y266076D01*
X665387Y265981D01*
X665412Y265885D01*
X665433Y265787D01*
X665450Y265689D01*
X665463Y265591D01*
X665472Y265492D01*
X665478Y265392D01*
X665480Y265293D01*
X665480Y263995D01*
X660287Y275759D02*
X660287Y279654D01*
X660287Y275759D02*
X660285Y275660D01*
X660279Y275560D01*
X660270Y275461D01*
X660257Y275363D01*
X660240Y275265D01*
X660219Y275167D01*
X660194Y275071D01*
X660166Y274976D01*
X660134Y274882D01*
X660099Y274789D01*
X660060Y274697D01*
X660017Y274607D01*
X659972Y274519D01*
X659922Y274432D01*
X659870Y274348D01*
X659814Y274265D01*
X659756Y274185D01*
X659694Y274107D01*
X659629Y274032D01*
X659561Y273959D01*
X659491Y273889D01*
X659418Y273821D01*
X659343Y273756D01*
X659265Y273694D01*
X659185Y273636D01*
X659102Y273580D01*
X659018Y273528D01*
X658931Y273478D01*
X658843Y273433D01*
X658753Y273390D01*
X658661Y273351D01*
X658568Y273316D01*
X658474Y273284D01*
X658379Y273256D01*
X658283Y273231D01*
X658185Y273210D01*
X658087Y273193D01*
X657989Y273180D01*
X657890Y273171D01*
X657790Y273165D01*
X657691Y273163D01*
X657042Y273163D01*
X657042Y273162D02*
X656929Y273164D01*
X656816Y273170D01*
X656703Y273180D01*
X656590Y273194D01*
X656478Y273211D01*
X656367Y273233D01*
X656257Y273258D01*
X656147Y273288D01*
X656039Y273321D01*
X655932Y273358D01*
X655826Y273398D01*
X655722Y273443D01*
X655619Y273491D01*
X655518Y273542D01*
X655419Y273597D01*
X655322Y273655D01*
X655227Y273717D01*
X655134Y273782D01*
X655044Y273850D01*
X654956Y273921D01*
X654870Y273996D01*
X654787Y274073D01*
X654707Y274153D01*
X654630Y274236D01*
X654555Y274322D01*
X654484Y274410D01*
X654416Y274500D01*
X654351Y274593D01*
X654289Y274688D01*
X654231Y274785D01*
X654176Y274884D01*
X654125Y274985D01*
X654077Y275088D01*
X654032Y275192D01*
X653992Y275298D01*
X653955Y275405D01*
X653922Y275513D01*
X653892Y275623D01*
X653867Y275733D01*
X653845Y275844D01*
X653828Y275956D01*
X653814Y276069D01*
X653804Y276182D01*
X653798Y276295D01*
X653796Y276408D01*
X653798Y276521D01*
X653804Y276634D01*
X653814Y276747D01*
X653828Y276860D01*
X653845Y276972D01*
X653867Y277083D01*
X653892Y277193D01*
X653922Y277303D01*
X653955Y277411D01*
X653992Y277518D01*
X654032Y277624D01*
X654077Y277728D01*
X654125Y277831D01*
X654176Y277932D01*
X654231Y278031D01*
X654289Y278128D01*
X654351Y278223D01*
X654416Y278316D01*
X654484Y278406D01*
X654555Y278494D01*
X654630Y278580D01*
X654707Y278663D01*
X654787Y278743D01*
X654870Y278820D01*
X654956Y278895D01*
X655044Y278966D01*
X655134Y279034D01*
X655227Y279099D01*
X655322Y279161D01*
X655419Y279219D01*
X655518Y279274D01*
X655619Y279325D01*
X655722Y279373D01*
X655826Y279418D01*
X655932Y279458D01*
X656039Y279495D01*
X656147Y279528D01*
X656257Y279558D01*
X656367Y279583D01*
X656478Y279605D01*
X656590Y279622D01*
X656703Y279636D01*
X656816Y279646D01*
X656929Y279652D01*
X657042Y279654D01*
X660287Y279654D01*
X660430Y279652D01*
X660573Y279646D01*
X660716Y279636D01*
X660858Y279622D01*
X661000Y279605D01*
X661142Y279583D01*
X661283Y279558D01*
X661423Y279528D01*
X661562Y279495D01*
X661700Y279458D01*
X661837Y279417D01*
X661973Y279373D01*
X662108Y279324D01*
X662241Y279272D01*
X662373Y279217D01*
X662503Y279157D01*
X662632Y279094D01*
X662759Y279028D01*
X662884Y278958D01*
X663006Y278885D01*
X663127Y278808D01*
X663246Y278728D01*
X663362Y278645D01*
X663477Y278559D01*
X663588Y278470D01*
X663698Y278377D01*
X663804Y278282D01*
X663908Y278183D01*
X664009Y278082D01*
X664108Y277978D01*
X664203Y277872D01*
X664296Y277762D01*
X664385Y277651D01*
X664471Y277536D01*
X664554Y277420D01*
X664634Y277301D01*
X664711Y277180D01*
X664784Y277058D01*
X664854Y276933D01*
X664920Y276806D01*
X664983Y276677D01*
X665043Y276547D01*
X665098Y276415D01*
X665150Y276282D01*
X665199Y276147D01*
X665243Y276011D01*
X665284Y275874D01*
X665321Y275736D01*
X665354Y275597D01*
X665384Y275457D01*
X665409Y275316D01*
X665431Y275174D01*
X665448Y275032D01*
X665462Y274890D01*
X665472Y274747D01*
X665478Y274604D01*
X665480Y274461D01*
D10*
X481330Y195580D02*
X481330Y185420D01*
D18*
X498430Y181211D02*
X498210Y181756D01*
X498004Y182306D01*
X497811Y182860D01*
X497632Y183420D01*
X497467Y183983D01*
X497315Y184551D01*
X497177Y185122D01*
X497053Y185696D01*
X496943Y186273D01*
X496847Y186852D01*
X496766Y187434D01*
X496698Y188018D01*
X496645Y188602D01*
X496606Y189189D01*
X496581Y189775D01*
X496570Y190363D01*
X496574Y190950D01*
X496592Y191537D01*
X496625Y192124D01*
X496671Y192709D01*
X496732Y193293D01*
X496807Y193876D01*
X496897Y194456D01*
X497000Y195035D01*
X497117Y195610D01*
X497249Y196183D01*
X497394Y196752D01*
X497553Y197317D01*
X497726Y197878D01*
X497912Y198435D01*
X498112Y198988D01*
X498325Y199535D01*
X498552Y200077D01*
X498791Y200613D01*
X499044Y201143D01*
X499310Y201667D01*
X499588Y202185D01*
X499878Y202695D01*
X500181Y203198D01*
X500496Y203694D01*
X500824Y204182D01*
X501162Y204662D01*
X501513Y205133D01*
X501875Y205596D01*
X502248Y206049D01*
X502632Y206494D01*
X503026Y206929D01*
X503431Y207354D01*
X503847Y207770D01*
X504272Y208175D01*
X504707Y208569D01*
X505152Y208953D01*
X505605Y209326D01*
X506068Y209688D01*
X506539Y210039D01*
X507019Y210377D01*
X507507Y210705D01*
X508003Y211020D01*
X508506Y211323D01*
X509016Y211613D01*
X509534Y211891D01*
X510058Y212157D01*
X510588Y212410D01*
X511124Y212649D01*
X511666Y212876D01*
X512213Y213089D01*
X512766Y213289D01*
X513323Y213475D01*
X513884Y213648D01*
X514449Y213807D01*
X515018Y213952D01*
X515591Y214084D01*
X516166Y214201D01*
X516745Y214304D01*
X517325Y214394D01*
X517908Y214469D01*
X518492Y214530D01*
X519077Y214576D01*
X519664Y214609D01*
X520251Y214627D01*
X520838Y214631D01*
X521426Y214620D01*
X522012Y214595D01*
X522599Y214556D01*
X523183Y214503D01*
X523767Y214435D01*
X524349Y214354D01*
X524928Y214258D01*
X525505Y214148D01*
X526079Y214024D01*
X526650Y213886D01*
X527218Y213734D01*
X527781Y213569D01*
X528341Y213390D01*
X528895Y213197D01*
X529445Y212991D01*
X529990Y212771D01*
D10*
X491935Y185420D02*
X481330Y185420D01*
D18*
X511411Y168230D02*
X511947Y168014D01*
X512488Y167810D01*
X513034Y167620D01*
X513584Y167443D01*
X514138Y167279D01*
X514696Y167129D01*
X515257Y166992D01*
X515822Y166868D01*
X516389Y166758D01*
X516959Y166662D01*
X517531Y166579D01*
X518104Y166510D01*
X518680Y166455D01*
X519256Y166413D01*
X519833Y166386D01*
X520411Y166372D01*
X520989Y166372D01*
X521567Y166386D01*
X522144Y166413D01*
X522720Y166455D01*
X523296Y166510D01*
X523869Y166579D01*
X524441Y166662D01*
X525011Y166758D01*
X525578Y166868D01*
X526143Y166992D01*
X526704Y167129D01*
X527262Y167279D01*
X527816Y167443D01*
X528366Y167620D01*
X528912Y167810D01*
X529453Y168014D01*
X529989Y168230D01*
D10*
X491935Y195580D02*
X481330Y195580D01*
D18*
X542970Y199789D02*
X543186Y199253D01*
X543390Y198712D01*
X543580Y198166D01*
X543757Y197616D01*
X543921Y197062D01*
X544071Y196504D01*
X544208Y195943D01*
X544332Y195378D01*
X544442Y194811D01*
X544538Y194241D01*
X544621Y193669D01*
X544690Y193096D01*
X544745Y192520D01*
X544787Y191944D01*
X544814Y191367D01*
X544828Y190789D01*
X544828Y190211D01*
X544814Y189633D01*
X544787Y189056D01*
X544745Y188480D01*
X544690Y187904D01*
X544621Y187331D01*
X544538Y186759D01*
X544442Y186189D01*
X544332Y185622D01*
X544208Y185057D01*
X544071Y184496D01*
X543921Y183938D01*
X543757Y183384D01*
X543580Y182834D01*
X543390Y182288D01*
X543186Y181747D01*
X542970Y181211D01*
D10*
X491490Y190500D02*
X491499Y191217D01*
X491525Y191933D01*
X491569Y192649D01*
X491631Y193363D01*
X491710Y194076D01*
X491806Y194786D01*
X491920Y195494D01*
X492051Y196199D01*
X492200Y196900D01*
X492365Y197597D01*
X492548Y198291D01*
X492748Y198979D01*
X492964Y199663D01*
X493197Y200341D01*
X493447Y201013D01*
X493713Y201678D01*
X493996Y202337D01*
X494294Y202989D01*
X494609Y203633D01*
X494939Y204269D01*
X495285Y204898D01*
X495646Y205517D01*
X496022Y206127D01*
X496413Y206728D01*
X496818Y207319D01*
X497238Y207900D01*
X497672Y208471D01*
X498120Y209031D01*
X498582Y209579D01*
X499057Y210116D01*
X499545Y210641D01*
X500045Y211155D01*
X500559Y211655D01*
X501084Y212143D01*
X501621Y212618D01*
X502169Y213080D01*
X502729Y213528D01*
X503300Y213962D01*
X503881Y214382D01*
X504472Y214787D01*
X505073Y215178D01*
X505683Y215554D01*
X506302Y215915D01*
X506931Y216261D01*
X507567Y216591D01*
X508211Y216906D01*
X508863Y217204D01*
X509522Y217487D01*
X510187Y217753D01*
X510859Y218003D01*
X511537Y218236D01*
X512221Y218452D01*
X512909Y218652D01*
X513603Y218835D01*
X514300Y219000D01*
X515001Y219149D01*
X515706Y219280D01*
X516414Y219394D01*
X517124Y219490D01*
X517837Y219569D01*
X518551Y219631D01*
X519267Y219675D01*
X519983Y219701D01*
X520700Y219710D01*
X521417Y219701D01*
X522133Y219675D01*
X522849Y219631D01*
X523563Y219569D01*
X524276Y219490D01*
X524986Y219394D01*
X525694Y219280D01*
X526399Y219149D01*
X527100Y219000D01*
X527797Y218835D01*
X528491Y218652D01*
X529179Y218452D01*
X529863Y218236D01*
X530541Y218003D01*
X531213Y217753D01*
X531878Y217487D01*
X532537Y217204D01*
X533189Y216906D01*
X533833Y216591D01*
X534469Y216261D01*
X535098Y215915D01*
X535717Y215554D01*
X536327Y215178D01*
X536928Y214787D01*
X537519Y214382D01*
X538100Y213962D01*
X538671Y213528D01*
X539231Y213080D01*
X539779Y212618D01*
X540316Y212143D01*
X540841Y211655D01*
X541355Y211155D01*
X541855Y210641D01*
X542343Y210116D01*
X542818Y209579D01*
X543280Y209031D01*
X543728Y208471D01*
X544162Y207900D01*
X544582Y207319D01*
X544987Y206728D01*
X545378Y206127D01*
X545754Y205517D01*
X546115Y204898D01*
X546461Y204269D01*
X546791Y203633D01*
X547106Y202989D01*
X547404Y202337D01*
X547687Y201678D01*
X547953Y201013D01*
X548203Y200341D01*
X548436Y199663D01*
X548652Y198979D01*
X548852Y198291D01*
X549035Y197597D01*
X549200Y196900D01*
X549349Y196199D01*
X549480Y195494D01*
X549594Y194786D01*
X549690Y194076D01*
X549769Y193363D01*
X549831Y192649D01*
X549875Y191933D01*
X549901Y191217D01*
X549910Y190500D01*
X549901Y189783D01*
X549875Y189067D01*
X549831Y188351D01*
X549769Y187637D01*
X549690Y186924D01*
X549594Y186214D01*
X549480Y185506D01*
X549349Y184801D01*
X549200Y184100D01*
X549035Y183403D01*
X548852Y182709D01*
X548652Y182021D01*
X548436Y181337D01*
X548203Y180659D01*
X547953Y179987D01*
X547687Y179322D01*
X547404Y178663D01*
X547106Y178011D01*
X546791Y177367D01*
X546461Y176731D01*
X546115Y176102D01*
X545754Y175483D01*
X545378Y174873D01*
X544987Y174272D01*
X544582Y173681D01*
X544162Y173100D01*
X543728Y172529D01*
X543280Y171969D01*
X542818Y171421D01*
X542343Y170884D01*
X541855Y170359D01*
X541355Y169845D01*
X540841Y169345D01*
X540316Y168857D01*
X539779Y168382D01*
X539231Y167920D01*
X538671Y167472D01*
X538100Y167038D01*
X537519Y166618D01*
X536928Y166213D01*
X536327Y165822D01*
X535717Y165446D01*
X535098Y165085D01*
X534469Y164739D01*
X533833Y164409D01*
X533189Y164094D01*
X532537Y163796D01*
X531878Y163513D01*
X531213Y163247D01*
X530541Y162997D01*
X529863Y162764D01*
X529179Y162548D01*
X528491Y162348D01*
X527797Y162165D01*
X527100Y162000D01*
X526399Y161851D01*
X525694Y161720D01*
X524986Y161606D01*
X524276Y161510D01*
X523563Y161431D01*
X522849Y161369D01*
X522133Y161325D01*
X521417Y161299D01*
X520700Y161290D01*
X519983Y161299D01*
X519267Y161325D01*
X518551Y161369D01*
X517837Y161431D01*
X517124Y161510D01*
X516414Y161606D01*
X515706Y161720D01*
X515001Y161851D01*
X514300Y162000D01*
X513603Y162165D01*
X512909Y162348D01*
X512221Y162548D01*
X511537Y162764D01*
X510859Y162997D01*
X510187Y163247D01*
X509522Y163513D01*
X508863Y163796D01*
X508211Y164094D01*
X507567Y164409D01*
X506931Y164739D01*
X506302Y165085D01*
X505683Y165446D01*
X505073Y165822D01*
X504472Y166213D01*
X503881Y166618D01*
X503300Y167038D01*
X502729Y167472D01*
X502169Y167920D01*
X501621Y168382D01*
X501084Y168857D01*
X500559Y169345D01*
X500045Y169845D01*
X499545Y170359D01*
X499057Y170884D01*
X498582Y171421D01*
X498120Y171969D01*
X497672Y172529D01*
X497238Y173100D01*
X496818Y173681D01*
X496413Y174272D01*
X496022Y174873D01*
X495646Y175483D01*
X495285Y176102D01*
X494939Y176731D01*
X494609Y177367D01*
X494294Y178011D01*
X493996Y178663D01*
X493713Y179322D01*
X493447Y179987D01*
X493197Y180659D01*
X492964Y181337D01*
X492748Y182021D01*
X492548Y182709D01*
X492365Y183403D01*
X492200Y184100D01*
X492051Y184801D01*
X491920Y185506D01*
X491806Y186214D01*
X491710Y186924D01*
X491631Y187637D01*
X491569Y188351D01*
X491525Y189067D01*
X491499Y189783D01*
X491490Y190500D01*
X556260Y191135D02*
X556260Y202565D01*
X553085Y202565D02*
X559435Y202565D01*
X563753Y197485D02*
X567563Y197485D01*
X567663Y197483D01*
X567762Y197477D01*
X567862Y197467D01*
X567960Y197454D01*
X568059Y197436D01*
X568156Y197415D01*
X568252Y197390D01*
X568348Y197361D01*
X568442Y197328D01*
X568535Y197292D01*
X568626Y197252D01*
X568716Y197208D01*
X568804Y197161D01*
X568890Y197111D01*
X568974Y197057D01*
X569056Y197000D01*
X569135Y196940D01*
X569213Y196876D01*
X569287Y196810D01*
X569359Y196741D01*
X569428Y196669D01*
X569494Y196595D01*
X569558Y196517D01*
X569618Y196438D01*
X569675Y196356D01*
X569729Y196272D01*
X569779Y196186D01*
X569826Y196098D01*
X569870Y196008D01*
X569910Y195917D01*
X569946Y195824D01*
X569979Y195730D01*
X570008Y195634D01*
X570033Y195538D01*
X570054Y195441D01*
X570072Y195342D01*
X570085Y195244D01*
X570095Y195144D01*
X570101Y195045D01*
X570103Y194945D01*
X570103Y194310D01*
X570101Y194199D01*
X570095Y194089D01*
X570086Y193978D01*
X570072Y193868D01*
X570055Y193759D01*
X570034Y193650D01*
X570009Y193542D01*
X569980Y193435D01*
X569948Y193329D01*
X569912Y193224D01*
X569872Y193121D01*
X569829Y193019D01*
X569782Y192918D01*
X569731Y192819D01*
X569678Y192722D01*
X569621Y192628D01*
X569560Y192535D01*
X569497Y192444D01*
X569430Y192355D01*
X569360Y192269D01*
X569287Y192186D01*
X569212Y192104D01*
X569134Y192026D01*
X569052Y191951D01*
X568969Y191878D01*
X568883Y191808D01*
X568794Y191741D01*
X568703Y191678D01*
X568610Y191617D01*
X568516Y191560D01*
X568419Y191507D01*
X568320Y191456D01*
X568219Y191409D01*
X568117Y191366D01*
X568014Y191326D01*
X567909Y191290D01*
X567803Y191258D01*
X567696Y191229D01*
X567588Y191204D01*
X567479Y191183D01*
X567370Y191166D01*
X567260Y191152D01*
X567149Y191143D01*
X567039Y191137D01*
X566928Y191135D01*
X566817Y191137D01*
X566707Y191143D01*
X566596Y191152D01*
X566486Y191166D01*
X566377Y191183D01*
X566268Y191204D01*
X566160Y191229D01*
X566053Y191258D01*
X565947Y191290D01*
X565842Y191326D01*
X565739Y191366D01*
X565637Y191409D01*
X565536Y191456D01*
X565437Y191507D01*
X565341Y191560D01*
X565246Y191617D01*
X565153Y191678D01*
X565062Y191741D01*
X564973Y191808D01*
X564887Y191878D01*
X564804Y191951D01*
X564722Y192026D01*
X564644Y192104D01*
X564569Y192186D01*
X564496Y192269D01*
X564426Y192355D01*
X564359Y192444D01*
X564296Y192535D01*
X564235Y192628D01*
X564178Y192723D01*
X564125Y192819D01*
X564074Y192918D01*
X564027Y193019D01*
X563984Y193121D01*
X563944Y193224D01*
X563908Y193329D01*
X563876Y193435D01*
X563847Y193542D01*
X563822Y193650D01*
X563801Y193759D01*
X563784Y193868D01*
X563770Y193978D01*
X563761Y194089D01*
X563755Y194199D01*
X563753Y194310D01*
X563753Y197485D01*
X563755Y197625D01*
X563761Y197765D01*
X563770Y197905D01*
X563784Y198044D01*
X563801Y198183D01*
X563822Y198321D01*
X563847Y198459D01*
X563876Y198596D01*
X563908Y198732D01*
X563945Y198867D01*
X563985Y199001D01*
X564028Y199134D01*
X564076Y199266D01*
X564126Y199397D01*
X564181Y199526D01*
X564239Y199653D01*
X564300Y199779D01*
X564365Y199903D01*
X564434Y200025D01*
X564505Y200145D01*
X564580Y200263D01*
X564658Y200380D01*
X564740Y200494D01*
X564824Y200605D01*
X564912Y200714D01*
X565002Y200821D01*
X565096Y200926D01*
X565192Y201027D01*
X565291Y201126D01*
X565392Y201222D01*
X565497Y201316D01*
X565604Y201406D01*
X565713Y201494D01*
X565824Y201578D01*
X565938Y201660D01*
X566055Y201738D01*
X566173Y201813D01*
X566293Y201884D01*
X566415Y201953D01*
X566539Y202018D01*
X566665Y202079D01*
X566792Y202137D01*
X566921Y202192D01*
X567052Y202242D01*
X567184Y202290D01*
X567317Y202333D01*
X567451Y202373D01*
X567586Y202410D01*
X567722Y202442D01*
X567859Y202471D01*
X567997Y202496D01*
X568135Y202517D01*
X568274Y202534D01*
X568413Y202548D01*
X568553Y202557D01*
X568693Y202563D01*
X568833Y202565D01*
D13*
X514400Y230050D02*
X450800Y230050D01*
X450800Y252550D02*
X514400Y252550D01*
X450800Y252550D02*
X450800Y230050D01*
X514400Y230050D02*
X514400Y252550D01*
D20*
X447275Y241300D03*
X517925Y241300D03*
D21*
X451739Y232791D02*
X451739Y216789D01*
X451739Y232791D02*
X456184Y232791D01*
X456316Y232789D01*
X456447Y232783D01*
X456579Y232773D01*
X456710Y232760D01*
X456840Y232742D01*
X456970Y232721D01*
X457100Y232696D01*
X457228Y232667D01*
X457356Y232634D01*
X457482Y232597D01*
X457608Y232557D01*
X457732Y232513D01*
X457855Y232465D01*
X457976Y232414D01*
X458096Y232359D01*
X458214Y232301D01*
X458330Y232239D01*
X458444Y232173D01*
X458557Y232105D01*
X458667Y232033D01*
X458775Y231958D01*
X458881Y231879D01*
X458985Y231798D01*
X459086Y231713D01*
X459184Y231626D01*
X459280Y231535D01*
X459373Y231442D01*
X459464Y231346D01*
X459551Y231248D01*
X459636Y231147D01*
X459717Y231043D01*
X459796Y230937D01*
X459871Y230829D01*
X459943Y230719D01*
X460011Y230606D01*
X460077Y230492D01*
X460139Y230376D01*
X460197Y230258D01*
X460252Y230138D01*
X460303Y230017D01*
X460351Y229894D01*
X460395Y229770D01*
X460435Y229644D01*
X460472Y229518D01*
X460505Y229390D01*
X460534Y229262D01*
X460559Y229132D01*
X460580Y229002D01*
X460598Y228872D01*
X460611Y228741D01*
X460621Y228609D01*
X460627Y228478D01*
X460629Y228346D01*
X460627Y228214D01*
X460621Y228083D01*
X460611Y227951D01*
X460598Y227820D01*
X460580Y227690D01*
X460559Y227560D01*
X460534Y227430D01*
X460505Y227302D01*
X460472Y227174D01*
X460435Y227048D01*
X460395Y226922D01*
X460351Y226798D01*
X460303Y226675D01*
X460252Y226554D01*
X460197Y226434D01*
X460139Y226316D01*
X460077Y226200D01*
X460011Y226086D01*
X459943Y225973D01*
X459871Y225863D01*
X459796Y225755D01*
X459717Y225649D01*
X459636Y225545D01*
X459551Y225444D01*
X459464Y225346D01*
X459373Y225250D01*
X459280Y225157D01*
X459184Y225066D01*
X459086Y224979D01*
X458985Y224894D01*
X458881Y224813D01*
X458775Y224734D01*
X458667Y224659D01*
X458557Y224587D01*
X458444Y224519D01*
X458330Y224453D01*
X458214Y224391D01*
X458096Y224333D01*
X457976Y224278D01*
X457855Y224227D01*
X457732Y224179D01*
X457608Y224135D01*
X457482Y224095D01*
X457356Y224058D01*
X457228Y224025D01*
X457100Y223996D01*
X456970Y223971D01*
X456840Y223950D01*
X456710Y223932D01*
X456579Y223919D01*
X456447Y223909D01*
X456316Y223903D01*
X456184Y223901D01*
X451739Y223901D01*
X457073Y223901D02*
X460629Y216789D01*
X467269Y216789D02*
X471714Y216789D01*
X471846Y216791D01*
X471977Y216797D01*
X472109Y216807D01*
X472240Y216820D01*
X472370Y216838D01*
X472500Y216859D01*
X472630Y216884D01*
X472758Y216913D01*
X472886Y216946D01*
X473012Y216983D01*
X473138Y217023D01*
X473262Y217067D01*
X473385Y217115D01*
X473506Y217166D01*
X473626Y217221D01*
X473744Y217279D01*
X473860Y217341D01*
X473974Y217407D01*
X474087Y217475D01*
X474197Y217547D01*
X474305Y217622D01*
X474411Y217701D01*
X474515Y217782D01*
X474616Y217867D01*
X474714Y217954D01*
X474810Y218045D01*
X474903Y218138D01*
X474994Y218234D01*
X475081Y218332D01*
X475166Y218433D01*
X475247Y218537D01*
X475326Y218643D01*
X475401Y218751D01*
X475473Y218861D01*
X475541Y218974D01*
X475607Y219088D01*
X475669Y219204D01*
X475727Y219322D01*
X475782Y219442D01*
X475833Y219563D01*
X475881Y219686D01*
X475925Y219810D01*
X475965Y219936D01*
X476002Y220062D01*
X476035Y220190D01*
X476064Y220318D01*
X476089Y220448D01*
X476110Y220578D01*
X476128Y220708D01*
X476141Y220839D01*
X476151Y220971D01*
X476157Y221102D01*
X476159Y221234D01*
X476157Y221366D01*
X476151Y221497D01*
X476141Y221629D01*
X476128Y221760D01*
X476110Y221890D01*
X476089Y222020D01*
X476064Y222150D01*
X476035Y222278D01*
X476002Y222406D01*
X475965Y222532D01*
X475925Y222658D01*
X475881Y222782D01*
X475833Y222905D01*
X475782Y223026D01*
X475727Y223146D01*
X475669Y223264D01*
X475607Y223380D01*
X475541Y223494D01*
X475473Y223607D01*
X475401Y223717D01*
X475326Y223825D01*
X475247Y223931D01*
X475166Y224035D01*
X475081Y224136D01*
X474994Y224234D01*
X474903Y224330D01*
X474810Y224423D01*
X474714Y224514D01*
X474616Y224601D01*
X474515Y224686D01*
X474411Y224767D01*
X474305Y224846D01*
X474197Y224921D01*
X474087Y224993D01*
X473974Y225061D01*
X473860Y225127D01*
X473744Y225189D01*
X473626Y225247D01*
X473506Y225302D01*
X473385Y225353D01*
X473262Y225401D01*
X473138Y225445D01*
X473012Y225485D01*
X472886Y225522D01*
X472758Y225555D01*
X472630Y225584D01*
X472500Y225609D01*
X472370Y225630D01*
X472240Y225648D01*
X472109Y225661D01*
X471977Y225671D01*
X471846Y225677D01*
X471714Y225679D01*
X472603Y232791D02*
X467269Y232791D01*
X472603Y232791D02*
X472721Y232789D01*
X472838Y232783D01*
X472955Y232774D01*
X473072Y232760D01*
X473188Y232743D01*
X473304Y232721D01*
X473419Y232696D01*
X473533Y232667D01*
X473646Y232635D01*
X473758Y232598D01*
X473868Y232558D01*
X473977Y232515D01*
X474085Y232467D01*
X474191Y232417D01*
X474295Y232362D01*
X474398Y232305D01*
X474498Y232244D01*
X474597Y232179D01*
X474693Y232112D01*
X474787Y232041D01*
X474879Y231967D01*
X474968Y231891D01*
X475054Y231811D01*
X475138Y231729D01*
X475219Y231643D01*
X475297Y231556D01*
X475373Y231465D01*
X475445Y231372D01*
X475514Y231277D01*
X475580Y231180D01*
X475643Y231080D01*
X475702Y230979D01*
X475758Y230876D01*
X475810Y230770D01*
X475859Y230663D01*
X475905Y230555D01*
X475947Y230445D01*
X475985Y230334D01*
X476019Y230221D01*
X476050Y230108D01*
X476077Y229993D01*
X476100Y229878D01*
X476120Y229762D01*
X476135Y229646D01*
X476147Y229529D01*
X476155Y229411D01*
X476159Y229294D01*
X476159Y229176D01*
X476155Y229059D01*
X476147Y228941D01*
X476135Y228824D01*
X476120Y228708D01*
X476100Y228592D01*
X476077Y228477D01*
X476050Y228362D01*
X476019Y228249D01*
X475985Y228136D01*
X475947Y228025D01*
X475905Y227915D01*
X475859Y227807D01*
X475810Y227700D01*
X475758Y227594D01*
X475702Y227491D01*
X475643Y227390D01*
X475580Y227290D01*
X475514Y227193D01*
X475445Y227098D01*
X475373Y227005D01*
X475297Y226914D01*
X475219Y226827D01*
X475138Y226741D01*
X475054Y226659D01*
X474968Y226579D01*
X474879Y226503D01*
X474787Y226429D01*
X474693Y226358D01*
X474597Y226291D01*
X474498Y226226D01*
X474398Y226165D01*
X474295Y226108D01*
X474191Y226053D01*
X474085Y226003D01*
X473977Y225955D01*
X473868Y225912D01*
X473758Y225872D01*
X473646Y225835D01*
X473533Y225803D01*
X473419Y225774D01*
X473304Y225749D01*
X473188Y225727D01*
X473072Y225710D01*
X472955Y225696D01*
X472838Y225687D01*
X472721Y225681D01*
X472603Y225679D01*
X469047Y225679D01*
D13*
X190500Y419100D02*
X165100Y419100D01*
X190500Y419100D02*
X190500Y368300D01*
X165100Y368300D02*
X165100Y419100D01*
X190500Y419100D02*
X196850Y419100D01*
X196850Y368300D01*
X190500Y368300D02*
X165100Y368300D01*
X190500Y368300D02*
X196850Y368300D01*
D14*
X177800Y381000D03*
X177800Y406400D03*
D12*
X154884Y407590D02*
X145796Y407590D01*
X154884Y407589D02*
X154983Y407587D01*
X155083Y407581D01*
X155182Y407572D01*
X155280Y407559D01*
X155378Y407542D01*
X155476Y407521D01*
X155572Y407496D01*
X155667Y407468D01*
X155761Y407436D01*
X155854Y407401D01*
X155946Y407362D01*
X156036Y407319D01*
X156124Y407274D01*
X156211Y407224D01*
X156295Y407172D01*
X156378Y407116D01*
X156458Y407058D01*
X156536Y406996D01*
X156611Y406931D01*
X156684Y406863D01*
X156754Y406793D01*
X156822Y406720D01*
X156887Y406645D01*
X156949Y406567D01*
X157007Y406487D01*
X157063Y406404D01*
X157115Y406320D01*
X157165Y406233D01*
X157210Y406145D01*
X157253Y406055D01*
X157292Y405963D01*
X157327Y405870D01*
X157359Y405776D01*
X157387Y405681D01*
X157412Y405585D01*
X157433Y405487D01*
X157450Y405389D01*
X157463Y405291D01*
X157472Y405192D01*
X157478Y405092D01*
X157480Y404993D01*
X157480Y403695D01*
X148392Y412863D02*
X145796Y416108D01*
X157480Y416108D01*
X157480Y412863D02*
X157480Y419354D01*
M02*
