G04 EAGLE Gerber RS-274X export*
G75*
%MOMM*%
%FSLAX34Y34*%
%LPD*%
%IN*%
%IPPOS*%
%AMOC8*
5,1,8,0,0,1.08239X$1,22.5*%
G01*
%ADD10C,0.254000*%


D10*
X0Y0D02*
X952300Y0D01*
X952300Y1000000D01*
X0Y1000000D01*
X0Y0D01*
X658750Y931000D02*
X658760Y930782D01*
X658788Y930566D01*
X658835Y930353D01*
X658901Y930145D01*
X658984Y929943D01*
X659085Y929750D01*
X659202Y929566D01*
X659335Y929393D01*
X659482Y929232D01*
X659643Y929085D01*
X659816Y928952D01*
X660000Y928835D01*
X660193Y928734D01*
X660395Y928651D01*
X660603Y928585D01*
X660816Y928538D01*
X661032Y928510D01*
X661250Y928500D01*
X672250Y928500D01*
X672468Y928510D01*
X672684Y928538D01*
X672897Y928585D01*
X673105Y928651D01*
X673307Y928734D01*
X673500Y928835D01*
X673684Y928952D01*
X673857Y929085D01*
X674018Y929232D01*
X674165Y929393D01*
X674298Y929566D01*
X674415Y929750D01*
X674516Y929943D01*
X674599Y930145D01*
X674665Y930353D01*
X674712Y930566D01*
X674741Y930782D01*
X674750Y931000D01*
X674741Y931218D01*
X674712Y931434D01*
X674665Y931647D01*
X674599Y931855D01*
X674516Y932057D01*
X674415Y932250D01*
X674298Y932434D01*
X674165Y932607D01*
X674018Y932768D01*
X673857Y932915D01*
X673684Y933048D01*
X673500Y933165D01*
X673307Y933266D01*
X673105Y933349D01*
X672897Y933415D01*
X672684Y933462D01*
X672468Y933491D01*
X672250Y933500D01*
X661250Y933500D01*
X661032Y933491D01*
X660816Y933462D01*
X660603Y933415D01*
X660395Y933349D01*
X660193Y933266D01*
X660000Y933165D01*
X659816Y933048D01*
X659643Y932915D01*
X659482Y932768D01*
X659335Y932607D01*
X659202Y932434D01*
X659085Y932250D01*
X658984Y932057D01*
X658901Y931855D01*
X658835Y931647D01*
X658788Y931434D01*
X658760Y931218D01*
X658750Y931000D01*
X688750Y952500D02*
X688760Y952282D01*
X688788Y952066D01*
X688835Y951853D01*
X688901Y951645D01*
X688984Y951443D01*
X689085Y951250D01*
X689202Y951066D01*
X689335Y950893D01*
X689482Y950732D01*
X689643Y950585D01*
X689816Y950452D01*
X690000Y950335D01*
X690193Y950234D01*
X690395Y950151D01*
X690603Y950085D01*
X690816Y950038D01*
X691032Y950010D01*
X691250Y950000D01*
X698250Y950000D01*
X698468Y950010D01*
X698684Y950038D01*
X698897Y950085D01*
X699105Y950151D01*
X699307Y950234D01*
X699500Y950335D01*
X699684Y950452D01*
X699857Y950585D01*
X700018Y950732D01*
X700165Y950893D01*
X700298Y951066D01*
X700415Y951250D01*
X700516Y951443D01*
X700599Y951645D01*
X700665Y951853D01*
X700712Y952066D01*
X700741Y952282D01*
X700750Y952500D01*
X700741Y952718D01*
X700712Y952934D01*
X700665Y953147D01*
X700599Y953355D01*
X700516Y953557D01*
X700415Y953750D01*
X700298Y953934D01*
X700165Y954107D01*
X700018Y954268D01*
X699857Y954415D01*
X699684Y954548D01*
X699500Y954665D01*
X699307Y954766D01*
X699105Y954849D01*
X698897Y954915D01*
X698684Y954962D01*
X698468Y954991D01*
X698250Y955000D01*
X691250Y955000D01*
X691032Y954991D01*
X690816Y954962D01*
X690603Y954915D01*
X690395Y954849D01*
X690193Y954766D01*
X690000Y954665D01*
X689816Y954548D01*
X689643Y954415D01*
X689482Y954268D01*
X689335Y954107D01*
X689202Y953934D01*
X689085Y953750D01*
X688984Y953557D01*
X688901Y953355D01*
X688835Y953147D01*
X688788Y952934D01*
X688760Y952718D01*
X688750Y952500D01*
X632750Y952500D02*
X632760Y952282D01*
X632788Y952066D01*
X632835Y951853D01*
X632901Y951645D01*
X632984Y951443D01*
X633085Y951250D01*
X633202Y951066D01*
X633335Y950893D01*
X633482Y950732D01*
X633643Y950585D01*
X633816Y950452D01*
X634000Y950335D01*
X634193Y950234D01*
X634395Y950151D01*
X634603Y950085D01*
X634816Y950038D01*
X635032Y950010D01*
X635250Y950000D01*
X642250Y950000D01*
X642468Y950010D01*
X642684Y950038D01*
X642897Y950085D01*
X643105Y950151D01*
X643307Y950234D01*
X643500Y950335D01*
X643684Y950452D01*
X643857Y950585D01*
X644018Y950732D01*
X644165Y950893D01*
X644298Y951066D01*
X644415Y951250D01*
X644516Y951443D01*
X644599Y951645D01*
X644665Y951853D01*
X644712Y952066D01*
X644741Y952282D01*
X644750Y952500D01*
X644741Y952718D01*
X644712Y952934D01*
X644665Y953147D01*
X644599Y953355D01*
X644516Y953557D01*
X644415Y953750D01*
X644298Y953934D01*
X644165Y954107D01*
X644018Y954268D01*
X643857Y954415D01*
X643684Y954548D01*
X643500Y954665D01*
X643307Y954766D01*
X643105Y954849D01*
X642897Y954915D01*
X642684Y954962D01*
X642468Y954991D01*
X642250Y955000D01*
X635250Y955000D01*
X635032Y954991D01*
X634816Y954962D01*
X634603Y954915D01*
X634395Y954849D01*
X634193Y954766D01*
X634000Y954665D01*
X633816Y954548D01*
X633643Y954415D01*
X633482Y954268D01*
X633335Y954107D01*
X633202Y953934D01*
X633085Y953750D01*
X632984Y953557D01*
X632901Y953355D01*
X632835Y953147D01*
X632788Y952934D01*
X632760Y952718D01*
X632750Y952500D01*
X24050Y18769D02*
X23987Y18211D01*
X23862Y17664D01*
X23677Y17134D01*
X23433Y16628D01*
X23134Y16152D01*
X22784Y15713D01*
X22387Y15316D01*
X21948Y14966D01*
X21472Y14667D01*
X20966Y14423D01*
X20436Y14238D01*
X19889Y14113D01*
X19331Y14050D01*
X18769Y14050D01*
X18211Y14113D01*
X17664Y14238D01*
X17134Y14423D01*
X16628Y14667D01*
X16152Y14966D01*
X15713Y15316D01*
X15316Y15713D01*
X14966Y16152D01*
X14667Y16628D01*
X14423Y17134D01*
X14238Y17664D01*
X14113Y18211D01*
X14050Y18769D01*
X14050Y19331D01*
X14113Y19889D01*
X14238Y20436D01*
X14423Y20966D01*
X14667Y21472D01*
X14966Y21948D01*
X15316Y22387D01*
X15713Y22784D01*
X16152Y23134D01*
X16628Y23433D01*
X17134Y23677D01*
X17664Y23862D01*
X18211Y23987D01*
X18769Y24050D01*
X19331Y24050D01*
X19889Y23987D01*
X20436Y23862D01*
X20966Y23677D01*
X21472Y23433D01*
X21948Y23134D01*
X22387Y22784D01*
X22784Y22387D01*
X23134Y21948D01*
X23433Y21472D01*
X23677Y20966D01*
X23862Y20436D01*
X23987Y19889D01*
X24050Y19331D01*
X24050Y18769D01*
X938450Y18769D02*
X938387Y18211D01*
X938262Y17664D01*
X938077Y17134D01*
X937833Y16628D01*
X937534Y16152D01*
X937184Y15713D01*
X936787Y15316D01*
X936348Y14966D01*
X935872Y14667D01*
X935366Y14423D01*
X934836Y14238D01*
X934289Y14113D01*
X933731Y14050D01*
X933169Y14050D01*
X932611Y14113D01*
X932064Y14238D01*
X931534Y14423D01*
X931028Y14667D01*
X930552Y14966D01*
X930113Y15316D01*
X929716Y15713D01*
X929366Y16152D01*
X929067Y16628D01*
X928823Y17134D01*
X928638Y17664D01*
X928513Y18211D01*
X928450Y18769D01*
X928450Y19331D01*
X928513Y19889D01*
X928638Y20436D01*
X928823Y20966D01*
X929067Y21472D01*
X929366Y21948D01*
X929716Y22387D01*
X930113Y22784D01*
X930552Y23134D01*
X931028Y23433D01*
X931534Y23677D01*
X932064Y23862D01*
X932611Y23987D01*
X933169Y24050D01*
X933731Y24050D01*
X934289Y23987D01*
X934836Y23862D01*
X935366Y23677D01*
X935872Y23433D01*
X936348Y23134D01*
X936787Y22784D01*
X937184Y22387D01*
X937534Y21948D01*
X937833Y21472D01*
X938077Y20966D01*
X938262Y20436D01*
X938387Y19889D01*
X938450Y19331D01*
X938450Y18769D01*
X24050Y983969D02*
X23987Y983411D01*
X23862Y982864D01*
X23677Y982334D01*
X23433Y981828D01*
X23134Y981352D01*
X22784Y980913D01*
X22387Y980516D01*
X21948Y980166D01*
X21472Y979867D01*
X20966Y979623D01*
X20436Y979438D01*
X19889Y979313D01*
X19331Y979250D01*
X18769Y979250D01*
X18211Y979313D01*
X17664Y979438D01*
X17134Y979623D01*
X16628Y979867D01*
X16152Y980166D01*
X15713Y980516D01*
X15316Y980913D01*
X14966Y981352D01*
X14667Y981828D01*
X14423Y982334D01*
X14238Y982864D01*
X14113Y983411D01*
X14050Y983969D01*
X14050Y984531D01*
X14113Y985089D01*
X14238Y985636D01*
X14423Y986166D01*
X14667Y986672D01*
X14966Y987148D01*
X15316Y987587D01*
X15713Y987984D01*
X16152Y988334D01*
X16628Y988633D01*
X17134Y988877D01*
X17664Y989062D01*
X18211Y989187D01*
X18769Y989250D01*
X19331Y989250D01*
X19889Y989187D01*
X20436Y989062D01*
X20966Y988877D01*
X21472Y988633D01*
X21948Y988334D01*
X22387Y987984D01*
X22784Y987587D01*
X23134Y987148D01*
X23433Y986672D01*
X23677Y986166D01*
X23862Y985636D01*
X23987Y985089D01*
X24050Y984531D01*
X24050Y983969D01*
X937950Y983955D02*
X937873Y983370D01*
X937720Y982800D01*
X937495Y982255D01*
X937200Y981745D01*
X936841Y981277D01*
X936423Y980859D01*
X935955Y980500D01*
X935445Y980205D01*
X934900Y979980D01*
X934330Y979827D01*
X933745Y979750D01*
X933155Y979750D01*
X932570Y979827D01*
X932000Y979980D01*
X931455Y980205D01*
X930945Y980500D01*
X930477Y980859D01*
X930059Y981277D01*
X929700Y981745D01*
X929405Y982255D01*
X929180Y982800D01*
X929027Y983370D01*
X928950Y983955D01*
X928950Y984545D01*
X929027Y985130D01*
X929180Y985700D01*
X929405Y986245D01*
X929700Y986755D01*
X930059Y987223D01*
X930477Y987641D01*
X930945Y988000D01*
X931455Y988295D01*
X932000Y988520D01*
X932570Y988673D01*
X933155Y988750D01*
X933745Y988750D01*
X934330Y988673D01*
X934900Y988520D01*
X935445Y988295D01*
X935955Y988000D01*
X936423Y987641D01*
X936841Y987223D01*
X937200Y986755D01*
X937495Y986245D01*
X937720Y985700D01*
X937873Y985130D01*
X937950Y984545D01*
X937950Y983955D01*
X824968Y663200D02*
X823906Y663270D01*
X822852Y663408D01*
X821808Y663616D01*
X820780Y663891D01*
X819773Y664233D01*
X818790Y664641D01*
X817836Y665111D01*
X816914Y665643D01*
X816030Y666234D01*
X815186Y666882D01*
X814386Y667583D01*
X813633Y668336D01*
X812932Y669136D01*
X812284Y669980D01*
X811693Y670864D01*
X811161Y671786D01*
X810691Y672740D01*
X810283Y673723D01*
X809941Y674730D01*
X809666Y675758D01*
X809458Y676802D01*
X809320Y677856D01*
X809250Y678918D01*
X809250Y679982D01*
X809320Y681044D01*
X809458Y682098D01*
X809666Y683142D01*
X809941Y684170D01*
X810283Y685177D01*
X810691Y686160D01*
X811161Y687114D01*
X811693Y688036D01*
X812284Y688920D01*
X812932Y689764D01*
X813633Y690564D01*
X814386Y691317D01*
X815186Y692018D01*
X816030Y692666D01*
X816914Y693257D01*
X817836Y693789D01*
X818790Y694259D01*
X819773Y694667D01*
X820780Y695009D01*
X821808Y695284D01*
X822852Y695492D01*
X823906Y695630D01*
X824968Y695700D01*
X826032Y695700D01*
X827094Y695630D01*
X828148Y695492D01*
X829192Y695284D01*
X830220Y695009D01*
X831227Y694667D01*
X832210Y694259D01*
X833164Y693789D01*
X834086Y693257D01*
X834970Y692666D01*
X835814Y692018D01*
X836614Y691317D01*
X837367Y690564D01*
X838068Y689764D01*
X838716Y688920D01*
X839307Y688036D01*
X839839Y687114D01*
X840309Y686160D01*
X840717Y685177D01*
X841059Y684170D01*
X841334Y683142D01*
X841542Y682098D01*
X841680Y681044D01*
X841750Y679982D01*
X841750Y678918D01*
X841680Y677856D01*
X841542Y676802D01*
X841334Y675758D01*
X841059Y674730D01*
X840717Y673723D01*
X840309Y672740D01*
X839839Y671786D01*
X839307Y670864D01*
X838716Y669980D01*
X838068Y669136D01*
X837367Y668336D01*
X836614Y667583D01*
X835814Y666882D01*
X834970Y666234D01*
X834086Y665643D01*
X833164Y665111D01*
X832210Y664641D01*
X831227Y664233D01*
X830220Y663891D01*
X829192Y663616D01*
X828148Y663408D01*
X827094Y663270D01*
X826032Y663200D01*
X824968Y663200D01*
X824968Y548900D02*
X823906Y548970D01*
X822852Y549108D01*
X821808Y549316D01*
X820780Y549591D01*
X819773Y549933D01*
X818790Y550341D01*
X817836Y550811D01*
X816914Y551343D01*
X816030Y551934D01*
X815186Y552582D01*
X814386Y553283D01*
X813633Y554036D01*
X812932Y554836D01*
X812284Y555680D01*
X811693Y556564D01*
X811161Y557486D01*
X810691Y558440D01*
X810283Y559423D01*
X809941Y560430D01*
X809666Y561458D01*
X809458Y562502D01*
X809320Y563556D01*
X809250Y564618D01*
X809250Y565682D01*
X809320Y566744D01*
X809458Y567798D01*
X809666Y568842D01*
X809941Y569870D01*
X810283Y570877D01*
X810691Y571860D01*
X811161Y572814D01*
X811693Y573736D01*
X812284Y574620D01*
X812932Y575464D01*
X813633Y576264D01*
X814386Y577017D01*
X815186Y577718D01*
X816030Y578366D01*
X816914Y578957D01*
X817836Y579489D01*
X818790Y579959D01*
X819773Y580367D01*
X820780Y580709D01*
X821808Y580984D01*
X822852Y581192D01*
X823906Y581330D01*
X824968Y581400D01*
X826032Y581400D01*
X827094Y581330D01*
X828148Y581192D01*
X829192Y580984D01*
X830220Y580709D01*
X831227Y580367D01*
X832210Y579959D01*
X833164Y579489D01*
X834086Y578957D01*
X834970Y578366D01*
X835814Y577718D01*
X836614Y577017D01*
X837367Y576264D01*
X838068Y575464D01*
X838716Y574620D01*
X839307Y573736D01*
X839839Y572814D01*
X840309Y571860D01*
X840717Y570877D01*
X841059Y569870D01*
X841334Y568842D01*
X841542Y567798D01*
X841680Y566744D01*
X841750Y565682D01*
X841750Y564618D01*
X841680Y563556D01*
X841542Y562502D01*
X841334Y561458D01*
X841059Y560430D01*
X840717Y559423D01*
X840309Y558440D01*
X839839Y557486D01*
X839307Y556564D01*
X838716Y555680D01*
X838068Y554836D01*
X837367Y554036D01*
X836614Y553283D01*
X835814Y552582D01*
X834970Y551934D01*
X834086Y551343D01*
X833164Y550811D01*
X832210Y550341D01*
X831227Y549933D01*
X830220Y549591D01*
X829192Y549316D01*
X828148Y549108D01*
X827094Y548970D01*
X826032Y548900D01*
X824968Y548900D01*
X641250Y952303D02*
X641188Y951915D01*
X641067Y951540D01*
X640888Y951190D01*
X640657Y950871D01*
X640379Y950593D01*
X640060Y950362D01*
X639710Y950183D01*
X639335Y950062D01*
X638947Y950000D01*
X638553Y950000D01*
X638165Y950062D01*
X637790Y950183D01*
X637440Y950362D01*
X637121Y950593D01*
X636843Y950871D01*
X636612Y951190D01*
X636433Y951540D01*
X636312Y951915D01*
X636250Y952303D01*
X636250Y952697D01*
X636312Y953085D01*
X636433Y953460D01*
X636612Y953810D01*
X636843Y954129D01*
X637121Y954407D01*
X637440Y954638D01*
X637790Y954817D01*
X638165Y954938D01*
X638553Y955000D01*
X638947Y955000D01*
X639335Y954938D01*
X639710Y954817D01*
X640060Y954638D01*
X640379Y954407D01*
X640657Y954129D01*
X640888Y953810D01*
X641067Y953460D01*
X641188Y953085D01*
X641250Y952697D01*
X641250Y952303D01*
X697250Y952303D02*
X697188Y951915D01*
X697067Y951540D01*
X696888Y951190D01*
X696657Y950871D01*
X696379Y950593D01*
X696060Y950362D01*
X695710Y950183D01*
X695335Y950062D01*
X694947Y950000D01*
X694553Y950000D01*
X694165Y950062D01*
X693790Y950183D01*
X693440Y950362D01*
X693121Y950593D01*
X692843Y950871D01*
X692612Y951190D01*
X692433Y951540D01*
X692312Y951915D01*
X692250Y952303D01*
X692250Y952697D01*
X692312Y953085D01*
X692433Y953460D01*
X692612Y953810D01*
X692843Y954129D01*
X693121Y954407D01*
X693440Y954638D01*
X693790Y954817D01*
X694165Y954938D01*
X694553Y955000D01*
X694947Y955000D01*
X695335Y954938D01*
X695710Y954817D01*
X696060Y954638D01*
X696379Y954407D01*
X696657Y954129D01*
X696888Y953810D01*
X697067Y953460D01*
X697188Y953085D01*
X697250Y952697D01*
X697250Y952303D01*
X669250Y930803D02*
X669188Y930415D01*
X669067Y930040D01*
X668888Y929690D01*
X668657Y929371D01*
X668379Y929093D01*
X668060Y928862D01*
X667710Y928683D01*
X667335Y928562D01*
X666947Y928500D01*
X666553Y928500D01*
X666165Y928562D01*
X665790Y928683D01*
X665440Y928862D01*
X665121Y929093D01*
X664843Y929371D01*
X664612Y929690D01*
X664433Y930040D01*
X664312Y930415D01*
X664250Y930803D01*
X664250Y931197D01*
X664312Y931585D01*
X664433Y931960D01*
X664612Y932310D01*
X664843Y932629D01*
X665121Y932907D01*
X665440Y933138D01*
X665790Y933317D01*
X666165Y933438D01*
X666553Y933500D01*
X666947Y933500D01*
X667335Y933438D01*
X667710Y933317D01*
X668060Y933138D01*
X668379Y932907D01*
X668657Y932629D01*
X668888Y932310D01*
X669067Y931960D01*
X669188Y931585D01*
X669250Y931197D01*
X669250Y930803D01*
M02*
