G04 EAGLE Gerber RS-274X export*
G75*
%MOMM*%
%FSLAX34Y34*%
%LPD*%
%INSolderpaste Top*%
%IPPOS*%
%AMOC8*
5,1,8,0,0,1.08239X$1,22.5*%
G01*
%ADD10R,1.600000X2.600000*%
%ADD11R,1.600000X1.800000*%
%ADD12R,1.700000X1.800000*%
%ADD13R,0.600000X2.200000*%
%ADD14R,0.450000X1.500000*%
%ADD15R,0.800000X0.800000*%
%ADD16R,0.660400X2.032000*%
%ADD17R,1.803000X1.600000*%
%ADD18R,1.600000X1.803000*%
%ADD19R,1.400000X2.100000*%
%ADD20R,1.981200X0.558800*%
%ADD21R,1.149913X1.149913*%
%ADD22R,1.151819X1.149753*%
%ADD23R,1.151400X1.151400*%
%ADD24R,1.149731X1.151981*%
%ADD25C,0.135000*%
%ADD26C,0.139500*%
%ADD27C,0.196500*%
%ADD28C,0.147500*%
%ADD29R,2.000000X0.900000*%
%ADD30R,0.900000X2.000000*%
%ADD31R,5.000000X5.000000*%
%ADD32R,0.600000X0.700000*%
%ADD33R,0.700000X0.600000*%
%ADD34R,1.130000X2.440000*%
%ADD35R,0.400000X1.400000*%
%ADD36R,1.800000X1.900000*%
%ADD37R,2.300000X1.900000*%

G36*
X672251Y925477D02*
X672251Y925477D01*
X672252Y925476D01*
X673325Y925582D01*
X673328Y925584D01*
X673330Y925582D01*
X674362Y925895D01*
X674364Y925898D01*
X674366Y925897D01*
X675317Y926406D01*
X675318Y926409D01*
X675321Y926408D01*
X676154Y927092D01*
X676155Y927095D01*
X676158Y927096D01*
X676842Y927929D01*
X676842Y927932D01*
X676844Y927933D01*
X677353Y928884D01*
X677352Y928887D01*
X677355Y928888D01*
X677668Y929920D01*
X677666Y929923D01*
X677668Y929925D01*
X677774Y930998D01*
X677772Y931000D01*
X677773Y931001D01*
X677774Y931002D01*
X677668Y932075D01*
X677666Y932078D01*
X677668Y932080D01*
X677355Y933112D01*
X677352Y933114D01*
X677353Y933116D01*
X676844Y934067D01*
X676841Y934068D01*
X676842Y934071D01*
X676158Y934904D01*
X676155Y934905D01*
X676154Y934908D01*
X675321Y935592D01*
X675318Y935592D01*
X675317Y935594D01*
X674366Y936103D01*
X674363Y936102D01*
X674362Y936105D01*
X673330Y936418D01*
X673327Y936416D01*
X673325Y936418D01*
X672252Y936524D01*
X672251Y936523D01*
X672250Y936524D01*
X661250Y936524D01*
X661249Y936523D01*
X661248Y936524D01*
X660175Y936418D01*
X660172Y936416D01*
X660170Y936418D01*
X659138Y936105D01*
X659136Y936102D01*
X659134Y936103D01*
X658183Y935594D01*
X658182Y935591D01*
X658179Y935592D01*
X657346Y934908D01*
X657345Y934905D01*
X657342Y934904D01*
X656658Y934071D01*
X656658Y934068D01*
X656656Y934067D01*
X656147Y933116D01*
X656148Y933113D01*
X656145Y933112D01*
X655832Y932080D01*
X655834Y932077D01*
X655832Y932075D01*
X655726Y931002D01*
X655728Y931000D01*
X655726Y930998D01*
X655832Y929925D01*
X655834Y929922D01*
X655832Y929920D01*
X656145Y928888D01*
X656148Y928886D01*
X656147Y928884D01*
X656656Y927933D01*
X656659Y927932D01*
X656658Y927929D01*
X657342Y927096D01*
X657345Y927095D01*
X657346Y927092D01*
X658179Y926408D01*
X658182Y926408D01*
X658183Y926406D01*
X659134Y925897D01*
X659137Y925898D01*
X659138Y925895D01*
X660170Y925582D01*
X660173Y925584D01*
X660175Y925582D01*
X661248Y925476D01*
X661249Y925477D01*
X661250Y925476D01*
X672250Y925476D01*
X672251Y925477D01*
G37*
G36*
X642251Y946977D02*
X642251Y946977D01*
X642252Y946976D01*
X643325Y947082D01*
X643328Y947084D01*
X643330Y947082D01*
X644362Y947395D01*
X644364Y947398D01*
X644366Y947397D01*
X645317Y947906D01*
X645318Y947909D01*
X645321Y947908D01*
X646154Y948592D01*
X646155Y948595D01*
X646158Y948596D01*
X646842Y949429D01*
X646842Y949432D01*
X646844Y949433D01*
X647353Y950384D01*
X647352Y950387D01*
X647355Y950388D01*
X647668Y951420D01*
X647666Y951423D01*
X647668Y951425D01*
X647672Y951459D01*
X647677Y951507D01*
X647677Y951508D01*
X647681Y951556D01*
X647684Y951580D01*
X647689Y951629D01*
X647693Y951677D01*
X647698Y951726D01*
X647700Y951750D01*
X647701Y951750D01*
X647705Y951798D01*
X647705Y951799D01*
X647710Y951847D01*
X647715Y951895D01*
X647715Y951896D01*
X647717Y951920D01*
X647722Y951968D01*
X647727Y952017D01*
X647732Y952065D01*
X647736Y952114D01*
X647739Y952138D01*
X647743Y952186D01*
X647744Y952186D01*
X647743Y952187D01*
X647748Y952235D01*
X647753Y952283D01*
X647753Y952284D01*
X647755Y952308D01*
X647760Y952356D01*
X647765Y952405D01*
X647770Y952453D01*
X647772Y952477D01*
X647772Y952478D01*
X647774Y952498D01*
X647772Y952500D01*
X647773Y952501D01*
X647774Y952502D01*
X647668Y953575D01*
X647666Y953578D01*
X647668Y953580D01*
X647355Y954612D01*
X647352Y954614D01*
X647353Y954616D01*
X646844Y955567D01*
X646841Y955568D01*
X646842Y955571D01*
X646158Y956404D01*
X646155Y956405D01*
X646154Y956408D01*
X645321Y957092D01*
X645318Y957092D01*
X645317Y957094D01*
X644366Y957603D01*
X644363Y957602D01*
X644362Y957605D01*
X643330Y957918D01*
X643327Y957916D01*
X643325Y957918D01*
X642252Y958024D01*
X642251Y958023D01*
X642250Y958024D01*
X635250Y958024D01*
X635249Y958023D01*
X635248Y958024D01*
X634175Y957918D01*
X634172Y957916D01*
X634170Y957918D01*
X633138Y957605D01*
X633136Y957602D01*
X633134Y957603D01*
X632183Y957094D01*
X632182Y957091D01*
X632179Y957092D01*
X631346Y956408D01*
X631345Y956405D01*
X631342Y956404D01*
X630658Y955571D01*
X630658Y955568D01*
X630656Y955567D01*
X630147Y954616D01*
X630148Y954613D01*
X630145Y954612D01*
X629832Y953580D01*
X629834Y953577D01*
X629832Y953575D01*
X629829Y953551D01*
X629824Y953502D01*
X629820Y953454D01*
X629817Y953429D01*
X629812Y953381D01*
X629808Y953332D01*
X629803Y953284D01*
X629798Y953235D01*
X629796Y953211D01*
X629791Y953163D01*
X629786Y953114D01*
X629781Y953066D01*
X629779Y953041D01*
X629774Y952993D01*
X629769Y952944D01*
X629765Y952896D01*
X629762Y952872D01*
X629757Y952823D01*
X629753Y952775D01*
X629748Y952726D01*
X629746Y952702D01*
X629741Y952653D01*
X629736Y952605D01*
X629731Y952556D01*
X629726Y952508D01*
X629726Y952502D01*
X629728Y952500D01*
X629726Y952498D01*
X629832Y951425D01*
X629834Y951422D01*
X629832Y951420D01*
X630145Y950388D01*
X630148Y950386D01*
X630147Y950384D01*
X630656Y949433D01*
X630659Y949432D01*
X630658Y949429D01*
X631342Y948596D01*
X631345Y948595D01*
X631346Y948592D01*
X632179Y947908D01*
X632182Y947908D01*
X632183Y947906D01*
X633134Y947397D01*
X633137Y947398D01*
X633138Y947395D01*
X634170Y947082D01*
X634173Y947084D01*
X634175Y947082D01*
X635248Y946976D01*
X635249Y946977D01*
X635250Y946976D01*
X642250Y946976D01*
X642251Y946977D01*
G37*
G36*
X698251Y946977D02*
X698251Y946977D01*
X698252Y946976D01*
X699325Y947082D01*
X699328Y947084D01*
X699330Y947082D01*
X700362Y947395D01*
X700364Y947398D01*
X700366Y947397D01*
X701317Y947906D01*
X701318Y947909D01*
X701321Y947908D01*
X702154Y948592D01*
X702155Y948595D01*
X702158Y948596D01*
X702842Y949429D01*
X702842Y949432D01*
X702844Y949433D01*
X703353Y950384D01*
X703352Y950387D01*
X703355Y950388D01*
X703668Y951420D01*
X703666Y951423D01*
X703668Y951425D01*
X703672Y951459D01*
X703677Y951507D01*
X703677Y951508D01*
X703681Y951556D01*
X703684Y951580D01*
X703689Y951629D01*
X703693Y951677D01*
X703698Y951726D01*
X703700Y951750D01*
X703701Y951750D01*
X703705Y951798D01*
X703705Y951799D01*
X703710Y951847D01*
X703715Y951895D01*
X703715Y951896D01*
X703717Y951920D01*
X703722Y951968D01*
X703727Y952017D01*
X703732Y952065D01*
X703736Y952114D01*
X703739Y952138D01*
X703743Y952186D01*
X703744Y952186D01*
X703743Y952187D01*
X703748Y952235D01*
X703753Y952283D01*
X703753Y952284D01*
X703755Y952308D01*
X703760Y952356D01*
X703765Y952405D01*
X703770Y952453D01*
X703772Y952477D01*
X703772Y952478D01*
X703774Y952498D01*
X703772Y952500D01*
X703773Y952501D01*
X703774Y952502D01*
X703668Y953575D01*
X703666Y953578D01*
X703668Y953580D01*
X703355Y954612D01*
X703352Y954614D01*
X703353Y954616D01*
X702844Y955567D01*
X702841Y955568D01*
X702842Y955571D01*
X702158Y956404D01*
X702155Y956405D01*
X702154Y956408D01*
X701321Y957092D01*
X701318Y957092D01*
X701317Y957094D01*
X700366Y957603D01*
X700363Y957602D01*
X700362Y957605D01*
X699330Y957918D01*
X699327Y957916D01*
X699325Y957918D01*
X698252Y958024D01*
X698251Y958023D01*
X698250Y958024D01*
X691250Y958024D01*
X691249Y958023D01*
X691248Y958024D01*
X690175Y957918D01*
X690172Y957916D01*
X690170Y957918D01*
X689138Y957605D01*
X689136Y957602D01*
X689134Y957603D01*
X688183Y957094D01*
X688182Y957091D01*
X688179Y957092D01*
X687346Y956408D01*
X687345Y956405D01*
X687342Y956404D01*
X686658Y955571D01*
X686658Y955568D01*
X686656Y955567D01*
X686147Y954616D01*
X686148Y954613D01*
X686145Y954612D01*
X685832Y953580D01*
X685834Y953577D01*
X685832Y953575D01*
X685829Y953551D01*
X685824Y953502D01*
X685820Y953454D01*
X685817Y953429D01*
X685812Y953381D01*
X685808Y953332D01*
X685803Y953284D01*
X685798Y953235D01*
X685796Y953211D01*
X685791Y953163D01*
X685786Y953114D01*
X685781Y953066D01*
X685779Y953041D01*
X685774Y952993D01*
X685769Y952944D01*
X685765Y952896D01*
X685762Y952872D01*
X685757Y952823D01*
X685753Y952775D01*
X685748Y952726D01*
X685746Y952702D01*
X685741Y952653D01*
X685736Y952605D01*
X685731Y952556D01*
X685726Y952508D01*
X685726Y952502D01*
X685728Y952500D01*
X685726Y952498D01*
X685832Y951425D01*
X685834Y951422D01*
X685832Y951420D01*
X686145Y950388D01*
X686148Y950386D01*
X686147Y950384D01*
X686656Y949433D01*
X686659Y949432D01*
X686658Y949429D01*
X687342Y948596D01*
X687345Y948595D01*
X687346Y948592D01*
X688179Y947908D01*
X688182Y947908D01*
X688183Y947906D01*
X689134Y947397D01*
X689137Y947398D01*
X689138Y947395D01*
X690170Y947082D01*
X690173Y947084D01*
X690175Y947082D01*
X691248Y946976D01*
X691249Y946977D01*
X691250Y946976D01*
X698250Y946976D01*
X698251Y946977D01*
G37*
%LPC*%
G36*
X661252Y928524D02*
X661252Y928524D01*
X660609Y928609D01*
X660012Y928856D01*
X659500Y929250D01*
X659106Y929762D01*
X658859Y930359D01*
X658774Y931000D01*
X658859Y931641D01*
X659106Y932238D01*
X659500Y932751D01*
X660012Y933144D01*
X660609Y933391D01*
X661252Y933476D01*
X672249Y933476D01*
X672891Y933391D01*
X673488Y933144D01*
X674001Y932751D01*
X674394Y932238D01*
X674641Y931641D01*
X674726Y931000D01*
X674641Y930359D01*
X674394Y929762D01*
X674001Y929250D01*
X673488Y928856D01*
X672891Y928609D01*
X672249Y928524D01*
X661252Y928524D01*
G37*
%LPD*%
%LPC*%
G36*
X635252Y950024D02*
X635252Y950024D01*
X634609Y950109D01*
X634012Y950356D01*
X633500Y950750D01*
X633106Y951262D01*
X632859Y951859D01*
X632774Y952500D01*
X632775Y952502D01*
X632778Y952526D01*
X632781Y952550D01*
X632784Y952574D01*
X632784Y952575D01*
X632787Y952599D01*
X632791Y952623D01*
X632797Y952671D01*
X632797Y952672D01*
X632800Y952696D01*
X632803Y952720D01*
X632807Y952744D01*
X632810Y952768D01*
X632810Y952769D01*
X632813Y952793D01*
X632816Y952817D01*
X632819Y952841D01*
X632823Y952865D01*
X632823Y952866D01*
X632826Y952890D01*
X632829Y952914D01*
X632832Y952938D01*
X632835Y952962D01*
X632835Y952963D01*
X632839Y952987D01*
X632842Y953011D01*
X632845Y953035D01*
X632848Y953059D01*
X632848Y953060D01*
X632851Y953084D01*
X632854Y953108D01*
X632855Y953108D01*
X632858Y953132D01*
X632859Y953141D01*
X633106Y953738D01*
X633500Y954251D01*
X634012Y954644D01*
X634609Y954891D01*
X635252Y954976D01*
X642249Y954976D01*
X642891Y954891D01*
X643488Y954644D01*
X644001Y954251D01*
X644394Y953738D01*
X644641Y953141D01*
X644726Y952500D01*
X644723Y952484D01*
X644720Y952459D01*
X644717Y952435D01*
X644714Y952411D01*
X644711Y952387D01*
X644707Y952362D01*
X644704Y952338D01*
X644701Y952314D01*
X644698Y952290D01*
X644695Y952265D01*
X644691Y952241D01*
X644688Y952217D01*
X644685Y952193D01*
X644682Y952168D01*
X644679Y952144D01*
X644676Y952120D01*
X644675Y952120D01*
X644676Y952120D01*
X644672Y952096D01*
X644669Y952071D01*
X644666Y952047D01*
X644663Y952023D01*
X644660Y951999D01*
X644656Y951974D01*
X644653Y951950D01*
X644650Y951926D01*
X644647Y951902D01*
X644644Y951877D01*
X644641Y951859D01*
X644394Y951262D01*
X644001Y950750D01*
X643488Y950356D01*
X642891Y950109D01*
X642249Y950024D01*
X635252Y950024D01*
G37*
%LPD*%
%LPC*%
G36*
X691252Y950024D02*
X691252Y950024D01*
X690609Y950109D01*
X690012Y950356D01*
X689500Y950750D01*
X689106Y951262D01*
X688859Y951859D01*
X688774Y952500D01*
X688775Y952502D01*
X688778Y952526D01*
X688781Y952550D01*
X688784Y952574D01*
X688784Y952575D01*
X688787Y952599D01*
X688791Y952623D01*
X688797Y952671D01*
X688797Y952672D01*
X688800Y952696D01*
X688803Y952720D01*
X688807Y952744D01*
X688810Y952768D01*
X688810Y952769D01*
X688813Y952793D01*
X688816Y952817D01*
X688819Y952841D01*
X688823Y952865D01*
X688823Y952866D01*
X688826Y952890D01*
X688829Y952914D01*
X688832Y952938D01*
X688835Y952962D01*
X688835Y952963D01*
X688839Y952987D01*
X688842Y953011D01*
X688845Y953035D01*
X688848Y953059D01*
X688848Y953060D01*
X688851Y953084D01*
X688854Y953108D01*
X688855Y953108D01*
X688858Y953132D01*
X688859Y953141D01*
X689106Y953738D01*
X689500Y954251D01*
X690012Y954644D01*
X690609Y954891D01*
X691252Y954976D01*
X698249Y954976D01*
X698891Y954891D01*
X699488Y954644D01*
X700001Y954251D01*
X700394Y953738D01*
X700641Y953141D01*
X700726Y952500D01*
X700723Y952484D01*
X700720Y952459D01*
X700717Y952435D01*
X700714Y952411D01*
X700711Y952387D01*
X700707Y952362D01*
X700704Y952338D01*
X700701Y952314D01*
X700698Y952290D01*
X700695Y952265D01*
X700691Y952241D01*
X700688Y952217D01*
X700685Y952193D01*
X700682Y952168D01*
X700679Y952144D01*
X700676Y952120D01*
X700675Y952120D01*
X700676Y952120D01*
X700672Y952096D01*
X700669Y952071D01*
X700666Y952047D01*
X700663Y952023D01*
X700660Y951999D01*
X700656Y951974D01*
X700653Y951950D01*
X700650Y951926D01*
X700647Y951902D01*
X700644Y951877D01*
X700641Y951859D01*
X700394Y951262D01*
X700001Y950750D01*
X699488Y950356D01*
X698891Y950109D01*
X698249Y950024D01*
X691252Y950024D01*
G37*
%LPD*%
D10*
X133350Y532350D03*
X133350Y496350D03*
X234950Y496350D03*
X234950Y532350D03*
X285750Y496350D03*
X285750Y532350D03*
X184150Y532350D03*
X184150Y496350D03*
X133350Y640300D03*
X133350Y604300D03*
D11*
X678150Y685800D03*
X706150Y685800D03*
X678150Y609600D03*
X706150Y609600D03*
D10*
X488950Y684750D03*
X488950Y648750D03*
D12*
X158750Y303350D03*
X158750Y344350D03*
D13*
X349250Y563600D03*
X374650Y655600D03*
X336550Y563600D03*
X361950Y563600D03*
X374650Y563600D03*
X361950Y655600D03*
X387350Y655600D03*
X400050Y655600D03*
X400050Y563600D03*
X425450Y655600D03*
X387350Y563600D03*
X412750Y563600D03*
X412750Y655600D03*
X425450Y563600D03*
X349250Y655600D03*
X336550Y655600D03*
D14*
X653750Y950000D03*
X660250Y950000D03*
X666750Y950000D03*
X673250Y950000D03*
X679750Y950000D03*
D15*
X798950Y857250D03*
X813950Y857250D03*
X336550Y500500D03*
X336550Y515500D03*
X387350Y500500D03*
X387350Y515500D03*
X438150Y500500D03*
X438150Y515500D03*
D16*
X184150Y566928D03*
X196850Y566928D03*
X209550Y566928D03*
X222250Y566928D03*
X234950Y566928D03*
X247650Y566928D03*
X260350Y566928D03*
X273050Y566928D03*
X273050Y664972D03*
X260350Y664972D03*
X247650Y664972D03*
X234950Y664972D03*
X222250Y664972D03*
X209550Y664972D03*
X196850Y664972D03*
X184150Y664972D03*
D17*
X488950Y550930D03*
X488950Y579370D03*
D18*
X677930Y660400D03*
X706370Y660400D03*
X677930Y635000D03*
X706370Y635000D03*
X677930Y584200D03*
X706370Y584200D03*
D19*
X447400Y881600D03*
X492400Y881600D03*
X447400Y972600D03*
X492400Y972600D03*
X200300Y972600D03*
X155300Y972600D03*
X200300Y881600D03*
X155300Y881600D03*
D20*
X530860Y711200D03*
X530860Y698500D03*
X530860Y685800D03*
X530860Y673100D03*
X530860Y660400D03*
X530860Y647700D03*
X530860Y635000D03*
X530860Y622300D03*
X530860Y609600D03*
X530860Y596900D03*
X530860Y584200D03*
X530860Y571500D03*
X530860Y558800D03*
X530860Y546100D03*
X624840Y546100D03*
X624840Y558800D03*
X624840Y571500D03*
X624840Y584200D03*
X624840Y596900D03*
X624840Y609600D03*
X624840Y622300D03*
X624840Y635000D03*
X624840Y647700D03*
X624840Y660400D03*
X624840Y673100D03*
X624840Y685800D03*
X624840Y698500D03*
X624840Y711200D03*
D21*
X680650Y843350D03*
D22*
X680651Y858459D03*
D23*
X665543Y858457D03*
D24*
X665540Y843349D03*
D25*
X687425Y870125D02*
X687425Y878875D01*
X688775Y878875D01*
X688775Y870125D01*
X687425Y870125D01*
X687425Y871407D02*
X688775Y871407D01*
X688775Y872689D02*
X687425Y872689D01*
X687425Y873971D02*
X688775Y873971D01*
X688775Y875253D02*
X687425Y875253D01*
X687425Y876535D02*
X688775Y876535D01*
X688775Y877817D02*
X687425Y877817D01*
X682425Y878875D02*
X682425Y870125D01*
X682425Y878875D02*
X683775Y878875D01*
X683775Y870125D01*
X682425Y870125D01*
X682425Y871407D02*
X683775Y871407D01*
X683775Y872689D02*
X682425Y872689D01*
X682425Y873971D02*
X683775Y873971D01*
X683775Y875253D02*
X682425Y875253D01*
X682425Y876535D02*
X683775Y876535D01*
X683775Y877817D02*
X682425Y877817D01*
X677425Y878875D02*
X677425Y870125D01*
X677425Y878875D02*
X678775Y878875D01*
X678775Y870125D01*
X677425Y870125D01*
X677425Y871407D02*
X678775Y871407D01*
X678775Y872689D02*
X677425Y872689D01*
X677425Y873971D02*
X678775Y873971D01*
X678775Y875253D02*
X677425Y875253D01*
X677425Y876535D02*
X678775Y876535D01*
X678775Y877817D02*
X677425Y877817D01*
X672425Y878875D02*
X672425Y870125D01*
X672425Y878875D02*
X673775Y878875D01*
X673775Y870125D01*
X672425Y870125D01*
X672425Y871407D02*
X673775Y871407D01*
X673775Y872689D02*
X672425Y872689D01*
X672425Y873971D02*
X673775Y873971D01*
X673775Y875253D02*
X672425Y875253D01*
X672425Y876535D02*
X673775Y876535D01*
X673775Y877817D02*
X672425Y877817D01*
X667425Y878875D02*
X667425Y870125D01*
X667425Y878875D02*
X668775Y878875D01*
X668775Y870125D01*
X667425Y870125D01*
X667425Y871407D02*
X668775Y871407D01*
X668775Y872689D02*
X667425Y872689D01*
X667425Y873971D02*
X668775Y873971D01*
X668775Y875253D02*
X667425Y875253D01*
X667425Y876535D02*
X668775Y876535D01*
X668775Y877817D02*
X667425Y877817D01*
X662425Y878875D02*
X662425Y870125D01*
X662425Y878875D02*
X663775Y878875D01*
X663775Y870125D01*
X662425Y870125D01*
X662425Y871407D02*
X663775Y871407D01*
X663775Y872689D02*
X662425Y872689D01*
X662425Y873971D02*
X663775Y873971D01*
X663775Y875253D02*
X662425Y875253D01*
X662425Y876535D02*
X663775Y876535D01*
X663775Y877817D02*
X662425Y877817D01*
X657425Y878875D02*
X657425Y870125D01*
X657425Y878875D02*
X658775Y878875D01*
X658775Y870125D01*
X657425Y870125D01*
X657425Y871407D02*
X658775Y871407D01*
X658775Y872689D02*
X657425Y872689D01*
X657425Y873971D02*
X658775Y873971D01*
X658775Y875253D02*
X657425Y875253D01*
X657425Y876535D02*
X658775Y876535D01*
X658775Y877817D02*
X657425Y877817D01*
X653875Y865225D02*
X645125Y865225D01*
X645125Y866575D01*
X653875Y866575D01*
X653875Y865225D01*
X653875Y866507D02*
X645125Y866507D01*
X645125Y860225D02*
X653875Y860225D01*
X645125Y860225D02*
X645125Y861575D01*
X653875Y861575D01*
X653875Y860225D01*
X653875Y861507D02*
X645125Y861507D01*
X645125Y855225D02*
X653875Y855225D01*
X645125Y855225D02*
X645125Y856575D01*
X653875Y856575D01*
X653875Y855225D01*
X653875Y856507D02*
X645125Y856507D01*
X645125Y850225D02*
X653875Y850225D01*
X645125Y850225D02*
X645125Y851575D01*
X653875Y851575D01*
X653875Y850225D01*
X653875Y851507D02*
X645125Y851507D01*
X645125Y845225D02*
X653875Y845225D01*
X645125Y845225D02*
X645125Y846575D01*
X653875Y846575D01*
X653875Y845225D01*
X653875Y846507D02*
X645125Y846507D01*
X645125Y840225D02*
X653875Y840225D01*
X645125Y840225D02*
X645125Y841575D01*
X653875Y841575D01*
X653875Y840225D01*
X653875Y841507D02*
X645125Y841507D01*
X645125Y835225D02*
X653875Y835225D01*
X645125Y835225D02*
X645125Y836575D01*
X653875Y836575D01*
X653875Y835225D01*
X653875Y836507D02*
X645125Y836507D01*
X658775Y831675D02*
X658775Y822925D01*
X657425Y822925D01*
X657425Y831675D01*
X658775Y831675D01*
X658775Y824207D02*
X657425Y824207D01*
X657425Y825489D02*
X658775Y825489D01*
X658775Y826771D02*
X657425Y826771D01*
X657425Y828053D02*
X658775Y828053D01*
X658775Y829335D02*
X657425Y829335D01*
X657425Y830617D02*
X658775Y830617D01*
X663775Y831675D02*
X663775Y822925D01*
X662425Y822925D01*
X662425Y831675D01*
X663775Y831675D01*
X663775Y824207D02*
X662425Y824207D01*
X662425Y825489D02*
X663775Y825489D01*
X663775Y826771D02*
X662425Y826771D01*
X662425Y828053D02*
X663775Y828053D01*
X663775Y829335D02*
X662425Y829335D01*
X662425Y830617D02*
X663775Y830617D01*
X668775Y831675D02*
X668775Y822925D01*
X667425Y822925D01*
X667425Y831675D01*
X668775Y831675D01*
X668775Y824207D02*
X667425Y824207D01*
X667425Y825489D02*
X668775Y825489D01*
X668775Y826771D02*
X667425Y826771D01*
X667425Y828053D02*
X668775Y828053D01*
X668775Y829335D02*
X667425Y829335D01*
X667425Y830617D02*
X668775Y830617D01*
X673775Y831675D02*
X673775Y822925D01*
X672425Y822925D01*
X672425Y831675D01*
X673775Y831675D01*
X673775Y824207D02*
X672425Y824207D01*
X672425Y825489D02*
X673775Y825489D01*
X673775Y826771D02*
X672425Y826771D01*
X672425Y828053D02*
X673775Y828053D01*
X673775Y829335D02*
X672425Y829335D01*
X672425Y830617D02*
X673775Y830617D01*
X678775Y831675D02*
X678775Y822925D01*
X677425Y822925D01*
X677425Y831675D01*
X678775Y831675D01*
X678775Y824207D02*
X677425Y824207D01*
X677425Y825489D02*
X678775Y825489D01*
X678775Y826771D02*
X677425Y826771D01*
X677425Y828053D02*
X678775Y828053D01*
X678775Y829335D02*
X677425Y829335D01*
X677425Y830617D02*
X678775Y830617D01*
X683775Y831675D02*
X683775Y822925D01*
X682425Y822925D01*
X682425Y831675D01*
X683775Y831675D01*
X683775Y824207D02*
X682425Y824207D01*
X682425Y825489D02*
X683775Y825489D01*
X683775Y826771D02*
X682425Y826771D01*
X682425Y828053D02*
X683775Y828053D01*
X683775Y829335D02*
X682425Y829335D01*
X682425Y830617D02*
X683775Y830617D01*
X688775Y831675D02*
X688775Y822925D01*
X687425Y822925D01*
X687425Y831675D01*
X688775Y831675D01*
X688775Y824207D02*
X687425Y824207D01*
X687425Y825489D02*
X688775Y825489D01*
X688775Y826771D02*
X687425Y826771D01*
X687425Y828053D02*
X688775Y828053D01*
X688775Y829335D02*
X687425Y829335D01*
X687425Y830617D02*
X688775Y830617D01*
X692325Y836575D02*
X701075Y836575D01*
X701075Y835225D01*
X692325Y835225D01*
X692325Y836575D01*
X692325Y836507D02*
X701075Y836507D01*
X701075Y841575D02*
X692325Y841575D01*
X701075Y841575D02*
X701075Y840225D01*
X692325Y840225D01*
X692325Y841575D01*
X692325Y841507D02*
X701075Y841507D01*
X701075Y846575D02*
X692325Y846575D01*
X701075Y846575D02*
X701075Y845225D01*
X692325Y845225D01*
X692325Y846575D01*
X692325Y846507D02*
X701075Y846507D01*
X701075Y851575D02*
X692325Y851575D01*
X701075Y851575D02*
X701075Y850225D01*
X692325Y850225D01*
X692325Y851575D01*
X692325Y851507D02*
X701075Y851507D01*
X701075Y856575D02*
X692325Y856575D01*
X701075Y856575D02*
X701075Y855225D01*
X692325Y855225D01*
X692325Y856575D01*
X692325Y856507D02*
X701075Y856507D01*
X701075Y861575D02*
X692325Y861575D01*
X701075Y861575D02*
X701075Y860225D01*
X692325Y860225D01*
X692325Y861575D01*
X692325Y861507D02*
X701075Y861507D01*
X701075Y866575D02*
X692325Y866575D01*
X701075Y866575D02*
X701075Y865225D01*
X692325Y865225D01*
X692325Y866575D01*
X692325Y866507D02*
X701075Y866507D01*
D26*
X140903Y793853D02*
X140903Y785947D01*
X129197Y785947D01*
X129197Y793853D01*
X140903Y793853D01*
X140903Y787272D02*
X129197Y787272D01*
X129197Y788597D02*
X140903Y788597D01*
X140903Y789922D02*
X129197Y789922D01*
X129197Y791247D02*
X140903Y791247D01*
X140903Y792572D02*
X129197Y792572D01*
X140903Y808847D02*
X140903Y816753D01*
X140903Y808847D02*
X129197Y808847D01*
X129197Y816753D01*
X140903Y816753D01*
X140903Y810172D02*
X129197Y810172D01*
X129197Y811497D02*
X140903Y811497D01*
X140903Y812822D02*
X129197Y812822D01*
X129197Y814147D02*
X140903Y814147D01*
X140903Y815472D02*
X129197Y815472D01*
X140903Y831747D02*
X140903Y839653D01*
X140903Y831747D02*
X129197Y831747D01*
X129197Y839653D01*
X140903Y839653D01*
X140903Y833072D02*
X129197Y833072D01*
X129197Y834397D02*
X140903Y834397D01*
X140903Y835722D02*
X129197Y835722D01*
X129197Y837047D02*
X140903Y837047D01*
X140903Y838372D02*
X129197Y838372D01*
D27*
X73718Y828018D02*
X73718Y797582D01*
X62582Y797582D01*
X62582Y828018D01*
X73718Y828018D01*
X73718Y799449D02*
X62582Y799449D01*
X62582Y801316D02*
X73718Y801316D01*
X73718Y803183D02*
X62582Y803183D01*
X62582Y805050D02*
X73718Y805050D01*
X73718Y806917D02*
X62582Y806917D01*
X62582Y808784D02*
X73718Y808784D01*
X73718Y810651D02*
X62582Y810651D01*
X62582Y812518D02*
X73718Y812518D01*
X73718Y814385D02*
X62582Y814385D01*
X62582Y816252D02*
X73718Y816252D01*
X73718Y818119D02*
X62582Y818119D01*
X62582Y819986D02*
X73718Y819986D01*
X73718Y821853D02*
X62582Y821853D01*
X62582Y823720D02*
X73718Y823720D01*
X73718Y825587D02*
X62582Y825587D01*
X62582Y827454D02*
X73718Y827454D01*
D28*
X194737Y270837D02*
X212963Y270837D01*
X194737Y270837D02*
X194737Y275263D01*
X212963Y275263D01*
X212963Y270837D01*
X212963Y272238D02*
X194737Y272238D01*
X194737Y273639D02*
X212963Y273639D01*
X212963Y275040D02*
X194737Y275040D01*
X194737Y258137D02*
X212963Y258137D01*
X194737Y258137D02*
X194737Y262563D01*
X212963Y262563D01*
X212963Y258137D01*
X212963Y259538D02*
X194737Y259538D01*
X194737Y260939D02*
X212963Y260939D01*
X212963Y262340D02*
X194737Y262340D01*
X194737Y245437D02*
X212963Y245437D01*
X194737Y245437D02*
X194737Y249863D01*
X212963Y249863D01*
X212963Y245437D01*
X212963Y246838D02*
X194737Y246838D01*
X194737Y248239D02*
X212963Y248239D01*
X212963Y249640D02*
X194737Y249640D01*
X194737Y232737D02*
X212963Y232737D01*
X194737Y232737D02*
X194737Y237163D01*
X212963Y237163D01*
X212963Y232737D01*
X212963Y234138D02*
X194737Y234138D01*
X194737Y235539D02*
X212963Y235539D01*
X212963Y236940D02*
X194737Y236940D01*
X244237Y232737D02*
X262463Y232737D01*
X244237Y232737D02*
X244237Y237163D01*
X262463Y237163D01*
X262463Y232737D01*
X262463Y234138D02*
X244237Y234138D01*
X244237Y235539D02*
X262463Y235539D01*
X262463Y236940D02*
X244237Y236940D01*
X244237Y245437D02*
X262463Y245437D01*
X244237Y245437D02*
X244237Y249863D01*
X262463Y249863D01*
X262463Y245437D01*
X262463Y246838D02*
X244237Y246838D01*
X244237Y248239D02*
X262463Y248239D01*
X262463Y249640D02*
X244237Y249640D01*
X244237Y258137D02*
X262463Y258137D01*
X244237Y258137D02*
X244237Y262563D01*
X262463Y262563D01*
X262463Y258137D01*
X262463Y259538D02*
X244237Y259538D01*
X244237Y260939D02*
X262463Y260939D01*
X262463Y262340D02*
X244237Y262340D01*
X244237Y270837D02*
X262463Y270837D01*
X244237Y270837D02*
X244237Y275263D01*
X262463Y275263D01*
X262463Y270837D01*
X262463Y272238D02*
X244237Y272238D01*
X244237Y273639D02*
X262463Y273639D01*
X262463Y275040D02*
X244237Y275040D01*
D20*
X203962Y342900D03*
X203962Y330200D03*
X203962Y317500D03*
X203962Y304800D03*
X253238Y304800D03*
X253238Y317500D03*
X253238Y330200D03*
X253238Y342900D03*
D29*
X241300Y901700D03*
X241300Y889000D03*
X241200Y876300D03*
X241300Y863300D03*
X241300Y850900D03*
X241300Y838200D03*
X241300Y825500D03*
X241300Y812800D03*
X241300Y800100D03*
X241300Y787400D03*
X241300Y774700D03*
X241300Y762000D03*
X241300Y749300D03*
X241300Y736600D03*
D30*
X269150Y727600D03*
X281850Y727600D03*
X294550Y727600D03*
X307250Y727600D03*
X319950Y727600D03*
X332650Y727600D03*
X345350Y727600D03*
X358050Y727600D03*
X370750Y727600D03*
X383450Y727600D03*
D29*
X411300Y901700D03*
X411300Y889000D03*
X411300Y876300D03*
X411300Y863600D03*
X411300Y850900D03*
X411300Y838200D03*
X411305Y825477D03*
X411319Y812787D03*
X411293Y800089D03*
X411275Y787377D03*
X411294Y774682D03*
X411310Y761992D03*
X411290Y749315D03*
X411287Y736588D03*
D31*
X316322Y822244D03*
D32*
X731600Y850900D03*
X741600Y850900D03*
X731600Y825500D03*
X741600Y825500D03*
D33*
X304800Y610950D03*
X304800Y620950D03*
D34*
X546100Y884100D03*
X571500Y884100D03*
X571500Y970100D03*
X546100Y970100D03*
D35*
X781350Y922100D03*
X774850Y922100D03*
X768350Y922100D03*
X761850Y922100D03*
X755350Y922100D03*
D36*
X756850Y949600D03*
X779850Y949600D03*
D37*
X730850Y949600D03*
X805850Y949600D03*
D18*
X677930Y558800D03*
X706370Y558800D03*
M02*
