G04 EAGLE Gerber RS-274X export*
G75*
%MOMM*%
%FSLAX34Y34*%
%LPD*%
%INSoldermask Bottom*%
%IPPOS*%
%AMOC8*
5,1,8,0,0,1.08239X$1,22.5*%
G01*
%ADD10C,1.203200*%
%ADD11C,1.103200*%
%ADD12C,1.958200*%
%ADD13C,2.453200*%
%ADD14R,1.803200X2.003200*%
%ADD15R,2.003200X1.803200*%
%ADD16R,2.003200X1.903200*%
%ADD17C,2.489200*%
%ADD18R,1.601200X1.601200*%
%ADD19C,1.601200*%
%ADD20C,1.733200*%
%ADD21C,2.648200*%
%ADD22C,3.453200*%
%ADD23R,2.271009X1.504012*%
%ADD24R,2.237781X1.505469*%
%ADD25R,2.505341X1.512391*%
%ADD26C,0.703200*%
%ADD27R,1.003200X1.103200*%
%ADD28C,1.320800*%
%ADD29R,1.103200X1.003200*%
%ADD30C,1.231200*%
%ADD31R,1.803200X2.006200*%
%ADD32R,1.503200X1.703200*%
%ADD33R,0.803200X0.903200*%
%ADD34R,1.703200X1.503200*%
%ADD35R,2.006200X1.803200*%
%ADD36R,2.183200X2.183200*%
%ADD37C,2.138200*%
%ADD38C,2.183200*%
%ADD39C,1.727200*%
%ADD40P,1.649562X8X292.500000*%
%ADD41C,0.803200*%
%ADD42C,0.959600*%


D10*
X19050Y19050D03*
X933450Y19050D03*
X19050Y984250D03*
D11*
X933450Y984250D03*
D12*
X363550Y317500D03*
D13*
X563550Y317500D03*
D14*
X115600Y787400D03*
X87600Y787400D03*
X455900Y863600D03*
X483900Y863600D03*
X191800Y876300D03*
X163800Y876300D03*
X318800Y342900D03*
X290800Y342900D03*
X318800Y317500D03*
X290800Y317500D03*
X687100Y774700D03*
X659100Y774700D03*
X687100Y800100D03*
X659100Y800100D03*
X293400Y895350D03*
X265400Y895350D03*
X293400Y869950D03*
X265400Y869950D03*
D15*
X736600Y36800D03*
X736600Y64800D03*
D14*
X191800Y800100D03*
X163800Y800100D03*
X191800Y825500D03*
X163800Y825500D03*
X115600Y825500D03*
X87600Y825500D03*
D15*
X603250Y687100D03*
X603250Y659100D03*
X552450Y687100D03*
X552450Y659100D03*
D14*
X191800Y965200D03*
X163800Y965200D03*
D16*
X623750Y908050D03*
X582750Y908050D03*
D17*
X826770Y501650D02*
X849630Y501650D01*
X849630Y450850D02*
X826770Y450850D01*
D18*
X762000Y577800D03*
D19*
X736600Y590500D03*
X762000Y603200D03*
X736600Y615900D03*
X762000Y628600D03*
X736600Y641300D03*
X762000Y654000D03*
X736600Y666700D03*
D20*
X874500Y556050D03*
X874500Y581450D03*
X874500Y688550D03*
X874500Y663150D03*
D21*
X795000Y544850D03*
X795000Y699750D03*
D22*
X825500Y679450D03*
X825500Y565150D03*
D17*
X254000Y125730D02*
X254000Y102870D01*
X203200Y102870D02*
X203200Y125730D01*
X152400Y125730D02*
X152400Y102870D01*
X101600Y102870D02*
X101600Y125730D01*
D23*
X638645Y952480D03*
D24*
X694811Y952473D03*
D25*
X666723Y930938D03*
D26*
X638750Y952500D03*
X694750Y952500D03*
X666750Y931000D03*
D17*
X826770Y800100D02*
X849630Y800100D01*
X849630Y749300D02*
X826770Y749300D01*
X774700Y125730D02*
X774700Y102870D01*
X723900Y102870D02*
X723900Y125730D01*
X673100Y125730D02*
X673100Y102870D01*
X622300Y102870D02*
X622300Y125730D01*
D27*
X177800Y943450D03*
X187300Y923450D03*
X168300Y923450D03*
X469900Y949800D03*
X479400Y929800D03*
X460400Y929800D03*
D28*
X552450Y754888D02*
X552450Y743712D01*
X603250Y743712D02*
X603250Y754888D01*
D29*
X708500Y266700D03*
X688500Y257200D03*
X688500Y276200D03*
D30*
X158750Y273470D03*
X158750Y259930D03*
D29*
X879000Y431800D03*
X899000Y441300D03*
X899000Y422300D03*
D31*
X589030Y882650D03*
X617470Y882650D03*
D32*
X504800Y812800D03*
X485800Y812800D03*
X187300Y850900D03*
X168300Y850900D03*
X504800Y787400D03*
X485800Y787400D03*
D31*
X290580Y190500D03*
X319020Y190500D03*
X290580Y228600D03*
X319020Y228600D03*
X290580Y292100D03*
X319020Y292100D03*
X319020Y266700D03*
X290580Y266700D03*
X217420Y190500D03*
X188980Y190500D03*
X792230Y863600D03*
X820670Y863600D03*
X217420Y228600D03*
X188980Y228600D03*
D32*
X479400Y889000D03*
X460400Y889000D03*
X898500Y393700D03*
X879500Y393700D03*
X612750Y806450D03*
X593750Y806450D03*
D31*
X617470Y857250D03*
X589030Y857250D03*
X617470Y831850D03*
X589030Y831850D03*
D33*
X894000Y457200D03*
X884000Y457200D03*
D34*
X673100Y60300D03*
X673100Y41300D03*
X711200Y60300D03*
X711200Y41300D03*
D35*
X647700Y36580D03*
X647700Y65020D03*
X336550Y528570D03*
X336550Y500130D03*
X387350Y528570D03*
X387350Y500130D03*
X438150Y528570D03*
X438150Y500130D03*
X349250Y601730D03*
X349250Y630170D03*
X381000Y601730D03*
X381000Y630170D03*
X412750Y601730D03*
X412750Y630170D03*
D32*
X187300Y901700D03*
X168300Y901700D03*
D31*
X839720Y641350D03*
X811280Y641350D03*
X839720Y603250D03*
X811280Y603250D03*
D36*
X637500Y364800D03*
D37*
X617500Y304800D03*
D38*
X637500Y244800D03*
X759500Y244800D03*
X759500Y364800D03*
D17*
X826770Y342900D02*
X849630Y342900D01*
X849630Y292100D02*
X826770Y292100D01*
X826770Y241300D02*
X849630Y241300D01*
D39*
X71120Y203200D02*
X55880Y203200D01*
X55880Y228600D02*
X71120Y228600D01*
X71120Y254000D02*
X55880Y254000D01*
X55880Y279400D02*
X71120Y279400D01*
D17*
X520700Y125730D02*
X520700Y102870D01*
X469900Y102870D02*
X469900Y125730D01*
X419100Y125730D02*
X419100Y102870D01*
X368300Y102870D02*
X368300Y125730D01*
D39*
X71120Y736600D02*
X55880Y736600D01*
X55880Y711200D02*
X71120Y711200D01*
X71120Y685800D02*
X55880Y685800D01*
X55880Y660400D02*
X71120Y660400D01*
X71120Y635000D02*
X55880Y635000D01*
X55880Y609600D02*
X71120Y609600D01*
X71120Y584200D02*
X55880Y584200D01*
X55880Y558800D02*
X71120Y558800D01*
X71120Y533400D02*
X55880Y533400D01*
X55880Y508000D02*
X71120Y508000D01*
X71120Y482600D02*
X55880Y482600D01*
X55880Y457200D02*
X71120Y457200D01*
X71120Y431800D02*
X55880Y431800D01*
X55880Y406400D02*
X71120Y406400D01*
X71120Y381000D02*
X55880Y381000D01*
X55880Y355600D02*
X71120Y355600D01*
D16*
X678000Y317500D03*
X719000Y317500D03*
D40*
X355600Y520700D03*
X355600Y495300D03*
X406400Y520700D03*
X406400Y495300D03*
X457200Y520700D03*
X457200Y495300D03*
D39*
X153670Y431800D02*
X138430Y431800D01*
X138430Y406400D02*
X153670Y406400D01*
X153670Y381000D02*
X138430Y381000D01*
D41*
X603250Y717550D03*
X552450Y717550D03*
D42*
X147638Y784225D03*
X319088Y250825D03*
X333375Y635000D03*
X201613Y377825D03*
X598488Y908050D03*
X868363Y382588D03*
X338138Y176213D03*
X628650Y457200D03*
X190500Y603250D03*
X260350Y711200D03*
X514350Y895350D03*
X495300Y609600D03*
X514350Y698500D03*
X577850Y596900D03*
X469900Y666750D03*
X742950Y927100D03*
X222250Y920750D03*
X463550Y596900D03*
X508000Y965200D03*
X260350Y374650D03*
X184150Y641350D03*
X298450Y679450D03*
X647700Y584200D03*
X647700Y609600D03*
X234950Y215900D03*
X692150Y933450D03*
X742950Y781050D03*
X641350Y812800D03*
X717550Y806450D03*
X698500Y825500D03*
X711200Y876300D03*
X425450Y914400D03*
X273050Y844550D03*
X298450Y419100D03*
X457200Y260350D03*
X615950Y203200D03*
X527050Y171450D03*
X279400Y889000D03*
X130175Y825500D03*
X177800Y863600D03*
X603250Y866775D03*
X517525Y812800D03*
X673100Y777875D03*
X188913Y949325D03*
X200025Y855663D03*
X703263Y73025D03*
X387350Y793750D03*
X450850Y736600D03*
X879475Y422275D03*
X104775Y688975D03*
X290513Y244475D03*
X258763Y282575D03*
X638175Y793750D03*
X625475Y785813D03*
X457200Y841375D03*
X444500Y847725D03*
X630238Y800100D03*
X444500Y828675D03*
X441325Y863600D03*
X625475Y814388D03*
X169863Y933450D03*
X547688Y947738D03*
X723900Y831850D03*
X481013Y954088D03*
X696913Y873125D03*
X679450Y901700D03*
X704850Y925513D03*
X638175Y914400D03*
X814388Y847725D03*
X603250Y857250D03*
X631825Y873125D03*
X457200Y790575D03*
X427038Y820738D03*
X304800Y260350D03*
X244475Y282575D03*
X219075Y247650D03*
X174625Y233363D03*
X200025Y681038D03*
X304800Y576263D03*
X323850Y379413D03*
X403225Y300038D03*
X209550Y681038D03*
X393700Y579438D03*
X695325Y331788D03*
X444500Y812800D03*
X473075Y811213D03*
X290513Y206375D03*
X355600Y671513D03*
X368300Y671513D03*
X333375Y596900D03*
X368300Y588963D03*
X396875Y601663D03*
X504825Y690563D03*
X515938Y798513D03*
X457200Y904875D03*
X444500Y903288D03*
X457200Y768350D03*
X387350Y828675D03*
X387350Y893763D03*
X406400Y912813D03*
X438150Y742950D03*
X457200Y758825D03*
X444500Y771525D03*
X687388Y266700D03*
X393700Y687388D03*
X379413Y701675D03*
X460375Y914400D03*
X446088Y919163D03*
X295275Y642938D03*
X273050Y627063D03*
X254000Y685800D03*
X479425Y847725D03*
X246063Y725488D03*
X487363Y773113D03*
X438150Y755650D03*
X288925Y620713D03*
X279400Y590550D03*
M02*
