G04 EAGLE Gerber RS-274X export*
G75*
%MOMM*%
%FSLAX34Y34*%
%LPD*%
%INSoldermask Top*%
%IPPOS*%
%AMOC8*
5,1,8,0,0,1.08239X$1,22.5*%
G01*
%ADD10C,1.203200*%
%ADD11C,1.103200*%
%ADD12C,1.958200*%
%ADD13C,2.453200*%
%ADD14R,1.803200X2.803200*%
%ADD15R,1.803200X2.003200*%
%ADD16R,1.903200X2.003200*%
%ADD17C,2.489200*%
%ADD18R,0.803200X2.403200*%
%ADD19R,1.601200X1.601200*%
%ADD20C,1.601200*%
%ADD21C,1.733200*%
%ADD22C,2.648200*%
%ADD23C,3.453200*%
%ADD24R,2.269500X1.503722*%
%ADD25R,2.241359X1.503866*%
%ADD26R,2.506019X1.513969*%
%ADD27R,0.653200X1.703200*%
%ADD28C,0.703200*%
%ADD29R,1.003200X1.003200*%
%ADD30R,0.863600X2.235200*%
%ADD31C,1.320800*%
%ADD32C,1.231200*%
%ADD33R,2.006200X1.803200*%
%ADD34R,1.803200X2.006200*%
%ADD35R,2.183200X2.183200*%
%ADD36C,2.138200*%
%ADD37C,2.183200*%
%ADD38C,1.727200*%
%ADD39R,1.603200X2.303200*%
%ADD40R,2.184400X0.762000*%
%ADD41C,0.335972*%
%ADD42R,3.453200X3.453200*%
%ADD43C,0.339959*%
%ADD44C,0.393431*%
%ADD45C,0.349006*%
%ADD46R,2.203200X1.103200*%
%ADD47R,1.103200X2.203200*%
%ADD48R,5.203200X5.203200*%
%ADD49R,0.803200X0.903200*%
%ADD50P,1.649562X8X292.500000*%
%ADD51R,0.903200X0.803200*%
%ADD52R,1.333200X2.643200*%
%ADD53C,0.803200*%
%ADD54R,0.603200X1.603200*%
%ADD55R,2.003200X2.103200*%
%ADD56R,2.503200X2.103200*%
%ADD57C,0.959600*%


D10*
X19050Y19050D03*
X933450Y19050D03*
X19050Y984250D03*
D11*
X933450Y984250D03*
D12*
X363550Y317500D03*
D13*
X563550Y317500D03*
D14*
X133350Y532350D03*
X133350Y496350D03*
X234950Y496350D03*
X234950Y532350D03*
X285750Y496350D03*
X285750Y532350D03*
X184150Y532350D03*
X184150Y496350D03*
X133350Y640300D03*
X133350Y604300D03*
D15*
X678150Y685800D03*
X706150Y685800D03*
X678150Y609600D03*
X706150Y609600D03*
D14*
X488950Y684750D03*
X488950Y648750D03*
D16*
X158750Y303350D03*
X158750Y344350D03*
D17*
X826770Y501650D02*
X849630Y501650D01*
X849630Y450850D02*
X826770Y450850D01*
D18*
X349250Y563600D03*
X374650Y655600D03*
X336550Y563600D03*
X361950Y563600D03*
X374650Y563600D03*
X361950Y655600D03*
X387350Y655600D03*
X400050Y655600D03*
X400050Y563600D03*
X425450Y655600D03*
X387350Y563600D03*
X412750Y563600D03*
X412750Y655600D03*
X425450Y563600D03*
X349250Y655600D03*
X336550Y655600D03*
D19*
X762000Y577800D03*
D20*
X736600Y590500D03*
X762000Y603200D03*
X736600Y615900D03*
X762000Y628600D03*
X736600Y641300D03*
X762000Y654000D03*
X736600Y666700D03*
D21*
X874500Y556050D03*
X874500Y581450D03*
X874500Y688550D03*
X874500Y663150D03*
D22*
X795000Y544850D03*
X795000Y699750D03*
D23*
X825500Y679450D03*
X825500Y565150D03*
D17*
X254000Y125730D02*
X254000Y102870D01*
X203200Y102870D02*
X203200Y125730D01*
X152400Y125730D02*
X152400Y102870D01*
X101600Y102870D02*
X101600Y125730D01*
D24*
X638653Y952481D03*
D25*
X694793Y952481D03*
D26*
X666720Y930930D03*
D27*
X653750Y950000D03*
X660250Y950000D03*
X666750Y950000D03*
X673250Y950000D03*
X679750Y950000D03*
D28*
X638750Y952500D03*
X694750Y952500D03*
X666750Y931000D03*
D29*
X798950Y857250D03*
X813950Y857250D03*
X336550Y500500D03*
X336550Y515500D03*
X387350Y500500D03*
X387350Y515500D03*
X438150Y500500D03*
X438150Y515500D03*
D30*
X184150Y566928D03*
X196850Y566928D03*
X209550Y566928D03*
X222250Y566928D03*
X234950Y566928D03*
X247650Y566928D03*
X260350Y566928D03*
X273050Y566928D03*
X273050Y664972D03*
X260350Y664972D03*
X247650Y664972D03*
X234950Y664972D03*
X222250Y664972D03*
X209550Y664972D03*
X196850Y664972D03*
X184150Y664972D03*
D17*
X826770Y800100D02*
X849630Y800100D01*
X849630Y749300D02*
X826770Y749300D01*
X774700Y125730D02*
X774700Y102870D01*
X723900Y102870D02*
X723900Y125730D01*
X673100Y125730D02*
X673100Y102870D01*
X622300Y102870D02*
X622300Y125730D01*
D31*
X552450Y743712D02*
X552450Y754888D01*
X603250Y754888D02*
X603250Y743712D01*
D32*
X158750Y273470D03*
X158750Y259930D03*
D33*
X488950Y550930D03*
X488950Y579370D03*
D34*
X677930Y660400D03*
X706370Y660400D03*
X677930Y635000D03*
X706370Y635000D03*
X677930Y584200D03*
X706370Y584200D03*
D35*
X637500Y364800D03*
D36*
X617500Y304800D03*
D37*
X637500Y244800D03*
X759500Y244800D03*
X759500Y364800D03*
D17*
X826770Y342900D02*
X849630Y342900D01*
X849630Y292100D02*
X826770Y292100D01*
X826770Y241300D02*
X849630Y241300D01*
D38*
X71120Y203200D02*
X55880Y203200D01*
X55880Y228600D02*
X71120Y228600D01*
X71120Y254000D02*
X55880Y254000D01*
X55880Y279400D02*
X71120Y279400D01*
D39*
X447400Y881600D03*
X492400Y881600D03*
X447400Y972600D03*
X492400Y972600D03*
X200300Y972600D03*
X155300Y972600D03*
X200300Y881600D03*
X155300Y881600D03*
D17*
X520700Y125730D02*
X520700Y102870D01*
X469900Y102870D02*
X469900Y125730D01*
X419100Y125730D02*
X419100Y102870D01*
X368300Y102870D02*
X368300Y125730D01*
D38*
X71120Y736600D02*
X55880Y736600D01*
X55880Y711200D02*
X71120Y711200D01*
X71120Y685800D02*
X55880Y685800D01*
X55880Y660400D02*
X71120Y660400D01*
X71120Y635000D02*
X55880Y635000D01*
X55880Y609600D02*
X71120Y609600D01*
X71120Y584200D02*
X55880Y584200D01*
X55880Y558800D02*
X71120Y558800D01*
X71120Y533400D02*
X55880Y533400D01*
X55880Y508000D02*
X71120Y508000D01*
X71120Y482600D02*
X55880Y482600D01*
X55880Y457200D02*
X71120Y457200D01*
X71120Y431800D02*
X55880Y431800D01*
X55880Y406400D02*
X71120Y406400D01*
X71120Y381000D02*
X55880Y381000D01*
X55880Y355600D02*
X71120Y355600D01*
D40*
X530860Y711200D03*
X530860Y698500D03*
X530860Y685800D03*
X530860Y673100D03*
X530860Y660400D03*
X530860Y647700D03*
X530860Y635000D03*
X530860Y622300D03*
X530860Y609600D03*
X530860Y596900D03*
X530860Y584200D03*
X530860Y571500D03*
X530860Y558800D03*
X530860Y546100D03*
X624840Y546100D03*
X624840Y558800D03*
X624840Y571500D03*
X624840Y584200D03*
X624840Y596900D03*
X624840Y609600D03*
X624840Y622300D03*
X624840Y635000D03*
X624840Y647700D03*
X624840Y660400D03*
X624840Y673100D03*
X624840Y685800D03*
X624840Y698500D03*
X624840Y711200D03*
D41*
X687414Y870114D02*
X687414Y878886D01*
X688786Y878886D01*
X688786Y870114D01*
X687414Y870114D01*
X687414Y873306D02*
X688786Y873306D01*
X688786Y876498D02*
X687414Y876498D01*
X682414Y878886D02*
X682414Y870114D01*
X682414Y878886D02*
X683786Y878886D01*
X683786Y870114D01*
X682414Y870114D01*
X682414Y873306D02*
X683786Y873306D01*
X683786Y876498D02*
X682414Y876498D01*
X677414Y878886D02*
X677414Y870114D01*
X677414Y878886D02*
X678786Y878886D01*
X678786Y870114D01*
X677414Y870114D01*
X677414Y873306D02*
X678786Y873306D01*
X678786Y876498D02*
X677414Y876498D01*
X672414Y878886D02*
X672414Y870114D01*
X672414Y878886D02*
X673786Y878886D01*
X673786Y870114D01*
X672414Y870114D01*
X672414Y873306D02*
X673786Y873306D01*
X673786Y876498D02*
X672414Y876498D01*
X667414Y878886D02*
X667414Y870114D01*
X667414Y878886D02*
X668786Y878886D01*
X668786Y870114D01*
X667414Y870114D01*
X667414Y873306D02*
X668786Y873306D01*
X668786Y876498D02*
X667414Y876498D01*
X662414Y878886D02*
X662414Y870114D01*
X662414Y878886D02*
X663786Y878886D01*
X663786Y870114D01*
X662414Y870114D01*
X662414Y873306D02*
X663786Y873306D01*
X663786Y876498D02*
X662414Y876498D01*
X657414Y878886D02*
X657414Y870114D01*
X657414Y878886D02*
X658786Y878886D01*
X658786Y870114D01*
X657414Y870114D01*
X657414Y873306D02*
X658786Y873306D01*
X658786Y876498D02*
X657414Y876498D01*
X653886Y865214D02*
X645114Y865214D01*
X645114Y866586D01*
X653886Y866586D01*
X653886Y865214D01*
X653886Y860214D02*
X645114Y860214D01*
X645114Y861586D01*
X653886Y861586D01*
X653886Y860214D01*
X653886Y855214D02*
X645114Y855214D01*
X645114Y856586D01*
X653886Y856586D01*
X653886Y855214D01*
X653886Y850214D02*
X645114Y850214D01*
X645114Y851586D01*
X653886Y851586D01*
X653886Y850214D01*
X653886Y845214D02*
X645114Y845214D01*
X645114Y846586D01*
X653886Y846586D01*
X653886Y845214D01*
X653886Y840214D02*
X645114Y840214D01*
X645114Y841586D01*
X653886Y841586D01*
X653886Y840214D01*
X653886Y835214D02*
X645114Y835214D01*
X645114Y836586D01*
X653886Y836586D01*
X653886Y835214D01*
X658786Y831686D02*
X658786Y822914D01*
X657414Y822914D01*
X657414Y831686D01*
X658786Y831686D01*
X658786Y826106D02*
X657414Y826106D01*
X657414Y829298D02*
X658786Y829298D01*
X663786Y831686D02*
X663786Y822914D01*
X662414Y822914D01*
X662414Y831686D01*
X663786Y831686D01*
X663786Y826106D02*
X662414Y826106D01*
X662414Y829298D02*
X663786Y829298D01*
X668786Y831686D02*
X668786Y822914D01*
X667414Y822914D01*
X667414Y831686D01*
X668786Y831686D01*
X668786Y826106D02*
X667414Y826106D01*
X667414Y829298D02*
X668786Y829298D01*
X673786Y831686D02*
X673786Y822914D01*
X672414Y822914D01*
X672414Y831686D01*
X673786Y831686D01*
X673786Y826106D02*
X672414Y826106D01*
X672414Y829298D02*
X673786Y829298D01*
X678786Y831686D02*
X678786Y822914D01*
X677414Y822914D01*
X677414Y831686D01*
X678786Y831686D01*
X678786Y826106D02*
X677414Y826106D01*
X677414Y829298D02*
X678786Y829298D01*
X683786Y831686D02*
X683786Y822914D01*
X682414Y822914D01*
X682414Y831686D01*
X683786Y831686D01*
X683786Y826106D02*
X682414Y826106D01*
X682414Y829298D02*
X683786Y829298D01*
X688786Y831686D02*
X688786Y822914D01*
X687414Y822914D01*
X687414Y831686D01*
X688786Y831686D01*
X688786Y826106D02*
X687414Y826106D01*
X687414Y829298D02*
X688786Y829298D01*
X692314Y836586D02*
X701086Y836586D01*
X701086Y835214D01*
X692314Y835214D01*
X692314Y836586D01*
X692314Y841586D02*
X701086Y841586D01*
X701086Y840214D01*
X692314Y840214D01*
X692314Y841586D01*
X692314Y846586D02*
X701086Y846586D01*
X701086Y845214D01*
X692314Y845214D01*
X692314Y846586D01*
X692314Y851586D02*
X701086Y851586D01*
X701086Y850214D01*
X692314Y850214D01*
X692314Y851586D01*
X692314Y856586D02*
X701086Y856586D01*
X701086Y855214D01*
X692314Y855214D01*
X692314Y856586D01*
X692314Y861586D02*
X701086Y861586D01*
X701086Y860214D01*
X692314Y860214D01*
X692314Y861586D01*
X692314Y866586D02*
X701086Y866586D01*
X701086Y865214D01*
X692314Y865214D01*
X692314Y866586D01*
D42*
X673100Y850900D03*
D43*
X140916Y793866D02*
X140916Y785934D01*
X129184Y785934D01*
X129184Y793866D01*
X140916Y793866D01*
X140916Y789164D02*
X129184Y789164D01*
X129184Y792394D02*
X140916Y792394D01*
X140916Y808834D02*
X140916Y816766D01*
X140916Y808834D02*
X129184Y808834D01*
X129184Y816766D01*
X140916Y816766D01*
X140916Y812064D02*
X129184Y812064D01*
X129184Y815294D02*
X140916Y815294D01*
X140916Y831734D02*
X140916Y839666D01*
X140916Y831734D02*
X129184Y831734D01*
X129184Y839666D01*
X140916Y839666D01*
X140916Y834964D02*
X129184Y834964D01*
X129184Y838194D02*
X140916Y838194D01*
D44*
X73749Y828049D02*
X73749Y797551D01*
X62551Y797551D01*
X62551Y828049D01*
X73749Y828049D01*
X73749Y801288D02*
X62551Y801288D01*
X62551Y805025D02*
X73749Y805025D01*
X73749Y808762D02*
X62551Y808762D01*
X62551Y812499D02*
X73749Y812499D01*
X73749Y816236D02*
X62551Y816236D01*
X62551Y819973D02*
X73749Y819973D01*
X73749Y823710D02*
X62551Y823710D01*
X62551Y827447D02*
X73749Y827447D01*
D45*
X194729Y270829D02*
X212971Y270829D01*
X194729Y270829D02*
X194729Y275271D01*
X212971Y275271D01*
X212971Y270829D01*
X212971Y274144D02*
X194729Y274144D01*
X194729Y258129D02*
X212971Y258129D01*
X194729Y258129D02*
X194729Y262571D01*
X212971Y262571D01*
X212971Y258129D01*
X212971Y261444D02*
X194729Y261444D01*
X194729Y245429D02*
X212971Y245429D01*
X194729Y245429D02*
X194729Y249871D01*
X212971Y249871D01*
X212971Y245429D01*
X212971Y248744D02*
X194729Y248744D01*
X194729Y232729D02*
X212971Y232729D01*
X194729Y232729D02*
X194729Y237171D01*
X212971Y237171D01*
X212971Y232729D01*
X212971Y236044D02*
X194729Y236044D01*
X244229Y232729D02*
X262471Y232729D01*
X244229Y232729D02*
X244229Y237171D01*
X262471Y237171D01*
X262471Y232729D01*
X262471Y236044D02*
X244229Y236044D01*
X244229Y245429D02*
X262471Y245429D01*
X244229Y245429D02*
X244229Y249871D01*
X262471Y249871D01*
X262471Y245429D01*
X262471Y248744D02*
X244229Y248744D01*
X244229Y258129D02*
X262471Y258129D01*
X244229Y258129D02*
X244229Y262571D01*
X262471Y262571D01*
X262471Y258129D01*
X262471Y261444D02*
X244229Y261444D01*
X244229Y270829D02*
X262471Y270829D01*
X244229Y270829D02*
X244229Y275271D01*
X262471Y275271D01*
X262471Y270829D01*
X262471Y274144D02*
X244229Y274144D01*
D40*
X203962Y342900D03*
X203962Y330200D03*
X203962Y317500D03*
X203962Y304800D03*
X253238Y304800D03*
X253238Y317500D03*
X253238Y330200D03*
X253238Y342900D03*
D46*
X241300Y901700D03*
X241300Y889000D03*
X241200Y876300D03*
X241300Y863300D03*
X241300Y850900D03*
X241300Y838200D03*
X241300Y825500D03*
X241300Y812800D03*
X241300Y800100D03*
X241300Y787400D03*
X241300Y774700D03*
X241300Y762000D03*
X241300Y749300D03*
X241300Y736600D03*
D47*
X269150Y727600D03*
X281850Y727600D03*
X294550Y727600D03*
X307250Y727600D03*
X319950Y727600D03*
X332650Y727600D03*
X345350Y727600D03*
X358050Y727600D03*
X370750Y727600D03*
X383450Y727600D03*
D46*
X411300Y901700D03*
X411300Y889000D03*
X411300Y876300D03*
X411300Y863600D03*
X411300Y850900D03*
X411300Y838200D03*
X411305Y825477D03*
X411319Y812787D03*
X411293Y800089D03*
X411275Y787377D03*
X411294Y774682D03*
X411310Y761992D03*
X411290Y749315D03*
X411287Y736588D03*
D48*
X316322Y822244D03*
D49*
X731600Y850900D03*
X741600Y850900D03*
X731600Y825500D03*
X741600Y825500D03*
D50*
X355600Y520700D03*
X355600Y495300D03*
X406400Y520700D03*
X406400Y495300D03*
X457200Y520700D03*
X457200Y495300D03*
D51*
X304800Y610950D03*
X304800Y620950D03*
D38*
X153670Y431800D02*
X138430Y431800D01*
X138430Y406400D02*
X153670Y406400D01*
X153670Y381000D02*
X138430Y381000D01*
D52*
X546100Y884100D03*
X571500Y884100D03*
X571500Y970100D03*
X546100Y970100D03*
D53*
X215900Y876300D03*
X215900Y863600D03*
X215900Y850900D03*
X215900Y838200D03*
X215900Y825500D03*
X215900Y812800D03*
X215900Y800100D03*
X215900Y787400D03*
X215900Y774700D03*
X215900Y762000D03*
X215900Y749300D03*
X215900Y736600D03*
X215900Y901700D03*
X279400Y711200D03*
X292100Y711200D03*
X304800Y711200D03*
X317500Y711200D03*
X330200Y711200D03*
X342900Y711200D03*
X355600Y711200D03*
X368300Y711200D03*
X381000Y711200D03*
X431800Y889000D03*
X431800Y876300D03*
X431800Y863600D03*
X431800Y850900D03*
X431800Y838200D03*
X431800Y812800D03*
X431800Y800100D03*
X279400Y247650D03*
X279400Y234950D03*
X431800Y762000D03*
X431800Y749300D03*
X431800Y736600D03*
X514350Y711200D03*
X514350Y546100D03*
X514350Y596900D03*
X514350Y571500D03*
X514350Y558800D03*
X431800Y901700D03*
X215900Y889000D03*
X641350Y558800D03*
X641350Y571500D03*
X641350Y685800D03*
X641350Y698500D03*
X749300Y628650D03*
X50800Y812800D03*
X139700Y292100D03*
X273050Y317500D03*
X184150Y273050D03*
X273050Y304800D03*
X184150Y247650D03*
X139700Y850900D03*
X279400Y260350D03*
X184150Y260350D03*
X431800Y787400D03*
X787400Y812800D03*
X431800Y774700D03*
X336550Y546100D03*
X349250Y546100D03*
X361950Y546100D03*
X666750Y889000D03*
X673100Y895350D03*
X641350Y711200D03*
X717550Y850900D03*
X711200Y857250D03*
X711200Y844550D03*
X717550Y838200D03*
X717550Y863600D03*
X469900Y965200D03*
X698500Y889000D03*
X762000Y901700D03*
X774700Y908050D03*
X628650Y857250D03*
X692150Y895350D03*
X635000Y863600D03*
X679450Y812800D03*
X673100Y806450D03*
X666750Y812800D03*
X660400Y806450D03*
X711200Y831850D03*
X692150Y812800D03*
X685800Y806450D03*
X628650Y844550D03*
X635000Y850900D03*
X628650Y831850D03*
X654050Y812800D03*
X635000Y838200D03*
D54*
X781350Y922100D03*
X774850Y922100D03*
X768350Y922100D03*
X761850Y922100D03*
X755350Y922100D03*
D55*
X756850Y949600D03*
X779850Y949600D03*
D56*
X730850Y949600D03*
X805850Y949600D03*
D34*
X677930Y558800D03*
X706370Y558800D03*
D57*
X147638Y784225D03*
X319088Y250825D03*
X333375Y635000D03*
X201613Y377825D03*
X598488Y908050D03*
X868363Y382588D03*
X338138Y176213D03*
X628650Y457200D03*
X190500Y603250D03*
X260350Y711200D03*
X514350Y895350D03*
X495300Y609600D03*
X514350Y698500D03*
X577850Y596900D03*
X469900Y666750D03*
X742950Y927100D03*
X222250Y920750D03*
X463550Y596900D03*
X508000Y965200D03*
X260350Y374650D03*
X184150Y641350D03*
X298450Y679450D03*
X647700Y584200D03*
X647700Y609600D03*
X234950Y215900D03*
X692150Y933450D03*
X742950Y781050D03*
X641350Y812800D03*
X717550Y806450D03*
X698500Y825500D03*
X711200Y876300D03*
X425450Y914400D03*
X273050Y844550D03*
X298450Y419100D03*
X457200Y260350D03*
X615950Y203200D03*
X527050Y171450D03*
X279400Y889000D03*
X130175Y825500D03*
X177800Y863600D03*
X603250Y866775D03*
X517525Y812800D03*
X673100Y777875D03*
X188913Y949325D03*
X200025Y855663D03*
X703263Y73025D03*
X387350Y793750D03*
X450850Y736600D03*
X879475Y422275D03*
X104775Y688975D03*
X290513Y244475D03*
X258763Y282575D03*
X638175Y793750D03*
X625475Y785813D03*
X457200Y841375D03*
X444500Y847725D03*
X630238Y800100D03*
X444500Y828675D03*
X441325Y863600D03*
X625475Y814388D03*
X169863Y933450D03*
X547688Y947738D03*
X723900Y831850D03*
X481013Y954088D03*
X696913Y873125D03*
X679450Y901700D03*
X704850Y925513D03*
X638175Y914400D03*
X814388Y847725D03*
X603250Y857250D03*
X631825Y873125D03*
X457200Y790575D03*
X427038Y820738D03*
X304800Y260350D03*
X244475Y282575D03*
X219075Y247650D03*
X174625Y233363D03*
X200025Y681038D03*
X304800Y576263D03*
X323850Y379413D03*
X403225Y300038D03*
X209550Y681038D03*
X393700Y579438D03*
X695325Y331788D03*
X444500Y812800D03*
X473075Y811213D03*
X290513Y206375D03*
X355600Y671513D03*
X368300Y671513D03*
X333375Y596900D03*
X368300Y588963D03*
X396875Y601663D03*
X504825Y690563D03*
X515938Y798513D03*
X457200Y904875D03*
X444500Y903288D03*
X457200Y768350D03*
X387350Y828675D03*
X387350Y893763D03*
X406400Y912813D03*
X438150Y742950D03*
X457200Y758825D03*
X444500Y771525D03*
X687388Y266700D03*
X393700Y687388D03*
X379413Y701675D03*
X460375Y914400D03*
X446088Y919163D03*
X295275Y642938D03*
X273050Y627063D03*
X254000Y685800D03*
X479425Y847725D03*
X246063Y725488D03*
X487363Y773113D03*
X438150Y755650D03*
X288925Y620713D03*
X279400Y590550D03*
M02*
