M48
;GenerationSoftware,Autodesk,EAGLE,9.6.2*%
;CreationDate,2020-06-12T21:53:00Z*%
FMAT,2
ICI,OFF
METRIC,TZ,000.000
T17C0.350
T16C0.500
T15C0.520
T14C0.610
T13C0.813
T12C0.890
T11C0.900
T10C1.000
T9C1.016
T8C1.020
T7C1.170
T6C1.290
T5C1.320
T4C1.500
T3C1.524
T2C1.630
T1C3.250
%
G90
M71
T1
X82550Y67945
X82550Y56515
T2
X79500Y69975
X79500Y54485
T3
X83820Y24130
X77470Y11430
X72390Y11430
X67310Y11430
X62230Y11430
X10160Y11430
X83820Y80010
X36830Y11430
X83820Y50165
X83820Y45085
X41910Y11430
X46990Y11430
X52070Y11430
X83820Y74930
X83820Y29210
X83820Y34290
X25400Y11430
X20320Y11430
X15240Y11430
T4
X56355Y31750
T5
X63750Y24480
X63750Y36480
X75950Y36480
X75950Y24480
T6
X61750Y30480
T7
X36355Y31750
T8
X87450Y66315
X87450Y55605
X87450Y58145
X87450Y68855
T9
X6350Y40640
X6350Y38100
X6350Y35560
X14605Y43180
X14605Y40640
X14605Y38100
X6350Y73660
X6350Y22860
X6350Y20320
X6350Y25400
X6350Y27940
X6350Y71120
X6350Y68580
X6350Y66040
X6350Y63500
X6350Y60960
X6350Y58420
X6350Y55880
X6350Y53340
X6350Y50800
X6350Y48260
X6350Y45720
X6350Y43180
T10
X93345Y1905
X1905Y1905
X1905Y98425
T11
X93345Y98425
T12
X76200Y60320
X73660Y59050
X76200Y57780
X73660Y66670
X76200Y65400
X73660Y64130
X76200Y62860
X73660Y61590
T13
X35560Y52070
X35560Y49530
X40640Y52070
X40640Y49530
X45720Y52070
X45720Y49530
T14
X60325Y74930
X55245Y74930
T15
X15875Y27347
X15875Y25993
T16
X63875Y95250
X69475Y95250
X66675Y93100
T17
X39370Y57944
X69533Y33179
X44450Y81280
X47307Y81121
X29051Y20638
X35560Y67151
X36830Y67151
X33338Y59690
X36830Y58896
X39688Y60166
X50482Y69056
X51594Y79851
X45720Y90487
X44450Y90329
X45720Y76835
X38735Y82868
X38735Y89376
X23495Y21590
X43815Y74295
X45720Y75883
X44450Y77153
X68739Y26670
X39370Y68739
X37941Y70168
X46037Y91440
X44609Y91916
X29527Y64294
X27305Y62706
X25400Y68580
X47942Y84773
X24606Y72549
X48736Y77311
X43815Y75565
X28892Y62071
X27940Y59055
X14764Y78423
X31909Y25082
X33338Y63500
X20161Y37783
X59849Y90805
X86836Y38259
X40640Y91281
X33814Y17621
X62865Y45720
X19050Y60325
X26035Y71120
X51435Y89535
X49530Y60960
X51435Y69850
X57785Y59690
X46990Y66675
X74295Y92710
X22225Y92075
X46355Y59690
X50800Y96520
X26035Y37465
X18415Y64135
X29845Y67945
X64770Y58420
X64770Y60960
X69215Y93345
X74295Y78105
X64135Y81280
X71755Y80645
X69850Y82550
X71120Y87630
X42545Y91440
X27305Y84455
X29845Y41910
X45720Y26035
X61595Y20320
X52705Y17145
X27940Y88900
X13017Y82550
X17780Y86360
X60325Y86678
X51752Y81280
X67310Y77788
X18891Y94932
X20003Y85566
X70326Y7302
X38735Y79375
X45085Y73660
X87947Y42228
X10478Y68898
X29051Y24447
X25876Y28257
X63817Y79375
X62547Y78581
X45720Y84138
X44450Y84773
X63024Y80010
X21907Y24765
X44450Y82868
X44132Y86360
X62547Y81439
X16986Y93345
X54769Y94774
X72390Y83185
X48101Y95409
X69691Y87313
X67945Y90170
X70485Y92551
X63817Y91440
X81439Y84773
X60325Y85725
X63182Y87313
X45720Y79058
X42704Y82074
X30480Y26035
X24447Y28257
X17463Y23336
X20003Y68104
X30480Y57626
X32385Y37941
X40323Y30004
X20955Y68104
M30