G04 EAGLE Gerber RS-274X export*
G75*
%MOMM*%
%FSLAX34Y34*%
%LPD*%
%INSolderpaste Top*%
%IPPOS*%
%AMOC8*
5,1,8,0,0,1.08239X$1,22.5*%
G01*
%ADD10R,1.500000X1.950000*%
%ADD11R,2.600000X1.600000*%
%ADD12R,0.600000X2.200000*%
%ADD13R,0.450000X1.500000*%
%ADD14R,0.800000X0.800000*%
%ADD15R,0.660400X2.032000*%
%ADD16R,2.000000X0.900000*%
%ADD17R,2.000000X1.300000*%
%ADD18R,1.400000X2.100000*%
%ADD19R,1.130000X2.440000*%
%ADD20R,0.900000X2.000000*%
%ADD21R,5.000000X5.000000*%
%ADD22R,1.981200X0.558800*%
%ADD23R,1.149913X1.149913*%
%ADD24R,1.151819X1.149753*%
%ADD25R,1.151400X1.151400*%
%ADD26R,1.149731X1.151981*%
%ADD27C,0.135000*%
%ADD28C,0.139500*%
%ADD29C,0.196500*%
%ADD30C,0.147500*%

G36*
X767501Y925477D02*
X767501Y925477D01*
X767502Y925476D01*
X768575Y925582D01*
X768578Y925584D01*
X768580Y925582D01*
X769612Y925895D01*
X769614Y925898D01*
X769616Y925897D01*
X770567Y926406D01*
X770568Y926409D01*
X770571Y926408D01*
X771404Y927092D01*
X771405Y927095D01*
X771408Y927096D01*
X772092Y927929D01*
X772092Y927932D01*
X772094Y927933D01*
X772603Y928884D01*
X772602Y928887D01*
X772605Y928888D01*
X772918Y929920D01*
X772916Y929923D01*
X772918Y929925D01*
X773024Y930998D01*
X773022Y931000D01*
X773024Y931002D01*
X773023Y931002D01*
X773024Y931003D01*
X772886Y932227D01*
X772883Y932229D01*
X772885Y932232D01*
X772478Y933394D01*
X772475Y933396D01*
X772476Y933399D01*
X771821Y934442D01*
X771817Y934443D01*
X771817Y934446D01*
X770946Y935317D01*
X770943Y935317D01*
X770942Y935321D01*
X769899Y935976D01*
X769896Y935975D01*
X769894Y935978D01*
X768732Y936385D01*
X768728Y936384D01*
X768727Y936386D01*
X767503Y936524D01*
X767501Y936523D01*
X767500Y936524D01*
X756500Y936524D01*
X756499Y936523D01*
X756497Y936524D01*
X755273Y936386D01*
X755271Y936383D01*
X755268Y936385D01*
X754106Y935978D01*
X754104Y935975D01*
X754101Y935976D01*
X753058Y935321D01*
X753057Y935317D01*
X753054Y935317D01*
X752183Y934446D01*
X752183Y934443D01*
X752179Y934442D01*
X751524Y933399D01*
X751525Y933396D01*
X751522Y933394D01*
X751115Y932232D01*
X751116Y932228D01*
X751114Y932227D01*
X750976Y931003D01*
X750978Y931000D01*
X750976Y930998D01*
X751082Y929925D01*
X751084Y929922D01*
X751082Y929920D01*
X751395Y928888D01*
X751398Y928886D01*
X751397Y928884D01*
X751906Y927933D01*
X751909Y927932D01*
X751908Y927929D01*
X752592Y927096D01*
X752595Y927095D01*
X752596Y927092D01*
X753429Y926408D01*
X753432Y926408D01*
X753433Y926406D01*
X754384Y925897D01*
X754387Y925898D01*
X754388Y925895D01*
X755420Y925582D01*
X755423Y925584D01*
X755425Y925582D01*
X756498Y925476D01*
X756499Y925477D01*
X756500Y925476D01*
X767500Y925476D01*
X767501Y925477D01*
G37*
G36*
X737501Y946977D02*
X737501Y946977D01*
X737502Y946976D01*
X738575Y947082D01*
X738578Y947084D01*
X738580Y947082D01*
X739612Y947395D01*
X739614Y947398D01*
X739616Y947397D01*
X740567Y947906D01*
X740568Y947909D01*
X740571Y947908D01*
X741404Y948592D01*
X741405Y948595D01*
X741408Y948596D01*
X742092Y949429D01*
X742092Y949432D01*
X742094Y949433D01*
X742603Y950384D01*
X742602Y950387D01*
X742605Y950388D01*
X742918Y951420D01*
X742916Y951423D01*
X742918Y951425D01*
X742922Y951459D01*
X742927Y951507D01*
X742927Y951508D01*
X742931Y951556D01*
X742934Y951580D01*
X742939Y951629D01*
X742943Y951677D01*
X742948Y951726D01*
X742950Y951750D01*
X742951Y951750D01*
X742955Y951798D01*
X742955Y951799D01*
X742960Y951847D01*
X742965Y951895D01*
X742965Y951896D01*
X742967Y951920D01*
X742972Y951968D01*
X742977Y952017D01*
X742982Y952065D01*
X742986Y952114D01*
X742989Y952138D01*
X742993Y952186D01*
X742994Y952186D01*
X742993Y952187D01*
X742998Y952235D01*
X743003Y952283D01*
X743003Y952284D01*
X743005Y952308D01*
X743010Y952356D01*
X743015Y952405D01*
X743020Y952453D01*
X743022Y952477D01*
X743022Y952478D01*
X743024Y952498D01*
X743022Y952500D01*
X743024Y952502D01*
X743023Y952502D01*
X743024Y952503D01*
X742886Y953727D01*
X742883Y953729D01*
X742885Y953732D01*
X742478Y954894D01*
X742475Y954896D01*
X742476Y954899D01*
X741821Y955942D01*
X741817Y955943D01*
X741817Y955946D01*
X740946Y956817D01*
X740943Y956817D01*
X740942Y956821D01*
X739899Y957476D01*
X739896Y957475D01*
X739894Y957478D01*
X738732Y957885D01*
X738728Y957884D01*
X738727Y957886D01*
X737503Y958024D01*
X737501Y958023D01*
X737500Y958024D01*
X730500Y958024D01*
X730499Y958023D01*
X730497Y958024D01*
X729273Y957886D01*
X729271Y957883D01*
X729268Y957885D01*
X728106Y957478D01*
X728104Y957475D01*
X728101Y957476D01*
X727058Y956821D01*
X727057Y956817D01*
X727054Y956817D01*
X726183Y955946D01*
X726183Y955943D01*
X726179Y955942D01*
X725524Y954899D01*
X725525Y954896D01*
X725522Y954894D01*
X725115Y953732D01*
X725116Y953728D01*
X725114Y953727D01*
X725110Y953696D01*
X725105Y953648D01*
X725099Y953599D01*
X725097Y953575D01*
X725091Y953526D01*
X725086Y953478D01*
X725080Y953429D01*
X725078Y953405D01*
X725075Y953381D01*
X725072Y953357D01*
X725067Y953308D01*
X725061Y953260D01*
X725056Y953211D01*
X725053Y953187D01*
X725050Y953163D01*
X725048Y953138D01*
X725042Y953090D01*
X725037Y953041D01*
X725031Y952993D01*
X725028Y952969D01*
X725023Y952920D01*
X725017Y952872D01*
X725012Y952823D01*
X725009Y952799D01*
X725007Y952775D01*
X725004Y952750D01*
X724998Y952702D01*
X724993Y952653D01*
X724987Y952605D01*
X724985Y952581D01*
X724979Y952532D01*
X724976Y952503D01*
X724978Y952500D01*
X724976Y952497D01*
X725114Y951273D01*
X725117Y951271D01*
X725115Y951268D01*
X725522Y950106D01*
X725525Y950104D01*
X725524Y950101D01*
X726179Y949058D01*
X726183Y949057D01*
X726183Y949054D01*
X727054Y948183D01*
X727057Y948183D01*
X727058Y948179D01*
X728101Y947524D01*
X728104Y947525D01*
X728106Y947522D01*
X729268Y947115D01*
X729272Y947116D01*
X729273Y947114D01*
X730497Y946976D01*
X730499Y946977D01*
X730500Y946976D01*
X737500Y946976D01*
X737501Y946977D01*
G37*
G36*
X793501Y946977D02*
X793501Y946977D01*
X793502Y946976D01*
X794575Y947082D01*
X794578Y947084D01*
X794580Y947082D01*
X795612Y947395D01*
X795614Y947398D01*
X795616Y947397D01*
X796567Y947906D01*
X796568Y947909D01*
X796571Y947908D01*
X797404Y948592D01*
X797405Y948595D01*
X797408Y948596D01*
X798092Y949429D01*
X798092Y949432D01*
X798094Y949433D01*
X798603Y950384D01*
X798602Y950387D01*
X798605Y950388D01*
X798918Y951420D01*
X798916Y951423D01*
X798918Y951425D01*
X798922Y951459D01*
X798927Y951507D01*
X798927Y951508D01*
X798931Y951556D01*
X798934Y951580D01*
X798939Y951629D01*
X798943Y951677D01*
X798948Y951726D01*
X798950Y951750D01*
X798951Y951750D01*
X798955Y951798D01*
X798955Y951799D01*
X798960Y951847D01*
X798965Y951895D01*
X798965Y951896D01*
X798967Y951920D01*
X798972Y951968D01*
X798977Y952017D01*
X798982Y952065D01*
X798986Y952114D01*
X798989Y952138D01*
X798993Y952186D01*
X798994Y952186D01*
X798993Y952187D01*
X798998Y952235D01*
X799003Y952283D01*
X799003Y952284D01*
X799005Y952308D01*
X799010Y952356D01*
X799015Y952405D01*
X799020Y952453D01*
X799022Y952477D01*
X799022Y952478D01*
X799024Y952498D01*
X799022Y952500D01*
X799024Y952502D01*
X799023Y952502D01*
X799024Y952503D01*
X798886Y953727D01*
X798883Y953729D01*
X798885Y953732D01*
X798478Y954894D01*
X798475Y954896D01*
X798476Y954899D01*
X797821Y955942D01*
X797817Y955943D01*
X797817Y955946D01*
X796946Y956817D01*
X796943Y956817D01*
X796942Y956821D01*
X795899Y957476D01*
X795896Y957475D01*
X795894Y957478D01*
X794732Y957885D01*
X794728Y957884D01*
X794727Y957886D01*
X793503Y958024D01*
X793501Y958023D01*
X793500Y958024D01*
X786500Y958024D01*
X786499Y958023D01*
X786497Y958024D01*
X785273Y957886D01*
X785271Y957883D01*
X785268Y957885D01*
X784106Y957478D01*
X784104Y957475D01*
X784101Y957476D01*
X783058Y956821D01*
X783057Y956817D01*
X783054Y956817D01*
X782183Y955946D01*
X782183Y955943D01*
X782179Y955942D01*
X781524Y954899D01*
X781525Y954896D01*
X781522Y954894D01*
X781115Y953732D01*
X781116Y953728D01*
X781114Y953727D01*
X781110Y953696D01*
X781105Y953648D01*
X781099Y953599D01*
X781097Y953575D01*
X781091Y953526D01*
X781086Y953478D01*
X781080Y953429D01*
X781078Y953405D01*
X781075Y953381D01*
X781072Y953357D01*
X781067Y953308D01*
X781061Y953260D01*
X781056Y953211D01*
X781053Y953187D01*
X781050Y953163D01*
X781048Y953138D01*
X781042Y953090D01*
X781037Y953041D01*
X781031Y952993D01*
X781028Y952969D01*
X781023Y952920D01*
X781017Y952872D01*
X781012Y952823D01*
X781009Y952799D01*
X781007Y952775D01*
X781004Y952750D01*
X780998Y952702D01*
X780993Y952653D01*
X780987Y952605D01*
X780985Y952581D01*
X780979Y952532D01*
X780976Y952503D01*
X780978Y952500D01*
X780976Y952497D01*
X781114Y951273D01*
X781117Y951271D01*
X781115Y951268D01*
X781522Y950106D01*
X781525Y950104D01*
X781524Y950101D01*
X782179Y949058D01*
X782183Y949057D01*
X782183Y949054D01*
X783054Y948183D01*
X783057Y948183D01*
X783058Y948179D01*
X784101Y947524D01*
X784104Y947525D01*
X784106Y947522D01*
X785268Y947115D01*
X785272Y947116D01*
X785273Y947114D01*
X786497Y946976D01*
X786499Y946977D01*
X786500Y946976D01*
X793500Y946976D01*
X793501Y946977D01*
G37*
%LPC*%
G36*
X756502Y928524D02*
X756502Y928524D01*
X755859Y928609D01*
X755262Y928856D01*
X754750Y929250D01*
X754356Y929762D01*
X754109Y930359D01*
X754024Y931000D01*
X754109Y931641D01*
X754356Y932238D01*
X754750Y932751D01*
X755262Y933144D01*
X755859Y933391D01*
X756502Y933476D01*
X767499Y933476D01*
X768141Y933391D01*
X768738Y933144D01*
X769251Y932751D01*
X769644Y932238D01*
X769891Y931641D01*
X769976Y931000D01*
X769891Y930359D01*
X769644Y929762D01*
X769251Y929250D01*
X768738Y928856D01*
X768141Y928609D01*
X767499Y928524D01*
X756502Y928524D01*
G37*
%LPD*%
%LPC*%
G36*
X786502Y950024D02*
X786502Y950024D01*
X785859Y950109D01*
X785262Y950356D01*
X784750Y950750D01*
X784356Y951262D01*
X784109Y951859D01*
X784024Y952500D01*
X784025Y952502D01*
X784028Y952526D01*
X784031Y952550D01*
X784034Y952574D01*
X784034Y952575D01*
X784037Y952599D01*
X784041Y952623D01*
X784047Y952671D01*
X784047Y952672D01*
X784050Y952696D01*
X784053Y952720D01*
X784057Y952744D01*
X784060Y952768D01*
X784060Y952769D01*
X784063Y952793D01*
X784066Y952817D01*
X784069Y952841D01*
X784073Y952865D01*
X784073Y952866D01*
X784076Y952890D01*
X784079Y952914D01*
X784082Y952938D01*
X784085Y952962D01*
X784085Y952963D01*
X784089Y952987D01*
X784092Y953011D01*
X784095Y953035D01*
X784098Y953059D01*
X784098Y953060D01*
X784101Y953084D01*
X784104Y953108D01*
X784105Y953108D01*
X784108Y953132D01*
X784109Y953141D01*
X784356Y953738D01*
X784750Y954251D01*
X785262Y954644D01*
X785859Y954891D01*
X786502Y954976D01*
X793499Y954976D01*
X794141Y954891D01*
X794738Y954644D01*
X795251Y954251D01*
X795644Y953738D01*
X795891Y953141D01*
X795976Y952500D01*
X795973Y952484D01*
X795970Y952459D01*
X795967Y952435D01*
X795964Y952411D01*
X795961Y952387D01*
X795957Y952362D01*
X795954Y952338D01*
X795951Y952314D01*
X795948Y952290D01*
X795945Y952265D01*
X795941Y952241D01*
X795938Y952217D01*
X795935Y952193D01*
X795932Y952168D01*
X795929Y952144D01*
X795926Y952120D01*
X795925Y952120D01*
X795926Y952120D01*
X795922Y952096D01*
X795919Y952071D01*
X795916Y952047D01*
X795913Y952023D01*
X795910Y951999D01*
X795906Y951974D01*
X795903Y951950D01*
X795900Y951926D01*
X795897Y951902D01*
X795894Y951877D01*
X795891Y951859D01*
X795644Y951262D01*
X795251Y950750D01*
X794738Y950356D01*
X794141Y950109D01*
X793499Y950024D01*
X786502Y950024D01*
G37*
%LPD*%
%LPC*%
G36*
X730502Y950024D02*
X730502Y950024D01*
X729859Y950109D01*
X729262Y950356D01*
X728750Y950750D01*
X728356Y951262D01*
X728109Y951859D01*
X728024Y952500D01*
X728025Y952502D01*
X728028Y952526D01*
X728031Y952550D01*
X728034Y952574D01*
X728034Y952575D01*
X728037Y952599D01*
X728041Y952623D01*
X728047Y952671D01*
X728047Y952672D01*
X728050Y952696D01*
X728053Y952720D01*
X728057Y952744D01*
X728060Y952768D01*
X728060Y952769D01*
X728063Y952793D01*
X728066Y952817D01*
X728069Y952841D01*
X728073Y952865D01*
X728073Y952866D01*
X728076Y952890D01*
X728079Y952914D01*
X728082Y952938D01*
X728085Y952962D01*
X728085Y952963D01*
X728089Y952987D01*
X728092Y953011D01*
X728095Y953035D01*
X728098Y953059D01*
X728098Y953060D01*
X728101Y953084D01*
X728104Y953108D01*
X728105Y953108D01*
X728108Y953132D01*
X728109Y953141D01*
X728356Y953738D01*
X728750Y954251D01*
X729262Y954644D01*
X729859Y954891D01*
X730502Y954976D01*
X737499Y954976D01*
X738141Y954891D01*
X738738Y954644D01*
X739251Y954251D01*
X739644Y953738D01*
X739891Y953141D01*
X739976Y952500D01*
X739973Y952484D01*
X739970Y952459D01*
X739967Y952435D01*
X739964Y952411D01*
X739961Y952387D01*
X739957Y952362D01*
X739954Y952338D01*
X739951Y952314D01*
X739948Y952290D01*
X739945Y952265D01*
X739941Y952241D01*
X739938Y952217D01*
X739935Y952193D01*
X739932Y952168D01*
X739929Y952144D01*
X739926Y952120D01*
X739925Y952120D01*
X739926Y952120D01*
X739922Y952096D01*
X739919Y952071D01*
X739916Y952047D01*
X739913Y952023D01*
X739910Y951999D01*
X739906Y951974D01*
X739903Y951950D01*
X739900Y951926D01*
X739897Y951902D01*
X739894Y951877D01*
X739891Y951859D01*
X739644Y951262D01*
X739251Y950750D01*
X738738Y950356D01*
X738141Y950109D01*
X737499Y950024D01*
X730502Y950024D01*
G37*
%LPD*%
D10*
X177800Y572550D03*
X177800Y545050D03*
X241300Y545050D03*
X241300Y572550D03*
X279400Y545050D03*
X279400Y572550D03*
X215900Y572550D03*
X215900Y545050D03*
X190500Y763050D03*
X190500Y735550D03*
D11*
X513300Y723900D03*
X477300Y723900D03*
D12*
X349250Y601700D03*
X374650Y693700D03*
X336550Y601700D03*
X361950Y601700D03*
X374650Y601700D03*
X361950Y693700D03*
X387350Y693700D03*
X400050Y693700D03*
X400050Y601700D03*
X425450Y693700D03*
X387350Y601700D03*
X412750Y601700D03*
X412750Y693700D03*
X425450Y601700D03*
X349250Y693700D03*
X336550Y693700D03*
D13*
X749000Y950000D03*
X755500Y950000D03*
X762000Y950000D03*
X768500Y950000D03*
X775000Y950000D03*
D14*
X767200Y876300D03*
X782200Y876300D03*
X355600Y551300D03*
X355600Y566300D03*
X393700Y551300D03*
X393700Y566300D03*
X431800Y551300D03*
X431800Y566300D03*
D15*
X184150Y598678D03*
X196850Y598678D03*
X209550Y598678D03*
X222250Y598678D03*
X234950Y598678D03*
X247650Y598678D03*
X260350Y598678D03*
X273050Y598678D03*
X273050Y696722D03*
X260350Y696722D03*
X247650Y696722D03*
X234950Y696722D03*
X222250Y696722D03*
X209550Y696722D03*
X196850Y696722D03*
X184150Y696722D03*
D16*
X181200Y471200D03*
D17*
X225200Y457200D03*
D16*
X181200Y443200D03*
D18*
X447400Y881600D03*
X492400Y881600D03*
X447400Y972600D03*
X492400Y972600D03*
X200300Y972600D03*
X155300Y972600D03*
X200300Y881600D03*
X155300Y881600D03*
D19*
X558800Y884100D03*
X584200Y884100D03*
X584200Y970100D03*
X558800Y970100D03*
D16*
X241300Y927100D03*
X241300Y914400D03*
X241200Y901700D03*
X241300Y888700D03*
X241300Y876300D03*
X241300Y863600D03*
X241300Y850900D03*
X241300Y838200D03*
X241300Y825500D03*
X241300Y812800D03*
X241300Y800100D03*
X241300Y787400D03*
X241300Y774700D03*
X241300Y762000D03*
D20*
X269150Y753000D03*
X281850Y753000D03*
X294550Y753000D03*
X307250Y753000D03*
X319950Y753000D03*
X332650Y753000D03*
X345350Y753000D03*
X358050Y753000D03*
X370750Y753000D03*
X383450Y753000D03*
D16*
X411300Y927100D03*
X411300Y914400D03*
X411300Y901700D03*
X411300Y889000D03*
X411300Y876300D03*
X411300Y863600D03*
X411305Y850877D03*
X411319Y838187D03*
X411293Y825489D03*
X411275Y812777D03*
X411294Y800082D03*
X411310Y787392D03*
X411290Y774715D03*
X411287Y761988D03*
D21*
X316322Y847644D03*
D22*
X562610Y717550D03*
X562610Y704850D03*
X562610Y692150D03*
X562610Y679450D03*
X562610Y666750D03*
X562610Y654050D03*
X562610Y641350D03*
X562610Y628650D03*
X562610Y615950D03*
X562610Y603250D03*
X562610Y590550D03*
X562610Y577850D03*
X562610Y565150D03*
X562610Y552450D03*
X656590Y552450D03*
X656590Y565150D03*
X656590Y577850D03*
X656590Y590550D03*
X656590Y603250D03*
X656590Y615950D03*
X656590Y628650D03*
X656590Y641350D03*
X656590Y654050D03*
X656590Y666750D03*
X656590Y679450D03*
X656590Y692150D03*
X656590Y704850D03*
X656590Y717550D03*
D23*
X680650Y843350D03*
D24*
X680651Y858459D03*
D25*
X665543Y858457D03*
D26*
X665540Y843349D03*
D27*
X687425Y870125D02*
X687425Y878875D01*
X688775Y878875D01*
X688775Y870125D01*
X687425Y870125D01*
X687425Y871407D02*
X688775Y871407D01*
X688775Y872689D02*
X687425Y872689D01*
X687425Y873971D02*
X688775Y873971D01*
X688775Y875253D02*
X687425Y875253D01*
X687425Y876535D02*
X688775Y876535D01*
X688775Y877817D02*
X687425Y877817D01*
X682425Y878875D02*
X682425Y870125D01*
X682425Y878875D02*
X683775Y878875D01*
X683775Y870125D01*
X682425Y870125D01*
X682425Y871407D02*
X683775Y871407D01*
X683775Y872689D02*
X682425Y872689D01*
X682425Y873971D02*
X683775Y873971D01*
X683775Y875253D02*
X682425Y875253D01*
X682425Y876535D02*
X683775Y876535D01*
X683775Y877817D02*
X682425Y877817D01*
X677425Y878875D02*
X677425Y870125D01*
X677425Y878875D02*
X678775Y878875D01*
X678775Y870125D01*
X677425Y870125D01*
X677425Y871407D02*
X678775Y871407D01*
X678775Y872689D02*
X677425Y872689D01*
X677425Y873971D02*
X678775Y873971D01*
X678775Y875253D02*
X677425Y875253D01*
X677425Y876535D02*
X678775Y876535D01*
X678775Y877817D02*
X677425Y877817D01*
X672425Y878875D02*
X672425Y870125D01*
X672425Y878875D02*
X673775Y878875D01*
X673775Y870125D01*
X672425Y870125D01*
X672425Y871407D02*
X673775Y871407D01*
X673775Y872689D02*
X672425Y872689D01*
X672425Y873971D02*
X673775Y873971D01*
X673775Y875253D02*
X672425Y875253D01*
X672425Y876535D02*
X673775Y876535D01*
X673775Y877817D02*
X672425Y877817D01*
X667425Y878875D02*
X667425Y870125D01*
X667425Y878875D02*
X668775Y878875D01*
X668775Y870125D01*
X667425Y870125D01*
X667425Y871407D02*
X668775Y871407D01*
X668775Y872689D02*
X667425Y872689D01*
X667425Y873971D02*
X668775Y873971D01*
X668775Y875253D02*
X667425Y875253D01*
X667425Y876535D02*
X668775Y876535D01*
X668775Y877817D02*
X667425Y877817D01*
X662425Y878875D02*
X662425Y870125D01*
X662425Y878875D02*
X663775Y878875D01*
X663775Y870125D01*
X662425Y870125D01*
X662425Y871407D02*
X663775Y871407D01*
X663775Y872689D02*
X662425Y872689D01*
X662425Y873971D02*
X663775Y873971D01*
X663775Y875253D02*
X662425Y875253D01*
X662425Y876535D02*
X663775Y876535D01*
X663775Y877817D02*
X662425Y877817D01*
X657425Y878875D02*
X657425Y870125D01*
X657425Y878875D02*
X658775Y878875D01*
X658775Y870125D01*
X657425Y870125D01*
X657425Y871407D02*
X658775Y871407D01*
X658775Y872689D02*
X657425Y872689D01*
X657425Y873971D02*
X658775Y873971D01*
X658775Y875253D02*
X657425Y875253D01*
X657425Y876535D02*
X658775Y876535D01*
X658775Y877817D02*
X657425Y877817D01*
X653875Y865225D02*
X645125Y865225D01*
X645125Y866575D01*
X653875Y866575D01*
X653875Y865225D01*
X653875Y866507D02*
X645125Y866507D01*
X645125Y860225D02*
X653875Y860225D01*
X645125Y860225D02*
X645125Y861575D01*
X653875Y861575D01*
X653875Y860225D01*
X653875Y861507D02*
X645125Y861507D01*
X645125Y855225D02*
X653875Y855225D01*
X645125Y855225D02*
X645125Y856575D01*
X653875Y856575D01*
X653875Y855225D01*
X653875Y856507D02*
X645125Y856507D01*
X645125Y850225D02*
X653875Y850225D01*
X645125Y850225D02*
X645125Y851575D01*
X653875Y851575D01*
X653875Y850225D01*
X653875Y851507D02*
X645125Y851507D01*
X645125Y845225D02*
X653875Y845225D01*
X645125Y845225D02*
X645125Y846575D01*
X653875Y846575D01*
X653875Y845225D01*
X653875Y846507D02*
X645125Y846507D01*
X645125Y840225D02*
X653875Y840225D01*
X645125Y840225D02*
X645125Y841575D01*
X653875Y841575D01*
X653875Y840225D01*
X653875Y841507D02*
X645125Y841507D01*
X645125Y835225D02*
X653875Y835225D01*
X645125Y835225D02*
X645125Y836575D01*
X653875Y836575D01*
X653875Y835225D01*
X653875Y836507D02*
X645125Y836507D01*
X658775Y831675D02*
X658775Y822925D01*
X657425Y822925D01*
X657425Y831675D01*
X658775Y831675D01*
X658775Y824207D02*
X657425Y824207D01*
X657425Y825489D02*
X658775Y825489D01*
X658775Y826771D02*
X657425Y826771D01*
X657425Y828053D02*
X658775Y828053D01*
X658775Y829335D02*
X657425Y829335D01*
X657425Y830617D02*
X658775Y830617D01*
X663775Y831675D02*
X663775Y822925D01*
X662425Y822925D01*
X662425Y831675D01*
X663775Y831675D01*
X663775Y824207D02*
X662425Y824207D01*
X662425Y825489D02*
X663775Y825489D01*
X663775Y826771D02*
X662425Y826771D01*
X662425Y828053D02*
X663775Y828053D01*
X663775Y829335D02*
X662425Y829335D01*
X662425Y830617D02*
X663775Y830617D01*
X668775Y831675D02*
X668775Y822925D01*
X667425Y822925D01*
X667425Y831675D01*
X668775Y831675D01*
X668775Y824207D02*
X667425Y824207D01*
X667425Y825489D02*
X668775Y825489D01*
X668775Y826771D02*
X667425Y826771D01*
X667425Y828053D02*
X668775Y828053D01*
X668775Y829335D02*
X667425Y829335D01*
X667425Y830617D02*
X668775Y830617D01*
X673775Y831675D02*
X673775Y822925D01*
X672425Y822925D01*
X672425Y831675D01*
X673775Y831675D01*
X673775Y824207D02*
X672425Y824207D01*
X672425Y825489D02*
X673775Y825489D01*
X673775Y826771D02*
X672425Y826771D01*
X672425Y828053D02*
X673775Y828053D01*
X673775Y829335D02*
X672425Y829335D01*
X672425Y830617D02*
X673775Y830617D01*
X678775Y831675D02*
X678775Y822925D01*
X677425Y822925D01*
X677425Y831675D01*
X678775Y831675D01*
X678775Y824207D02*
X677425Y824207D01*
X677425Y825489D02*
X678775Y825489D01*
X678775Y826771D02*
X677425Y826771D01*
X677425Y828053D02*
X678775Y828053D01*
X678775Y829335D02*
X677425Y829335D01*
X677425Y830617D02*
X678775Y830617D01*
X683775Y831675D02*
X683775Y822925D01*
X682425Y822925D01*
X682425Y831675D01*
X683775Y831675D01*
X683775Y824207D02*
X682425Y824207D01*
X682425Y825489D02*
X683775Y825489D01*
X683775Y826771D02*
X682425Y826771D01*
X682425Y828053D02*
X683775Y828053D01*
X683775Y829335D02*
X682425Y829335D01*
X682425Y830617D02*
X683775Y830617D01*
X688775Y831675D02*
X688775Y822925D01*
X687425Y822925D01*
X687425Y831675D01*
X688775Y831675D01*
X688775Y824207D02*
X687425Y824207D01*
X687425Y825489D02*
X688775Y825489D01*
X688775Y826771D02*
X687425Y826771D01*
X687425Y828053D02*
X688775Y828053D01*
X688775Y829335D02*
X687425Y829335D01*
X687425Y830617D02*
X688775Y830617D01*
X692325Y836575D02*
X701075Y836575D01*
X701075Y835225D01*
X692325Y835225D01*
X692325Y836575D01*
X692325Y836507D02*
X701075Y836507D01*
X701075Y841575D02*
X692325Y841575D01*
X701075Y841575D02*
X701075Y840225D01*
X692325Y840225D01*
X692325Y841575D01*
X692325Y841507D02*
X701075Y841507D01*
X701075Y846575D02*
X692325Y846575D01*
X701075Y846575D02*
X701075Y845225D01*
X692325Y845225D01*
X692325Y846575D01*
X692325Y846507D02*
X701075Y846507D01*
X701075Y851575D02*
X692325Y851575D01*
X701075Y851575D02*
X701075Y850225D01*
X692325Y850225D01*
X692325Y851575D01*
X692325Y851507D02*
X701075Y851507D01*
X701075Y856575D02*
X692325Y856575D01*
X701075Y856575D02*
X701075Y855225D01*
X692325Y855225D01*
X692325Y856575D01*
X692325Y856507D02*
X701075Y856507D01*
X701075Y861575D02*
X692325Y861575D01*
X701075Y861575D02*
X701075Y860225D01*
X692325Y860225D01*
X692325Y861575D01*
X692325Y861507D02*
X701075Y861507D01*
X701075Y866575D02*
X692325Y866575D01*
X701075Y866575D02*
X701075Y865225D01*
X692325Y865225D01*
X692325Y866575D01*
X692325Y866507D02*
X701075Y866507D01*
D28*
X140903Y793853D02*
X140903Y785947D01*
X129197Y785947D01*
X129197Y793853D01*
X140903Y793853D01*
X140903Y787272D02*
X129197Y787272D01*
X129197Y788597D02*
X140903Y788597D01*
X140903Y789922D02*
X129197Y789922D01*
X129197Y791247D02*
X140903Y791247D01*
X140903Y792572D02*
X129197Y792572D01*
X140903Y808847D02*
X140903Y816753D01*
X140903Y808847D02*
X129197Y808847D01*
X129197Y816753D01*
X140903Y816753D01*
X140903Y810172D02*
X129197Y810172D01*
X129197Y811497D02*
X140903Y811497D01*
X140903Y812822D02*
X129197Y812822D01*
X129197Y814147D02*
X140903Y814147D01*
X140903Y815472D02*
X129197Y815472D01*
X140903Y831747D02*
X140903Y839653D01*
X140903Y831747D02*
X129197Y831747D01*
X129197Y839653D01*
X140903Y839653D01*
X140903Y833072D02*
X129197Y833072D01*
X129197Y834397D02*
X140903Y834397D01*
X140903Y835722D02*
X129197Y835722D01*
X129197Y837047D02*
X140903Y837047D01*
X140903Y838372D02*
X129197Y838372D01*
D29*
X73718Y828018D02*
X73718Y797582D01*
X62582Y797582D01*
X62582Y828018D01*
X73718Y828018D01*
X73718Y799449D02*
X62582Y799449D01*
X62582Y801316D02*
X73718Y801316D01*
X73718Y803183D02*
X62582Y803183D01*
X62582Y805050D02*
X73718Y805050D01*
X73718Y806917D02*
X62582Y806917D01*
X62582Y808784D02*
X73718Y808784D01*
X73718Y810651D02*
X62582Y810651D01*
X62582Y812518D02*
X73718Y812518D01*
X73718Y814385D02*
X62582Y814385D01*
X62582Y816252D02*
X73718Y816252D01*
X73718Y818119D02*
X62582Y818119D01*
X62582Y819986D02*
X73718Y819986D01*
X73718Y821853D02*
X62582Y821853D01*
X62582Y823720D02*
X73718Y823720D01*
X73718Y825587D02*
X62582Y825587D01*
X62582Y827454D02*
X73718Y827454D01*
D30*
X194737Y270837D02*
X212963Y270837D01*
X194737Y270837D02*
X194737Y275263D01*
X212963Y275263D01*
X212963Y270837D01*
X212963Y272238D02*
X194737Y272238D01*
X194737Y273639D02*
X212963Y273639D01*
X212963Y275040D02*
X194737Y275040D01*
X194737Y258137D02*
X212963Y258137D01*
X194737Y258137D02*
X194737Y262563D01*
X212963Y262563D01*
X212963Y258137D01*
X212963Y259538D02*
X194737Y259538D01*
X194737Y260939D02*
X212963Y260939D01*
X212963Y262340D02*
X194737Y262340D01*
X194737Y245437D02*
X212963Y245437D01*
X194737Y245437D02*
X194737Y249863D01*
X212963Y249863D01*
X212963Y245437D01*
X212963Y246838D02*
X194737Y246838D01*
X194737Y248239D02*
X212963Y248239D01*
X212963Y249640D02*
X194737Y249640D01*
X194737Y232737D02*
X212963Y232737D01*
X194737Y232737D02*
X194737Y237163D01*
X212963Y237163D01*
X212963Y232737D01*
X212963Y234138D02*
X194737Y234138D01*
X194737Y235539D02*
X212963Y235539D01*
X212963Y236940D02*
X194737Y236940D01*
X244237Y232737D02*
X262463Y232737D01*
X244237Y232737D02*
X244237Y237163D01*
X262463Y237163D01*
X262463Y232737D01*
X262463Y234138D02*
X244237Y234138D01*
X244237Y235539D02*
X262463Y235539D01*
X262463Y236940D02*
X244237Y236940D01*
X244237Y245437D02*
X262463Y245437D01*
X244237Y245437D02*
X244237Y249863D01*
X262463Y249863D01*
X262463Y245437D01*
X262463Y246838D02*
X244237Y246838D01*
X244237Y248239D02*
X262463Y248239D01*
X262463Y249640D02*
X244237Y249640D01*
X244237Y258137D02*
X262463Y258137D01*
X244237Y258137D02*
X244237Y262563D01*
X262463Y262563D01*
X262463Y258137D01*
X262463Y259538D02*
X244237Y259538D01*
X244237Y260939D02*
X262463Y260939D01*
X262463Y262340D02*
X244237Y262340D01*
X244237Y270837D02*
X262463Y270837D01*
X244237Y270837D02*
X244237Y275263D01*
X262463Y275263D01*
X262463Y270837D01*
X262463Y272238D02*
X244237Y272238D01*
X244237Y273639D02*
X262463Y273639D01*
X262463Y275040D02*
X244237Y275040D01*
D22*
X203962Y387350D03*
X203962Y374650D03*
X203962Y361950D03*
X203962Y349250D03*
X253238Y349250D03*
X253238Y361950D03*
X253238Y374650D03*
X253238Y387350D03*
M02*
