M48
;GenerationSoftware,Autodesk,EAGLE,9.6.2*%
;CreationDate,2020-07-01T01:40:14Z*%
FMAT,2
ICI,OFF
METRIC,TZ,000.000
T8C0.813
T7C0.850
T6C0.900
T5C1.000
T4C1.016
T3C1.290
T2C1.320
T1C1.524
%
G90
M71
T1
X11430Y40640
X68580Y63500
X68580Y53340
X68580Y58420
X68580Y45720
X68580Y40640
X68580Y35560
X11430Y7620
X11430Y12700
X11430Y17780
X11430Y22860
X11430Y45720
X68580Y15240
X68580Y10160
X68580Y5080
X68580Y30480
X68580Y25400
X68580Y20320
T2
X47240Y52420
X59440Y64420
X47240Y64420
X59440Y52420
T3
X61440Y58420
T4
X6350Y33020
X6350Y30480
X6350Y27940
X17780Y40640
X17780Y38100
X6350Y35560
T5
X30480Y38100
X34290Y10160
X30480Y34048
X34290Y5080
T6
X16510Y48260
X43180Y36830
X53340Y36830
X43180Y11430
X53340Y11430
X16510Y58420
X43180Y24130
X53340Y24130
T7
X38198Y40640
X38198Y43180
X38198Y48260
X38198Y50800
X38198Y53340
X38198Y55880
X38198Y58420
X38198Y60960
X22762Y40640
X22762Y60960
X22762Y58420
X22762Y55880
X22762Y53340
X22762Y50800
X22762Y48260
X22762Y45720
X22762Y43180
X22762Y38100
X22762Y35560
X22762Y33020
X38198Y45720
X22762Y30480
X22762Y27940
X22762Y25400
X22762Y22860
X22762Y20320
X22762Y17780
X22762Y15240
X22762Y12700
X38198Y12700
X38198Y15240
X38198Y17780
X38198Y20320
X38198Y22860
X38198Y25400
X38198Y27940
X38198Y30480
X38198Y33020
X38198Y35560
X38198Y38100
T8
X50800Y30480
X53340Y30480
X53340Y33020
X50800Y5080
X53340Y5080
X13970Y33020
X13970Y30480
X21590Y66040
X31750Y66040
X62230Y46990
X52070Y46990
X50800Y17780
X53340Y17780
X53340Y20320
X45720Y46990
X45720Y44450
X48260Y44450
X53340Y7620
M30