M48
;GenerationSoftware,Autodesk,EAGLE,9.5.1*%
;CreationDate,2019-12-21T00:55:53Z*%
FMAT,2
ICI,OFF
METRIC,TZ,000.000
T11C0.800
T10C0.813
T9C0.900
T8C1.000
T7C1.016
T6C1.020
T5C1.040
T4C1.118
T3C1.290
T2C1.320
T1C2.500
%
G90
M71
T1
X79410Y4070
X4410Y4070
T2
X72140Y27590
X72140Y15590
X59940Y15590
X59940Y27590
T3
X57940Y21590
T4
X52070Y30480
X52070Y20320
T5
X27940Y69290
X27940Y66750
X53340Y64210
X53340Y66750
X53340Y69290
X53340Y74370
X53340Y76910
X53340Y79450
X53340Y81990
X53340Y84530
X53340Y87070
X53340Y89610
X53340Y92150
X53340Y94690
X53340Y97230
X53340Y99770
X27940Y64210
X27940Y76910
X27940Y74370
X27940Y94690
X27940Y71830
X27940Y99770
X27940Y97230
X53340Y71830
X27940Y79450
X27940Y92150
X27940Y89610
X27940Y87070
X27940Y84530
X27940Y81990
T6
X15240Y40630
X38100Y38090
X38100Y35550
X38100Y40630
X38100Y33010
X38100Y30470
X15240Y30470
X15240Y33010
X15240Y43170
X15240Y38090
X15240Y35550
T7
X16510Y12700
X3810Y43180
X3810Y53340
X3810Y58420
X78740Y55880
X78740Y50800
X78740Y45720
X78740Y40640
X3810Y21590
X78740Y26670
X78740Y21590
X78740Y16510
X3810Y63500
X3810Y66040
X3810Y68580
X3810Y71120
X3810Y16510
X78740Y67310
X78740Y62230
X7620Y-49530
X3810Y26670
X3810Y31750
X21590Y41910
X26670Y41910
X2540Y-43180
X7620Y-43180
X2540Y-49530
X3810Y48260
X11430Y12700
X13970Y12700
T8
X12310Y4570
X45330Y4570
X9770Y4570
X47870Y4570
X14850Y4570
X17390Y4570
X19930Y4570
X22470Y4570
X25010Y4570
X27550Y4570
X37710Y4570
X30090Y4570
X32630Y4570
X35170Y4570
X40250Y4570
X42790Y4570
T9
X57150Y44450
X57150Y34290
X57150Y46990
X67310Y46990
X76200Y59690
X45720Y15240
X45720Y25400
X59690Y66040
X66040Y59690
X59690Y55880
X63500Y88900
X73660Y88900
X63500Y83820
X73660Y83820
X63500Y78740
X73660Y78740
X67310Y53340
X57150Y53340
T10
X10160Y83820
X17780Y86360
X10160Y96520
X77470Y78740
X5080Y99060
X5080Y96520
X5080Y86360
X5080Y88900
X5080Y81280
X80010Y78740
X77470Y83820
X80010Y83820
X17780Y91440
X17780Y93980
X17780Y96520
X10160Y81280
X10160Y78740
X10160Y91440
X10160Y88900
X10160Y93980
X10160Y86360
X17780Y88900
X17780Y78740
X77470Y88900
X80010Y88900
X67310Y40640
X67310Y38100
X21590Y93980
X5080Y83820
X21590Y96520
X5080Y93980
X5080Y91440
X17780Y81280
X17780Y83820
T11
X64770Y71120
X64770Y68580
X64770Y66040
X52070Y12700
X52070Y15240
X52070Y17780
M30