M48
;GenerationSoftware,Autodesk,EAGLE,9.6.2*%
;CreationDate,2020-10-27T06:30:16Z*%
FMAT,2
ICI,OFF
METRIC,TZ,000.000
T2C0.350
T1C3.500
%
G90
M71
T1
X150750Y246500
X112000Y223000
X123250Y178250
X146000Y165000
X136500Y115250
T2
X135810Y216250
X143000Y216250
X146000Y117000
X153250Y121750
X144500Y184000
X99750Y197000
X102250Y193750
X95500Y170750
X120000Y184750
X93000Y210000
X152500Y232500
X89750Y188000
X98000Y182000
X149500Y160000
X149250Y175000
X117000Y167250
X103250Y181750
X121000Y182882
X135500Y182118
X151750Y140750
X150500Y176750
X89250Y182000
X91750Y179500
X98750Y176500
X109750Y178500
X109000Y184000
X108250Y191500
X92500Y190750
X150000Y213000
X152250Y193250
X154190Y242250
X153311Y197250
X145250Y181250
X129750Y181750
X127750Y185750
X151311Y200250
X149500Y186000
M30