M48
;GenerationSoftware,Autodesk,EAGLE,9.5.1*%
;CreationDate,2020-02-25T21:11:17Z*%
FMAT,2
ICI,OFF
METRIC,TZ,000.000
T14C0.350
T13C0.610
T12C0.890
T11C0.900
T10C1.016
T9C1.020
T8C1.170
T7C1.290
T6C1.320
T5C1.500
T4C1.524
T3C1.630
T2C2.540
T1C3.250
%
G90
M71
T1
X86360Y64135
X86360Y75565
T2
X3810Y3810
X3810Y96520
X92710Y96520
X92710Y3810
T3
X83310Y77595
X83310Y62105
T4
X10160Y11430
X20320Y11430
X25400Y11430
X86360Y7620
X86360Y12700
X86360Y17780
X33020Y11430
X38100Y11430
X86360Y90170
X81280Y90170
X55880Y11430
X60960Y11430
X11430Y36830
X11430Y31750
X11430Y26670
X11430Y21590
X48260Y11430
X43180Y11430
X15240Y11430
T5
X77470Y50640
T6
X79760Y18700
X79760Y6700
X67560Y6700
X67560Y18700
T7
X65560Y12700
T8
X77470Y30640
T9
X91260Y65765
X91260Y76475
X91260Y73935
X91260Y63225
T10
X6350Y55880
X6350Y86360
X6350Y49530
X6350Y46990
X6350Y44450
X6350Y41910
X6350Y93980
X6350Y91440
X6350Y88900
X6350Y83820
X6350Y81280
X6350Y78740
X6350Y76200
X6350Y73660
X6350Y71120
X6350Y68580
X6350Y66040
X6350Y63500
X6350Y60960
X6350Y58420
T11
X45380Y93980
X40980Y93980
T12
X80010Y67940
X77470Y69210
X80010Y70480
X77470Y71750
X80010Y73020
X77470Y74290
X80010Y65400
X77470Y66670
T13
X73660Y82550
X68580Y82550
T14
X50800Y81121
X49689Y82233
X41910Y88741
X43815Y88741
X46672Y83026
X38735Y38418
X23495Y42545
X63500Y87471
X59690Y48577
X63976Y85090
X38100Y75565
X36354Y79058
X46355Y80963
X43339Y24924
X39529Y24924
X44291Y34608
X65087Y29051
X57626Y83820
X37783Y44767
X47149Y24924
X40640Y32702
X39370Y32702
X40005Y42386
X51594Y53975
X57785Y47784
X63817Y63817
X62865Y64770
X32544Y37306
X66834Y30639
X55880Y36989
X66040Y38100
X65723Y34449
X30480Y36036
X32226Y42228
X44450Y86360
X34290Y71120
X43021Y46355
X25241Y36354
X64611Y58896
X68421Y70485
X69056Y73025
X67628Y72390
X68263Y60325
X41910Y73660
X22066Y52070
X34925Y75089
X37941Y69691
X78899Y76518
X67469Y61595
X88582Y68104
X48419Y74295
X38418Y77629
X69215Y64770
X52546Y54769
X33655Y93980
X75248Y31432
X48419Y48419
X53816Y9684
X37783Y55562
X56515Y47466
X51594Y52864
X41275Y42228
X55562Y95567
X55562Y89852
X41275Y76518
X45085Y80963
X38418Y82233
X86043Y68104
M30