G04 EAGLE Gerber RS-274X export*
G75*
%MOMM*%
%FSLAX34Y34*%
%LPD*%
%INTop Copper*%
%IPPOS*%
%AMOC8*
5,1,8,0,0,1.08239X$1,22.5*%
G01*
%ADD10R,1.600000X1.300000*%
%ADD11R,1.800000X1.700000*%
%ADD12R,1.270000X2.540000*%
%ADD13R,0.800000X0.900000*%
%ADD14R,1.300000X1.600000*%
%ADD15R,1.450000X2.100000*%
%ADD16R,1.500000X1.500000*%
%ADD17R,1.500000X1.300000*%
%ADD18C,0.295000*%
%ADD19R,1.200000X2.000000*%
%ADD20R,1.700000X1.100000*%
%ADD21C,0.139500*%
%ADD22C,0.196500*%
%ADD23R,1.400000X0.400000*%
%ADD24R,1.900000X1.800000*%
%ADD25R,1.900000X2.300000*%
%ADD26R,1.700000X1.800000*%
%ADD27R,0.900000X0.800000*%
%ADD28R,1.300000X1.500000*%
%ADD29R,1.600000X2.190000*%
%ADD30R,1.600000X2.180000*%
%ADD31R,10.000000X10.000000*%
%ADD32R,2.000000X2.000000*%
%ADD33R,2.500000X3.000000*%
%ADD34R,1.600000X1.600000*%
%ADD35C,4.516000*%
%ADD36C,0.152400*%
%ADD37C,0.756400*%


D10*
X942500Y1807500D03*
X942500Y1827500D03*
X977500Y1735000D03*
X977500Y1715000D03*
X1045000Y1735000D03*
X1045000Y1715000D03*
X1430000Y1170000D03*
X1430000Y1190000D03*
D11*
G36*
X1058357Y1907122D02*
X1045630Y1919849D01*
X1057651Y1931870D01*
X1070378Y1919143D01*
X1058357Y1907122D01*
G37*
G36*
X1087349Y1878130D02*
X1074622Y1890857D01*
X1086643Y1902878D01*
X1099370Y1890151D01*
X1087349Y1878130D01*
G37*
D12*
X1177800Y1856800D03*
X1142800Y1856800D03*
X1107800Y1856800D03*
D13*
G36*
X1027782Y1892639D02*
X1033439Y1886982D01*
X1027076Y1880619D01*
X1021419Y1886276D01*
X1027782Y1892639D01*
G37*
G36*
X1048642Y1900064D02*
X1054299Y1894407D01*
X1047936Y1888044D01*
X1042279Y1893701D01*
X1048642Y1900064D01*
G37*
G36*
X1035207Y1913499D02*
X1040864Y1907842D01*
X1034501Y1901479D01*
X1028844Y1907136D01*
X1035207Y1913499D01*
G37*
D14*
G36*
X853535Y1802222D02*
X844342Y1793029D01*
X833029Y1804342D01*
X842222Y1813535D01*
X853535Y1802222D01*
G37*
G36*
X866971Y1815658D02*
X857778Y1806465D01*
X846465Y1817778D01*
X855658Y1826971D01*
X866971Y1815658D01*
G37*
D10*
X997500Y1734500D03*
X997500Y1715500D03*
X1025000Y1734500D03*
X1025000Y1715500D03*
D14*
G36*
X1076978Y1874935D02*
X1086171Y1865742D01*
X1074858Y1854429D01*
X1065665Y1863622D01*
X1076978Y1874935D01*
G37*
G36*
X1063542Y1888371D02*
X1072735Y1879178D01*
X1061422Y1867865D01*
X1052229Y1877058D01*
X1063542Y1888371D01*
G37*
D10*
X860000Y1862000D03*
X860000Y1843000D03*
X1402500Y1192000D03*
X1402500Y1173000D03*
X885000Y1843000D03*
X885000Y1862000D03*
D15*
X830600Y1708900D03*
X830600Y1772400D03*
D16*
X934000Y1684500D03*
X884000Y1684500D03*
X934000Y1765500D03*
X884000Y1765500D03*
X1086000Y1765500D03*
X1136000Y1765500D03*
X1086000Y1684500D03*
X1136000Y1684500D03*
D17*
X1462300Y1223300D03*
X1462300Y1242300D03*
D18*
X968175Y1785225D02*
X968175Y1801775D01*
X968175Y1785225D02*
X965225Y1785225D01*
X965225Y1801775D01*
X968175Y1801775D01*
X968175Y1788027D02*
X965225Y1788027D01*
X965225Y1790829D02*
X968175Y1790829D01*
X968175Y1793631D02*
X965225Y1793631D01*
X965225Y1796433D02*
X968175Y1796433D01*
X968175Y1799235D02*
X965225Y1799235D01*
X980875Y1801775D02*
X980875Y1785225D01*
X977925Y1785225D01*
X977925Y1801775D01*
X980875Y1801775D01*
X980875Y1788027D02*
X977925Y1788027D01*
X977925Y1790829D02*
X980875Y1790829D01*
X980875Y1793631D02*
X977925Y1793631D01*
X977925Y1796433D02*
X980875Y1796433D01*
X980875Y1799235D02*
X977925Y1799235D01*
X993575Y1801775D02*
X993575Y1785225D01*
X990625Y1785225D01*
X990625Y1801775D01*
X993575Y1801775D01*
X993575Y1788027D02*
X990625Y1788027D01*
X990625Y1790829D02*
X993575Y1790829D01*
X993575Y1793631D02*
X990625Y1793631D01*
X990625Y1796433D02*
X993575Y1796433D01*
X993575Y1799235D02*
X990625Y1799235D01*
X1006275Y1801775D02*
X1006275Y1785225D01*
X1003325Y1785225D01*
X1003325Y1801775D01*
X1006275Y1801775D01*
X1006275Y1788027D02*
X1003325Y1788027D01*
X1003325Y1790829D02*
X1006275Y1790829D01*
X1006275Y1793631D02*
X1003325Y1793631D01*
X1003325Y1796433D02*
X1006275Y1796433D01*
X1006275Y1799235D02*
X1003325Y1799235D01*
X1018975Y1801775D02*
X1018975Y1785225D01*
X1016025Y1785225D01*
X1016025Y1801775D01*
X1018975Y1801775D01*
X1018975Y1788027D02*
X1016025Y1788027D01*
X1016025Y1790829D02*
X1018975Y1790829D01*
X1018975Y1793631D02*
X1016025Y1793631D01*
X1016025Y1796433D02*
X1018975Y1796433D01*
X1018975Y1799235D02*
X1016025Y1799235D01*
X1031675Y1801775D02*
X1031675Y1785225D01*
X1028725Y1785225D01*
X1028725Y1801775D01*
X1031675Y1801775D01*
X1031675Y1788027D02*
X1028725Y1788027D01*
X1028725Y1790829D02*
X1031675Y1790829D01*
X1031675Y1793631D02*
X1028725Y1793631D01*
X1028725Y1796433D02*
X1031675Y1796433D01*
X1031675Y1799235D02*
X1028725Y1799235D01*
X1044375Y1801775D02*
X1044375Y1785225D01*
X1041425Y1785225D01*
X1041425Y1801775D01*
X1044375Y1801775D01*
X1044375Y1788027D02*
X1041425Y1788027D01*
X1041425Y1790829D02*
X1044375Y1790829D01*
X1044375Y1793631D02*
X1041425Y1793631D01*
X1041425Y1796433D02*
X1044375Y1796433D01*
X1044375Y1799235D02*
X1041425Y1799235D01*
X1044375Y1834825D02*
X1044375Y1851375D01*
X1044375Y1834825D02*
X1041425Y1834825D01*
X1041425Y1851375D01*
X1044375Y1851375D01*
X1044375Y1837627D02*
X1041425Y1837627D01*
X1041425Y1840429D02*
X1044375Y1840429D01*
X1044375Y1843231D02*
X1041425Y1843231D01*
X1041425Y1846033D02*
X1044375Y1846033D01*
X1044375Y1848835D02*
X1041425Y1848835D01*
X1031675Y1851375D02*
X1031675Y1834825D01*
X1028725Y1834825D01*
X1028725Y1851375D01*
X1031675Y1851375D01*
X1031675Y1837627D02*
X1028725Y1837627D01*
X1028725Y1840429D02*
X1031675Y1840429D01*
X1031675Y1843231D02*
X1028725Y1843231D01*
X1028725Y1846033D02*
X1031675Y1846033D01*
X1031675Y1848835D02*
X1028725Y1848835D01*
X1018975Y1851375D02*
X1018975Y1834825D01*
X1016025Y1834825D01*
X1016025Y1851375D01*
X1018975Y1851375D01*
X1018975Y1837627D02*
X1016025Y1837627D01*
X1016025Y1840429D02*
X1018975Y1840429D01*
X1018975Y1843231D02*
X1016025Y1843231D01*
X1016025Y1846033D02*
X1018975Y1846033D01*
X1018975Y1848835D02*
X1016025Y1848835D01*
X1006275Y1851375D02*
X1006275Y1834825D01*
X1003325Y1834825D01*
X1003325Y1851375D01*
X1006275Y1851375D01*
X1006275Y1837627D02*
X1003325Y1837627D01*
X1003325Y1840429D02*
X1006275Y1840429D01*
X1006275Y1843231D02*
X1003325Y1843231D01*
X1003325Y1846033D02*
X1006275Y1846033D01*
X1006275Y1848835D02*
X1003325Y1848835D01*
X993575Y1851375D02*
X993575Y1834825D01*
X990625Y1834825D01*
X990625Y1851375D01*
X993575Y1851375D01*
X993575Y1837627D02*
X990625Y1837627D01*
X990625Y1840429D02*
X993575Y1840429D01*
X993575Y1843231D02*
X990625Y1843231D01*
X990625Y1846033D02*
X993575Y1846033D01*
X993575Y1848835D02*
X990625Y1848835D01*
X980875Y1851375D02*
X980875Y1834825D01*
X977925Y1834825D01*
X977925Y1851375D01*
X980875Y1851375D01*
X980875Y1837627D02*
X977925Y1837627D01*
X977925Y1840429D02*
X980875Y1840429D01*
X980875Y1843231D02*
X977925Y1843231D01*
X977925Y1846033D02*
X980875Y1846033D01*
X980875Y1848835D02*
X977925Y1848835D01*
X968175Y1851375D02*
X968175Y1834825D01*
X965225Y1834825D01*
X965225Y1851375D01*
X968175Y1851375D01*
X968175Y1837627D02*
X965225Y1837627D01*
X965225Y1840429D02*
X968175Y1840429D01*
X968175Y1843231D02*
X965225Y1843231D01*
X965225Y1846033D02*
X968175Y1846033D01*
X968175Y1848835D02*
X965225Y1848835D01*
D19*
X1533106Y2238249D03*
X1513106Y2238249D03*
X1493106Y2238249D03*
X1473106Y2238249D03*
X1453106Y2238249D03*
X1433106Y2238249D03*
X1413106Y2238249D03*
X1393106Y2238249D03*
X1393106Y2088249D03*
X1413106Y2088249D03*
X1433106Y2088249D03*
X1453106Y2088249D03*
X1473106Y2088249D03*
X1493106Y2088249D03*
X1513106Y2088249D03*
X1533106Y2088249D03*
D20*
X1378106Y2213249D03*
X1378106Y2193249D03*
X1378106Y2173249D03*
X1378106Y2153249D03*
X1378106Y2133249D03*
X1378106Y2113249D03*
D21*
X1528947Y1194303D02*
X1536853Y1194303D01*
X1536853Y1182597D01*
X1528947Y1182597D01*
X1528947Y1194303D01*
X1528947Y1183922D02*
X1536853Y1183922D01*
X1536853Y1185247D02*
X1528947Y1185247D01*
X1528947Y1186572D02*
X1536853Y1186572D01*
X1536853Y1187897D02*
X1528947Y1187897D01*
X1528947Y1189222D02*
X1536853Y1189222D01*
X1536853Y1190547D02*
X1528947Y1190547D01*
X1528947Y1191872D02*
X1536853Y1191872D01*
X1536853Y1193197D02*
X1528947Y1193197D01*
X1513953Y1194303D02*
X1506047Y1194303D01*
X1513953Y1194303D02*
X1513953Y1182597D01*
X1506047Y1182597D01*
X1506047Y1194303D01*
X1506047Y1183922D02*
X1513953Y1183922D01*
X1513953Y1185247D02*
X1506047Y1185247D01*
X1506047Y1186572D02*
X1513953Y1186572D01*
X1513953Y1187897D02*
X1506047Y1187897D01*
X1506047Y1189222D02*
X1513953Y1189222D01*
X1513953Y1190547D02*
X1506047Y1190547D01*
X1506047Y1191872D02*
X1513953Y1191872D01*
X1513953Y1193197D02*
X1506047Y1193197D01*
X1491053Y1194303D02*
X1483147Y1194303D01*
X1491053Y1194303D02*
X1491053Y1182597D01*
X1483147Y1182597D01*
X1483147Y1194303D01*
X1483147Y1183922D02*
X1491053Y1183922D01*
X1491053Y1185247D02*
X1483147Y1185247D01*
X1483147Y1186572D02*
X1491053Y1186572D01*
X1491053Y1187897D02*
X1483147Y1187897D01*
X1483147Y1189222D02*
X1491053Y1189222D01*
X1491053Y1190547D02*
X1483147Y1190547D01*
X1483147Y1191872D02*
X1491053Y1191872D01*
X1491053Y1193197D02*
X1483147Y1193197D01*
D22*
X1494782Y1127118D02*
X1525218Y1127118D01*
X1525218Y1115982D01*
X1494782Y1115982D01*
X1494782Y1127118D01*
X1494782Y1117849D02*
X1525218Y1117849D01*
X1525218Y1119716D02*
X1494782Y1119716D01*
X1494782Y1121583D02*
X1525218Y1121583D01*
X1525218Y1123450D02*
X1494782Y1123450D01*
X1494782Y1125317D02*
X1525218Y1125317D01*
D23*
X1507500Y1037000D03*
X1507500Y1043500D03*
X1507500Y1050000D03*
X1507500Y1056500D03*
X1507500Y1063000D03*
D24*
X1535000Y1061500D03*
X1535000Y1038500D03*
D25*
X1535000Y1087500D03*
X1535000Y1012500D03*
D26*
X1510000Y1217000D03*
X1510000Y1258000D03*
D27*
X1532500Y1817500D03*
X1512500Y1827000D03*
X1512500Y1808000D03*
D28*
X1213000Y1627500D03*
X1232000Y1627500D03*
D10*
X1527500Y2405500D03*
X1527500Y2424500D03*
X1502500Y2405500D03*
X1502500Y2424500D03*
D14*
X1510500Y1880000D03*
X1529500Y1880000D03*
D10*
X1530000Y1765500D03*
X1530000Y1784500D03*
X1352500Y2205000D03*
X1352500Y2185000D03*
D29*
X1525000Y2373400D03*
X1525000Y2281600D03*
D30*
X1522500Y1634000D03*
X1522500Y1726000D03*
D12*
X1225000Y1857500D03*
X1260000Y1857500D03*
X1295000Y1857500D03*
D13*
X925000Y1842500D03*
X934500Y1862500D03*
X915500Y1862500D03*
D14*
X974500Y1880000D03*
X955500Y1880000D03*
D10*
X1487500Y1827000D03*
X1487500Y1808000D03*
D31*
X920000Y2022500D03*
D32*
X920000Y2159500D03*
X920000Y1885500D03*
D14*
G36*
X875682Y1781869D02*
X866489Y1772676D01*
X855176Y1783989D01*
X864369Y1793182D01*
X875682Y1781869D01*
G37*
G36*
X889824Y1796011D02*
X880631Y1786818D01*
X869318Y1798131D01*
X878511Y1807324D01*
X889824Y1796011D01*
G37*
D33*
X1015000Y2248000D03*
X1015000Y2172000D03*
D34*
X1057500Y2252500D03*
X1057500Y2167500D03*
X972500Y2252500D03*
X972500Y2167500D03*
D35*
X1507500Y2465000D03*
X1120000Y2230000D03*
X1232500Y1782500D03*
X1460000Y1650000D03*
X1365000Y1152500D03*
D36*
X879571Y1797071D02*
X859925Y1816718D01*
X856718Y1816718D01*
X860000Y1820000D01*
X860000Y1842500D01*
X860000Y1843000D01*
X977500Y1715000D02*
X997000Y1715000D01*
X997500Y1715500D01*
X1025000Y1715500D01*
X1044500Y1715500D01*
X1045000Y1715000D01*
X1525000Y2325000D02*
X1525000Y2373400D01*
D37*
X1358100Y2162500D03*
D36*
X1358100Y2179400D01*
X1352500Y2185000D01*
X1393106Y2088249D02*
X1413106Y2088249D01*
X1413106Y2143106D01*
X1432500Y2162500D01*
X1430000Y2162500D01*
D37*
X1430000Y2162500D03*
D36*
X1413106Y2088249D02*
X1412271Y2087414D01*
X1412271Y2074914D01*
X1495080Y1992104D01*
X1535000Y1186350D02*
X1535000Y1087500D01*
X1535000Y1186350D02*
X1532900Y1188450D01*
X1385500Y1173000D02*
X1365000Y1152500D01*
X1385500Y1173000D02*
X1402500Y1173000D01*
X1427000Y1173000D01*
X1430000Y1170000D01*
X1460000Y1170000D01*
D37*
X1460000Y1170000D03*
X1532500Y1217500D03*
D36*
X1532900Y1217100D01*
X1532900Y1188450D01*
X1495080Y1890080D02*
X1495080Y1992104D01*
X1495080Y1890080D02*
X1445000Y1840000D01*
D37*
X1445000Y1840000D03*
D36*
X1476000Y1634000D02*
X1522500Y1634000D01*
X1476000Y1634000D02*
X1460000Y1650000D01*
X1522500Y1634000D02*
X1532500Y1624000D01*
X1532500Y1217500D01*
X1224300Y1856800D02*
X1225000Y1857500D01*
X945000Y2022500D02*
X920000Y2022500D01*
X945000Y2022500D02*
X997500Y1970000D01*
D37*
X997500Y1970000D03*
D36*
X920000Y2022500D02*
X845000Y1947500D01*
X845000Y1850000D01*
X852500Y1842500D01*
X860000Y1842500D01*
X942500Y1827500D02*
X958100Y1843100D01*
X966700Y1843100D01*
X894571Y1797071D02*
X879571Y1797071D01*
X925000Y1827500D02*
X942500Y1827500D01*
X925000Y1827500D02*
X894571Y1797071D01*
D37*
X1022500Y1937500D03*
D36*
X1022500Y1919842D02*
X1034854Y1907489D01*
X977500Y1715000D02*
X962500Y1715000D01*
X955000Y1707500D01*
D37*
X955000Y1707500D03*
D36*
X1177800Y1856800D02*
X1200000Y1856800D01*
X1224300Y1856800D01*
X1200000Y1856800D02*
X1200000Y1847500D01*
D37*
X1200000Y1847500D03*
X930000Y2100000D03*
D36*
X930000Y2032500D01*
X920000Y2022500D01*
D37*
X1525000Y2325000D03*
D36*
X1535000Y1038500D02*
X1535000Y1012500D01*
X1535000Y1038500D02*
X1535000Y1061500D01*
X1510500Y1063000D02*
X1535000Y1087500D01*
X1510500Y1063000D02*
X1507500Y1063000D01*
X1533500Y1063000D01*
X1535000Y1061500D01*
X1022500Y1919842D02*
X1022500Y1937500D01*
X1017500Y1855000D02*
X1017500Y1843100D01*
X1017500Y1855000D02*
X1020000Y1857500D01*
X1050000Y1857500D01*
X1075000Y1832500D02*
X1132500Y1832500D01*
X1142800Y1842800D01*
X1142800Y1856800D01*
X1075000Y1832500D02*
X1050000Y1857500D01*
X830600Y1790600D02*
X830600Y1772400D01*
X830600Y1790600D02*
X843282Y1803282D01*
X863636Y1782929D01*
X865429Y1782929D01*
X889837Y1782929D01*
X923448Y1816540D01*
X979400Y1808100D02*
X979400Y1793500D01*
X970960Y1816540D02*
X923448Y1816540D01*
X970960Y1816540D02*
X979400Y1808100D01*
X885000Y1862000D02*
X860000Y1862000D01*
X885000Y1862000D02*
X885000Y1867500D01*
X897500Y1880000D01*
D37*
X897500Y1880000D03*
X980000Y1820000D03*
D36*
X992100Y1807900D01*
X992100Y1793500D01*
X934000Y1741377D02*
X940377Y1735000D01*
X965000Y1735000D01*
X977500Y1735000D01*
X934000Y1741377D02*
X934000Y1765500D01*
X934000Y1704000D02*
X934000Y1684500D01*
X934000Y1704000D02*
X965000Y1735000D01*
X977500Y1735000D02*
X997000Y1735000D01*
X997500Y1734500D01*
X1005000Y1742000D01*
X1005000Y1793300D02*
X1004800Y1793500D01*
X1005000Y1793300D02*
X1005000Y1742000D01*
X1025000Y1734500D02*
X1044500Y1734500D01*
X1045000Y1735000D01*
X1086000Y1748500D02*
X1086000Y1765500D01*
X1086000Y1748500D02*
X1072500Y1735000D01*
X1045000Y1735000D01*
X1072500Y1698000D02*
X1086000Y1684500D01*
X1072500Y1698000D02*
X1072500Y1735000D01*
X1025000Y1734500D02*
X1017500Y1742000D01*
X1017500Y1793500D01*
X1402500Y1192000D02*
X1428000Y1192000D01*
X1430000Y1190000D01*
X1462300Y1222300D02*
X1462300Y1223300D01*
X1462300Y1222300D02*
X1430000Y1190000D01*
X1439200Y1223300D02*
X1462300Y1223300D01*
X1439200Y1223300D02*
X1432500Y1230000D01*
X1432500Y1245000D01*
X1442500Y1255000D01*
X1477500Y1255000D01*
X1507500Y1285000D01*
X1507500Y1587500D02*
X1495000Y1600000D01*
D37*
X1495000Y1600000D03*
X1492500Y1750000D03*
D36*
X1457420Y1785080D01*
X1507500Y1587500D02*
X1507500Y1285000D01*
X1213000Y1627500D02*
X1212750Y1627750D01*
X1170000Y1670500D01*
X1170000Y1672500D01*
D37*
X1170000Y1672500D03*
X1032500Y1817500D03*
D36*
X1030200Y1819800D01*
X1030200Y1843100D01*
X1236085Y1743915D02*
X1277250Y1785080D01*
X1236085Y1743915D02*
X1236085Y1656415D01*
X1252500Y1640000D01*
X1252500Y1617500D01*
X1245000Y1610000D01*
X1230500Y1610000D01*
X1213000Y1627500D01*
X1277250Y1785080D02*
X1457420Y1785080D01*
X1487500Y1808000D02*
X1473000Y1822500D01*
X1061000Y1825000D02*
X1042900Y1843100D01*
X1210000Y1828822D02*
X1210000Y1825000D01*
D37*
X1210000Y1828822D03*
X1355000Y1821178D03*
D36*
X1356322Y1822500D01*
X1473000Y1822500D01*
X1210000Y1825000D02*
X1061000Y1825000D01*
X884000Y1684500D02*
X855000Y1684500D01*
X830600Y1708900D01*
X830600Y1712100D02*
X884000Y1765500D01*
X830600Y1712100D02*
X830600Y1708900D01*
X1136000Y1684500D02*
X1136000Y1765000D01*
X1136000Y1765500D01*
X921500Y1884000D02*
X920000Y1885500D01*
X921500Y1884000D02*
X925000Y1880500D01*
X925000Y1842500D01*
X1015000Y2172000D02*
X1053000Y2172000D01*
X1057500Y2167500D01*
X932000Y2159500D02*
X920000Y2159500D01*
X932000Y2159500D02*
X965000Y2192500D01*
X994500Y2192500D01*
X1015000Y2172000D01*
X1462300Y1242300D02*
X1494300Y1242300D01*
X1510000Y1258000D01*
X1517500Y1265500D01*
D37*
X1517500Y1407500D03*
X1505000Y1767500D03*
D36*
X1512500Y1775000D01*
X1512500Y1808000D01*
X1517500Y1407500D02*
X1517500Y1265500D01*
X1505000Y1767500D02*
X1482500Y1790000D01*
X1017500Y2062000D02*
X920000Y2159500D01*
X1017500Y2062000D02*
X1017500Y1970000D01*
X933000Y1885500D01*
X920000Y1885500D01*
X1086996Y1890504D02*
X1107800Y1869700D01*
X1107800Y1856800D01*
X886000Y1767500D02*
X884000Y1765500D01*
X886000Y1767500D02*
X912500Y1767500D01*
X942500Y1797500D01*
X942500Y1807500D01*
X956500Y1793500D01*
X966700Y1793500D01*
X925000Y1842500D02*
X902500Y1820000D01*
X892500Y1820000D01*
D37*
X892500Y1820000D03*
X917500Y1795000D03*
D36*
X930000Y1795000D01*
X942500Y1807500D01*
X1136000Y1684500D02*
X1175500Y1684500D01*
X1203750Y1656250D01*
X1232000Y1628000D01*
X1232000Y1627500D01*
X966700Y1773300D02*
X966700Y1793500D01*
X975000Y1765000D02*
X987500Y1765000D01*
D37*
X987500Y1765000D03*
X1097500Y1785000D03*
D36*
X1116000Y1785000D01*
X1136000Y1765000D01*
X975000Y1765000D02*
X966700Y1773300D01*
X1091000Y1840000D02*
X1107800Y1856800D01*
X1091000Y1840000D02*
X1090000Y1840000D01*
D37*
X1090000Y1840000D03*
D36*
X1203750Y1716250D02*
X1203750Y1656250D01*
X1277500Y1790000D02*
X1482500Y1790000D01*
X1277500Y1790000D02*
X1203750Y1716250D01*
X1086996Y1890504D02*
X1082500Y1895000D01*
X1082500Y1915000D01*
D37*
X1082500Y1915000D03*
X925000Y1907500D03*
D36*
X925000Y1887500D01*
X921500Y1884000D01*
X1027429Y1886629D02*
X1027429Y1888920D01*
X1058004Y1919496D01*
X1057500Y2252500D02*
X1015000Y2252500D01*
X1012500Y2255000D01*
X1012500Y2250500D01*
X1015000Y2248000D01*
X1058004Y1944811D02*
X1058004Y1919496D01*
X1058004Y1944811D02*
X1054920Y1947896D01*
X1054920Y2142420D01*
X1075000Y2162500D01*
X1075000Y2210000D01*
X1057500Y2227500D02*
X1057500Y2252500D01*
X1057500Y2227500D02*
X1075000Y2210000D01*
X1048289Y1894054D02*
X1062482Y1879860D01*
X1062482Y1878118D01*
X1493000Y1037000D02*
X1507500Y1037000D01*
X1493000Y1037000D02*
X1485000Y1045000D01*
X1485000Y1186350D01*
X1487100Y1188450D01*
X1510000Y1188450D02*
X1510000Y1121550D01*
X1510000Y1188450D02*
X1510000Y1217000D01*
X1502500Y2424500D02*
X1525000Y2424500D01*
X1527500Y2424500D01*
X1355000Y2207500D02*
X1352500Y2205000D01*
X1355000Y2207500D02*
X1355000Y2222500D01*
X1370749Y2238249D01*
X1393106Y2238249D01*
X1500000Y2131354D01*
X1500000Y2130000D01*
D37*
X1500000Y2130000D03*
D36*
X1530000Y1815000D02*
X1530000Y1784500D01*
X1530000Y1815000D02*
X1532500Y1817500D01*
D37*
X1522500Y1932500D03*
D36*
X1522500Y1892727D01*
X1532500Y1877000D02*
X1532500Y1817500D01*
X1532500Y1877000D02*
X1529500Y1880000D01*
X1529500Y1885727D01*
X1522500Y1892727D01*
D37*
X1541900Y2422500D03*
D36*
X1539900Y2424500D01*
X1527500Y2424500D01*
X1533106Y2088249D02*
X1533106Y1972500D01*
D37*
X1533106Y1972500D03*
X1452500Y1812500D03*
D36*
X1302500Y1812500D01*
X1030200Y1805000D02*
X1030200Y1793500D01*
X1230000Y1820000D02*
X1260000Y1850000D01*
X1260000Y1857500D01*
X1045200Y1820000D02*
X1030200Y1805000D01*
X1045200Y1820000D02*
X1230000Y1820000D01*
X1297500Y1817500D02*
X1302500Y1812500D01*
D37*
X1297500Y1817500D03*
X1277500Y1857500D03*
D36*
X1260000Y1857500D01*
X1453106Y2080749D02*
X1506684Y2027170D01*
X1453106Y2080749D02*
X1453106Y2088249D01*
X1506684Y2027170D02*
X1506684Y1967500D01*
X1530000Y1733500D02*
X1522500Y1726000D01*
X1530000Y1733500D02*
X1530000Y1765500D01*
X1530000Y1766408D01*
X1544920Y1929264D02*
X1506684Y1967500D01*
X1544920Y1781328D02*
X1530000Y1766408D01*
X1544920Y1781328D02*
X1544920Y1929264D01*
X1500882Y2010472D02*
X1433106Y2078249D01*
X1433106Y2088249D01*
X1510742Y1901258D02*
X1510500Y1880000D01*
X1510742Y1901258D02*
X1500882Y1911118D01*
X1500882Y2010472D01*
X1493106Y2238249D02*
X1493106Y2265921D01*
X1505080Y2277896D02*
X1505080Y2382104D01*
X1505080Y2277896D02*
X1493106Y2265921D01*
X1502500Y2384684D02*
X1502500Y2405500D01*
X1502500Y2384684D02*
X1505080Y2382104D01*
X1527500Y2405500D02*
X1544920Y2388080D01*
X1525000Y2281600D02*
X1532500Y2274100D01*
X1532500Y2238854D02*
X1533106Y2238249D01*
X1532500Y2238854D02*
X1532500Y2274100D01*
X1525000Y2281600D02*
X1544920Y2301520D01*
X1544920Y2388080D01*
X896000Y1843000D02*
X885000Y1843000D01*
X896000Y1843000D02*
X915500Y1862500D01*
X934500Y1862500D02*
X938000Y1862500D01*
X955500Y1880000D01*
X1487500Y1827000D02*
X1512500Y1827000D01*
X1513106Y2002500D02*
X1513106Y2088249D01*
D37*
X1513106Y2002500D03*
X1495000Y1860000D03*
D36*
X1462500Y1827500D01*
X1325000Y1827500D02*
X1296250Y1856250D01*
X1295000Y1857500D01*
X1325000Y1827500D02*
X1462500Y1827500D01*
X1064400Y1815000D02*
X1042900Y1793500D01*
X1250000Y1815000D02*
X1263750Y1828750D01*
X1265000Y1830000D01*
X1250000Y1815000D02*
X1064400Y1815000D01*
X1265000Y1830000D02*
X1291250Y1856250D01*
X1296250Y1856250D01*
X980000Y1874500D02*
X974500Y1880000D01*
X980000Y1874500D02*
X980000Y1835000D01*
X979400Y1835600D01*
X979400Y1843100D01*
X997182Y1864682D02*
X1075918Y1864682D01*
X992100Y1859600D02*
X992100Y1843100D01*
X992100Y1859600D02*
X997182Y1864682D01*
M02*
