G04 EAGLE Gerber RS-274X export*
G75*
%MOMM*%
%FSLAX34Y34*%
%LPD*%
%INSolderpaste Top*%
%IPPOS*%
%AMOC8*
5,1,8,0,0,1.08239X$1,22.5*%
G01*
%ADD10R,1.600000X1.300000*%
%ADD11R,1.800000X1.700000*%
%ADD12R,1.270000X2.540000*%
%ADD13R,0.800000X0.900000*%
%ADD14R,1.300000X1.600000*%
%ADD15R,1.450000X2.100000*%
%ADD16R,1.500000X1.500000*%
%ADD17R,1.500000X1.300000*%
%ADD18C,0.295000*%
%ADD19R,1.200000X2.000000*%
%ADD20R,1.700000X1.100000*%
%ADD21C,0.139500*%
%ADD22C,0.196500*%
%ADD23R,1.400000X0.400000*%
%ADD24R,1.900000X1.800000*%
%ADD25R,1.900000X2.300000*%
%ADD26R,1.700000X1.800000*%
%ADD27R,0.900000X0.800000*%
%ADD28R,1.300000X1.500000*%
%ADD29R,1.600000X2.190000*%
%ADD30R,1.600000X2.180000*%
%ADD31R,10.000000X10.000000*%
%ADD32R,2.000000X2.000000*%
%ADD33R,2.500000X3.000000*%
%ADD34R,1.600000X1.600000*%


D10*
X942500Y1807500D03*
X942500Y1827500D03*
X977500Y1735000D03*
X977500Y1715000D03*
X1045000Y1735000D03*
X1045000Y1715000D03*
X1430000Y1170000D03*
X1430000Y1190000D03*
D11*
G36*
X1058357Y1907122D02*
X1045630Y1919849D01*
X1057651Y1931870D01*
X1070378Y1919143D01*
X1058357Y1907122D01*
G37*
G36*
X1087349Y1878130D02*
X1074622Y1890857D01*
X1086643Y1902878D01*
X1099370Y1890151D01*
X1087349Y1878130D01*
G37*
D12*
X1177800Y1856800D03*
X1142800Y1856800D03*
X1107800Y1856800D03*
D13*
G36*
X1027782Y1892639D02*
X1033439Y1886982D01*
X1027076Y1880619D01*
X1021419Y1886276D01*
X1027782Y1892639D01*
G37*
G36*
X1048642Y1900064D02*
X1054299Y1894407D01*
X1047936Y1888044D01*
X1042279Y1893701D01*
X1048642Y1900064D01*
G37*
G36*
X1035207Y1913499D02*
X1040864Y1907842D01*
X1034501Y1901479D01*
X1028844Y1907136D01*
X1035207Y1913499D01*
G37*
D14*
G36*
X853535Y1802222D02*
X844342Y1793029D01*
X833029Y1804342D01*
X842222Y1813535D01*
X853535Y1802222D01*
G37*
G36*
X866971Y1815658D02*
X857778Y1806465D01*
X846465Y1817778D01*
X855658Y1826971D01*
X866971Y1815658D01*
G37*
D10*
X997500Y1734500D03*
X997500Y1715500D03*
X1025000Y1734500D03*
X1025000Y1715500D03*
D14*
G36*
X1076978Y1874935D02*
X1086171Y1865742D01*
X1074858Y1854429D01*
X1065665Y1863622D01*
X1076978Y1874935D01*
G37*
G36*
X1063542Y1888371D02*
X1072735Y1879178D01*
X1061422Y1867865D01*
X1052229Y1877058D01*
X1063542Y1888371D01*
G37*
D10*
X860000Y1862000D03*
X860000Y1843000D03*
X1402500Y1192000D03*
X1402500Y1173000D03*
X885000Y1843000D03*
X885000Y1862000D03*
D15*
X830600Y1708900D03*
X830600Y1772400D03*
D16*
X934000Y1684500D03*
X884000Y1684500D03*
X934000Y1765500D03*
X884000Y1765500D03*
X1086000Y1765500D03*
X1136000Y1765500D03*
X1086000Y1684500D03*
X1136000Y1684500D03*
D17*
X1462300Y1223300D03*
X1462300Y1242300D03*
D18*
X968175Y1785225D02*
X968175Y1801775D01*
X968175Y1785225D02*
X965225Y1785225D01*
X965225Y1801775D01*
X968175Y1801775D01*
X968175Y1788027D02*
X965225Y1788027D01*
X965225Y1790829D02*
X968175Y1790829D01*
X968175Y1793631D02*
X965225Y1793631D01*
X965225Y1796433D02*
X968175Y1796433D01*
X968175Y1799235D02*
X965225Y1799235D01*
X980875Y1801775D02*
X980875Y1785225D01*
X977925Y1785225D01*
X977925Y1801775D01*
X980875Y1801775D01*
X980875Y1788027D02*
X977925Y1788027D01*
X977925Y1790829D02*
X980875Y1790829D01*
X980875Y1793631D02*
X977925Y1793631D01*
X977925Y1796433D02*
X980875Y1796433D01*
X980875Y1799235D02*
X977925Y1799235D01*
X993575Y1801775D02*
X993575Y1785225D01*
X990625Y1785225D01*
X990625Y1801775D01*
X993575Y1801775D01*
X993575Y1788027D02*
X990625Y1788027D01*
X990625Y1790829D02*
X993575Y1790829D01*
X993575Y1793631D02*
X990625Y1793631D01*
X990625Y1796433D02*
X993575Y1796433D01*
X993575Y1799235D02*
X990625Y1799235D01*
X1006275Y1801775D02*
X1006275Y1785225D01*
X1003325Y1785225D01*
X1003325Y1801775D01*
X1006275Y1801775D01*
X1006275Y1788027D02*
X1003325Y1788027D01*
X1003325Y1790829D02*
X1006275Y1790829D01*
X1006275Y1793631D02*
X1003325Y1793631D01*
X1003325Y1796433D02*
X1006275Y1796433D01*
X1006275Y1799235D02*
X1003325Y1799235D01*
X1018975Y1801775D02*
X1018975Y1785225D01*
X1016025Y1785225D01*
X1016025Y1801775D01*
X1018975Y1801775D01*
X1018975Y1788027D02*
X1016025Y1788027D01*
X1016025Y1790829D02*
X1018975Y1790829D01*
X1018975Y1793631D02*
X1016025Y1793631D01*
X1016025Y1796433D02*
X1018975Y1796433D01*
X1018975Y1799235D02*
X1016025Y1799235D01*
X1031675Y1801775D02*
X1031675Y1785225D01*
X1028725Y1785225D01*
X1028725Y1801775D01*
X1031675Y1801775D01*
X1031675Y1788027D02*
X1028725Y1788027D01*
X1028725Y1790829D02*
X1031675Y1790829D01*
X1031675Y1793631D02*
X1028725Y1793631D01*
X1028725Y1796433D02*
X1031675Y1796433D01*
X1031675Y1799235D02*
X1028725Y1799235D01*
X1044375Y1801775D02*
X1044375Y1785225D01*
X1041425Y1785225D01*
X1041425Y1801775D01*
X1044375Y1801775D01*
X1044375Y1788027D02*
X1041425Y1788027D01*
X1041425Y1790829D02*
X1044375Y1790829D01*
X1044375Y1793631D02*
X1041425Y1793631D01*
X1041425Y1796433D02*
X1044375Y1796433D01*
X1044375Y1799235D02*
X1041425Y1799235D01*
X1044375Y1834825D02*
X1044375Y1851375D01*
X1044375Y1834825D02*
X1041425Y1834825D01*
X1041425Y1851375D01*
X1044375Y1851375D01*
X1044375Y1837627D02*
X1041425Y1837627D01*
X1041425Y1840429D02*
X1044375Y1840429D01*
X1044375Y1843231D02*
X1041425Y1843231D01*
X1041425Y1846033D02*
X1044375Y1846033D01*
X1044375Y1848835D02*
X1041425Y1848835D01*
X1031675Y1851375D02*
X1031675Y1834825D01*
X1028725Y1834825D01*
X1028725Y1851375D01*
X1031675Y1851375D01*
X1031675Y1837627D02*
X1028725Y1837627D01*
X1028725Y1840429D02*
X1031675Y1840429D01*
X1031675Y1843231D02*
X1028725Y1843231D01*
X1028725Y1846033D02*
X1031675Y1846033D01*
X1031675Y1848835D02*
X1028725Y1848835D01*
X1018975Y1851375D02*
X1018975Y1834825D01*
X1016025Y1834825D01*
X1016025Y1851375D01*
X1018975Y1851375D01*
X1018975Y1837627D02*
X1016025Y1837627D01*
X1016025Y1840429D02*
X1018975Y1840429D01*
X1018975Y1843231D02*
X1016025Y1843231D01*
X1016025Y1846033D02*
X1018975Y1846033D01*
X1018975Y1848835D02*
X1016025Y1848835D01*
X1006275Y1851375D02*
X1006275Y1834825D01*
X1003325Y1834825D01*
X1003325Y1851375D01*
X1006275Y1851375D01*
X1006275Y1837627D02*
X1003325Y1837627D01*
X1003325Y1840429D02*
X1006275Y1840429D01*
X1006275Y1843231D02*
X1003325Y1843231D01*
X1003325Y1846033D02*
X1006275Y1846033D01*
X1006275Y1848835D02*
X1003325Y1848835D01*
X993575Y1851375D02*
X993575Y1834825D01*
X990625Y1834825D01*
X990625Y1851375D01*
X993575Y1851375D01*
X993575Y1837627D02*
X990625Y1837627D01*
X990625Y1840429D02*
X993575Y1840429D01*
X993575Y1843231D02*
X990625Y1843231D01*
X990625Y1846033D02*
X993575Y1846033D01*
X993575Y1848835D02*
X990625Y1848835D01*
X980875Y1851375D02*
X980875Y1834825D01*
X977925Y1834825D01*
X977925Y1851375D01*
X980875Y1851375D01*
X980875Y1837627D02*
X977925Y1837627D01*
X977925Y1840429D02*
X980875Y1840429D01*
X980875Y1843231D02*
X977925Y1843231D01*
X977925Y1846033D02*
X980875Y1846033D01*
X980875Y1848835D02*
X977925Y1848835D01*
X968175Y1851375D02*
X968175Y1834825D01*
X965225Y1834825D01*
X965225Y1851375D01*
X968175Y1851375D01*
X968175Y1837627D02*
X965225Y1837627D01*
X965225Y1840429D02*
X968175Y1840429D01*
X968175Y1843231D02*
X965225Y1843231D01*
X965225Y1846033D02*
X968175Y1846033D01*
X968175Y1848835D02*
X965225Y1848835D01*
D19*
X1533106Y2238249D03*
X1513106Y2238249D03*
X1493106Y2238249D03*
X1473106Y2238249D03*
X1453106Y2238249D03*
X1433106Y2238249D03*
X1413106Y2238249D03*
X1393106Y2238249D03*
X1393106Y2088249D03*
X1413106Y2088249D03*
X1433106Y2088249D03*
X1453106Y2088249D03*
X1473106Y2088249D03*
X1493106Y2088249D03*
X1513106Y2088249D03*
X1533106Y2088249D03*
D20*
X1378106Y2213249D03*
X1378106Y2193249D03*
X1378106Y2173249D03*
X1378106Y2153249D03*
X1378106Y2133249D03*
X1378106Y2113249D03*
D21*
X1528947Y1194303D02*
X1536853Y1194303D01*
X1536853Y1182597D01*
X1528947Y1182597D01*
X1528947Y1194303D01*
X1528947Y1183922D02*
X1536853Y1183922D01*
X1536853Y1185247D02*
X1528947Y1185247D01*
X1528947Y1186572D02*
X1536853Y1186572D01*
X1536853Y1187897D02*
X1528947Y1187897D01*
X1528947Y1189222D02*
X1536853Y1189222D01*
X1536853Y1190547D02*
X1528947Y1190547D01*
X1528947Y1191872D02*
X1536853Y1191872D01*
X1536853Y1193197D02*
X1528947Y1193197D01*
X1513953Y1194303D02*
X1506047Y1194303D01*
X1513953Y1194303D02*
X1513953Y1182597D01*
X1506047Y1182597D01*
X1506047Y1194303D01*
X1506047Y1183922D02*
X1513953Y1183922D01*
X1513953Y1185247D02*
X1506047Y1185247D01*
X1506047Y1186572D02*
X1513953Y1186572D01*
X1513953Y1187897D02*
X1506047Y1187897D01*
X1506047Y1189222D02*
X1513953Y1189222D01*
X1513953Y1190547D02*
X1506047Y1190547D01*
X1506047Y1191872D02*
X1513953Y1191872D01*
X1513953Y1193197D02*
X1506047Y1193197D01*
X1491053Y1194303D02*
X1483147Y1194303D01*
X1491053Y1194303D02*
X1491053Y1182597D01*
X1483147Y1182597D01*
X1483147Y1194303D01*
X1483147Y1183922D02*
X1491053Y1183922D01*
X1491053Y1185247D02*
X1483147Y1185247D01*
X1483147Y1186572D02*
X1491053Y1186572D01*
X1491053Y1187897D02*
X1483147Y1187897D01*
X1483147Y1189222D02*
X1491053Y1189222D01*
X1491053Y1190547D02*
X1483147Y1190547D01*
X1483147Y1191872D02*
X1491053Y1191872D01*
X1491053Y1193197D02*
X1483147Y1193197D01*
D22*
X1494782Y1127118D02*
X1525218Y1127118D01*
X1525218Y1115982D01*
X1494782Y1115982D01*
X1494782Y1127118D01*
X1494782Y1117849D02*
X1525218Y1117849D01*
X1525218Y1119716D02*
X1494782Y1119716D01*
X1494782Y1121583D02*
X1525218Y1121583D01*
X1525218Y1123450D02*
X1494782Y1123450D01*
X1494782Y1125317D02*
X1525218Y1125317D01*
D23*
X1507500Y1037000D03*
X1507500Y1043500D03*
X1507500Y1050000D03*
X1507500Y1056500D03*
X1507500Y1063000D03*
D24*
X1535000Y1061500D03*
X1535000Y1038500D03*
D25*
X1535000Y1087500D03*
X1535000Y1012500D03*
D26*
X1510000Y1217000D03*
X1510000Y1258000D03*
D27*
X1532500Y1817500D03*
X1512500Y1827000D03*
X1512500Y1808000D03*
D28*
X1213000Y1627500D03*
X1232000Y1627500D03*
D10*
X1527500Y2405500D03*
X1527500Y2424500D03*
X1502500Y2405500D03*
X1502500Y2424500D03*
D14*
X1510500Y1880000D03*
X1529500Y1880000D03*
D10*
X1530000Y1765500D03*
X1530000Y1784500D03*
X1352500Y2205000D03*
X1352500Y2185000D03*
D29*
X1525000Y2373400D03*
X1525000Y2281600D03*
D30*
X1522500Y1634000D03*
X1522500Y1726000D03*
D12*
X1225000Y1857500D03*
X1260000Y1857500D03*
X1295000Y1857500D03*
D13*
X925000Y1842500D03*
X934500Y1862500D03*
X915500Y1862500D03*
D14*
X974500Y1880000D03*
X955500Y1880000D03*
D10*
X1487500Y1827000D03*
X1487500Y1808000D03*
D31*
X920000Y2022500D03*
D32*
X920000Y2159500D03*
X920000Y1885500D03*
D14*
G36*
X875682Y1781869D02*
X866489Y1772676D01*
X855176Y1783989D01*
X864369Y1793182D01*
X875682Y1781869D01*
G37*
G36*
X889824Y1796011D02*
X880631Y1786818D01*
X869318Y1798131D01*
X878511Y1807324D01*
X889824Y1796011D01*
G37*
D33*
X1015000Y2248000D03*
X1015000Y2172000D03*
D34*
X1057500Y2252500D03*
X1057500Y2167500D03*
X972500Y2252500D03*
X972500Y2167500D03*
M02*
