M48
;GenerationSoftware,Autodesk,EAGLE,9.5.2*%
;CreationDate,2020-03-05T21:09:34Z*%
FMAT,2
ICI,OFF
METRIC,TZ,000.000
T15C0.350
T14C0.500
T13C0.610
T12C0.890
T11C1.016
T10C1.020
T9C1.170
T8C1.290
T7C1.320
T6C1.500
T5C1.524
T4C1.630
T3C2.540
T2C3.250
%
G90
M71
T2
X82550Y69215
X82550Y57785
T3
X3810Y3810
X90170Y5080
X3810Y96520
X91440Y96520
T4
X79500Y71245
X79500Y55755
T5
X25400Y11430
X77470Y11430
X20320Y11430
X15240Y11430
X10160Y11430
X83820Y22860
X83820Y27940
X83820Y33020
X83820Y80010
X83820Y74930
X62230Y11430
X67310Y11430
X72390Y11430
X46990Y11430
X41910Y11430
X36830Y11430
X83820Y45720
X83820Y40640
X52070Y11430
T6
X56990Y31750
T7
X63750Y21940
X63750Y33940
X75950Y21940
X75950Y33940
T8
X61750Y27940
T9
X36990Y31750
T10
X87450Y56875
X87450Y59415
X87450Y70125
X87450Y67585
T11
X10160Y30480
X10160Y33020
X10160Y43180
X10160Y40640
X10160Y38100
X10160Y35560
X10160Y45720
X10160Y48260
X10160Y50800
X10160Y53340
X10160Y55880
X10160Y60960
X10160Y19050
X10160Y21590
X10160Y24130
X10160Y26670
X10160Y68580
X10160Y66040
X10160Y63500
X10160Y58420
T12
X76200Y59050
X73660Y60320
X76200Y61590
X73660Y62860
X76200Y64130
X73660Y65400
X76200Y66670
X73660Y67940
T13
X63500Y76200
X58420Y76200
T14
X73400Y95250
X79000Y95250
X76200Y93100
T15
X39370Y54134
X60801Y93027
X60007Y33338
X43180Y54134
X33338Y63024
X69533Y6667
X40640Y67628
X22542Y85725
X28575Y85090
X19526Y78899
X19844Y77946
X20479Y76994
X20479Y75724
X30162Y40005
X18415Y86519
X46037Y94297
X46196Y88741
X60325Y82233
X55721Y90170
X66199Y89217
X70803Y84614
X16986Y93980
X77946Y91122
X50800Y86360
X58579Y94297
X33655Y66834
X16192Y80963
X18574Y78581
X52229Y85725
X42704Y71120
X30480Y92710
X43180Y91440
X71120Y87630
X59214Y85408
X73660Y92710
X21431Y75406
X27305Y90011
X10954Y81439
X59690Y87313
X67310Y71755
X65087Y87313
X18733Y95409
X20796Y45720
X21273Y28257
X26829Y26670
X21749Y24130
X19526Y21749
X21907Y26511
X22225Y71279
X31432Y62071
X22225Y72231
X31750Y63024
X28099Y22860
X42704Y84455
X44767Y72073
X42704Y82550
X54769Y60960
X34290Y61754
X36989Y63817
X39370Y63817
X35560Y54134
X64135Y61119
X57309Y88900
X67786Y89852
X78423Y88582
X63500Y86043
X62230Y85725
X67786Y58896
X67151Y57150
X63341Y61912
X25400Y29051
X67310Y64770
X67945Y66675
X67151Y66040
X47307Y70961
X44132Y81915
X57944Y55880
X28257Y58896
X26035Y22542
M30