G04 EAGLE Gerber RS-274X export*
G75*
%MOMM*%
%FSLAX34Y34*%
%LPD*%
%INSolderpaste Bottom*%
%IPPOS*%
%AMOC8*
5,1,8,0,0,1.08239X$1,22.5*%
G01*
%ADD10R,1.100000X1.000000*%
%ADD11R,0.700000X0.900000*%
%ADD12R,0.900000X0.700000*%
%ADD13R,1.000000X1.100000*%
%ADD14R,0.500000X0.500000*%
%ADD15R,2.400000X1.800000*%
%ADD16R,1.800000X2.400000*%
%ADD17R,0.400000X0.380000*%
%ADD18R,0.800000X0.900000*%
%ADD19R,0.900000X0.800000*%
%ADD20R,1.800000X1.000000*%
%ADD21R,0.600000X0.700000*%
%ADD22R,0.700000X0.600000*%

G36*
X767501Y925477D02*
X767501Y925477D01*
X767502Y925476D01*
X768575Y925582D01*
X768578Y925584D01*
X768580Y925582D01*
X769612Y925895D01*
X769614Y925898D01*
X769616Y925897D01*
X770567Y926406D01*
X770568Y926409D01*
X770571Y926408D01*
X771404Y927092D01*
X771405Y927095D01*
X771408Y927096D01*
X772092Y927929D01*
X772092Y927932D01*
X772094Y927933D01*
X772603Y928884D01*
X772602Y928887D01*
X772605Y928888D01*
X772918Y929920D01*
X772916Y929923D01*
X772918Y929925D01*
X773024Y930998D01*
X773022Y931000D01*
X773024Y931002D01*
X773023Y931002D01*
X773024Y931003D01*
X772886Y932227D01*
X772883Y932229D01*
X772885Y932232D01*
X772478Y933394D01*
X772475Y933396D01*
X772476Y933399D01*
X771821Y934442D01*
X771817Y934443D01*
X771817Y934446D01*
X770946Y935317D01*
X770943Y935317D01*
X770942Y935321D01*
X769899Y935976D01*
X769896Y935975D01*
X769894Y935978D01*
X768732Y936385D01*
X768728Y936384D01*
X768727Y936386D01*
X767503Y936524D01*
X767501Y936523D01*
X767500Y936524D01*
X756500Y936524D01*
X756499Y936523D01*
X756497Y936524D01*
X755273Y936386D01*
X755271Y936383D01*
X755268Y936385D01*
X754106Y935978D01*
X754104Y935975D01*
X754101Y935976D01*
X753058Y935321D01*
X753057Y935317D01*
X753054Y935317D01*
X752183Y934446D01*
X752183Y934443D01*
X752179Y934442D01*
X751524Y933399D01*
X751525Y933396D01*
X751522Y933394D01*
X751115Y932232D01*
X751116Y932228D01*
X751114Y932227D01*
X750976Y931003D01*
X750978Y931000D01*
X750976Y930998D01*
X751082Y929925D01*
X751084Y929922D01*
X751082Y929920D01*
X751395Y928888D01*
X751398Y928886D01*
X751397Y928884D01*
X751906Y927933D01*
X751909Y927932D01*
X751908Y927929D01*
X752592Y927096D01*
X752595Y927095D01*
X752596Y927092D01*
X753429Y926408D01*
X753432Y926408D01*
X753433Y926406D01*
X754384Y925897D01*
X754387Y925898D01*
X754388Y925895D01*
X755420Y925582D01*
X755423Y925584D01*
X755425Y925582D01*
X756498Y925476D01*
X756499Y925477D01*
X756500Y925476D01*
X767500Y925476D01*
X767501Y925477D01*
G37*
G36*
X793501Y946977D02*
X793501Y946977D01*
X793502Y946976D01*
X794575Y947082D01*
X794578Y947084D01*
X794580Y947082D01*
X795612Y947395D01*
X795614Y947398D01*
X795616Y947397D01*
X796567Y947906D01*
X796568Y947909D01*
X796571Y947908D01*
X797404Y948592D01*
X797405Y948595D01*
X797408Y948596D01*
X798092Y949429D01*
X798092Y949432D01*
X798094Y949433D01*
X798603Y950384D01*
X798602Y950387D01*
X798605Y950388D01*
X798918Y951420D01*
X798916Y951423D01*
X798918Y951425D01*
X798922Y951459D01*
X798927Y951507D01*
X798927Y951508D01*
X798931Y951556D01*
X798934Y951580D01*
X798939Y951629D01*
X798943Y951677D01*
X798948Y951726D01*
X798950Y951750D01*
X798951Y951750D01*
X798955Y951798D01*
X798955Y951799D01*
X798960Y951847D01*
X798965Y951895D01*
X798965Y951896D01*
X798967Y951920D01*
X798972Y951968D01*
X798977Y952017D01*
X798982Y952065D01*
X798986Y952114D01*
X798989Y952138D01*
X798993Y952186D01*
X798994Y952186D01*
X798993Y952187D01*
X798998Y952235D01*
X799003Y952283D01*
X799003Y952284D01*
X799005Y952308D01*
X799010Y952356D01*
X799015Y952405D01*
X799020Y952453D01*
X799022Y952477D01*
X799022Y952478D01*
X799024Y952498D01*
X799022Y952500D01*
X799024Y952502D01*
X799023Y952502D01*
X799024Y952503D01*
X798886Y953727D01*
X798883Y953729D01*
X798885Y953732D01*
X798478Y954894D01*
X798475Y954896D01*
X798476Y954899D01*
X797821Y955942D01*
X797817Y955943D01*
X797817Y955946D01*
X796946Y956817D01*
X796943Y956817D01*
X796942Y956821D01*
X795899Y957476D01*
X795896Y957475D01*
X795894Y957478D01*
X794732Y957885D01*
X794728Y957884D01*
X794727Y957886D01*
X793503Y958024D01*
X793501Y958023D01*
X793500Y958024D01*
X786500Y958024D01*
X786499Y958023D01*
X786497Y958024D01*
X785273Y957886D01*
X785271Y957883D01*
X785268Y957885D01*
X784106Y957478D01*
X784104Y957475D01*
X784101Y957476D01*
X783058Y956821D01*
X783057Y956817D01*
X783054Y956817D01*
X782183Y955946D01*
X782183Y955943D01*
X782179Y955942D01*
X781524Y954899D01*
X781525Y954896D01*
X781522Y954894D01*
X781115Y953732D01*
X781116Y953728D01*
X781114Y953727D01*
X781110Y953696D01*
X781105Y953648D01*
X781099Y953599D01*
X781097Y953575D01*
X781091Y953526D01*
X781086Y953478D01*
X781080Y953429D01*
X781078Y953405D01*
X781075Y953381D01*
X781072Y953357D01*
X781067Y953308D01*
X781061Y953260D01*
X781056Y953211D01*
X781053Y953187D01*
X781050Y953163D01*
X781048Y953138D01*
X781042Y953090D01*
X781037Y953041D01*
X781031Y952993D01*
X781028Y952969D01*
X781023Y952920D01*
X781017Y952872D01*
X781012Y952823D01*
X781009Y952799D01*
X781007Y952775D01*
X781004Y952750D01*
X780998Y952702D01*
X780993Y952653D01*
X780987Y952605D01*
X780985Y952581D01*
X780979Y952532D01*
X780976Y952503D01*
X780978Y952500D01*
X780976Y952497D01*
X781114Y951273D01*
X781117Y951271D01*
X781115Y951268D01*
X781522Y950106D01*
X781525Y950104D01*
X781524Y950101D01*
X782179Y949058D01*
X782183Y949057D01*
X782183Y949054D01*
X783054Y948183D01*
X783057Y948183D01*
X783058Y948179D01*
X784101Y947524D01*
X784104Y947525D01*
X784106Y947522D01*
X785268Y947115D01*
X785272Y947116D01*
X785273Y947114D01*
X786497Y946976D01*
X786499Y946977D01*
X786500Y946976D01*
X793500Y946976D01*
X793501Y946977D01*
G37*
G36*
X737501Y946977D02*
X737501Y946977D01*
X737502Y946976D01*
X738575Y947082D01*
X738578Y947084D01*
X738580Y947082D01*
X739612Y947395D01*
X739614Y947398D01*
X739616Y947397D01*
X740567Y947906D01*
X740568Y947909D01*
X740571Y947908D01*
X741404Y948592D01*
X741405Y948595D01*
X741408Y948596D01*
X742092Y949429D01*
X742092Y949432D01*
X742094Y949433D01*
X742603Y950384D01*
X742602Y950387D01*
X742605Y950388D01*
X742918Y951420D01*
X742916Y951423D01*
X742918Y951425D01*
X742922Y951459D01*
X742927Y951507D01*
X742927Y951508D01*
X742931Y951556D01*
X742934Y951580D01*
X742939Y951629D01*
X742943Y951677D01*
X742948Y951726D01*
X742950Y951750D01*
X742951Y951750D01*
X742955Y951798D01*
X742955Y951799D01*
X742960Y951847D01*
X742965Y951895D01*
X742965Y951896D01*
X742967Y951920D01*
X742972Y951968D01*
X742977Y952017D01*
X742982Y952065D01*
X742986Y952114D01*
X742989Y952138D01*
X742993Y952186D01*
X742994Y952186D01*
X742993Y952187D01*
X742998Y952235D01*
X743003Y952283D01*
X743003Y952284D01*
X743005Y952308D01*
X743010Y952356D01*
X743015Y952405D01*
X743020Y952453D01*
X743022Y952477D01*
X743022Y952478D01*
X743024Y952498D01*
X743022Y952500D01*
X743024Y952502D01*
X743023Y952502D01*
X743024Y952503D01*
X742886Y953727D01*
X742883Y953729D01*
X742885Y953732D01*
X742478Y954894D01*
X742475Y954896D01*
X742476Y954899D01*
X741821Y955942D01*
X741817Y955943D01*
X741817Y955946D01*
X740946Y956817D01*
X740943Y956817D01*
X740942Y956821D01*
X739899Y957476D01*
X739896Y957475D01*
X739894Y957478D01*
X738732Y957885D01*
X738728Y957884D01*
X738727Y957886D01*
X737503Y958024D01*
X737501Y958023D01*
X737500Y958024D01*
X730500Y958024D01*
X730499Y958023D01*
X730497Y958024D01*
X729273Y957886D01*
X729271Y957883D01*
X729268Y957885D01*
X728106Y957478D01*
X728104Y957475D01*
X728101Y957476D01*
X727058Y956821D01*
X727057Y956817D01*
X727054Y956817D01*
X726183Y955946D01*
X726183Y955943D01*
X726179Y955942D01*
X725524Y954899D01*
X725525Y954896D01*
X725522Y954894D01*
X725115Y953732D01*
X725116Y953728D01*
X725114Y953727D01*
X725110Y953696D01*
X725105Y953648D01*
X725099Y953599D01*
X725097Y953575D01*
X725091Y953526D01*
X725086Y953478D01*
X725080Y953429D01*
X725078Y953405D01*
X725075Y953381D01*
X725072Y953357D01*
X725067Y953308D01*
X725061Y953260D01*
X725056Y953211D01*
X725053Y953187D01*
X725050Y953163D01*
X725048Y953138D01*
X725042Y953090D01*
X725037Y953041D01*
X725031Y952993D01*
X725028Y952969D01*
X725023Y952920D01*
X725017Y952872D01*
X725012Y952823D01*
X725009Y952799D01*
X725007Y952775D01*
X725004Y952750D01*
X724998Y952702D01*
X724993Y952653D01*
X724987Y952605D01*
X724985Y952581D01*
X724979Y952532D01*
X724976Y952503D01*
X724978Y952500D01*
X724976Y952497D01*
X725114Y951273D01*
X725117Y951271D01*
X725115Y951268D01*
X725522Y950106D01*
X725525Y950104D01*
X725524Y950101D01*
X726179Y949058D01*
X726183Y949057D01*
X726183Y949054D01*
X727054Y948183D01*
X727057Y948183D01*
X727058Y948179D01*
X728101Y947524D01*
X728104Y947525D01*
X728106Y947522D01*
X729268Y947115D01*
X729272Y947116D01*
X729273Y947114D01*
X730497Y946976D01*
X730499Y946977D01*
X730500Y946976D01*
X737500Y946976D01*
X737501Y946977D01*
G37*
%LPC*%
G36*
X756502Y928524D02*
X756502Y928524D01*
X755859Y928609D01*
X755262Y928856D01*
X754750Y929250D01*
X754356Y929762D01*
X754109Y930359D01*
X754024Y931000D01*
X754109Y931641D01*
X754356Y932238D01*
X754750Y932751D01*
X755262Y933144D01*
X755859Y933391D01*
X756502Y933476D01*
X767499Y933476D01*
X768141Y933391D01*
X768738Y933144D01*
X769251Y932751D01*
X769644Y932238D01*
X769891Y931641D01*
X769976Y931000D01*
X769891Y930359D01*
X769644Y929762D01*
X769251Y929250D01*
X768738Y928856D01*
X768141Y928609D01*
X767499Y928524D01*
X756502Y928524D01*
G37*
%LPD*%
%LPC*%
G36*
X730502Y950024D02*
X730502Y950024D01*
X729859Y950109D01*
X729262Y950356D01*
X728750Y950750D01*
X728356Y951262D01*
X728109Y951859D01*
X728024Y952500D01*
X728025Y952502D01*
X728028Y952526D01*
X728031Y952550D01*
X728034Y952574D01*
X728034Y952575D01*
X728037Y952599D01*
X728041Y952623D01*
X728047Y952671D01*
X728047Y952672D01*
X728050Y952696D01*
X728053Y952720D01*
X728057Y952744D01*
X728060Y952768D01*
X728060Y952769D01*
X728063Y952793D01*
X728066Y952817D01*
X728069Y952841D01*
X728073Y952865D01*
X728073Y952866D01*
X728076Y952890D01*
X728079Y952914D01*
X728082Y952938D01*
X728085Y952962D01*
X728085Y952963D01*
X728089Y952987D01*
X728092Y953011D01*
X728095Y953035D01*
X728098Y953059D01*
X728098Y953060D01*
X728101Y953084D01*
X728104Y953108D01*
X728105Y953108D01*
X728108Y953132D01*
X728109Y953141D01*
X728356Y953738D01*
X728750Y954251D01*
X729262Y954644D01*
X729859Y954891D01*
X730502Y954976D01*
X737499Y954976D01*
X738141Y954891D01*
X738738Y954644D01*
X739251Y954251D01*
X739644Y953738D01*
X739891Y953141D01*
X739976Y952500D01*
X739973Y952484D01*
X739970Y952459D01*
X739967Y952435D01*
X739964Y952411D01*
X739961Y952387D01*
X739957Y952362D01*
X739954Y952338D01*
X739951Y952314D01*
X739948Y952290D01*
X739945Y952265D01*
X739941Y952241D01*
X739938Y952217D01*
X739935Y952193D01*
X739932Y952168D01*
X739929Y952144D01*
X739926Y952120D01*
X739925Y952120D01*
X739926Y952120D01*
X739922Y952096D01*
X739919Y952071D01*
X739916Y952047D01*
X739913Y952023D01*
X739910Y951999D01*
X739906Y951974D01*
X739903Y951950D01*
X739900Y951926D01*
X739897Y951902D01*
X739894Y951877D01*
X739891Y951859D01*
X739644Y951262D01*
X739251Y950750D01*
X738738Y950356D01*
X738141Y950109D01*
X737499Y950024D01*
X730502Y950024D01*
G37*
%LPD*%
%LPC*%
G36*
X786502Y950024D02*
X786502Y950024D01*
X785859Y950109D01*
X785262Y950356D01*
X784750Y950750D01*
X784356Y951262D01*
X784109Y951859D01*
X784024Y952500D01*
X784025Y952502D01*
X784028Y952526D01*
X784031Y952550D01*
X784034Y952574D01*
X784034Y952575D01*
X784037Y952599D01*
X784041Y952623D01*
X784047Y952671D01*
X784047Y952672D01*
X784050Y952696D01*
X784053Y952720D01*
X784057Y952744D01*
X784060Y952768D01*
X784060Y952769D01*
X784063Y952793D01*
X784066Y952817D01*
X784069Y952841D01*
X784073Y952865D01*
X784073Y952866D01*
X784076Y952890D01*
X784079Y952914D01*
X784082Y952938D01*
X784085Y952962D01*
X784085Y952963D01*
X784089Y952987D01*
X784092Y953011D01*
X784095Y953035D01*
X784098Y953059D01*
X784098Y953060D01*
X784101Y953084D01*
X784104Y953108D01*
X784105Y953108D01*
X784108Y953132D01*
X784109Y953141D01*
X784356Y953738D01*
X784750Y954251D01*
X785262Y954644D01*
X785859Y954891D01*
X786502Y954976D01*
X793499Y954976D01*
X794141Y954891D01*
X794738Y954644D01*
X795251Y954251D01*
X795644Y953738D01*
X795891Y953141D01*
X795976Y952500D01*
X795973Y952484D01*
X795970Y952459D01*
X795967Y952435D01*
X795964Y952411D01*
X795961Y952387D01*
X795957Y952362D01*
X795954Y952338D01*
X795951Y952314D01*
X795948Y952290D01*
X795945Y952265D01*
X795941Y952241D01*
X795938Y952217D01*
X795935Y952193D01*
X795932Y952168D01*
X795929Y952144D01*
X795926Y952120D01*
X795925Y952120D01*
X795926Y952120D01*
X795922Y952096D01*
X795919Y952071D01*
X795916Y952047D01*
X795913Y952023D01*
X795910Y951999D01*
X795906Y951974D01*
X795903Y951950D01*
X795900Y951926D01*
X795897Y951902D01*
X795894Y951877D01*
X795891Y951859D01*
X795644Y951262D01*
X795251Y950750D01*
X794738Y950356D01*
X794141Y950109D01*
X793499Y950024D01*
X786502Y950024D01*
G37*
%LPD*%
D10*
X110100Y787400D03*
X93100Y787400D03*
D11*
X463400Y876300D03*
X476400Y876300D03*
X184300Y876300D03*
X171300Y876300D03*
X311300Y342900D03*
X298300Y342900D03*
X311300Y317500D03*
X298300Y317500D03*
X705000Y774700D03*
X692000Y774700D03*
D12*
X800100Y654200D03*
X800100Y641200D03*
D11*
X705000Y800100D03*
X692000Y800100D03*
D10*
X287900Y914400D03*
X270900Y914400D03*
D11*
X272900Y889000D03*
X285900Y889000D03*
D13*
X723900Y42300D03*
X723900Y59300D03*
D11*
X184300Y800100D03*
X171300Y800100D03*
X184300Y825500D03*
X171300Y825500D03*
D10*
X110100Y825500D03*
X93100Y825500D03*
D11*
X603400Y609600D03*
X590400Y609600D03*
D12*
X749300Y704700D03*
X749300Y717700D03*
X635000Y730400D03*
X635000Y717400D03*
X584200Y730400D03*
X584200Y717400D03*
D11*
X184300Y965200D03*
X171300Y965200D03*
D14*
X607900Y914400D03*
X585900Y914400D03*
D15*
X152400Y221050D03*
X152400Y261550D03*
D16*
X718750Y317500D03*
X678250Y317500D03*
D17*
X812800Y644890D03*
X812800Y650510D03*
D18*
X177800Y949800D03*
X187300Y929800D03*
X168300Y929800D03*
X469900Y949800D03*
X479400Y929800D03*
X460400Y929800D03*
D19*
X708500Y254000D03*
X688500Y244500D03*
X688500Y263500D03*
D20*
X228600Y279200D03*
X228600Y254200D03*
D19*
X879000Y431800D03*
X899000Y441300D03*
X899000Y422300D03*
D21*
X601900Y889000D03*
X591900Y889000D03*
X487600Y850900D03*
X477600Y850900D03*
X182800Y850900D03*
X172800Y850900D03*
X487600Y825500D03*
X477600Y825500D03*
X601900Y558800D03*
X591900Y558800D03*
D13*
X313300Y190500D03*
X296300Y190500D03*
X313300Y228600D03*
X296300Y228600D03*
X173600Y292100D03*
X156600Y292100D03*
X296300Y266700D03*
X313300Y266700D03*
X194700Y190500D03*
X211700Y190500D03*
D21*
X795100Y876300D03*
X805100Y876300D03*
D13*
X194700Y228600D03*
X211700Y228600D03*
D21*
X487600Y901700D03*
X477600Y901700D03*
X894000Y393700D03*
X884000Y393700D03*
X601900Y812800D03*
X591900Y812800D03*
X591900Y863600D03*
X601900Y863600D03*
X601900Y838200D03*
X591900Y838200D03*
X591900Y787400D03*
X601900Y787400D03*
X894000Y457200D03*
X884000Y457200D03*
D22*
X673100Y55800D03*
X673100Y45800D03*
X698500Y55800D03*
X698500Y45800D03*
X685800Y642700D03*
X685800Y652700D03*
X647700Y55800D03*
X647700Y45800D03*
X355600Y513000D03*
X355600Y503000D03*
X393700Y513000D03*
X393700Y503000D03*
X431800Y513000D03*
X431800Y503000D03*
D10*
X342900Y656200D03*
X342900Y639200D03*
X381000Y656200D03*
X381000Y639200D03*
X419100Y656200D03*
X419100Y639200D03*
D21*
X182800Y901700D03*
X172800Y901700D03*
D22*
X685800Y627300D03*
X685800Y617300D03*
D21*
X591900Y635000D03*
X601900Y635000D03*
X591900Y584200D03*
X601900Y584200D03*
D22*
X736600Y716200D03*
X736600Y706200D03*
X850900Y655400D03*
X850900Y665400D03*
X850900Y614600D03*
X850900Y604600D03*
M02*
