  0
SECTION
  2
HEADER
  9
$ACADVER
  1
AC1009
  9
$FILLMODE
 70
1
  9
$EXTMIN
 10
18.7488
 20
6.2488
 30
0.0000
  9
$EXTMAX
 10
518.7513
 20
365.0013
 30
0.0000
  0
ENDSEC
  0
SECTION
  2
TABLES
  0
TABLE
  2
LTYPE
 70
1
  0
LTYPE
  2
CONTINUOUS
 70
64
  3
Solid line
 72
65
 73
0
 40
0
  0
ENDTAB
  0
TABLE
  2
LAYER
 70
255
  0
LAYER
  2
119
 70
64
 62
190
  6
CONTINUOUS
  0
ENDTAB
  0
ENDSEC
  0
SECTION
  2
BLOCKS
  0
BLOCK
  8
0
  2
RECT
 70
64
 10
0.0000
 20
0.0000
 30
0.0000
  3
RECT
  0
SOLID
  8
0
 10
-0.5000
 20
-0.5000
 30
0.0000
 11
0.5000
 21
-0.5000
 31
0.0000
 12
-0.5000
 22
0.5000
 32
0.0000
 13
0.5000
 23
0.5000
 33
0.0000
  0
ENDBLK
  8
0
  0
BLOCK
  8
0
  2
PIE
 70
64
 10
0.0000
 20
0.0000
 30
0.0000
  3
PIE
  0
POLYLINE
  8
0
 66
1
 10
0.0000
 20
0.0000
 30
0.0000
 40
0.5000
 41
0.5000
 70
0
  0
VERTEX
  8
0
 10
0.0000
 20
-0.2500
 30
0.0000
 42
1.0000
  0
VERTEX
  8
0
 10
0.0000
 20
0.2500
 30
0.0000
 42
1.0000
  0
VERTEX
  8
0
 10
0.0000
 20
-0.2500
 30
0.0000
  0
SEQEND
  8
0
  0
ENDBLK
  8
0
  0
BLOCK
  8
0
  2
OCTAGONP
 70
64
 10
0.0000
 20
0.0000
 30
0.0000
  3
OCTAGONP
  0
POLYLINE
  8
0
 66
1
 10
0.0000
 20
0.0000
 30
0.0000
 40
0.5000
 41
0.5000
 70
0
  0
VERTEX
  8
0
 10
-0.2500
 20
-0.1036
 30
0.0000
  0
VERTEX
  8
0
 10
-0.2500
 20
0.1036
 30
0.0000
  0
VERTEX
  8
0
 10
-0.1036
 20
0.2500
 30
0.0000
  0
VERTEX
  8
0
 10
0.1036
 20
0.2500
 30
0.0000
  0
VERTEX
  8
0
 10
0.2500
 20
0.1036
 30
0.0000
  0
VERTEX
  8
0
 10
0.2500
 20
-0.1036
 30
0.0000
  0
VERTEX
  8
0
 10
0.1036
 20
-0.2500
 30
0.0000
  0
VERTEX
  8
0
 10
-0.1036
 20
-0.2500
 30
0.0000
  0
VERTEX
  8
0
 10
-0.2500
 20
-0.1036
 30
0.0000
  0
VERTEX
  8
0
 10
-0.2500
 20
0.1036
 30
0.0000
  0
SEQEND
  8
0
  0
ENDBLK
  8
0
  0
BLOCK
  8
0
  2
SQUAREP
 70
64
 10
0.0000
 20
0.0000
 30
0.0000
  3
SQUAREP
  0
SOLID
  8
0
 10
-0.5000
 20
-0.5000
 30
0.0000
 11
0.5000
 21
-0.5000
 31
0.0000
 12
-0.5000
 22
0.5000
 32
0.0000
 13
0.5000
 23
0.5000
 33
0.0000
  0
ENDBLK
  8
0
  0
BLOCK
  8
0
  2
ROUNDP
 70
64
 10
0.0000
 20
0.0000
 30
0.0000
  3
ROUNDP
  0
POLYLINE
  8
0
 66
1
 10
0.0000
 20
0.0000
 30
0.0000
 40
0.5000
 41
0.5000
 70
0
  0
VERTEX
  8
0
 10
0.0000
 20
-0.2500
 30
0.0000
 42
1.0000
  0
VERTEX
  8
0
 10
0.0000
 20
0.2500
 30
0.0000
 42
1.0000
  0
VERTEX
  8
0
 10
0.0000
 20
-0.2500
 30
0.0000
  0
SEQEND
  8
0
  0
ENDBLK
  8
0
  0
BLOCK
  8
0
  2
ANNULUSP
 70
64
 10
0.0000
 20
0.0000
 30
0.0000
  3
ANNULUSP
  0
POLYLINE
  8
0
 66
1
 10
0.0000
 20
0.0000
 30
0.0000
 40
0.5000
 41
0.5000
 70
0
  0
VERTEX
  8
0
 10
0.0000
 20
-0.2500
 30
0.0000
 42
1.0000
  0
VERTEX
  8
0
 10
0.0000
 20
0.2500
 30
0.0000
 42
1.0000
  0
VERTEX
  8
0
 10
0.0000
 20
-0.2500
 30
0.0000
  0
SEQEND
  8
0
  0
ENDBLK
  8
0
  0
BLOCK
  8
0
  2
THERMALP
 70
64
 10
0.0000
 20
0.0000
 30
0.0000
  3
THERMALP
  0
POLYLINE
  8
0
 66
1
 10
0.0000
 20
0.0000
 30
0.0000
 40
0.1000
 41
0.1000
 70
0
  0
VERTEX
  8
0
 10
-0.2379
 20
0.4500
 30
0.0000
  0
VERTEX
  8
0
 10
0.2379
 20
0.4500
 30
0.0000
  0
SEQEND
  8
0
  0
POLYLINE
  8
0
 66
1
 10
0.0000
 20
0.0000
 30
0.0000
 40
0.0500
 41
0.0500
 70
0
  0
VERTEX
  8
0
 10
0.2379
 20
0.4250
 30
0.0000
 42
1.0000
  0
VERTEX
  8
0
 10
0.2379
 20
0.4750
 30
0.0000
  0
SEQEND
  8
0
  0
POLYLINE
  8
0
 66
1
 10
0.0000
 20
0.0000
 30
0.0000
 40
0.0500
 41
0.0500
 70
0
  0
VERTEX
  8
0
 10
-0.2379
 20
0.4750
 30
0.0000
 42
1.0000
  0
VERTEX
  8
0
 10
-0.2379
 20
0.4250
 30
0.0000
  0
SEQEND
  8
0
  0
POLYLINE
  8
0
 66
1
 10
0.0000
 20
0.0000
 30
0.0000
 40
0.1000
 41
0.1000
 70
0
  0
VERTEX
  8
0
 10
0.4500
 20
0.2379
 30
0.0000
  0
VERTEX
  8
0
 10
0.4500
 20
-0.2379
 30
0.0000
  0
SEQEND
  8
0
  0
POLYLINE
  8
0
 66
1
 10
0.0000
 20
0.0000
 30
0.0000
 40
0.0500
 41
0.0500
 70
0
  0
VERTEX
  8
0
 10
0.4250
 20
-0.2379
 30
0.0000
 42
1.0000
  0
VERTEX
  8
0
 10
0.4750
 20
-0.2379
 30
0.0000
  0
SEQEND
  8
0
  0
POLYLINE
  8
0
 66
1
 10
0.0000
 20
0.0000
 30
0.0000
 40
0.0500
 41
0.0500
 70
0
  0
VERTEX
  8
0
 10
0.4750
 20
0.2379
 30
0.0000
 42
1.0000
  0
VERTEX
  8
0
 10
0.4250
 20
0.2379
 30
0.0000
  0
SEQEND
  8
0
  0
POLYLINE
  8
0
 66
1
 10
0.0000
 20
0.0000
 30
0.0000
 40
0.1000
 41
0.1000
 70
0
  0
VERTEX
  8
0
 10
0.2379
 20
-0.4500
 30
0.0000
  0
VERTEX
  8
0
 10
-0.2379
 20
-0.4500
 30
0.0000
  0
SEQEND
  8
0
  0
POLYLINE
  8
0
 66
1
 10
0.0000
 20
0.0000
 30
0.0000
 40
0.0500
 41
0.0500
 70
0
  0
VERTEX
  8
0
 10
-0.2379
 20
-0.4250
 30
0.0000
 42
1.0000
  0
VERTEX
  8
0
 10
-0.2379
 20
-0.4750
 30
0.0000
  0
SEQEND
  8
0
  0
POLYLINE
  8
0
 66
1
 10
0.0000
 20
0.0000
 30
0.0000
 40
0.0500
 41
0.0500
 70
0
  0
VERTEX
  8
0
 10
0.2379
 20
-0.4750
 30
0.0000
 42
1.0000
  0
VERTEX
  8
0
 10
0.2379
 20
-0.4250
 30
0.0000
  0
SEQEND
  8
0
  0
POLYLINE
  8
0
 66
1
 10
0.0000
 20
0.0000
 30
0.0000
 40
0.1000
 41
0.1000
 70
0
  0
VERTEX
  8
0
 10
-0.4500
 20
-0.2379
 30
0.0000
  0
VERTEX
  8
0
 10
-0.4500
 20
0.2379
 30
0.0000
  0
SEQEND
  8
0
  0
POLYLINE
  8
0
 66
1
 10
0.0000
 20
0.0000
 30
0.0000
 40
0.0500
 41
0.0500
 70
0
  0
VERTEX
  8
0
 10
-0.4250
 20
0.2379
 30
0.0000
 42
1.0000
  0
VERTEX
  8
0
 10
-0.4750
 20
0.2379
 30
0.0000
  0
SEQEND
  8
0
  0
POLYLINE
  8
0
 66
1
 10
0.0000
 20
0.0000
 30
0.0000
 40
0.0500
 41
0.0500
 70
0
  0
VERTEX
  8
0
 10
-0.4750
 20
-0.2379
 30
0.0000
 42
1.0000
  0
VERTEX
  8
0
 10
-0.4250
 20
-0.2379
 30
0.0000
  0
SEQEND
  8
0
  0
ENDBLK
  8
0
  0
BLOCK
  8
0
  2
OCTAGONV
 70
64
 10
0.0000
 20
0.0000
 30
0.0000
  3
OCTAGONV
  0
POLYLINE
  8
0
 66
1
 10
0.0000
 20
0.0000
 30
0.0000
 40
0.5000
 41
0.5000
 70
0
  0
VERTEX
  8
0
 10
-0.2500
 20
-0.1036
 30
0.0000
  0
VERTEX
  8
0
 10
-0.2500
 20
0.1036
 30
0.0000
  0
VERTEX
  8
0
 10
-0.1036
 20
0.2500
 30
0.0000
  0
VERTEX
  8
0
 10
0.1036
 20
0.2500
 30
0.0000
  0
VERTEX
  8
0
 10
0.2500
 20
0.1036
 30
0.0000
  0
VERTEX
  8
0
 10
0.2500
 20
-0.1036
 30
0.0000
  0
VERTEX
  8
0
 10
0.1036
 20
-0.2500
 30
0.0000
  0
VERTEX
  8
0
 10
-0.1036
 20
-0.2500
 30
0.0000
  0
VERTEX
  8
0
 10
-0.2500
 20
-0.1036
 30
0.0000
  0
VERTEX
  8
0
 10
-0.2500
 20
0.1036
 30
0.0000
  0
SEQEND
  8
0
  0
ENDBLK
  8
0
  0
BLOCK
  8
0
  2
SQUAREV
 70
64
 10
0.0000
 20
0.0000
 30
0.0000
  3
SQUAREV
  0
SOLID
  8
0
 10
-0.5000
 20
-0.5000
 30
0.0000
 11
0.5000
 21
-0.5000
 31
0.0000
 12
-0.5000
 22
0.5000
 32
0.0000
 13
0.5000
 23
0.5000
 33
0.0000
  0
ENDBLK
  8
0
  0
BLOCK
  8
0
  2
ROUNDV
 70
64
 10
0.0000
 20
0.0000
 30
0.0000
  3
ROUNDV
  0
POLYLINE
  8
0
 66
1
 10
0.0000
 20
0.0000
 30
0.0000
 40
0.5000
 41
0.5000
 70
0
  0
VERTEX
  8
0
 10
0.0000
 20
-0.2500
 30
0.0000
 42
1.0000
  0
VERTEX
  8
0
 10
0.0000
 20
0.2500
 30
0.0000
 42
1.0000
  0
VERTEX
  8
0
 10
0.0000
 20
-0.2500
 30
0.0000
  0
SEQEND
  8
0
  0
ENDBLK
  8
0
  0
BLOCK
  8
0
  2
ANNULUSV
 70
64
 10
0.0000
 20
0.0000
 30
0.0000
  3
ANNULUSV
  0
POLYLINE
  8
0
 66
1
 10
0.0000
 20
0.0000
 30
0.0000
 40
0.5000
 41
0.5000
 70
0
  0
VERTEX
  8
0
 10
0.0000
 20
-0.2500
 30
0.0000
 42
1.0000
  0
VERTEX
  8
0
 10
0.0000
 20
0.2500
 30
0.0000
 42
1.0000
  0
VERTEX
  8
0
 10
0.0000
 20
-0.2500
 30
0.0000
  0
SEQEND
  8
0
  0
ENDBLK
  8
0
  0
BLOCK
  8
0
  2
THERMALV
 70
64
 10
0.0000
 20
0.0000
 30
0.0000
  3
THERMALV
  0
POLYLINE
  8
0
 66
1
 10
0.0000
 20
0.0000
 30
0.0000
 40
0.1000
 41
0.1000
 70
0
  0
VERTEX
  8
0
 10
-0.2379
 20
0.4500
 30
0.0000
  0
VERTEX
  8
0
 10
0.2379
 20
0.4500
 30
0.0000
  0
SEQEND
  8
0
  0
POLYLINE
  8
0
 66
1
 10
0.0000
 20
0.0000
 30
0.0000
 40
0.0500
 41
0.0500
 70
0
  0
VERTEX
  8
0
 10
0.2379
 20
0.4250
 30
0.0000
 42
1.0000
  0
VERTEX
  8
0
 10
0.2379
 20
0.4750
 30
0.0000
  0
SEQEND
  8
0
  0
POLYLINE
  8
0
 66
1
 10
0.0000
 20
0.0000
 30
0.0000
 40
0.0500
 41
0.0500
 70
0
  0
VERTEX
  8
0
 10
-0.2379
 20
0.4750
 30
0.0000
 42
1.0000
  0
VERTEX
  8
0
 10
-0.2379
 20
0.4250
 30
0.0000
  0
SEQEND
  8
0
  0
POLYLINE
  8
0
 66
1
 10
0.0000
 20
0.0000
 30
0.0000
 40
0.1000
 41
0.1000
 70
0
  0
VERTEX
  8
0
 10
0.4500
 20
0.2379
 30
0.0000
  0
VERTEX
  8
0
 10
0.4500
 20
-0.2379
 30
0.0000
  0
SEQEND
  8
0
  0
POLYLINE
  8
0
 66
1
 10
0.0000
 20
0.0000
 30
0.0000
 40
0.0500
 41
0.0500
 70
0
  0
VERTEX
  8
0
 10
0.4250
 20
-0.2379
 30
0.0000
 42
1.0000
  0
VERTEX
  8
0
 10
0.4750
 20
-0.2379
 30
0.0000
  0
SEQEND
  8
0
  0
POLYLINE
  8
0
 66
1
 10
0.0000
 20
0.0000
 30
0.0000
 40
0.0500
 41
0.0500
 70
0
  0
VERTEX
  8
0
 10
0.4750
 20
0.2379
 30
0.0000
 42
1.0000
  0
VERTEX
  8
0
 10
0.4250
 20
0.2379
 30
0.0000
  0
SEQEND
  8
0
  0
POLYLINE
  8
0
 66
1
 10
0.0000
 20
0.0000
 30
0.0000
 40
0.1000
 41
0.1000
 70
0
  0
VERTEX
  8
0
 10
0.2379
 20
-0.4500
 30
0.0000
  0
VERTEX
  8
0
 10
-0.2379
 20
-0.4500
 30
0.0000
  0
SEQEND
  8
0
  0
POLYLINE
  8
0
 66
1
 10
0.0000
 20
0.0000
 30
0.0000
 40
0.0500
 41
0.0500
 70
0
  0
VERTEX
  8
0
 10
-0.2379
 20
-0.4250
 30
0.0000
 42
1.0000
  0
VERTEX
  8
0
 10
-0.2379
 20
-0.4750
 30
0.0000
  0
SEQEND
  8
0
  0
POLYLINE
  8
0
 66
1
 10
0.0000
 20
0.0000
 30
0.0000
 40
0.0500
 41
0.0500
 70
0
  0
VERTEX
  8
0
 10
0.2379
 20
-0.4750
 30
0.0000
 42
1.0000
  0
VERTEX
  8
0
 10
0.2379
 20
-0.4250
 30
0.0000
  0
SEQEND
  8
0
  0
POLYLINE
  8
0
 66
1
 10
0.0000
 20
0.0000
 30
0.0000
 40
0.1000
 41
0.1000
 70
0
  0
VERTEX
  8
0
 10
-0.4500
 20
-0.2379
 30
0.0000
  0
VERTEX
  8
0
 10
-0.4500
 20
0.2379
 30
0.0000
  0
SEQEND
  8
0
  0
POLYLINE
  8
0
 66
1
 10
0.0000
 20
0.0000
 30
0.0000
 40
0.0500
 41
0.0500
 70
0
  0
VERTEX
  8
0
 10
-0.4250
 20
0.2379
 30
0.0000
 42
1.0000
  0
VERTEX
  8
0
 10
-0.4750
 20
0.2379
 30
0.0000
  0
SEQEND
  8
0
  0
POLYLINE
  8
0
 66
1
 10
0.0000
 20
0.0000
 30
0.0000
 40
0.0500
 41
0.0500
 70
0
  0
VERTEX
  8
0
 10
-0.4750
 20
-0.2379
 30
0.0000
 42
1.0000
  0
VERTEX
  8
0
 10
-0.4250
 20
-0.2379
 30
0.0000
  0
SEQEND
  8
0
  0
ENDBLK
  8
0
  0
ENDSEC
  0
SECTION
  2
ENTITIES
  0
LINE
  8
119
 10
496.2500
 20
12.5000
 30
0.0000
 11
496.2500
 21
42.5000
 31
0.0000
  0
LINE
  8
119
 10
287.5000
 20
42.5000
 30
0.0000
 11
431.2500
 21
42.5000
 31
0.0000
  0
LINE
  8
119
 10
431.2500
 20
42.5000
 30
0.0000
 11
512.5000
 21
42.5000
 31
0.0000
  0
LINE
  8
119
 10
361.8750
 20
35.0000
 30
0.0000
 11
337.5000
 21
35.0000
 31
0.0000
  0
LINE
  8
119
 10
337.5000
 20
35.0000
 30
0.0000
 11
300.0000
 21
35.0000
 31
0.0000
  0
LINE
  8
119
 10
300.0000
 20
35.0000
 30
0.0000
 11
287.5000
 21
35.0000
 31
0.0000
  0
LINE
  8
119
 10
400.0000
 20
27.5000
 30
0.0000
 11
400.0000
 21
12.5000
 31
0.0000
  0
LINE
  8
119
 10
361.8750
 20
70.2081
 30
0.0000
 11
361.8750
 21
50.0000
 31
0.0000
  0
LINE
  8
119
 10
361.8750
 20
50.0000
 30
0.0000
 11
361.8750
 21
27.5000
 31
0.0000
  0
LINE
  8
119
 10
361.8750
 20
27.5000
 30
0.0000
 11
361.8750
 21
12.5000
 31
0.0000
  0
LINE
  8
119
 10
337.5000
 20
35.0000
 30
0.0000
 11
337.5000
 21
70.2081
 31
0.0000
  0
LINE
  8
119
 10
361.8750
 20
50.0000
 30
0.0000
 11
287.5000
 21
50.0000
 31
0.0000
  0
LINE
  8
119
 10
431.2500
 20
70.2081
 30
0.0000
 11
431.2500
 21
57.5000
 31
0.0000
  0
LINE
  8
119
 10
287.5000
 20
57.5000
 30
0.0000
 11
473.7500
 21
57.5000
 31
0.0000
  0
LINE
  8
119
 10
473.7500
 20
57.5000
 30
0.0000
 11
496.2500
 21
57.5000
 31
0.0000
  0
LINE
  8
119
 10
496.2500
 20
57.5000
 30
0.0000
 11
512.5000
 21
57.5000
 31
0.0000
  0
LINE
  8
119
 10
431.2500
 20
12.5000
 30
0.0000
 11
431.2500
 21
12.4980
 31
0.0000
  0
LINE
  8
119
 10
287.5000
 20
12.5000
 30
0.0000
 11
331.2500
 21
12.5000
 31
0.0000
  0
LINE
  8
119
 10
331.2500
 20
12.5000
 30
0.0000
 11
393.7500
 21
12.5000
 31
0.0000
  0
LINE
  8
119
 10
393.7500
 20
12.5000
 30
0.0000
 11
431.2500
 21
12.5000
 31
0.0000
  0
LINE
  8
119
 10
431.2500
 20
12.5000
 30
0.0000
 11
456.2500
 21
12.5000
 31
0.0000
  0
LINE
  8
119
 10
456.2500
 20
12.5000
 30
0.0000
 11
512.5000
 21
12.5000
 31
0.0000
  0
LINE
  8
119
 10
473.7500
 20
57.5000
 30
0.0000
 11
473.7500
 21
70.2081
 31
0.0000
  0
LINE
  8
119
 10
361.8750
 20
27.5000
 30
0.0000
 11
512.5000
 21
27.5000
 31
0.0000
  0
LINE
  8
119
 10
431.2500
 20
42.5000
 30
0.0000
 11
431.2500
 21
12.5000
 31
0.0000
  0
LINE
  8
119
 10
300.0000
 20
70.2081
 30
0.0000
 11
300.0000
 21
35.0000
 31
0.0000
  0
LINE
  8
119
 10
496.2500
 20
57.5000
 30
0.0000
 11
496.2500
 21
70.2081
 31
0.0000
  0
LINE
  8
119
 10
504.3347
 20
38.1383
 30
0.0000
 11
504.3347
 21
31.8617
 31
0.0000
  0
LINE
  8
119
 10
511.0114
 20
36.4780
 30
0.0000
 11
511.0114
 21
33.5220
 31
0.0000
  0
LINE
  8
119
 10
511.0114
 20
33.5220
 30
0.0000
 11
504.3347
 21
31.8617
 31
0.0000
  0
LINE
  8
119
 10
511.0114
 20
36.4780
 30
0.0000
 11
504.3347
 21
38.1383
 31
0.0000
  0
LINE
  8
119
 10
501.0219
 20
39.1344
 30
0.0000
 11
501.0219
 21
30.8656
 31
0.0000
  0
LINE
  8
119
 10
498.4840
 20
35.0000
 30
0.0000
 11
511.5026
 21
35.0000
 31
0.0000
  0
LINE
  8
119
 10
512.5000
 20
70.2081
 30
0.0000
 11
287.5000
 21
70.2081
 31
0.0000
  0
LINE
  8
119
 10
287.5000
 20
12.5000
 30
0.0000
 11
287.5000
 21
70.2081
 31
0.0000
  0
LINE
  8
119
 10
25.0000
 20
12.5000
 30
0.0000
 11
25.0000
 21
60.6250
 31
0.0000
  0
LINE
  8
119
 10
25.0000
 20
60.6250
 30
0.0000
 11
25.0000
 21
123.1250
 31
0.0000
  0
LINE
  8
119
 10
25.0000
 20
123.1250
 30
0.0000
 11
25.0000
 21
185.6250
 31
0.0000
  0
LINE
  8
119
 10
25.0000
 20
185.6250
 30
0.0000
 11
25.0000
 21
248.1250
 31
0.0000
  0
LINE
  8
119
 10
25.0000
 20
248.1250
 30
0.0000
 11
25.0000
 21
310.6250
 31
0.0000
  0
LINE
  8
119
 10
25.0000
 20
310.6250
 30
0.0000
 11
25.0000
 21
358.7500
 31
0.0000
  0
LINE
  8
119
 10
25.0000
 20
358.7500
 30
0.0000
 11
81.2500
 21
358.7500
 31
0.0000
  0
LINE
  8
119
 10
81.2500
 20
358.7500
 30
0.0000
 11
143.7500
 21
358.7500
 31
0.0000
  0
LINE
  8
119
 10
143.7500
 20
358.7500
 30
0.0000
 11
206.2500
 21
358.7500
 31
0.0000
  0
LINE
  8
119
 10
206.2500
 20
358.7500
 30
0.0000
 11
268.7500
 21
358.7500
 31
0.0000
  0
LINE
  8
119
 10
268.7500
 20
358.7500
 30
0.0000
 11
331.2500
 21
358.7500
 31
0.0000
  0
LINE
  8
119
 10
331.2500
 20
358.7500
 30
0.0000
 11
393.7500
 21
358.7500
 31
0.0000
  0
LINE
  8
119
 10
393.7500
 20
358.7500
 30
0.0000
 11
456.2500
 21
358.7500
 31
0.0000
  0
LINE
  8
119
 10
456.2500
 20
358.7500
 30
0.0000
 11
512.5000
 21
358.7500
 31
0.0000
  0
LINE
  8
119
 10
512.5000
 20
358.7500
 30
0.0000
 11
512.5000
 21
310.6250
 31
0.0000
  0
LINE
  8
119
 10
512.5000
 20
310.6250
 30
0.0000
 11
512.5000
 21
248.1250
 31
0.0000
  0
LINE
  8
119
 10
512.5000
 20
248.1250
 30
0.0000
 11
512.5000
 21
185.6250
 31
0.0000
  0
LINE
  8
119
 10
512.5000
 20
185.6250
 30
0.0000
 11
512.5000
 21
123.1250
 31
0.0000
  0
LINE
  8
119
 10
512.5000
 20
123.1250
 30
0.0000
 11
512.5000
 21
60.6250
 31
0.0000
  0
LINE
  8
119
 10
512.5000
 20
60.6250
 30
0.0000
 11
512.5000
 21
12.5000
 31
0.0000
  0
LINE
  8
119
 10
287.5000
 20
12.5000
 30
0.0000
 11
268.7500
 21
12.5000
 31
0.0000
  0
LINE
  8
119
 10
268.7500
 20
12.5000
 30
0.0000
 11
206.2500
 21
12.5000
 31
0.0000
  0
LINE
  8
119
 10
206.2500
 20
12.5000
 30
0.0000
 11
143.7500
 21
12.5000
 31
0.0000
  0
LINE
  8
119
 10
143.7500
 20
12.5000
 30
0.0000
 11
81.2500
 21
12.5000
 31
0.0000
  0
LINE
  8
119
 10
81.2500
 20
12.5000
 30
0.0000
 11
25.0000
 21
12.5000
 31
0.0000
  0
LINE
  8
119
 10
18.7500
 20
6.2500
 30
0.0000
 11
18.7500
 21
60.6250
 31
0.0000
  0
LINE
  8
119
 10
18.7500
 20
60.6250
 30
0.0000
 11
18.7500
 21
123.1250
 31
0.0000
  0
LINE
  8
119
 10
18.7500
 20
123.1250
 30
0.0000
 11
18.7500
 21
185.6250
 31
0.0000
  0
LINE
  8
119
 10
18.7500
 20
185.6250
 30
0.0000
 11
18.7500
 21
248.1250
 31
0.0000
  0
LINE
  8
119
 10
18.7500
 20
248.1250
 30
0.0000
 11
18.7500
 21
310.6250
 31
0.0000
  0
LINE
  8
119
 10
18.7500
 20
310.6250
 30
0.0000
 11
18.7500
 21
365.0000
 31
0.0000
  0
LINE
  8
119
 10
18.7500
 20
365.0000
 30
0.0000
 11
81.2500
 21
365.0000
 31
0.0000
  0
LINE
  8
119
 10
81.2500
 20
365.0000
 30
0.0000
 11
143.7500
 21
365.0000
 31
0.0000
  0
LINE
  8
119
 10
143.7500
 20
365.0000
 30
0.0000
 11
206.2500
 21
365.0000
 31
0.0000
  0
LINE
  8
119
 10
206.2500
 20
365.0000
 30
0.0000
 11
268.7500
 21
365.0000
 31
0.0000
  0
LINE
  8
119
 10
268.7500
 20
365.0000
 30
0.0000
 11
331.2500
 21
365.0000
 31
0.0000
  0
LINE
  8
119
 10
331.2500
 20
365.0000
 30
0.0000
 11
393.7500
 21
365.0000
 31
0.0000
  0
LINE
  8
119
 10
393.7500
 20
365.0000
 30
0.0000
 11
456.2500
 21
365.0000
 31
0.0000
  0
LINE
  8
119
 10
456.2500
 20
365.0000
 30
0.0000
 11
518.7500
 21
365.0000
 31
0.0000
  0
LINE
  8
119
 10
518.7500
 20
365.0000
 30
0.0000
 11
518.7500
 21
310.6250
 31
0.0000
  0
LINE
  8
119
 10
518.7500
 20
310.6250
 30
0.0000
 11
518.7500
 21
248.1250
 31
0.0000
  0
LINE
  8
119
 10
518.7500
 20
248.1250
 30
0.0000
 11
518.7500
 21
185.6250
 31
0.0000
  0
LINE
  8
119
 10
518.7500
 20
185.6250
 30
0.0000
 11
518.7500
 21
123.1250
 31
0.0000
  0
LINE
  8
119
 10
518.7500
 20
123.1250
 30
0.0000
 11
518.7500
 21
60.6250
 31
0.0000
  0
LINE
  8
119
 10
518.7500
 20
60.6250
 30
0.0000
 11
518.7500
 21
6.2500
 31
0.0000
  0
LINE
  8
119
 10
518.7500
 20
6.2500
 30
0.0000
 11
456.2500
 21
6.2500
 31
0.0000
  0
LINE
  8
119
 10
456.2500
 20
6.2500
 30
0.0000
 11
393.7500
 21
6.2500
 31
0.0000
  0
LINE
  8
119
 10
393.7500
 20
6.2500
 30
0.0000
 11
331.2500
 21
6.2500
 31
0.0000
  0
LINE
  8
119
 10
331.2500
 20
6.2500
 30
0.0000
 11
268.7500
 21
6.2500
 31
0.0000
  0
LINE
  8
119
 10
268.7500
 20
6.2500
 30
0.0000
 11
206.2500
 21
6.2500
 31
0.0000
  0
LINE
  8
119
 10
206.2500
 20
6.2500
 30
0.0000
 11
143.7500
 21
6.2500
 31
0.0000
  0
LINE
  8
119
 10
143.7500
 20
6.2500
 30
0.0000
 11
81.2500
 21
6.2500
 31
0.0000
  0
LINE
  8
119
 10
81.2500
 20
6.2500
 30
0.0000
 11
18.7500
 21
6.2500
 31
0.0000
  0
LINE
  8
119
 10
18.7488
 20
185.6250
 30
0.0000
 11
18.7500
 21
185.6250
 31
0.0000
  0
LINE
  8
119
 10
25.0000
 20
185.6250
 30
0.0000
 11
31.2513
 21
185.6250
 31
0.0000
  0
LINE
  8
119
 10
268.7500
 20
365.0013
 30
0.0000
 11
268.7500
 21
365.0000
 31
0.0000
  0
LINE
  8
119
 10
268.7500
 20
358.7500
 30
0.0000
 11
268.7500
 21
352.4988
 31
0.0000
  0
LINE
  8
119
 10
518.7513
 20
185.6250
 30
0.0000
 11
518.7500
 21
185.6250
 31
0.0000
  0
LINE
  8
119
 10
512.5000
 20
185.6250
 30
0.0000
 11
506.2488
 21
185.6250
 31
0.0000
  0
LINE
  8
119
 10
268.7500
 20
6.2488
 30
0.0000
 11
268.7500
 21
6.2500
 31
0.0000
  0
LINE
  8
119
 10
268.7500
 20
12.5000
 30
0.0000
 11
268.7500
 21
18.7513
 31
0.0000
  0
LINE
  8
119
 10
25.0000
 20
60.6250
 30
0.0000
 11
18.7500
 21
60.6250
 31
0.0000
  0
LINE
  8
119
 10
512.5000
 20
60.6250
 30
0.0000
 11
518.7500
 21
60.6250
 31
0.0000
  0
LINE
  8
119
 10
25.0000
 20
123.1250
 30
0.0000
 11
18.7500
 21
123.1250
 31
0.0000
  0
LINE
  8
119
 10
512.5000
 20
123.1250
 30
0.0000
 11
518.7500
 21
123.1250
 31
0.0000
  0
LINE
  8
119
 10
25.0000
 20
185.6250
 30
0.0000
 11
18.7500
 21
185.6250
 31
0.0000
  0
LINE
  8
119
 10
512.5000
 20
185.6250
 30
0.0000
 11
518.7500
 21
185.6250
 31
0.0000
  0
LINE
  8
119
 10
25.0000
 20
248.1250
 30
0.0000
 11
18.7500
 21
248.1250
 31
0.0000
  0
LINE
  8
119
 10
512.5000
 20
248.1250
 30
0.0000
 11
518.7500
 21
248.1250
 31
0.0000
  0
LINE
  8
119
 10
25.0000
 20
310.6250
 30
0.0000
 11
18.7500
 21
310.6250
 31
0.0000
  0
LINE
  8
119
 10
512.5000
 20
310.6250
 30
0.0000
 11
518.7500
 21
310.6250
 31
0.0000
  0
LINE
  8
119
 10
81.2500
 20
358.7500
 30
0.0000
 11
81.2500
 21
365.0000
 31
0.0000
  0
LINE
  8
119
 10
81.2500
 20
12.5000
 30
0.0000
 11
81.2500
 21
6.2500
 31
0.0000
  0
LINE
  8
119
 10
143.7500
 20
358.7500
 30
0.0000
 11
143.7500
 21
365.0000
 31
0.0000
  0
LINE
  8
119
 10
143.7500
 20
12.5000
 30
0.0000
 11
143.7500
 21
6.2500
 31
0.0000
  0
LINE
  8
119
 10
206.2500
 20
358.7500
 30
0.0000
 11
206.2500
 21
365.0000
 31
0.0000
  0
LINE
  8
119
 10
206.2500
 20
12.5000
 30
0.0000
 11
206.2500
 21
6.2500
 31
0.0000
  0
LINE
  8
119
 10
268.7500
 20
358.7500
 30
0.0000
 11
268.7500
 21
365.0000
 31
0.0000
  0
LINE
  8
119
 10
268.7500
 20
12.5000
 30
0.0000
 11
268.7500
 21
6.2500
 31
0.0000
  0
LINE
  8
119
 10
331.2500
 20
358.7500
 30
0.0000
 11
331.2500
 21
365.0000
 31
0.0000
  0
LINE
  8
119
 10
331.2500
 20
12.5000
 30
0.0000
 11
331.2500
 21
6.2500
 31
0.0000
  0
LINE
  8
119
 10
393.7500
 20
358.7500
 30
0.0000
 11
393.7500
 21
365.0000
 31
0.0000
  0
LINE
  8
119
 10
393.7500
 20
12.5000
 30
0.0000
 11
393.7500
 21
6.2500
 31
0.0000
  0
LINE
  8
119
 10
456.2500
 20
358.7500
 30
0.0000
 11
456.2500
 21
365.0000
 31
0.0000
  0
LINE
  8
119
 10
456.2500
 20
12.5000
 30
0.0000
 11
456.2500
 21
6.2500
 31
0.0000
  0
LINE
  8
119
 10
133.2358
 20
161.2022
 30
0.0000
 11
133.0717
 21
161.1606
 31
0.0000
  0
LINE
  8
119
 10
128.6499
 20
168.2775
 30
0.0000
 11
129.0717
 21
168.3638
 31
0.0000
  0
LINE
  8
119
 10
133.4676
 20
169.6719
 30
0.0000
 11
133.0717
 21
169.5944
 31
0.0000
  0
LINE
  8
119
 10
76.8217
 20
162.0471
 30
0.0000
 11
76.8217
 21
115.0471
 31
0.0000
  0
LINE
  8
119
 10
137.5105
 20
172.0986
 30
0.0000
 11
137.5077
 21
172.0909
 31
0.0000
  0
LINE
  8
119
 10
137.5077
 20
172.0909
 30
0.0000
 11
137.5558
 21
172.0842
 31
0.0000
  0
LINE
  8
119
 10
137.5558
 20
172.0842
 30
0.0000
 11
137.8065
 21
172.0722
 31
0.0000
  0
LINE
  8
119
 10
137.8065
 20
172.0722
 30
0.0000
 11
138.2877
 21
172.0462
 31
0.0000
  0
LINE
  8
119
 10
138.2877
 20
172.0462
 30
0.0000
 11
139.0052
 21
171.9983
 31
0.0000
  0
LINE
  8
119
 10
139.0052
 20
171.9983
 30
0.0000
 11
139.9720
 21
171.9272
 31
0.0000
  0
LINE
  8
119
 10
139.9720
 20
171.9272
 30
0.0000
 11
140.5266
 21
171.8858
 31
0.0000
  0
LINE
  8
119
 10
140.5266
 20
171.8858
 30
0.0000
 11
141.1012
 21
171.8441
 31
0.0000
  0
LINE
  8
119
 10
141.1012
 20
171.8441
 30
0.0000
 11
141.6599
 21
171.8064
 31
0.0000
  0
LINE
  8
119
 10
141.6599
 20
171.8064
 30
0.0000
 11
142.1499
 21
171.7797
 31
0.0000
  0
LINE
  8
119
 10
142.1499
 20
171.7797
 30
0.0000
 11
142.5004
 21
171.7730
 31
0.0000
  0
LINE
  8
119
 10
142.5004
 20
171.7730
 30
0.0000
 11
142.6508
 21
171.7939
 31
0.0000
  0
LINE
  8
119
 10
142.6508
 20
171.7939
 30
0.0000
 11
137.5105
 21
172.0986
 31
0.0000
  0
LINE
  8
119
 10
145.3273
 20
189.5209
 30
0.0000
 11
145.0781
 21
189.5919
 31
0.0000
  0
LINE
  8
119
 10
140.9732
 20
188.6744
 30
0.0000
 11
140.5419
 21
188.7867
 31
0.0000
  0
LINE
  8
119
 10
102.4023
 20
236.2165
 30
0.0000
 11
102.2971
 21
236.2697
 31
0.0000
  0
LINE
  8
119
 10
115.0845
 20
228.7211
 30
0.0000
 11
115.1150
 21
228.5619
 31
0.0000
  0
LINE
  8
119
 10
107.2163
 20
236.1818
 30
0.0000
 11
107.0664
 21
236.2691
 31
0.0000
  0
LINE
  8
119
 10
115.1234
 20
236.2325
 30
0.0000
 11
115.0707
 21
236.2338
 31
0.0000
  0
LINE
  8
119
 10
117.1915
 20
237.6471
 30
0.0000
 11
115.9415
 21
237.6471
 31
0.0000
  0
LINE
  8
119
 10
115.9415
 20
226.9471
 30
0.0000
 11
117.1915
 21
226.9471
 31
0.0000
  0
LINE
  8
119
 10
126.2851
 20
237.6471
 30
0.0000
 11
125.0351
 21
237.6471
 31
0.0000
  0
LINE
  8
119
 10
125.2107
 20
226.9471
 30
0.0000
 11
126.2851
 21
226.9471
 31
0.0000
  0
LINE
  8
119
 10
133.9815
 20
235.2971
 30
0.0000
 11
133.6406
 21
235.2971
 31
0.0000
  0
LINE
  8
119
 10
132.6268
 20
235.2971
 30
0.0000
 11
128.7636
 21
235.2971
 31
0.0000
  0
LINE
  8
119
 10
127.7493
 20
235.2971
 30
0.0000
 11
127.5174
 21
235.2971
 31
0.0000
  0
LINE
  8
119
 10
126.5241
 20
235.2971
 30
0.0000
 11
126.2851
 21
235.2971
 31
0.0000
  0
LINE
  8
119
 10
125.0351
 20
235.2971
 30
0.0000
 11
125.0181
 21
235.2971
 31
0.0000
  0
LINE
  8
119
 10
119.8276
 20
235.2971
 30
0.0000
 11
117.5717
 21
235.2971
 31
0.0000
  0
LINE
  8
119
 10
117.5717
 20
235.2971
 30
0.0000
 11
117.1915
 21
235.2971
 31
0.0000
  0
LINE
  8
119
 10
115.9415
 20
235.2971
 30
0.0000
 11
115.9406
 21
235.2971
 31
0.0000
  0
LINE
  8
119
 10
115.3502
 20
235.2971
 30
0.0000
 11
115.3417
 21
235.2971
 31
0.0000
  0
LINE
  8
119
 10
114.7509
 20
235.2971
 30
0.0000
 11
113.9417
 21
235.2971
 31
0.0000
  0
LINE
  8
119
 10
113.3546
 20
235.2971
 30
0.0000
 11
111.7288
 21
235.2971
 31
0.0000
  0
LINE
  8
119
 10
111.1382
 20
235.2971
 30
0.0000
 11
109.4543
 21
235.2971
 31
0.0000
  0
LINE
  8
119
 10
108.8750
 20
235.2971
 30
0.0000
 11
107.1410
 21
235.2971
 31
0.0000
  0
LINE
  8
119
 10
106.5485
 20
235.2971
 30
0.0000
 11
104.7694
 21
235.2971
 31
0.0000
  0
LINE
  8
119
 10
104.1870
 20
235.2971
 30
0.0000
 11
102.3502
 21
235.2971
 31
0.0000
  0
LINE
  8
119
 10
101.7535
 20
235.2971
 30
0.0000
 11
99.8766
 21
235.2971
 31
0.0000
  0
LINE
  8
119
 10
99.2838
 20
235.2971
 30
0.0000
 11
97.5282
 21
235.2971
 31
0.0000
  0
LINE
  8
119
 10
96.9397
 20
235.2971
 30
0.0000
 11
96.1309
 21
235.2971
 31
0.0000
  0
LINE
  8
119
 10
95.8734
 20
229.2971
 30
0.0000
 11
96.3497
 21
229.2971
 31
0.0000
  0
LINE
  8
119
 10
96.9372
 20
229.2971
 30
0.0000
 11
98.6187
 21
229.2971
 31
0.0000
  0
LINE
  8
119
 10
99.0808
 20
229.2971
 30
0.0000
 11
101.0144
 21
229.2971
 31
0.0000
  0
LINE
  8
119
 10
101.6062
 20
229.2971
 30
0.0000
 11
103.5711
 21
229.2971
 31
0.0000
  0
LINE
  8
119
 10
103.9746
 20
229.2971
 30
0.0000
 11
105.9625
 21
229.2971
 31
0.0000
  0
LINE
  8
119
 10
106.3545
 20
229.2971
 30
0.0000
 11
108.1746
 21
229.2971
 31
0.0000
  0
LINE
  8
119
 10
108.7594
 20
229.2971
 30
0.0000
 11
110.5836
 21
229.2971
 31
0.0000
  0
LINE
  8
119
 10
110.9666
 20
229.2971
 30
0.0000
 11
112.8150
 21
229.2971
 31
0.0000
  0
LINE
  8
119
 10
113.1970
 20
229.2971
 30
0.0000
 11
114.6826
 21
229.2971
 31
0.0000
  0
LINE
  8
119
 10
115.6381
 20
229.2971
 30
0.0000
 11
115.9415
 21
229.2971
 31
0.0000
  0
LINE
  8
119
 10
126.2851
 20
229.2971
 30
0.0000
 11
127.2630
 21
229.2971
 31
0.0000
  0
LINE
  8
119
 10
128.2653
 20
229.2971
 30
0.0000
 11
131.3827
 21
229.2971
 31
0.0000
  0
LINE
  8
119
 10
132.4253
 20
229.2971
 30
0.0000
 11
133.6806
 21
229.2971
 31
0.0000
  0
LINE
  8
119
 10
93.3217
 20
235.2971
 30
0.0000
 11
92.3217
 21
235.2971
 31
0.0000
  0
LINE
  8
119
 10
92.3217
 20
235.2971
 30
0.0000
 11
81.8217
 21
235.2971
 31
0.0000
  0
LINE
  8
119
 10
81.8217
 20
229.2971
 30
0.0000
 11
92.3217
 21
229.2971
 31
0.0000
  0
LINE
  8
119
 10
92.3217
 20
229.2971
 30
0.0000
 11
93.3217
 21
229.2971
 31
0.0000
  0
LINE
  8
119
 10
136.8217
 20
235.2971
 30
0.0000
 11
136.5217
 21
235.2971
 31
0.0000
  0
LINE
  8
119
 10
136.5217
 20
229.2971
 30
0.0000
 11
136.8217
 21
229.2971
 31
0.0000
  0
LINE
  8
119
 10
81.8217
 20
234.6971
 30
0.0000
 11
80.8217
 21
234.6971
 31
0.0000
  0
LINE
  8
119
 10
80.8217
 20
229.8971
 30
0.0000
 11
81.8217
 21
229.8971
 31
0.0000
  0
LINE
  8
119
 10
95.3217
 20
234.2971
 30
0.0000
 11
94.9467
 21
234.2971
 31
0.0000
  0
LINE
  8
119
 10
93.6967
 20
234.2971
 30
0.0000
 11
93.3217
 21
234.2971
 31
0.0000
  0
LINE
  8
119
 10
93.3217
 20
230.2971
 30
0.0000
 11
93.6967
 21
230.2971
 31
0.0000
  0
LINE
  8
119
 10
93.6967
 20
230.2971
 30
0.0000
 11
94.9467
 21
230.2971
 31
0.0000
  0
LINE
  8
119
 10
94.9467
 20
230.2971
 30
0.0000
 11
95.3217
 21
230.2971
 31
0.0000
  0
LINE
  8
119
 10
135.2717
 20
234.2971
 30
0.0000
 11
134.9230
 21
234.2971
 31
0.0000
  0
LINE
  8
119
 10
134.7386
 20
230.2971
 30
0.0000
 11
135.2717
 21
230.2971
 31
0.0000
  0
LINE
  8
119
 10
82.3217
 20
182.2471
 30
0.0000
 11
82.5217
 21
182.2471
 31
0.0000
  0
LINE
  8
119
 10
82.5217
 20
182.2471
 30
0.0000
 11
83.0217
 21
182.2471
 31
0.0000
  0
LINE
  8
119
 10
83.0217
 20
187.6471
 30
0.0000
 11
82.5217
 21
187.6471
 31
0.0000
  0
LINE
  8
119
 10
82.5217
 20
187.6471
 30
0.0000
 11
82.3217
 21
187.6471
 31
0.0000
  0
ARC
  8
119
 10
75.9817
 20
184.9471
 30
0.0000
 40
7.5400
 50
339.0170
 51
20.9830
  0
LINE
  8
119
 10
82.3217
 20
249.2471
 30
0.0000
 11
82.5217
 21
249.2471
 31
0.0000
  0
LINE
  8
119
 10
82.5217
 20
249.2471
 30
0.0000
 11
83.0217
 21
249.2471
 31
0.0000
  0
LINE
  8
119
 10
83.0217
 20
254.6471
 30
0.0000
 11
82.5217
 21
254.6471
 31
0.0000
  0
LINE
  8
119
 10
82.5217
 20
254.6471
 30
0.0000
 11
82.3217
 21
254.6471
 31
0.0000
  0
ARC
  8
119
 10
75.9817
 20
251.9471
 30
0.0000
 40
7.5400
 50
339.0170
 51
20.9830
  0
LINE
  8
119
 10
82.3217
 20
87.2471
 30
0.0000
 11
82.5217
 21
87.2471
 31
0.0000
  0
LINE
  8
119
 10
82.5217
 20
87.2471
 30
0.0000
 11
83.0217
 21
87.2471
 31
0.0000
  0
LINE
  8
119
 10
83.0217
 20
92.6471
 30
0.0000
 11
82.5217
 21
92.6471
 31
0.0000
  0
LINE
  8
119
 10
82.5217
 20
92.6471
 30
0.0000
 11
82.3217
 21
92.6471
 31
0.0000
  0
ARC
  8
119
 10
75.9817
 20
89.9471
 30
0.0000
 40
7.5400
 50
339.0170
 51
20.9830
  0
LINE
  8
119
 10
136.5217
 20
237.0471
 30
0.0000
 11
135.2717
 21
237.0471
 31
0.0000
  0
LINE
  8
119
 10
135.2717
 20
227.5471
 30
0.0000
 11
136.5217
 21
227.5471
 31
0.0000
  0
LINE
  8
119
 10
94.9467
 20
237.0471
 30
0.0000
 11
93.6967
 21
237.0471
 31
0.0000
  0
LINE
  8
119
 10
93.6967
 20
227.5471
 30
0.0000
 11
94.9467
 21
227.5471
 31
0.0000
  0
LINE
  8
119
 10
93.6967
 20
230.9321
 30
0.0000
 11
94.9467
 21
230.9321
 31
0.0000
  0
LINE
  8
119
 10
94.9467
 20
229.7722
 30
0.0000
 11
93.6967
 21
229.7722
 31
0.0000
  0
LINE
  8
119
 10
113.3717
 20
95.8471
 30
0.0000
 11
114.8717
 21
95.8471
 31
0.0000
  0
LINE
  8
119
 10
113.3717
 20
95.8471
 30
0.0000
 11
113.3717
 21
96.1471
 31
0.0000
  0
LINE
  8
119
 10
113.3717
 20
96.1471
 30
0.0000
 11
114.8717
 21
96.1471
 31
0.0000
  0
LINE
  8
119
 10
114.8717
 20
95.8471
 30
0.0000
 11
114.8717
 21
96.1471
 31
0.0000
  0
LINE
  8
119
 10
113.3717
 20
100.3471
 30
0.0000
 11
114.8717
 21
100.3471
 31
0.0000
  0
LINE
  8
119
 10
114.8717
 20
96.1471
 30
0.0000
 11
114.8717
 21
100.3471
 31
0.0000
  0
LINE
  8
119
 10
113.3717
 20
96.1471
 30
0.0000
 11
113.3717
 21
100.3471
 31
0.0000
  0
LINE
  8
119
 10
113.3717
 20
100.6471
 30
0.0000
 11
114.8717
 21
100.6471
 31
0.0000
  0
LINE
  8
119
 10
114.8717
 20
100.3471
 30
0.0000
 11
114.8717
 21
100.6471
 31
0.0000
  0
LINE
  8
119
 10
113.3717
 20
100.3471
 30
0.0000
 11
113.3717
 21
100.6471
 31
0.0000
  0
LINE
  8
119
 10
113.3717
 20
95.5471
 30
0.0000
 11
114.8717
 21
95.5471
 31
0.0000
  0
LINE
  8
119
 10
114.8717
 20
95.5471
 30
0.0000
 11
114.8717
 21
95.5971
 31
0.0000
  0
LINE
  8
119
 10
114.8717
 20
95.5971
 30
0.0000
 11
114.8717
 21
95.8471
 31
0.0000
  0
LINE
  8
119
 10
113.3717
 20
95.5471
 30
0.0000
 11
113.3717
 21
95.5971
 31
0.0000
  0
LINE
  8
119
 10
113.3717
 20
95.5971
 30
0.0000
 11
113.3717
 21
95.8471
 31
0.0000
  0
LINE
  8
119
 10
113.3717
 20
100.9471
 30
0.0000
 11
114.8717
 21
100.9471
 31
0.0000
  0
LINE
  8
119
 10
114.8717
 20
100.6471
 30
0.0000
 11
114.8717
 21
100.8971
 31
0.0000
  0
LINE
  8
119
 10
114.8717
 20
100.8971
 30
0.0000
 11
114.8717
 21
100.9471
 31
0.0000
  0
LINE
  8
119
 10
113.3717
 20
100.6471
 30
0.0000
 11
113.3717
 21
100.8971
 31
0.0000
  0
LINE
  8
119
 10
113.3717
 20
100.8971
 30
0.0000
 11
113.3717
 21
100.9471
 31
0.0000
  0
LINE
  8
119
 10
113.3717
 20
92.9971
 30
0.0000
 11
114.8717
 21
92.9971
 31
0.0000
  0
LINE
  8
119
 10
113.3717
 20
93.2971
 30
0.0000
 11
114.8717
 21
93.2971
 31
0.0000
  0
LINE
  8
119
 10
114.8717
 20
92.9971
 30
0.0000
 11
114.8717
 21
93.2971
 31
0.0000
  0
LINE
  8
119
 10
113.3717
 20
92.9971
 30
0.0000
 11
113.3717
 21
93.2971
 31
0.0000
  0
LINE
  8
119
 10
113.3717
 20
103.1971
 30
0.0000
 11
114.8717
 21
103.1971
 31
0.0000
  0
LINE
  8
119
 10
114.8717
 20
100.9471
 30
0.0000
 11
114.8717
 21
103.1971
 31
0.0000
  0
LINE
  8
119
 10
113.3717
 20
100.9471
 30
0.0000
 11
113.3717
 21
103.1971
 31
0.0000
  0
LINE
  8
119
 10
113.3717
 20
103.4971
 30
0.0000
 11
114.8717
 21
103.4971
 31
0.0000
  0
LINE
  8
119
 10
114.8717
 20
103.1971
 30
0.0000
 11
114.8717
 21
103.4971
 31
0.0000
  0
LINE
  8
119
 10
113.3717
 20
103.1971
 30
0.0000
 11
113.3717
 21
103.4971
 31
0.0000
  0
LINE
  8
119
 10
114.8717
 20
93.2971
 30
0.0000
 11
114.8717
 21
95.5471
 31
0.0000
  0
LINE
  8
119
 10
113.3717
 20
93.2971
 30
0.0000
 11
113.3717
 21
95.5471
 31
0.0000
  0
LINE
  8
119
 10
114.3217
 20
180.1723
 30
0.0000
 11
106.5217
 21
180.1723
 31
0.0000
  0
LINE
  8
119
 10
114.3217
 20
178.6874
 30
0.0000
 11
106.5217
 21
178.6874
 31
0.0000
  0
LINE
  8
119
 10
114.3217
 20
180.1723
 30
0.0000
 11
114.3217
 21
178.6874
 31
0.0000
  0
LINE
  8
119
 10
106.5217
 20
178.6874
 30
0.0000
 11
106.5217
 21
180.1723
 31
0.0000
  0
LINE
  8
119
 10
106.5217
 20
181.2025
 30
0.0000
 11
106.5217
 21
180.1723
 31
0.0000
  0
ARC
  8
119
 10
105.5217
 20
181.2025
 30
0.0000
 40
1.0000
 50
0.0000
 51
90.0000
  0
LINE
  8
119
 10
103.5217
 20
182.2025
 30
0.0000
 11
105.5217
 21
182.2025
 31
0.0000
  0
ARC
  8
119
 10
114.1217
 20
186.6197
 30
0.0000
 40
0.2000
 50
359.9997
 51
44.9997
  0
ARC
  8
119
 10
112.7388
 20
188.0025
 30
0.0000
 40
0.2000
 50
45.0003
 51
89.9994
  0
LINE
  8
119
 10
114.3217
 20
180.1723
 30
0.0000
 11
114.3217
 21
186.6197
 31
0.0000
  0
LINE
  8
119
 10
114.2631
 20
186.7611
 30
0.0000
 11
112.8803
 21
188.1439
 31
0.0000
  0
LINE
  8
119
 10
112.7388
 20
188.2025
 30
0.0000
 11
103.5217
 21
188.2025
 31
0.0000
  0
LINE
  8
119
 10
103.5217
 20
188.2025
 30
0.0000
 11
103.5217
 21
182.2025
 31
0.0000
  0
LINE
  8
119
 10
114.3217
 20
177.4318
 30
0.0000
 11
106.5217
 21
177.4318
 31
0.0000
  0
LINE
  8
119
 10
106.5217
 20
178.6874
 30
0.0000
 11
106.5217
 21
177.4318
 31
0.0000
  0
LINE
  8
119
 10
114.3217
 20
177.4318
 30
0.0000
 11
114.3217
 21
178.6874
 31
0.0000
  0
LINE
  8
119
 10
106.5217
 20
177.3611
 30
0.0000
 11
106.5217
 21
177.4318
 31
0.0000
  0
LINE
  8
119
 10
114.3217
 20
177.4318
 30
0.0000
 11
114.3217
 21
177.3611
 31
0.0000
  0
LINE
  8
119
 10
114.3217
 20
177.3611
 30
0.0000
 11
106.5217
 21
177.3611
 31
0.0000
  0
LINE
  8
119
 10
114.9388
 20
175.9025
 30
0.0000
 11
114.5217
 21
175.9025
 31
0.0000
  0
ARC
  8
119
 10
114.9388
 20
175.7025
 30
0.0000
 40
0.2000
 50
45.0003
 51
89.9994
  0
ARC
  8
119
 10
111.0313
 20
116.2025
 30
0.0000
 40
1.5000
 50
270.0000
 51
2.4565
  0
LINE
  8
119
 10
113.1217
 20
151.9025
 30
0.0000
 11
113.1217
 21
155.5471
 31
0.0000
  0
ARC
  8
119
 10
111.0217
 20
126.9025
 30
0.0000
 40
2.1000
 50
180.0000
 51
0.0000
  0
LINE
  8
119
 10
108.9217
 20
130.5471
 30
0.0000
 11
108.9217
 21
127.1471
 31
0.0000
  0
LINE
  8
119
 10
108.9217
 20
127.1471
 30
0.0000
 11
108.9217
 21
126.9025
 31
0.0000
  0
LINE
  8
119
 10
114.3217
 20
176.1025
 30
0.0000
 11
114.3217
 21
177.3611
 31
0.0000
  0
LINE
  8
119
 10
106.5217
 20
177.3611
 30
0.0000
 11
106.5217
 21
162.0471
 31
0.0000
  0
LINE
  8
119
 10
106.5217
 20
162.0471
 30
0.0000
 11
106.5217
 21
127.1471
 31
0.0000
  0
LINE
  8
119
 10
106.5217
 20
127.1471
 30
0.0000
 11
106.5217
 21
114.7025
 31
0.0000
  0
ARC
  8
119
 10
114.5217
 20
176.1025
 30
0.0000
 40
0.2000
 50
180.0000
 51
270.0000
  0
LINE
  8
119
 10
113.1217
 20
126.9025
 30
0.0000
 11
113.1217
 21
127.1471
 31
0.0000
  0
LINE
  8
119
 10
113.1217
 20
127.1471
 30
0.0000
 11
113.1217
 21
130.5471
 31
0.0000
  0
LINE
  8
119
 10
106.5217
 20
114.7025
 30
0.0000
 11
111.0313
 21
114.7025
 31
0.0000
  0
LINE
  8
119
 10
116.0217
 20
127.6411
 30
0.0000
 11
116.0217
 21
158.6495
 31
0.0000
  0
LINE
  8
119
 10
116.0217
 20
158.6495
 30
0.0000
 11
116.0217
 21
174.8196
 31
0.0000
  0
ARC
  8
119
 10
111.0217
 20
151.9025
 30
0.0000
 40
2.1000
 50
180.0000
 51
0.0000
  0
ARC
  8
119
 10
121.5217
 20
116.6525
 30
0.0000
 40
9.0000
 50
144.6655
 51
182.4563
  0
LINE
  8
119
 10
108.9217
 20
155.5471
 30
0.0000
 11
108.9217
 21
151.9025
 31
0.0000
  0
ARC
  8
119
 10
106.0217
 20
127.6411
 30
0.0000
 40
10.0000
 50
324.6655
 51
0.0000
  0
ARC
  8
119
 10
115.8217
 20
174.8196
 30
0.0000
 40
0.2000
 50
359.9997
 51
44.9997
  0
LINE
  8
119
 10
115.9631
 20
174.9611
 30
0.0000
 11
115.0803
 21
175.8439
 31
0.0000
  0
LINE
  8
119
 10
120.2717
 20
152.9292
 30
0.0000
 11
120.2717
 21
157.3292
 31
0.0000
  0
LINE
  8
119
 10
118.2717
 20
152.9292
 30
0.0000
 11
120.2717
 21
152.9292
 31
0.0000
  0
LINE
  8
119
 10
118.2717
 20
153.5050
 30
0.0000
 11
118.2717
 21
157.3292
 31
0.0000
  0
LINE
  8
119
 10
118.2717
 20
157.3292
 30
0.0000
 11
120.2717
 21
157.3292
 31
0.0000
  0
LINE
  8
119
 10
120.2717
 20
152.9292
 30
0.0000
 11
120.2717
 21
152.4292
 31
0.0000
  0
LINE
  8
119
 10
118.2717
 20
152.4292
 30
0.0000
 11
120.2717
 21
152.4292
 31
0.0000
  0
LINE
  8
119
 10
120.2717
 20
157.8292
 30
0.0000
 11
120.2717
 21
157.3292
 31
0.0000
  0
LINE
  8
119
 10
118.2717
 20
157.8292
 30
0.0000
 11
120.2717
 21
157.8292
 31
0.0000
  0
LINE
  8
119
 10
118.2717
 20
157.8292
 30
0.0000
 11
118.2717
 21
157.3292
 31
0.0000
  0
LINE
  8
119
 10
120.2717
 20
152.4292
 30
0.0000
 11
120.3717
 21
152.4292
 31
0.0000
  0
LINE
  8
119
 10
128.0717
 20
157.8292
 30
0.0000
 11
120.3717
 21
157.8292
 31
0.0000
  0
LINE
  8
119
 10
120.3717
 20
157.8292
 30
0.0000
 11
120.2717
 21
157.8292
 31
0.0000
  0
ARC
  8
119
 10
128.0717
 20
158.8292
 30
0.0000
 40
1.0000
 50
270.0000
 51
302.9676
  0
ARC
  8
119
 10
128.0717
 20
158.8292
 30
0.0000
 40
1.0000
 50
325.3475
 51
0.0001
  0
LINE
  8
119
 10
129.0717
 20
158.8292
 30
0.0000
 11
129.0717
 21
159.1460
 31
0.0000
  0
LINE
  8
119
 10
129.0717
 20
159.7587
 30
0.0000
 11
129.0717
 21
161.9510
 31
0.0000
  0
LINE
  8
119
 10
129.0717
 20
162.5626
 30
0.0000
 11
129.0717
 21
164.7662
 31
0.0000
  0
LINE
  8
119
 10
129.0717
 20
165.3731
 30
0.0000
 11
129.0717
 21
167.5788
 31
0.0000
  0
LINE
  8
119
 10
129.0717
 20
168.1875
 30
0.0000
 11
129.0717
 21
169.6221
 31
0.0000
  0
LINE
  8
119
 10
129.0717
 20
169.6221
 30
0.0000
 11
129.0717
 21
169.7721
 31
0.0000
  0
LINE
  8
119
 10
129.0717
 20
171.7721
 30
0.0000
 11
129.0717
 21
171.9221
 31
0.0000
  0
LINE
  8
119
 10
129.0717
 20
171.9221
 30
0.0000
 11
129.0717
 21
172.2519
 31
0.0000
  0
ARC
  8
119
 10
130.0717
 20
172.2518
 30
0.0000
 40
1.0000
 50
120.0000
 51
179.9996
  0
LINE
  8
119
 10
130.5717
 20
173.6952
 30
0.0000
 11
129.5717
 21
173.1179
 31
0.0000
  0
ARC
  8
119
 10
131.0717
 20
172.8292
 30
0.0000
 40
1.0000
 50
99.5941
 51
120.0004
  0
ARC
  8
119
 10
131.0103
 20
163.8158
 30
0.0000
 40
10.0000
 50
88.6162
 51
90.6031
  0
ARC
  8
119
 10
131.0717
 20
172.8292
 30
0.0000
 40
1.0000
 50
60.0000
 51
79.6252
  0
LINE
  8
119
 10
132.5717
 20
173.1179
 30
0.0000
 11
131.5717
 21
173.6952
 31
0.0000
  0
ARC
  8
119
 10
132.0717
 20
172.2519
 30
0.0000
 40
1.0000
 50
359.9999
 51
59.9998
  0
LINE
  8
119
 10
133.0717
 20
158.8292
 30
0.0000
 11
133.0717
 21
161.2400
 31
0.0000
  0
LINE
  8
119
 10
133.0717
 20
161.8507
 30
0.0000
 11
133.0717
 21
164.0919
 31
0.0000
  0
LINE
  8
119
 10
133.0717
 20
164.7028
 30
0.0000
 11
133.0717
 21
167.0834
 31
0.0000
  0
LINE
  8
119
 10
133.0717
 20
167.4716
 30
0.0000
 11
133.0717
 21
169.7035
 31
0.0000
  0
LINE
  8
119
 10
133.0717
 20
171.7721
 30
0.0000
 11
133.0717
 21
172.2519
 31
0.0000
  0
ARC
  8
119
 10
134.0717
 20
158.8292
 30
0.0000
 40
1.0000
 50
199.1201
 51
269.9998
  0
LINE
  8
119
 10
145.4717
 20
157.8292
 30
0.0000
 11
134.0717
 21
157.8292
 31
0.0000
  0
ARC
  8
119
 10
145.4717
 20
156.8292
 30
0.0000
 40
1.0000
 50
54.8776
 51
90.0002
  0
LINE
  8
119
 10
141.5383
 20
133.7468
 30
0.0000
 11
134.8299
 21
131.3052
 31
0.0000
  0
LINE
  8
119
 10
132.4221
 20
130.4288
 30
0.0000
 11
126.9311
 21
128.4302
 31
0.0000
  0
ARC
  8
119
 10
122.6717
 20
140.1328
 30
0.0000
 40
12.4536
 50
257.7499
 51
290.0000
  0
LINE
  8
119
 10
133.9217
 20
145.5471
 30
0.0000
 11
133.9217
 21
143.4292
 31
0.0000
  0
ARC
  8
119
 10
137.0717
 20
143.4292
 30
0.0000
 40
3.1500
 50
180.0000
 51
0.0000
  0
LINE
  8
119
 10
140.2217
 20
145.5326
 30
0.0000
 11
140.2217
 21
143.4292
 31
0.0000
  0
ARC
  8
119
 10
137.0717
 20
151.5292
 30
0.0000
 40
3.1500
 50
18.8536
 51
77.0075
  0
LINE
  8
119
 10
116.4217
 20
143.2281
 30
0.0000
 11
116.4217
 21
141.6661
 31
0.0000
  0
LINE
  8
119
 10
122.7217
 20
143.5292
 30
0.0000
 11
122.7217
 21
139.3471
 31
0.0000
  0
ARC
  8
119
 10
119.5717
 20
143.5292
 30
0.0000
 40
3.1500
 50
360.0000
 51
39.8373
  0
LINE
  8
119
 10
123.5217
 20
130.5123
 30
0.0000
 11
123.5217
 21
130.5123
 31
0.0000
  0
LINE
  8
119
 10
123.5217
 20
130.5123
 30
0.0000
 11
123.5217
 21
133.2471
 31
0.0000
  0
ARC
  8
119
 10
123.3217
 20
130.5123
 30
0.0000
 40
0.2000
 50
305.0012
 51
0.0009
  0
LINE
  8
119
 10
118.9161
 20
127.1833
 30
0.0000
 11
123.4364
 21
130.3484
 31
0.0000
  0
ARC
  8
119
 10
118.8014
 20
127.3471
 30
0.0000
 40
0.2000
 50
270.0004
 51
304.9996
  0
LINE
  8
119
 10
118.2547
 20
153.5857
 30
0.0000
 11
116.0217
 21
158.6495
 31
0.0000
  0
ARC
  8
119
 10
118.0717
 20
153.5050
 30
0.0000
 40
0.2000
 50
359.9994
 51
23.7965
  0
LINE
  8
119
 10
118.2717
 20
152.2471
 30
0.0000
 11
118.2717
 21
153.5050
 31
0.0000
  0
ARC
  8
119
 10
118.4717
 20
152.2471
 30
0.0000
 40
0.2000
 50
180.0000
 51
270.0000
  0
LINE
  8
119
 10
120.1717
 20
152.0471
 30
0.0000
 11
118.4717
 21
152.0471
 31
0.0000
  0
ARC
  8
119
 10
120.1717
 20
152.2471
 30
0.0000
 40
0.2000
 50
270.0000
 51
0.0000
  0
ARC
  8
119
 10
120.5717
 20
153.5801
 30
0.0000
 40
0.2000
 50
150.0005
 51
180.0007
  0
LINE
  8
119
 10
122.4579
 20
157.2471
 30
0.0000
 11
120.3985
 21
153.6801
 31
0.0000
  0
ARC
  8
119
 10
122.6311
 20
157.1471
 30
0.0000
 40
0.2000
 50
90.0000
 51
149.9990
  0
LINE
  8
119
 10
126.6217
 20
157.3471
 30
0.0000
 11
122.6311
 21
157.3471
 31
0.0000
  0
ARC
  8
119
 10
126.6217
 20
157.1471
 30
0.0000
 40
0.2000
 50
0.0000
 51
90.0000
  0
LINE
  8
119
 10
126.8217
 20
156.6916
 30
0.0000
 11
126.8217
 21
157.1471
 31
0.0000
  0
ARC
  8
119
 10
127.0217
 20
156.6916
 30
0.0000
 40
0.2000
 50
180.0005
 51
205.0692
  0
LINE
  8
119
 10
128.2528
 20
153.5874
 30
0.0000
 11
126.8405
 21
156.6069
 31
0.0000
  0
ARC
  8
119
 10
128.0717
 20
153.5027
 30
0.0000
 40
0.2000
 50
0.0005
 51
25.0692
  0
LINE
  8
119
 10
128.2717
 20
152.7471
 30
0.0000
 11
128.2717
 21
153.5027
 31
0.0000
  0
ARC
  8
119
 10
128.4717
 20
152.7471
 30
0.0000
 40
0.2000
 50
180.0000
 51
270.0000
  0
LINE
  8
119
 10
130.1717
 20
152.5471
 30
0.0000
 11
128.4717
 21
152.5471
 31
0.0000
  0
ARC
  8
119
 10
130.1717
 20
152.7471
 30
0.0000
 40
0.2000
 50
270.0000
 51
0.0000
  0
LINE
  8
119
 10
130.3717
 20
153.5801
 30
0.0000
 11
130.3717
 21
152.7471
 31
0.0000
  0
ARC
  8
119
 10
130.5717
 20
153.5801
 30
0.0000
 40
0.2000
 50
150.0005
 51
180.0007
  0
LINE
  8
119
 10
132.4579
 20
157.2471
 30
0.0000
 11
130.3985
 21
153.6801
 31
0.0000
  0
ARC
  8
119
 10
132.6311
 20
157.1471
 30
0.0000
 40
0.2000
 50
90.0000
 51
149.9990
  0
LINE
  8
119
 10
136.6217
 20
157.3471
 30
0.0000
 11
132.6311
 21
157.3471
 31
0.0000
  0
ARC
  8
119
 10
136.6217
 20
157.1471
 30
0.0000
 40
0.2000
 50
0.0000
 51
90.0000
  0
LINE
  8
119
 10
136.8217
 20
156.6916
 30
0.0000
 11
136.8217
 21
157.1471
 31
0.0000
  0
ARC
  8
119
 10
137.0217
 20
156.6916
 30
0.0000
 40
0.2000
 50
180.0005
 51
205.0692
  0
LINE
  8
119
 10
138.2528
 20
153.5874
 30
0.0000
 11
136.8405
 21
156.6069
 31
0.0000
  0
ARC
  8
119
 10
138.0717
 20
153.5027
 30
0.0000
 40
0.2000
 50
0.0005
 51
25.0692
  0
LINE
  8
119
 10
138.2717
 20
152.7471
 30
0.0000
 11
138.2717
 21
152.9658
 31
0.0000
  0
LINE
  8
119
 10
138.2717
 20
152.9658
 30
0.0000
 11
138.2717
 21
153.2967
 31
0.0000
  0
LINE
  8
119
 10
138.2717
 20
153.2967
 30
0.0000
 11
138.2717
 21
153.5027
 31
0.0000
  0
ARC
  8
119
 10
138.4717
 20
152.7471
 30
0.0000
 40
0.2000
 50
180.0000
 51
270.0000
  0
LINE
  8
119
 10
140.1717
 20
152.5471
 30
0.0000
 11
139.3077
 21
152.5471
 31
0.0000
  0
LINE
  8
119
 10
139.3077
 20
152.5471
 30
0.0000
 11
138.8855
 21
152.5471
 31
0.0000
  0
LINE
  8
119
 10
138.8855
 20
152.5471
 30
0.0000
 11
138.4717
 21
152.5471
 31
0.0000
  0
ARC
  8
119
 10
140.1717
 20
152.7471
 30
0.0000
 40
0.2000
 50
270.0000
 51
0.0000
  0
LINE
  8
119
 10
140.3717
 20
153.5801
 30
0.0000
 11
140.3717
 21
152.7471
 31
0.0000
  0
ARC
  8
119
 10
140.5717
 20
153.5801
 30
0.0000
 40
0.2000
 50
150.0005
 51
180.0007
  0
LINE
  8
119
 10
142.6311
 20
157.5471
 30
0.0000
 11
140.3985
 21
153.6801
 31
0.0000
  0
ARC
  8
119
 10
142.8043
 20
157.4471
 30
0.0000
 40
0.2000
 50
90.0001
 51
150.0011
  0
LINE
  8
119
 10
148.0217
 20
157.6471
 30
0.0000
 11
142.8043
 21
157.6471
 31
0.0000
  0
LINE
  8
119
 10
148.0217
 20
128.8471
 30
0.0000
 11
148.0217
 21
157.6471
 31
0.0000
  0
LINE
  8
119
 10
144.5756
 20
128.8471
 30
0.0000
 11
148.0217
 21
128.8471
 31
0.0000
  0
ARC
  8
119
 10
144.5757
 20
129.0471
 30
0.0000
 40
0.2000
 50
235.0001
 51
269.9989
  0
LINE
  8
119
 10
142.1070
 20
130.5316
 30
0.0000
 11
144.4609
 21
128.8833
 31
0.0000
  0
ARC
  8
119
 10
142.2217
 20
130.6954
 30
0.0000
 40
0.2000
 50
180.0003
 51
235.0010
  0
LINE
  8
119
 10
142.0217
 20
133.2471
 30
0.0000
 11
142.0217
 21
130.6954
 31
0.0000
  0
ARC
  8
119
 10
141.5217
 20
133.2471
 30
0.0000
 40
0.5000
 50
0.0000
 51
90.0000
  0
LINE
  8
119
 10
135.7217
 20
133.7471
 30
0.0000
 11
141.5217
 21
133.7471
 31
0.0000
  0
ARC
  8
119
 10
135.7217
 20
133.2471
 30
0.0000
 40
0.5000
 50
90.0000
 51
180.0000
  0
LINE
  8
119
 10
135.2217
 20
131.6477
 30
0.0000
 11
135.2217
 21
133.2471
 31
0.0000
  0
ARC
  8
119
 10
135.0217
 20
131.6477
 30
0.0000
 40
0.2000
 50
300.1225
 51
0.0008
  0
ARC
  8
119
 10
132.8717
 20
130.7471
 30
0.0000
 40
0.5000
 50
240.1219
 51
300.1216
  0
LINE
  8
119
 10
130.4221
 20
131.5779
 30
0.0000
 11
132.6226
 21
130.3136
 31
0.0000
  0
ARC
  8
119
 10
130.5217
 20
131.7513
 30
0.0000
 40
0.2000
 50
179.9997
 51
240.1218
  0
LINE
  8
119
 10
130.3217
 20
133.2471
 30
0.0000
 11
130.3217
 21
131.7513
 31
0.0000
  0
ARC
  8
119
 10
129.8217
 20
133.2471
 30
0.0000
 40
0.5000
 50
0.0000
 51
90.0000
  0
LINE
  8
119
 10
124.0217
 20
133.7471
 30
0.0000
 11
129.8217
 21
133.7471
 31
0.0000
  0
ARC
  8
119
 10
124.0217
 20
133.2471
 30
0.0000
 40
0.5000
 50
90.0000
 51
180.0000
  0
LINE
  8
119
 10
119.4217
 20
139.3471
 30
0.0000
 11
139.9217
 21
139.3471
 31
0.0000
  0
ARC
  8
119
 10
139.9217
 20
142.4471
 30
0.0000
 40
3.1000
 50
270.0000
 51
90.0000
  0
LINE
  8
119
 10
139.9217
 20
145.5471
 30
0.0000
 11
119.4217
 21
145.5471
 31
0.0000
  0
ARC
  8
119
 10
119.4217
 20
142.4471
 30
0.0000
 40
3.1000
 50
90.0000
 51
270.0000
  0
LINE
  8
119
 10
133.1226
 20
130.3147
 30
0.0000
 11
135.1221
 21
131.4747
 31
0.0000
  0
LINE
  8
119
 10
100.8217
 20
127.1471
 30
0.0000
 11
106.5217
 21
127.1471
 31
0.0000
  0
LINE
  8
119
 10
108.9217
 20
127.1471
 30
0.0000
 11
113.1217
 21
127.1471
 31
0.0000
  0
LINE
  8
119
 10
116.0095
 20
127.1471
 30
0.0000
 11
118.8014
 21
127.1471
 31
0.0000
  0
LINE
  8
119
 10
77.6796
 20
162.0471
 30
0.0000
 11
77.6796
 21
115.0471
 31
0.0000
  0
LINE
  8
119
 10
106.5217
 20
162.0471
 30
0.0000
 11
100.8217
 21
162.0471
 31
0.0000
  0
LINE
  8
119
 10
100.8217
 20
162.0471
 30
0.0000
 11
80.8217
 21
162.0471
 31
0.0000
  0
LINE
  8
119
 10
78.3217
 20
162.0471
 30
0.0000
 11
77.6796
 21
162.0471
 31
0.0000
  0
LINE
  8
119
 10
100.8217
 20
162.0471
 30
0.0000
 11
100.8217
 21
115.0471
 31
0.0000
  0
LINE
  8
119
 10
100.8217
 20
115.0471
 30
0.0000
 11
80.8217
 21
115.0471
 31
0.0000
  0
LINE
  8
119
 10
78.3217
 20
115.0471
 30
0.0000
 11
77.6796
 21
115.0471
 31
0.0000
  0
LINE
  8
119
 10
77.6796
 20
162.0471
 30
0.0000
 11
76.8217
 21
162.0471
 31
0.0000
  0
LINE
  8
119
 10
77.6796
 20
115.0471
 30
0.0000
 11
76.8217
 21
115.0471
 31
0.0000
  0
LINE
  8
119
 10
141.2014
 20
171.7721
 30
0.0000
 11
141.2436
 21
171.8345
 31
0.0000
  0
LINE
  8
119
 10
141.5376
 20
193.0749
 30
0.0000
 11
143.5213
 21
192.8204
 31
0.0000
  0
LINE
  8
119
 10
141.5376
 20
193.0749
 30
0.0000
 11
141.9192
 21
196.0505
 31
0.0000
  0
LINE
  8
119
 10
141.9192
 20
196.0505
 30
0.0000
 11
143.9030
 21
195.7961
 31
0.0000
  0
LINE
  8
119
 10
143.5213
 20
192.8204
 30
0.0000
 11
143.9030
 21
195.7961
 31
0.0000
  0
LINE
  8
119
 10
141.4740
 20
192.5789
 30
0.0000
 11
143.4577
 21
192.3245
 31
0.0000
  0
LINE
  8
119
 10
141.4740
 20
192.5789
 30
0.0000
 11
141.4752
 21
192.5885
 31
0.0000
  0
LINE
  8
119
 10
141.4752
 20
192.5885
 30
0.0000
 11
141.4788
 21
192.6167
 31
0.0000
  0
LINE
  8
119
 10
141.4788
 20
192.6167
 30
0.0000
 11
141.4847
 21
192.6625
 31
0.0000
  0
LINE
  8
119
 10
141.4847
 20
192.6625
 30
0.0000
 11
141.4926
 21
192.7242
 31
0.0000
  0
LINE
  8
119
 10
141.4926
 20
192.7242
 30
0.0000
 11
141.5022
 21
192.7994
 31
0.0000
  0
LINE
  8
119
 10
141.5022
 20
192.7994
 30
0.0000
 11
141.5132
 21
192.8851
 31
0.0000
  0
LINE
  8
119
 10
141.5132
 20
192.8851
 30
0.0000
 11
141.5252
 21
192.9781
 31
0.0000
  0
LINE
  8
119
 10
141.5252
 20
192.9781
 30
0.0000
 11
141.5376
 21
193.0749
 31
0.0000
  0
LINE
  8
119
 10
141.5376
 20
193.0749
 30
0.0000
 11
141.4740
 21
192.5789
 31
0.0000
  0
LINE
  8
119
 10
143.4577
 20
192.3245
 30
0.0000
 11
143.4589
 21
192.3340
 31
0.0000
  0
LINE
  8
119
 10
143.4589
 20
192.3340
 30
0.0000
 11
143.4625
 21
192.3623
 31
0.0000
  0
LINE
  8
119
 10
143.4625
 20
192.3623
 30
0.0000
 11
143.4684
 21
192.4081
 31
0.0000
  0
LINE
  8
119
 10
143.4684
 20
192.4081
 30
0.0000
 11
143.4763
 21
192.4698
 31
0.0000
  0
LINE
  8
119
 10
143.4763
 20
192.4698
 30
0.0000
 11
143.4860
 21
192.5449
 31
0.0000
  0
LINE
  8
119
 10
143.4860
 20
192.5449
 30
0.0000
 11
143.4970
 21
192.6307
 31
0.0000
  0
LINE
  8
119
 10
143.4970
 20
192.6307
 30
0.0000
 11
143.5089
 21
192.7237
 31
0.0000
  0
LINE
  8
119
 10
143.5089
 20
192.7237
 30
0.0000
 11
143.5213
 21
192.8204
 31
0.0000
  0
LINE
  8
119
 10
143.5213
 20
192.8204
 30
0.0000
 11
143.4577
 21
192.3245
 31
0.0000
  0
LINE
  8
119
 10
141.9192
 20
196.0505
 30
0.0000
 11
141.9316
 21
196.1473
 31
0.0000
  0
LINE
  8
119
 10
141.9316
 20
196.1473
 30
0.0000
 11
141.9436
 21
196.2403
 31
0.0000
  0
LINE
  8
119
 10
141.9436
 20
196.2403
 30
0.0000
 11
141.9546
 21
196.3260
 31
0.0000
  0
LINE
  8
119
 10
141.9546
 20
196.3260
 30
0.0000
 11
141.9642
 21
196.4012
 31
0.0000
  0
LINE
  8
119
 10
141.9642
 20
196.4012
 30
0.0000
 11
141.9721
 21
196.4629
 31
0.0000
  0
LINE
  8
119
 10
141.9721
 20
196.4629
 30
0.0000
 11
141.9780
 21
196.5087
 31
0.0000
  0
LINE
  8
119
 10
141.9780
 20
196.5087
 30
0.0000
 11
141.9816
 21
196.5369
 31
0.0000
  0
LINE
  8
119
 10
141.9816
 20
196.5369
 30
0.0000
 11
141.9828
 21
196.5464
 31
0.0000
  0
LINE
  8
119
 10
141.9828
 20
196.5464
 30
0.0000
 11
141.9192
 21
196.0505
 31
0.0000
  0
LINE
  8
119
 10
141.9828
 20
196.5464
 30
0.0000
 11
143.9666
 21
196.2920
 31
0.0000
  0
LINE
  8
119
 10
143.9030
 20
195.7961
 30
0.0000
 11
143.9154
 21
195.8928
 31
0.0000
  0
LINE
  8
119
 10
143.9154
 20
195.8928
 30
0.0000
 11
143.9273
 21
195.9858
 31
0.0000
  0
LINE
  8
119
 10
143.9273
 20
195.9858
 30
0.0000
 11
143.9383
 21
196.0716
 31
0.0000
  0
LINE
  8
119
 10
143.9383
 20
196.0716
 30
0.0000
 11
143.9479
 21
196.1467
 31
0.0000
  0
LINE
  8
119
 10
143.9479
 20
196.1467
 30
0.0000
 11
143.9558
 21
196.2084
 31
0.0000
  0
LINE
  8
119
 10
143.9558
 20
196.2084
 30
0.0000
 11
143.9617
 21
196.2543
 31
0.0000
  0
LINE
  8
119
 10
143.9617
 20
196.2543
 30
0.0000
 11
143.9654
 21
196.2825
 31
0.0000
  0
LINE
  8
119
 10
143.9654
 20
196.2825
 30
0.0000
 11
143.9666
 21
196.2920
 31
0.0000
  0
LINE
  8
119
 10
143.9666
 20
196.2920
 30
0.0000
 11
143.9030
 21
195.7961
 31
0.0000
  0
LINE
  8
119
 10
138.1027
 20
166.2943
 30
0.0000
 11
140.0865
 21
166.0398
 31
0.0000
  0
LINE
  8
119
 10
138.1027
 20
166.2943
 30
0.0000
 11
138.5488
 21
169.7721
 31
0.0000
  0
LINE
  8
119
 10
138.8053
 20
171.7721
 30
0.0000
 11
138.8358
 21
172.0096
 31
0.0000
  0
LINE
  8
119
 10
138.9403
 20
172.8244
 30
0.0000
 11
138.9461
 21
172.8699
 31
0.0000
  0
LINE
  8
119
 10
139.0505
 20
173.6841
 30
0.0000
 11
139.1024
 21
174.0881
 31
0.0000
  0
LINE
  8
119
 10
139.2072
 20
174.9055
 30
0.0000
 11
139.4693
 21
176.9490
 31
0.0000
  0
LINE
  8
119
 10
139.5744
 20
177.7688
 30
0.0000
 11
139.8604
 21
179.9984
 31
0.0000
  0
LINE
  8
119
 10
139.9655
 20
180.8182
 30
0.0000
 11
140.2514
 21
183.0469
 31
0.0000
  0
LINE
  8
119
 10
140.3566
 20
183.8669
 30
0.0000
 11
140.6425
 21
186.0960
 31
0.0000
  0
LINE
  8
119
 10
140.7477
 20
186.9164
 30
0.0000
 11
140.9856
 21
188.7712
 31
0.0000
  0
LINE
  8
119
 10
141.0904
 20
189.5881
 30
0.0000
 11
141.1210
 21
189.8273
 31
0.0000
  0
LINE
  8
119
 10
141.2253
 20
190.6398
 30
0.0000
 11
141.2297
 21
190.6749
 31
0.0000
  0
LINE
  8
119
 10
141.3341
 20
191.4889
 30
0.0000
 11
141.4740
 21
192.5789
 31
0.0000
  0
LINE
  8
119
 10
140.0865
 20
166.0398
 30
0.0000
 11
140.5652
 21
169.7721
 31
0.0000
  0
LINE
  8
119
 10
140.8217
 20
171.7721
 30
0.0000
 11
140.8334
 21
171.8635
 31
0.0000
  0
LINE
  8
119
 10
140.9378
 20
172.6776
 30
0.0000
 11
140.9421
 21
172.7112
 31
0.0000
  0
LINE
  8
119
 10
141.0465
 20
173.5250
 30
0.0000
 11
141.1134
 21
174.0467
 31
0.0000
  0
LINE
  8
119
 10
141.2183
 20
174.8641
 30
0.0000
 11
141.4873
 21
176.9615
 31
0.0000
  0
LINE
  8
119
 10
141.5924
 20
177.7808
 30
0.0000
 11
141.8783
 21
180.0104
 31
0.0000
  0
LINE
  8
119
 10
141.9835
 20
180.8304
 30
0.0000
 11
142.2693
 21
183.0588
 31
0.0000
  0
LINE
  8
119
 10
142.3745
 20
183.8790
 30
0.0000
 11
142.6604
 21
186.1085
 31
0.0000
  0
LINE
  8
119
 10
142.7656
 20
186.9284
 30
0.0000
 11
142.9914
 21
188.6888
 31
0.0000
  0
LINE
  8
119
 10
143.0960
 20
189.5047
 30
0.0000
 11
143.1172
 21
189.6700
 31
0.0000
  0
LINE
  8
119
 10
143.2216
 20
190.4837
 30
0.0000
 11
143.2275
 21
190.5293
 31
0.0000
  0
LINE
  8
119
 10
143.3319
 20
191.3437
 30
0.0000
 11
143.4577
 21
192.3245
 31
0.0000
  0
LINE
  8
119
 10
138.0391
 20
165.7983
 30
0.0000
 11
140.0229
 21
165.5439
 31
0.0000
  0
LINE
  8
119
 10
138.0391
 20
165.7983
 30
0.0000
 11
138.0403
 21
165.8078
 31
0.0000
  0
LINE
  8
119
 10
138.0403
 20
165.8078
 30
0.0000
 11
138.0439
 21
165.8361
 31
0.0000
  0
LINE
  8
119
 10
138.0439
 20
165.8361
 30
0.0000
 11
138.0498
 21
165.8819
 31
0.0000
  0
LINE
  8
119
 10
138.0498
 20
165.8819
 30
0.0000
 11
138.0577
 21
165.9436
 31
0.0000
  0
LINE
  8
119
 10
138.0577
 20
165.9436
 30
0.0000
 11
138.0674
 21
166.0187
 31
0.0000
  0
LINE
  8
119
 10
138.0674
 20
166.0187
 30
0.0000
 11
138.0784
 21
166.1045
 31
0.0000
  0
LINE
  8
119
 10
138.0784
 20
166.1045
 30
0.0000
 11
138.0903
 21
166.1975
 31
0.0000
  0
LINE
  8
119
 10
138.0903
 20
166.1975
 30
0.0000
 11
138.1027
 21
166.2943
 31
0.0000
  0
LINE
  8
119
 10
138.1027
 20
166.2943
 30
0.0000
 11
138.0391
 21
165.7983
 31
0.0000
  0
LINE
  8
119
 10
140.0229
 20
165.5439
 30
0.0000
 11
140.0241
 21
165.5534
 31
0.0000
  0
LINE
  8
119
 10
140.0241
 20
165.5534
 30
0.0000
 11
140.0277
 21
165.5816
 31
0.0000
  0
LINE
  8
119
 10
140.0277
 20
165.5816
 30
0.0000
 11
140.0336
 21
165.6275
 31
0.0000
  0
LINE
  8
119
 10
140.0336
 20
165.6275
 30
0.0000
 11
140.0415
 21
165.6891
 31
0.0000
  0
LINE
  8
119
 10
140.0415
 20
165.6891
 30
0.0000
 11
140.0511
 21
165.7643
 31
0.0000
  0
LINE
  8
119
 10
140.0511
 20
165.7643
 30
0.0000
 11
140.0621
 21
165.8500
 31
0.0000
  0
LINE
  8
119
 10
140.0621
 20
165.8500
 30
0.0000
 11
140.0741
 21
165.9431
 31
0.0000
  0
LINE
  8
119
 10
140.0741
 20
165.9431
 30
0.0000
 11
140.0865
 21
166.0398
 31
0.0000
  0
LINE
  8
119
 10
140.0865
 20
166.0398
 30
0.0000
 11
140.0229
 21
165.5439
 31
0.0000
  0
LINE
  8
119
 10
119.8211
 20
235.5971
 30
0.0000
 11
119.9583
 21
229.2971
 31
0.0000
  0
LINE
  8
119
 10
120.0717
 20
224.0891
 30
0.0000
 11
120.2124
 21
217.6258
 31
0.0000
  0
ARC
  8
119
 10
120.7919
 20
236.9509
 30
0.0000
 40
1.0000
 50
91.2474
 51
136.0696
  0
ARC
  8
119
 10
122.0351
 20
234.9775
 30
0.0000
 40
3.0000
 50
1.2474
 51
91.2472
  0
ARC
  8
119
 10
127.3832
 20
219.0437
 30
0.0000
 40
2.0000
 50
181.2473
 51
253.6973
  0
ARC
  8
119
 10
122.8217
 20
203.4471
 30
0.0000
 40
14.2500
 50
238.4638
 51
73.6973
  0
ARC
  8
119
 10
114.5839
 20
190.0232
 30
0.0000
 40
1.5000
 50
58.4638
 51
160.3758
  0
ARC
  8
119
 10
109.8743
 20
191.7025
 30
0.0000
 40
3.5000
 50
265.2474
 51
340.3756
  0
LINE
  8
119
 10
92.2602
 20
189.6549
 30
0.0000
 11
109.5843
 21
188.2145
 31
0.0000
  0
ARC
  8
119
 10
92.3430
 20
190.6514
 30
0.0000
 40
1.0000
 50
181.2473
 51
265.2474
  0
LINE
  8
119
 10
91.2525
 20
194.7979
 30
0.0000
 11
91.3432
 21
190.6296
 31
0.0000
  0
ARC
  8
119
 10
92.2523
 20
194.8196
 30
0.0000
 40
1.0000
 50
91.2474
 51
181.2472
  0
LINE
  8
119
 10
96.1054
 20
195.9038
 30
0.0000
 11
92.2305
 21
195.8194
 31
0.0000
  0
ARC
  8
119
 10
96.2578
 20
188.9054
 30
0.0000
 40
7.0000
 50
38.7426
 51
91.2473
  0
LINE
  8
119
 10
108.8943
 20
200.4320
 30
0.0000
 11
109.6255
 21
197.0545
 31
0.0000
  0
ARC
  8
119
 10
122.8217
 20
203.4471
 30
0.0000
 40
14.2500
 50
101.2103
 51
107.9261
  0
ARC
  8
119
 10
122.8217
 20
203.4471
 30
0.0000
 40
14.2500
 50
107.9261
 51
192.2156
  0
ARC
  8
119
 10
120.0125
 20
217.6214
 30
0.0000
 40
0.2000
 50
281.2096
 51
1.2484
  0
LINE
  8
119
 10
121.9698
 20
237.9768
 30
0.0000
 11
120.7701
 21
237.9506
 31
0.0000
  0
LINE
  8
119
 10
125.3837
 20
219.0002
 30
0.0000
 11
125.1358
 21
230.3879
 31
0.0000
  0
LINE
  8
119
 10
125.0526
 20
234.2064
 30
0.0000
 11
125.0351
 21
235.0101
 31
0.0000
  0
LINE
  8
119
 10
125.0351
 20
235.0101
 30
0.0000
 11
125.0344
 21
235.0428
 31
0.0000
  0
ARC
  8
119
 10
105.2274
 20
196.1024
 30
0.0000
 40
4.5000
 50
218.7426
 51
12.2156
  0
LINE
  8
119
 10
128.3643
 20
198.8510
 30
0.0000
 11
127.4178
 21
208.9898
 31
0.0000
  0
LINE
  8
119
 10
127.4178
 20
208.9898
 30
0.0000
 11
127.4452
 21
209.0228
 31
0.0000
  0
LINE
  8
119
 10
127.4452
 20
209.0228
 30
0.0000
 11
127.4764
 21
209.0604
 31
0.0000
  0
LINE
  8
119
 10
127.4764
 20
209.0604
 30
0.0000
 11
127.5102
 21
209.1013
 31
0.0000
  0
LINE
  8
119
 10
127.5102
 20
209.1013
 30
0.0000
 11
127.5455
 21
209.1437
 31
0.0000
  0
LINE
  8
119
 10
127.5455
 20
209.1437
 30
0.0000
 11
127.4178
 21
208.9898
 31
0.0000
  0
LINE
  8
119
 10
127.5455
 20
209.1437
 30
0.0000
 11
128.5183
 21
198.7234
 31
0.0000
  0
LINE
  8
119
 10
128.3643
 20
198.8510
 30
0.0000
 11
128.3973
 21
198.8237
 31
0.0000
  0
LINE
  8
119
 10
128.3973
 20
198.8237
 30
0.0000
 11
128.4350
 21
198.7925
 31
0.0000
  0
LINE
  8
119
 10
128.4350
 20
198.7925
 30
0.0000
 11
128.4758
 21
198.7586
 31
0.0000
  0
LINE
  8
119
 10
128.4758
 20
198.7586
 30
0.0000
 11
128.5183
 21
198.7234
 31
0.0000
  0
LINE
  8
119
 10
128.5183
 20
198.7234
 30
0.0000
 11
128.3643
 21
198.8510
 31
0.0000
  0
LINE
  8
119
 10
128.5183
 20
198.7234
 30
0.0000
 11
118.0979
 21
197.7505
 31
0.0000
  0
LINE
  8
119
 10
118.0979
 20
197.7505
 30
0.0000
 11
118.1331
 21
197.7930
 31
0.0000
  0
LINE
  8
119
 10
118.1331
 20
197.7930
 30
0.0000
 11
118.1670
 21
197.8338
 31
0.0000
  0
LINE
  8
119
 10
118.1670
 20
197.8338
 30
0.0000
 11
118.1982
 21
197.8715
 31
0.0000
  0
LINE
  8
119
 10
118.1982
 20
197.8715
 30
0.0000
 11
118.2256
 21
197.9045
 31
0.0000
  0
LINE
  8
119
 10
118.2256
 20
197.9045
 30
0.0000
 11
118.0979
 21
197.7505
 31
0.0000
  0
LINE
  8
119
 10
118.2256
 20
197.9045
 30
0.0000
 11
128.3643
 21
198.8510
 31
0.0000
  0
LINE
  8
119
 10
117.1251
 20
208.1709
 30
0.0000
 11
127.5455
 21
209.1437
 31
0.0000
  0
LINE
  8
119
 10
127.4178
 20
208.9898
 30
0.0000
 11
117.2790
 21
208.0432
 31
0.0000
  0
LINE
  8
119
 10
117.1251
 20
208.1709
 30
0.0000
 11
117.1676
 21
208.1357
 31
0.0000
  0
LINE
  8
119
 10
117.1676
 20
208.1357
 30
0.0000
 11
117.2084
 21
208.1018
 31
0.0000
  0
LINE
  8
119
 10
117.2084
 20
208.1018
 30
0.0000
 11
117.2460
 21
208.0706
 31
0.0000
  0
LINE
  8
119
 10
117.2460
 20
208.0706
 30
0.0000
 11
117.2790
 21
208.0432
 31
0.0000
  0
LINE
  8
119
 10
117.2790
 20
208.0432
 30
0.0000
 11
117.1251
 21
208.1709
 31
0.0000
  0
LINE
  8
119
 10
118.0979
 20
197.7505
 30
0.0000
 11
117.1251
 21
208.1709
 31
0.0000
  0
LINE
  8
119
 10
117.2790
 20
208.0432
 30
0.0000
 11
118.2256
 21
197.9045
 31
0.0000
  0
LINE
  8
119
 10
126.5680
 20
207.9649
 30
0.0000
 11
118.3039
 21
207.1934
 31
0.0000
  0
LINE
  8
119
 10
118.3039
 20
207.1934
 30
0.0000
 11
117.2790
 21
208.0432
 31
0.0000
  0
LINE
  8
119
 10
127.4178
 20
208.9898
 30
0.0000
 11
126.5680
 21
207.9649
 31
0.0000
  0
LINE
  8
119
 10
119.0754
 20
198.9293
 30
0.0000
 11
127.3395
 21
199.7009
 31
0.0000
  0
LINE
  8
119
 10
128.3643
 20
198.8510
 30
0.0000
 11
127.3395
 21
199.7009
 31
0.0000
  0
LINE
  8
119
 10
119.0754
 20
198.9293
 30
0.0000
 11
118.2256
 21
197.9045
 31
0.0000
  0
LINE
  8
119
 10
127.3395
 20
199.7009
 30
0.0000
 11
126.5680
 21
207.9649
 31
0.0000
  0
LINE
  8
119
 10
118.3039
 20
207.1934
 30
0.0000
 11
119.0754
 21
198.9293
 31
0.0000
  0
LINE
  8
119
 10
119.8632
 20
217.5624
 30
0.0000
 11
118.4357
 21
217.0054
 31
0.0000
  0
LINE
  8
119
 10
116.8654
 20
216.3926
 30
0.0000
 11
107.2353
 21
212.6347
 31
0.0000
  0
ARC
  8
119
 10
119.6815
 20
218.0282
 30
0.0000
 40
0.5000
 50
321.2984
 51
331.6921
  0
ARC
  8
119
 10
119.6815
 20
218.0282
 30
0.0000
 40
0.5000
 50
331.6935
 51
1.3335
  0
LINE
  8
119
 10
119.9348
 20
217.5971
 30
0.0000
 11
119.9320
 21
217.5955
 31
0.0000
  0
LINE
  8
119
 10
119.9320
 20
217.5955
 30
0.0000
 11
119.8632
 21
217.5624
 31
0.0000
  0
LINE
  8
119
 10
119.8632
 20
217.5624
 30
0.0000
 11
119.9348
 21
217.5971
 31
0.0000
  0
ARC
  8
119
 10
137.8808
 20
203.2296
 30
0.0000
 40
0.3000
 50
181.3331
 51
215.7327
  0
ARC
  8
119
 10
140.3101
 20
199.8532
 30
0.0000
 40
0.3000
 50
215.7334
 51
271.3339
  0
LINE
  8
119
 10
148.0430
 20
194.2316
 30
0.0000
 11
147.9220
 21
199.4302
 31
0.0000
  0
ARC
  8
119
 10
147.7431
 20
194.2246
 30
0.0000
 40
0.3000
 50
246.3344
 51
1.3335
  0
LINE
  8
119
 10
144.3907
 20
195.3663
 30
0.0000
 11
147.6227
 21
193.9499
 31
0.0000
  0
LINE
  8
119
 10
143.6416
 20
197.1248
 30
0.0000
 11
144.2847
 21
195.4768
 31
0.0000
  0
LINE
  8
119
 10
141.6694
 20
196.3913
 30
0.0000
 11
143.3666
 21
197.2313
 31
0.0000
  0
LINE
  8
119
 10
143.3666
 20
197.2313
 30
0.0000
 11
143.3666
 21
197.2313
 31
0.0000
  0
LINE
  8
119
 10
141.7078
 20
194.8518
 30
0.0000
 11
141.5593
 21
196.1900
 31
0.0000
  0
LINE
  8
119
 10
133.8738
 20
194.4519
 30
0.0000
 11
141.5137
 21
194.6298
 31
0.0000
  0
LINE
  8
119
 10
107.1080
 20
212.4438
 30
0.0000
 11
107.2165
 21
207.7851
 31
0.0000
  0
LINE
  8
119
 10
137.3538
 20
204.3856
 30
0.0000
 11
137.0412
 21
204.3783
 31
0.0000
  0
LINE
  8
119
 10
120.0717
 20
222.7499
 30
0.0000
 11
120.1217
 21
220.6022
 31
0.0000
  0
LINE
  8
119
 10
120.1217
 20
220.6022
 30
0.0000
 11
120.1813
 21
218.0398
 31
0.0000
  0
ARC
  8
119
 10
147.6221
 20
199.4232
 30
0.0000
 40
0.3000
 50
1.3337
 51
91.3331
  0
ARC
  8
119
 10
141.5090
 20
194.8297
 30
0.0000
 40
0.2000
 50
271.3336
 51
6.3320
  0
LINE
  8
119
 10
137.5809
 20
203.2227
 30
0.0000
 11
137.5584
 21
204.1903
 31
0.0000
  0
ARC
  8
119
 10
141.7581
 20
196.2120
 30
0.0000
 40
0.2000
 50
116.3326
 51
186.3344
  0
ARC
  8
119
 10
137.3584
 20
204.1857
 30
0.0000
 40
0.2000
 50
1.3340
 51
91.3331
  0
LINE
  8
119
 10
107.4211
 20
207.5898
 30
0.0000
 11
108.2209
 21
207.6084
 31
0.0000
  0
ARC
  8
119
 10
143.4553
 20
197.0521
 30
0.0000
 40
0.2000
 50
21.3172
 51
116.3344
  0
ARC
  8
119
 10
108.2674
 20
205.6090
 30
0.0000
 40
2.0000
 50
64.3172
 51
91.3335
  0
LINE
  8
119
 10
147.6151
 20
199.7232
 30
0.0000
 11
140.3170
 21
199.5533
 31
0.0000
  0
LINE
  8
119
 10
140.0665
 20
199.6780
 30
0.0000
 11
139.4369
 21
200.5531
 31
0.0000
  0
LINE
  8
119
 10
139.4369
 20
200.5531
 30
0.0000
 11
137.6373
 21
203.0544
 31
0.0000
  0
ARC
  8
119
 10
107.3080
 20
212.4484
 30
0.0000
 40
0.2000
 50
111.3153
 51
181.3353
  0
ARC
  8
119
 10
144.4710
 20
195.5495
 30
0.0000
 40
0.2000
 50
201.3180
 51
246.3336
  0
ARC
  8
119
 10
107.4164
 20
207.7898
 30
0.0000
 40
0.2000
 50
181.3331
 51
271.3340
  0
LINE
  8
119
 10
95.5365
 20
235.3244
 30
0.0000
 11
95.5152
 21
235.4175
 31
0.0000
  0
LINE
  8
119
 10
95.5152
 20
235.4175
 30
0.0000
 11
95.4501
 21
235.4966
 31
0.0000
  0
LINE
  8
119
 10
95.4501
 20
235.4966
 30
0.0000
 11
95.3544
 21
235.5513
 31
0.0000
  0
LINE
  8
119
 10
95.3544
 20
235.5513
 30
0.0000
 11
95.2416
 21
235.5705
 31
0.0000
  0
LINE
  8
119
 10
95.2416
 20
235.5705
 30
0.0000
 11
95.1280
 21
235.5544
 31
0.0000
  0
LINE
  8
119
 10
95.1280
 20
235.5544
 30
0.0000
 11
95.0331
 21
235.5028
 31
0.0000
  0
LINE
  8
119
 10
95.0331
 20
235.5028
 30
0.0000
 11
94.9681
 21
235.4253
 31
0.0000
  0
LINE
  8
119
 10
94.9681
 20
235.4253
 30
0.0000
 11
94.9467
 21
235.3332
 31
0.0000
  0
LINE
  8
119
 10
94.9467
 20
235.3332
 30
0.0000
 11
94.9684
 21
235.2398
 31
0.0000
  0
LINE
  8
119
 10
94.9684
 20
235.2398
 30
0.0000
 11
95.0331
 21
235.1610
 31
0.0000
  0
LINE
  8
119
 10
95.0331
 20
235.1610
 30
0.0000
 11
95.1288
 21
235.1063
 31
0.0000
  0
LINE
  8
119
 10
95.1288
 20
235.1063
 30
0.0000
 11
95.2416
 21
235.0871
 31
0.0000
  0
LINE
  8
119
 10
95.2416
 20
235.0871
 30
0.0000
 11
95.3552
 21
235.1032
 31
0.0000
  0
LINE
  8
119
 10
95.3552
 20
235.1032
 30
0.0000
 11
95.4501
 21
235.1548
 31
0.0000
  0
LINE
  8
119
 10
95.4501
 20
235.1548
 30
0.0000
 11
95.5146
 21
235.2319
 31
0.0000
  0
LINE
  8
119
 10
95.5146
 20
235.2319
 30
0.0000
 11
95.5365
 21
235.3244
 31
0.0000
  0
LINE
  8
119
 10
115.9415
 20
235.3244
 30
0.0000
 11
115.9196
 21
235.4176
 31
0.0000
  0
LINE
  8
119
 10
115.9196
 20
235.4176
 30
0.0000
 11
115.8551
 21
235.4966
 31
0.0000
  0
LINE
  8
119
 10
115.8551
 20
235.4966
 30
0.0000
 11
115.7602
 21
235.5510
 31
0.0000
  0
LINE
  8
119
 10
115.7602
 20
235.5510
 30
0.0000
 11
115.6466
 21
235.5705
 31
0.0000
  0
LINE
  8
119
 10
115.6466
 20
235.5705
 30
0.0000
 11
115.5338
 21
235.5546
 31
0.0000
  0
LINE
  8
119
 10
115.5338
 20
235.5546
 30
0.0000
 11
115.4381
 21
235.5028
 31
0.0000
  0
LINE
  8
119
 10
115.4381
 20
235.5028
 30
0.0000
 11
115.3734
 21
235.4259
 31
0.0000
  0
LINE
  8
119
 10
115.3734
 20
235.4259
 30
0.0000
 11
115.3517
 21
235.3332
 31
0.0000
  0
LINE
  8
119
 10
115.3517
 20
235.3332
 30
0.0000
 11
115.3618
 21
235.2895
 31
0.0000
  0
LINE
  8
119
 10
115.3618
 20
235.2895
 30
0.0000
 11
115.9415
 21
235.3244
 31
0.0000
  0
LINE
  8
119
 10
127.2715
 20
230.4755
 30
0.0000
 11
127.2842
 21
230.4432
 31
0.0000
  0
LINE
  8
119
 10
127.2842
 20
230.4432
 30
0.0000
 11
127.2475
 21
230.3529
 31
0.0000
  0
LINE
  8
119
 10
127.2475
 20
230.3529
 30
0.0000
 11
127.1379
 21
230.2803
 31
0.0000
  0
LINE
  8
119
 10
127.1379
 20
230.2803
 30
0.0000
 11
126.9760
 21
230.2340
 31
0.0000
  0
LINE
  8
119
 10
126.9760
 20
230.2340
 30
0.0000
 11
126.7846
 21
230.2240
 31
0.0000
  0
LINE
  8
119
 10
126.7846
 20
230.2240
 30
0.0000
 11
126.5925
 21
230.2488
 31
0.0000
  0
LINE
  8
119
 10
126.5925
 20
230.2488
 30
0.0000
 11
126.4314
 21
230.3072
 31
0.0000
  0
LINE
  8
119
 10
126.4314
 20
230.3072
 30
0.0000
 11
126.3220
 21
230.3884
 31
0.0000
  0
LINE
  8
119
 10
126.3220
 20
230.3884
 30
0.0000
 11
126.2851
 21
230.4813
 31
0.0000
  0
LINE
  8
119
 10
126.2851
 20
230.4813
 30
0.0000
 11
127.2715
 21
230.4755
 31
0.0000
  0
LINE
  8
119
 10
117.1915
 20
226.9471
 30
0.0000
 11
117.1915
 21
237.6471
 31
0.0000
  0
LINE
  8
119
 10
115.9415
 20
226.9471
 30
0.0000
 11
115.9415
 21
237.6471
 31
0.0000
  0
LINE
  8
119
 10
126.2851
 20
226.9471
 30
0.0000
 11
126.2851
 21
237.6471
 31
0.0000
  0
LINE
  8
119
 10
125.0351
 20
230.3879
 30
0.0000
 11
125.0351
 21
234.2064
 31
0.0000
  0
LINE
  8
119
 10
125.0351
 20
235.0101
 30
0.0000
 11
125.0351
 21
237.6471
 31
0.0000
  0
LINE
  8
119
 10
66.3217
 20
219.2971
 30
0.0000
 11
78.3217
 21
219.2971
 31
0.0000
  0
LINE
  8
119
 10
66.3217
 20
219.2971
 30
0.0000
 11
66.3217
 21
245.2971
 31
0.0000
  0
LINE
  8
119
 10
66.3217
 20
245.2971
 30
0.0000
 11
78.3217
 21
245.2971
 31
0.0000
  0
LINE
  8
119
 10
95.3217
 20
235.0140
 30
0.0000
 11
95.3217
 21
229.2971
 31
0.0000
  0
LINE
  8
119
 10
93.3217
 20
235.2971
 30
0.0000
 11
93.3217
 21
229.2971
 31
0.0000
  0
LINE
  8
119
 10
81.8217
 20
235.2971
 30
0.0000
 11
81.8217
 21
229.2971
 31
0.0000
  0
LINE
  8
119
 10
137.8217
 20
235.2524
 30
0.0000
 11
137.8217
 21
229.3364
 31
0.0000
  0
LINE
  8
119
 10
137.8217
 20
229.3364
 30
0.0000
 11
136.8217
 21
229.3364
 31
0.0000
  0
LINE
  8
119
 10
136.8217
 20
229.3364
 30
0.0000
 11
136.8217
 21
229.2971
 31
0.0000
  0
LINE
  8
119
 10
137.8217
 20
235.2578
 30
0.0000
 11
136.8217
 21
235.2578
 31
0.0000
  0
LINE
  8
119
 10
136.8217
 20
235.2971
 30
0.0000
 11
136.8217
 21
235.2524
 31
0.0000
  0
LINE
  8
119
 10
136.8217
 20
235.2524
 30
0.0000
 11
137.8217
 21
235.2524
 31
0.0000
  0
LINE
  8
119
 10
137.8217
 20
235.2524
 30
0.0000
 11
137.8217
 21
235.2578
 31
0.0000
  0
LINE
  8
119
 10
83.0217
 20
187.6471
 30
0.0000
 11
83.0217
 21
182.2476
 31
0.0000
  0
LINE
  8
119
 10
83.0217
 20
254.6471
 30
0.0000
 11
83.0217
 21
249.2471
 31
0.0000
  0
LINE
  8
119
 10
83.0217
 20
92.6471
 30
0.0000
 11
83.0217
 21
87.2471
 31
0.0000
  0
LINE
  8
119
 10
78.3217
 20
50.9471
 30
0.0000
 11
80.8217
 21
50.9471
 31
0.0000
  0
LINE
  8
119
 10
78.3217
 20
50.9471
 30
0.0000
 11
78.3217
 21
290.9471
 31
0.0000
  0
LINE
  8
119
 10
78.3217
 20
290.9471
 30
0.0000
 11
80.8217
 21
290.9471
 31
0.0000
  0
LINE
  8
119
 10
80.8217
 20
50.9471
 30
0.0000
 11
80.8217
 21
84.4471
 31
0.0000
  0
LINE
  8
119
 10
80.8217
 20
84.4471
 30
0.0000
 11
80.8217
 21
92.2639
 31
0.0000
  0
LINE
  8
119
 10
80.8217
 20
92.2639
 30
0.0000
 11
80.8217
 21
92.4611
 31
0.0000
  0
LINE
  8
119
 10
80.8217
 20
92.4611
 30
0.0000
 11
80.8217
 21
94.4471
 31
0.0000
  0
LINE
  8
119
 10
80.8217
 20
94.4471
 30
0.0000
 11
80.8217
 21
94.9471
 31
0.0000
  0
LINE
  8
119
 10
80.8217
 20
94.9471
 30
0.0000
 11
80.8217
 21
104.9471
 31
0.0000
  0
LINE
  8
119
 10
80.8217
 20
104.9471
 30
0.0000
 11
80.8217
 21
105.4471
 31
0.0000
  0
LINE
  8
119
 10
80.8217
 20
105.4471
 30
0.0000
 11
80.8217
 21
108.6471
 31
0.0000
  0
LINE
  8
119
 10
80.8217
 20
108.6471
 30
0.0000
 11
80.8217
 21
162.1471
 31
0.0000
  0
LINE
  8
119
 10
80.8217
 20
162.1471
 30
0.0000
 11
80.8217
 21
165.3471
 31
0.0000
  0
LINE
  8
119
 10
80.8217
 20
165.3471
 30
0.0000
 11
80.8217
 21
165.8471
 31
0.0000
  0
LINE
  8
119
 10
80.8217
 20
165.8471
 30
0.0000
 11
80.8217
 21
217.6971
 31
0.0000
  0
LINE
  8
119
 10
80.8217
 20
217.6971
 30
0.0000
 11
80.8217
 21
218.1971
 31
0.0000
  0
LINE
  8
119
 10
80.8217
 20
218.1971
 30
0.0000
 11
80.8217
 21
246.6971
 31
0.0000
  0
LINE
  8
119
 10
80.8217
 20
246.6971
 30
0.0000
 11
80.8217
 21
247.1971
 31
0.0000
  0
LINE
  8
119
 10
80.8217
 20
247.1971
 30
0.0000
 11
80.8217
 21
257.4471
 31
0.0000
  0
LINE
  8
119
 10
80.8217
 20
257.4471
 30
0.0000
 11
80.8217
 21
290.9471
 31
0.0000
  0
LINE
  8
119
 10
138.2717
 20
153.2967
 30
0.0000
 11
138.9227
 21
152.9080
 31
0.0000
  0
LINE
  8
119
 10
138.9227
 20
152.9080
 30
0.0000
 11
139.3077
 21
152.5471
 31
0.0000
  0
LINE
  8
119
 10
139.3077
 20
152.5471
 30
0.0000
 11
138.2717
 21
153.2967
 31
0.0000
  0
LINE
  8
119
 10
138.8855
 20
152.5471
 30
0.0000
 11
138.6888
 21
152.7093
 31
0.0000
  0
LINE
  8
119
 10
138.6888
 20
152.7093
 30
0.0000
 11
138.2717
 21
152.9658
 31
0.0000
  0
LINE
  8
119
 10
138.2717
 20
152.9658
 30
0.0000
 11
138.8855
 21
152.5471
 31
0.0000
  0
LINE
  8
119
 10
117.5717
 20
217.5971
 30
0.0000
 11
120.0717
 21
217.5971
 31
0.0000
  0
LINE
  8
119
 10
117.5717
 20
221.4471
 30
0.0000
 11
117.5717
 21
217.5971
 31
0.0000
  0
LINE
  8
119
 10
117.5717
 20
221.4471
 30
0.0000
 11
120.0717
 21
221.4471
 31
0.0000
  0
LINE
  8
119
 10
120.0717
 20
221.4471
 30
0.0000
 11
120.0717
 21
217.5971
 31
0.0000
  0
LINE
  8
119
 10
117.5717
 20
239.4471
 30
0.0000
 11
117.5717
 21
235.5971
 31
0.0000
  0
LINE
  8
119
 10
120.0717
 20
239.4471
 30
0.0000
 11
120.0717
 21
235.5971
 31
0.0000
  0
LINE
  8
119
 10
117.5717
 20
235.5971
 30
0.0000
 11
120.0717
 21
235.5971
 31
0.0000
  0
LINE
  8
119
 10
117.5717
 20
239.4471
 30
0.0000
 11
120.0717
 21
239.4471
 31
0.0000
  0
LINE
  8
119
 10
117.1915
 20
229.2971
 30
0.0000
 11
117.5717
 21
229.2971
 31
0.0000
  0
LINE
  8
119
 10
117.5717
 20
229.2971
 30
0.0000
 11
120.0717
 21
229.2971
 31
0.0000
  0
LINE
  8
119
 10
120.0717
 20
229.2971
 30
0.0000
 11
120.0717
 21
221.5044
 31
0.0000
  0
LINE
  8
119
 10
120.0717
 20
221.5044
 30
0.0000
 11
120.0717
 21
221.4471
 31
0.0000
  0
LINE
  8
119
 10
117.5717
 20
229.2971
 30
0.0000
 11
117.5717
 21
221.5044
 31
0.0000
  0
LINE
  8
119
 10
117.5717
 20
221.5044
 30
0.0000
 11
117.5717
 21
221.4471
 31
0.0000
  0
LINE
  8
119
 10
117.5717
 20
243.2971
 30
0.0000
 11
120.0717
 21
243.2971
 31
0.0000
  0
LINE
  8
119
 10
120.0717
 20
243.2971
 30
0.0000
 11
120.0717
 21
239.5294
 31
0.0000
  0
LINE
  8
119
 10
120.0717
 20
239.5294
 30
0.0000
 11
120.0717
 21
239.4471
 31
0.0000
  0
LINE
  8
119
 10
117.5717
 20
243.2971
 30
0.0000
 11
117.5717
 21
239.5294
 31
0.0000
  0
LINE
  8
119
 10
117.5717
 20
239.5294
 30
0.0000
 11
117.5717
 21
239.4471
 31
0.0000
  0
LINE
  8
119
 10
117.5717
 20
235.5971
 30
0.0000
 11
117.5717
 21
235.2971
 31
0.0000
  0
LINE
  8
119
 10
128.3217
 20
171.7721
 30
0.0000
 11
128.3217
 21
169.7721
 31
0.0000
  0
LINE
  8
119
 10
131.7717
 20
171.7721
 30
0.0000
 11
131.7717
 21
169.7721
 31
0.0000
  0
LINE
  8
119
 10
131.7717
 20
169.7721
 30
0.0000
 11
128.3217
 21
169.7721
 31
0.0000
  0
LINE
  8
119
 10
131.7717
 20
171.7721
 30
0.0000
 11
128.3217
 21
171.7721
 31
0.0000
  0
LINE
  8
119
 10
128.1217
 20
171.7721
 30
0.0000
 11
128.1217
 21
169.7721
 31
0.0000
  0
LINE
  8
119
 10
128.3217
 20
169.7721
 30
0.0000
 11
128.1217
 21
169.7721
 31
0.0000
  0
LINE
  8
119
 10
128.3217
 20
171.7721
 30
0.0000
 11
128.1217
 21
171.7721
 31
0.0000
  0
LINE
  8
119
 10
138.4717
 20
171.7721
 30
0.0000
 11
138.4717
 21
169.7721
 31
0.0000
  0
LINE
  8
119
 10
141.9217
 20
171.7721
 30
0.0000
 11
141.9217
 21
169.7721
 31
0.0000
  0
LINE
  8
119
 10
141.9217
 20
169.7721
 30
0.0000
 11
138.4717
 21
169.7721
 31
0.0000
  0
LINE
  8
119
 10
141.9217
 20
171.7721
 30
0.0000
 11
138.4717
 21
171.7721
 31
0.0000
  0
LINE
  8
119
 10
131.9717
 20
171.7721
 30
0.0000
 11
131.9717
 21
169.7721
 31
0.0000
  0
LINE
  8
119
 10
131.9717
 20
169.7721
 30
0.0000
 11
131.7717
 21
169.7721
 31
0.0000
  0
LINE
  8
119
 10
131.9717
 20
171.7721
 30
0.0000
 11
131.7717
 21
171.7721
 31
0.0000
  0
LINE
  8
119
 10
138.2717
 20
171.7721
 30
0.0000
 11
138.2717
 21
169.7721
 31
0.0000
  0
LINE
  8
119
 10
138.4717
 20
169.7721
 30
0.0000
 11
138.2717
 21
169.7721
 31
0.0000
  0
LINE
  8
119
 10
138.4717
 20
171.7721
 30
0.0000
 11
138.2717
 21
171.7721
 31
0.0000
  0
LINE
  8
119
 10
142.1217
 20
171.7721
 30
0.0000
 11
142.1217
 21
169.7721
 31
0.0000
  0
LINE
  8
119
 10
142.1217
 20
169.7721
 30
0.0000
 11
141.9217
 21
169.7721
 31
0.0000
  0
LINE
  8
119
 10
142.1217
 20
171.7721
 30
0.0000
 11
141.9217
 21
171.7721
 31
0.0000
  0
LINE
  8
119
 10
127.9217
 20
171.7721
 30
0.0000
 11
127.9217
 21
169.7721
 31
0.0000
  0
LINE
  8
119
 10
128.1217
 20
169.7721
 30
0.0000
 11
127.9530
 21
169.7721
 31
0.0000
  0
LINE
  8
119
 10
127.9530
 20
169.7721
 30
0.0000
 11
127.9217
 21
169.7721
 31
0.0000
  0
LINE
  8
119
 10
128.1217
 20
171.7721
 30
0.0000
 11
127.9530
 21
171.7721
 31
0.0000
  0
LINE
  8
119
 10
127.9530
 20
171.7721
 30
0.0000
 11
127.9217
 21
171.7721
 31
0.0000
  0
LINE
  8
119
 10
138.0717
 20
171.7721
 30
0.0000
 11
138.0717
 21
169.7721
 31
0.0000
  0
LINE
  8
119
 10
138.2717
 20
169.7721
 30
0.0000
 11
138.1030
 21
169.7721
 31
0.0000
  0
LINE
  8
119
 10
138.1030
 20
169.7721
 30
0.0000
 11
138.0717
 21
169.7721
 31
0.0000
  0
LINE
  8
119
 10
138.2717
 20
171.7721
 30
0.0000
 11
138.1030
 21
171.7721
 31
0.0000
  0
LINE
  8
119
 10
138.1030
 20
171.7721
 30
0.0000
 11
138.0717
 21
171.7721
 31
0.0000
  0
LINE
  8
119
 10
132.1717
 20
171.7721
 30
0.0000
 11
132.1717
 21
169.7721
 31
0.0000
  0
LINE
  8
119
 10
132.1717
 20
169.7721
 30
0.0000
 11
131.9717
 21
169.7721
 31
0.0000
  0
LINE
  8
119
 10
132.1717
 20
171.7721
 30
0.0000
 11
131.9717
 21
171.7721
 31
0.0000
  0
LINE
  8
119
 10
142.3217
 20
171.7721
 30
0.0000
 11
142.3217
 21
169.7721
 31
0.0000
  0
LINE
  8
119
 10
142.3217
 20
169.7721
 30
0.0000
 11
142.2903
 21
169.7721
 31
0.0000
  0
LINE
  8
119
 10
142.2903
 20
169.7721
 30
0.0000
 11
142.1217
 21
169.7721
 31
0.0000
  0
LINE
  8
119
 10
142.3217
 20
171.7721
 30
0.0000
 11
142.1217
 21
171.7721
 31
0.0000
  0
LINE
  8
119
 10
138.0717
 20
169.7721
 30
0.0000
 11
132.1717
 21
169.7721
 31
0.0000
  0
LINE
  8
119
 10
138.0717
 20
171.7721
 30
0.0000
 11
132.1717
 21
171.7721
 31
0.0000
  0
LINE
  8
119
 10
126.6217
 20
171.7721
 30
0.0000
 11
126.6217
 21
169.7721
 31
0.0000
  0
LINE
  8
119
 10
127.9217
 20
169.7721
 30
0.0000
 11
126.6217
 21
169.7721
 31
0.0000
  0
LINE
  8
119
 10
127.9217
 20
171.7721
 30
0.0000
 11
126.6217
 21
171.7721
 31
0.0000
  0
LINE
  8
119
 10
126.1217
 20
171.7721
 30
0.0000
 11
126.1217
 21
169.7721
 31
0.0000
  0
LINE
  8
119
 10
126.6217
 20
169.7721
 30
0.0000
 11
126.1217
 21
169.7721
 31
0.0000
  0
LINE
  8
119
 10
126.6217
 20
171.7721
 30
0.0000
 11
126.1217
 21
171.7721
 31
0.0000
  0
LINE
  8
119
 10
143.6217
 20
171.7721
 30
0.0000
 11
143.6217
 21
169.7721
 31
0.0000
  0
LINE
  8
119
 10
143.6217
 20
169.7721
 30
0.0000
 11
142.3217
 21
169.7721
 31
0.0000
  0
LINE
  8
119
 10
143.6217
 20
171.7721
 30
0.0000
 11
142.3217
 21
171.7721
 31
0.0000
  0
LINE
  8
119
 10
144.1217
 20
171.7721
 30
0.0000
 11
144.1217
 21
169.7721
 31
0.0000
  0
LINE
  8
119
 10
144.1217
 20
169.7721
 30
0.0000
 11
143.6217
 21
169.7721
 31
0.0000
  0
LINE
  8
119
 10
144.1217
 20
171.7721
 30
0.0000
 11
143.6217
 21
171.7721
 31
0.0000
  0
LINE
  8
119
 10
80.8217
 20
104.9471
 30
0.0000
 11
82.3217
 21
104.9471
 31
0.0000
  0
LINE
  8
119
 10
80.8217
 20
105.4471
 30
0.0000
 11
82.3217
 21
105.4471
 31
0.0000
  0
LINE
  8
119
 10
82.3217
 20
105.4471
 30
0.0000
 11
82.3217
 21
104.9471
 31
0.0000
  0
LINE
  8
119
 10
80.8217
 20
94.9471
 30
0.0000
 11
82.3217
 21
94.9471
 31
0.0000
  0
LINE
  8
119
 10
82.3217
 20
104.9471
 30
0.0000
 11
82.3217
 21
94.9471
 31
0.0000
  0
LINE
  8
119
 10
80.8217
 20
94.4471
 30
0.0000
 11
82.3217
 21
94.4471
 31
0.0000
  0
LINE
  8
119
 10
82.3217
 20
94.9471
 30
0.0000
 11
82.3217
 21
94.4471
 31
0.0000
  0
LINE
  8
119
 10
80.8217
 20
247.1971
 30
0.0000
 11
82.3217
 21
247.1971
 31
0.0000
  0
LINE
  8
119
 10
82.3217
 20
257.4471
 30
0.0000
 11
82.3217
 21
247.1971
 31
0.0000
  0
LINE
  8
119
 10
80.8217
 20
257.4471
 30
0.0000
 11
82.3217
 21
257.4471
 31
0.0000
  0
LINE
  8
119
 10
80.8217
 20
217.6971
 30
0.0000
 11
82.3217
 21
217.6971
 31
0.0000
  0
LINE
  8
119
 10
80.8217
 20
218.1971
 30
0.0000
 11
82.3217
 21
218.1971
 31
0.0000
  0
LINE
  8
119
 10
82.3217
 20
218.1971
 30
0.0000
 11
82.3217
 21
217.6971
 31
0.0000
  0
LINE
  8
119
 10
80.8217
 20
246.6971
 30
0.0000
 11
82.3217
 21
246.6971
 31
0.0000
  0
LINE
  8
119
 10
82.3217
 20
247.1971
 30
0.0000
 11
82.3217
 21
246.6971
 31
0.0000
  0
LINE
  8
119
 10
80.8217
 20
165.8471
 30
0.0000
 11
82.3217
 21
165.8471
 31
0.0000
  0
LINE
  8
119
 10
82.3217
 20
217.6971
 30
0.0000
 11
82.3217
 21
165.8471
 31
0.0000
  0
LINE
  8
119
 10
80.8217
 20
165.3471
 30
0.0000
 11
82.3217
 21
165.3471
 31
0.0000
  0
LINE
  8
119
 10
82.3217
 20
165.8471
 30
0.0000
 11
82.3217
 21
165.3471
 31
0.0000
  0
LINE
  8
119
 10
80.8217
 20
92.4611
 30
0.0000
 11
82.3217
 21
92.4611
 31
0.0000
  0
LINE
  8
119
 10
82.3217
 20
94.4471
 30
0.0000
 11
82.3217
 21
92.4611
 31
0.0000
  0
LINE
  8
119
 10
80.8217
 20
92.2639
 30
0.0000
 11
82.3217
 21
92.2639
 31
0.0000
  0
LINE
  8
119
 10
80.8217
 20
84.4471
 30
0.0000
 11
82.3217
 21
84.4471
 31
0.0000
  0
LINE
  8
119
 10
82.3217
 20
92.2639
 30
0.0000
 11
82.3217
 21
84.4471
 31
0.0000
  0
LINE
  8
119
 10
82.3217
 20
92.4611
 30
0.0000
 11
82.3217
 21
92.2639
 31
0.0000
  0
LINE
  8
119
 10
82.3628
 20
165.3471
 30
0.0000
 11
82.3217
 21
165.3471
 31
0.0000
  0
LINE
  8
119
 10
82.3217
 20
105.4471
 30
0.0000
 11
82.3628
 21
105.4471
 31
0.0000
  0
ARC
  8
119
 10
122.8217
 20
118.4471
 30
0.0000
 40
8.7500
 50
56.8678
 51
123.1322
  0
ARC
  8
119
 10
118.1485
 20
125.6070
 30
0.0000
 40
0.2000
 50
123.1282
 51
134.9974
  0
LINE
  8
119
 10
118.0071
 20
125.7484
 30
0.0000
 11
115.5204
 21
123.2617
 31
0.0000
  0
ARC
  8
119
 10
115.6618
 20
123.1203
 30
0.0000
 40
0.2000
 50
134.9979
 51
146.8656
  0
ARC
  8
119
 10
122.8217
 20
118.4471
 30
0.0000
 40
8.7500
 50
146.8678
 51
230.8550
  0
ARC
  8
119
 10
117.1717
 20
111.5059
 30
0.0000
 40
0.2000
 50
359.9997
 51
50.8541
  0
LINE
  8
119
 10
117.3717
 20
111.5059
 30
0.0000
 11
117.3717
 21
97.5164
 31
0.0000
  0
ARC
  8
119
 10
117.5717
 20
97.5164
 30
0.0000
 40
0.2000
 50
180.0005
 51
224.9999
  0
LINE
  8
119
 10
117.4303
 20
97.3750
 30
0.0000
 11
121.1021
 21
93.7032
 31
0.0000
  0
ARC
  8
119
 10
121.2435
 20
93.8446
 30
0.0000
 40
0.2000
 50
225.0012
 51
249.0389
  0
ARC
  8
119
 10
123.1217
 20
98.7471
 30
0.0000
 40
5.4500
 50
249.0379
 51
359.9999
  0
LINE
  8
119
 10
128.5717
 20
98.7471
 30
0.0000
 11
128.5717
 21
111.5059
 31
0.0000
  0
ARC
  8
119
 10
128.7717
 20
111.5059
 30
0.0000
 40
0.2000
 50
129.1445
 51
179.9998
  0
ARC
  8
119
 10
123.1217
 20
118.4471
 30
0.0000
 40
8.7500
 50
309.1450
 51
27.5185
  0
ARC
  8
119
 10
130.7044
 20
122.3975
 30
0.0000
 40
0.2000
 50
27.5212
 51
45.0014
  0
LINE
  8
119
 10
130.8458
 20
122.5389
 30
0.0000
 11
127.6363
 21
125.7484
 31
0.0000
  0
ARC
  8
119
 10
127.4949
 20
125.6070
 30
0.0000
 40
0.2000
 50
45.0003
 51
56.8687
  0
LINE
  8
119
 10
139.4660
 20
112.6861
 30
0.0000
 11
133.5784
 21
106.4917
 31
0.0000
  0
ARC
  8
119
 10
135.5717
 20
104.5971
 30
0.0000
 40
2.7500
 50
136.4548
 51
309.7582
  0
LINE
  8
119
 10
137.3304
 20
102.4831
 30
0.0000
 11
143.9002
 21
107.9487
 31
0.0000
  0
ARC
  8
119
 10
141.8217
 20
110.4471
 30
0.0000
 40
3.2500
 50
309.7582
 51
136.4550
  0
LINE
  8
119
 10
101.7431
 20
107.9487
 30
0.0000
 11
108.3129
 21
102.4831
 31
0.0000
  0
ARC
  8
119
 10
110.0717
 20
104.5971
 30
0.0000
 40
2.7500
 50
230.2418
 51
43.5451
  0
LINE
  8
119
 10
112.0650
 20
106.4917
 30
0.0000
 11
106.1774
 21
112.6861
 31
0.0000
  0
ARC
  8
119
 10
103.8217
 20
110.4471
 30
0.0000
 40
3.2500
 50
43.5450
 51
230.2419
  0
LINE
  8
119
 10
114.9717
 20
100.8971
 30
0.0000
 11
114.8717
 21
100.8971
 31
0.0000
  0
LINE
  8
119
 10
113.3717
 20
100.8971
 30
0.0000
 11
113.2717
 21
100.8971
 31
0.0000
  0
LINE
  8
119
 10
113.2717
 20
100.8971
 30
0.0000
 11
113.2717
 21
95.5971
 31
0.0000
  0
LINE
  8
119
 10
113.2717
 20
95.5971
 30
0.0000
 11
113.3717
 21
95.5971
 31
0.0000
  0
LINE
  8
119
 10
114.8717
 20
95.5971
 30
0.0000
 11
114.9717
 21
95.5971
 31
0.0000
  0
LINE
  8
119
 10
114.9717
 20
95.5971
 30
0.0000
 11
114.9717
 21
100.8971
 31
0.0000
  0
LINE
  8
119
 10
120.1217
 20
237.6931
 30
0.0000
 11
120.1217
 21
239.3971
 31
0.0000
  0
ARC
  8
119
 10
119.9217
 20
239.3971
 30
0.0000
 40
0.2000
 50
359.9992
 51
41.4095
  0
ARC
  8
119
 10
117.7217
 20
239.3971
 30
0.0000
 40
0.2000
 50
138.5914
 51
180.0022
  0
LINE
  8
119
 10
117.5217
 20
239.3971
 30
0.0000
 11
117.5217
 21
235.4971
 31
0.0000
  0
ARC
  8
119
 10
117.7217
 20
235.4971
 30
0.0000
 40
0.2000
 50
180.0007
 51
221.4084
  0
ARC
  8
119
 10
117.7217
 20
221.3721
 30
0.0000
 40
0.2000
 50
138.5914
 51
180.0022
  0
LINE
  8
119
 10
117.5217
 20
221.3721
 30
0.0000
 11
117.5217
 21
217.6721
 31
0.0000
  0
ARC
  8
119
 10
117.7217
 20
217.6721
 30
0.0000
 40
0.2000
 50
180.0000
 51
270.0000
  0
LINE
  8
119
 10
117.7217
 20
217.4721
 30
0.0000
 11
119.6319
 21
217.4721
 31
0.0000
  0
LINE
  8
119
 10
120.1217
 20
217.7911
 30
0.0000
 11
120.1217
 21
220.6022
 31
0.0000
  0
LINE
  8
119
 10
120.1017
 20
221.4592
 30
0.0000
 11
120.0880
 21
221.4832
 31
0.0000
  0
LINE
  8
119
 10
120.0880
 20
221.4832
 30
0.0000
 11
120.0717
 21
221.5044
 31
0.0000
  0
LINE
  8
119
 10
120.0717
 20
221.5044
 30
0.0000
 11
120.1017
 21
221.4592
 31
0.0000
  0
ARC
  8
119
 10
138.2967
 20
171.7221
 30
0.0000
 40
0.2000
 50
89.9999
 51
165.5224
  0
ARC
  8
119
 10
138.2967
 20
169.8221
 30
0.0000
 40
0.2000
 50
194.4776
 51
270.0001
  0
LINE
  8
119
 10
138.2967
 20
169.6221
 30
0.0000
 11
138.5295
 21
169.6221
 31
0.0000
  0
LINE
  8
119
 10
140.5459
 20
169.6221
 30
0.0000
 11
142.0967
 21
169.6221
 31
0.0000
  0
ARC
  8
119
 10
142.0967
 20
169.8221
 30
0.0000
 40
0.2000
 50
269.9999
 51
345.5224
  0
LINE
  8
119
 10
129.0717
 20
171.9221
 30
0.0000
 11
128.1467
 21
171.9221
 31
0.0000
  0
ARC
  8
119
 10
128.1467
 20
171.7221
 30
0.0000
 40
0.2000
 50
89.9999
 51
165.5224
  0
ARC
  8
119
 10
128.1467
 20
169.8221
 30
0.0000
 40
0.2000
 50
194.4776
 51
270.0001
  0
LINE
  8
119
 10
128.1467
 20
169.6221
 30
0.0000
 11
129.0717
 21
169.6221
 31
0.0000
  0
ARC
  8
119
 10
81.8217
 20
106.9471
 30
0.0000
 40
1.5000
 50
297.8181
 51
90.0000
  0
LINE
  8
119
 10
81.0217
 20
108.4471
 30
0.0000
 11
81.8217
 21
108.4471
 31
0.0000
  0
ARC
  8
119
 10
81.0217
 20
108.6471
 30
0.0000
 40
0.2000
 50
180.0000
 51
270.0000
  0
ARC
  8
119
 10
81.0217
 20
162.1471
 30
0.0000
 40
0.2000
 50
90.0000
 51
180.0000
  0
LINE
  8
119
 10
81.8217
 20
162.3471
 30
0.0000
 11
81.0217
 21
162.3471
 31
0.0000
  0
LINE
  8
119
 10
92.1217
 20
218.1971
 30
0.0000
 11
82.5217
 21
218.1971
 31
0.0000
  0
LINE
  8
119
 10
82.5217
 20
218.1971
 30
0.0000
 11
82.3217
 21
218.1971
 31
0.0000
  0
ARC
  8
119
 10
92.1217
 20
218.3971
 30
0.0000
 40
0.2000
 50
270.0000
 51
0.0000
  0
LINE
  8
119
 10
92.3217
 20
246.4971
 30
0.0000
 11
92.3217
 21
235.2971
 31
0.0000
  0
LINE
  8
119
 10
92.3217
 20
229.2971
 30
0.0000
 11
92.3217
 21
218.3971
 31
0.0000
  0
ARC
  8
119
 10
92.1217
 20
246.4971
 30
0.0000
 40
0.2000
 50
0.0000
 51
90.0000
  0
LINE
  8
119
 10
82.3217
 20
246.6971
 30
0.0000
 11
82.5217
 21
246.6971
 31
0.0000
  0
LINE
  8
119
 10
82.5217
 20
246.6971
 30
0.0000
 11
92.1217
 21
246.6971
 31
0.0000
  0
LINE
  8
119
 10
149.3217
 20
257.4471
 30
0.0000
 11
82.5217
 21
257.4471
 31
0.0000
  0
LINE
  8
119
 10
82.5217
 20
257.4471
 30
0.0000
 11
82.3217
 21
257.4471
 31
0.0000
  0
LINE
  8
119
 10
156.8217
 20
249.9471
 30
0.0000
 11
149.3217
 21
257.4471
 31
0.0000
  0
LINE
  8
119
 10
156.8217
 20
91.9471
 30
0.0000
 11
156.8217
 21
249.9471
 31
0.0000
  0
LINE
  8
119
 10
149.3217
 20
84.4471
 30
0.0000
 11
156.8217
 21
91.9471
 31
0.0000
  0
LINE
  8
119
 10
82.3217
 20
84.4471
 30
0.0000
 11
82.5217
 21
84.4471
 31
0.0000
  0
LINE
  8
119
 10
82.5217
 20
84.4471
 30
0.0000
 11
149.3217
 21
84.4471
 31
0.0000
  0
ARC
  8
119
 10
81.8217
 20
163.8471
 30
0.0000
 40
1.5000
 50
270.0000
 51
62.1819
  0
LINE
  8
119
 10
136.5217
 20
227.5471
 30
0.0000
 11
136.5217
 21
237.0471
 31
0.0000
  0
LINE
  8
119
 10
135.2717
 20
227.5471
 30
0.0000
 11
135.2717
 21
237.0471
 31
0.0000
  0
LINE
  8
119
 10
93.6967
 20
227.8322
 30
0.0000
 11
94.9467
 21
227.8322
 31
0.0000
  0
LINE
  8
119
 10
93.6967
 20
231.8347
 30
0.0000
 11
94.9467
 21
231.8347
 31
0.0000
  0
LINE
  8
119
 10
93.6967
 20
231.8347
 30
0.0000
 11
93.6967
 21
237.0471
 31
0.0000
  0
LINE
  8
119
 10
93.6967
 20
227.5471
 30
0.0000
 11
93.6967
 21
227.8322
 31
0.0000
  0
LINE
  8
119
 10
94.9467
 20
231.8347
 30
0.0000
 11
94.9467
 21
237.0471
 31
0.0000
  0
LINE
  8
119
 10
94.9467
 20
227.5471
 30
0.0000
 11
94.9467
 21
227.8322
 31
0.0000
  0
LINE
  8
119
 10
93.6967
 20
230.9321
 30
0.0000
 11
93.6967
 21
231.8347
 31
0.0000
  0
LINE
  8
119
 10
94.9467
 20
230.9321
 30
0.0000
 11
94.9467
 21
231.8347
 31
0.0000
  0
LINE
  8
119
 10
93.6967
 20
230.2971
 30
0.0000
 11
93.6967
 21
229.7722
 31
0.0000
  0
LINE
  8
119
 10
94.9467
 20
230.2971
 30
0.0000
 11
94.9467
 21
229.7722
 31
0.0000
  0
LINE
  8
119
 10
93.6967
 20
227.8322
 30
0.0000
 11
93.6967
 21
229.7722
 31
0.0000
  0
LINE
  8
119
 10
94.9467
 20
227.8322
 30
0.0000
 11
94.9467
 21
229.7722
 31
0.0000
  0
LINE
  8
119
 10
120.3717
 20
152.2471
 30
0.0000
 11
120.3717
 21
157.8292
 31
0.0000
  0
LINE
  8
119
 10
82.5217
 20
165.1738
 30
0.0000
 11
82.5217
 21
182.2471
 31
0.0000
  0
LINE
  8
119
 10
82.5217
 20
187.6471
 30
0.0000
 11
82.5217
 21
218.1971
 31
0.0000
  0
LINE
  8
119
 10
82.5217
 20
84.4471
 30
0.0000
 11
82.5217
 21
87.2471
 31
0.0000
  0
LINE
  8
119
 10
82.5217
 20
92.6471
 30
0.0000
 11
82.5217
 21
105.6205
 31
0.0000
  0
LINE
  8
119
 10
82.5217
 20
246.6971
 30
0.0000
 11
82.5217
 21
249.2471
 31
0.0000
  0
LINE
  8
119
 10
82.5217
 20
254.6471
 30
0.0000
 11
82.5217
 21
257.4471
 31
0.0000
  0
LINE
  8
119
 10
163.4229
 20
138.2292
 30
0.0000
 11
160.9229
 21
138.2292
 31
0.0000
  0
LINE
  8
119
 10
160.9229
 20
138.2292
 30
0.0000
 11
125.0482
 21
138.2292
 31
0.0000
  0
LINE
  8
119
 10
125.0482
 20
138.2292
 30
0.0000
 11
125.0482
 21
142.5471
 31
0.0000
  0
LINE
  8
119
 10
125.0482
 20
142.5471
 30
0.0000
 11
115.5043
 21
142.5471
 31
0.0000
  0
LINE
  8
119
 10
115.5043
 20
135.5352
 30
0.0000
 11
115.5043
 21
142.5471
 31
0.0000
  0
LINE
  8
119
 10
101.6423
 20
135.5352
 30
0.0000
 11
115.5043
 21
135.5352
 31
0.0000
  0
LINE
  8
119
 10
101.6423
 20
133.3471
 30
0.0000
 11
101.6423
 21
135.5352
 31
0.0000
  0
LINE
  8
119
 10
111.0217
 20
133.3471
 30
0.0000
 11
101.6423
 21
133.3471
 31
0.0000
  0
LINE
  8
119
 10
101.6423
 20
133.3471
 30
0.0000
 11
83.5159
 21
133.3471
 31
0.0000
  0
LINE
  8
119
 10
83.5159
 20
133.3471
 30
0.0000
 11
83.5159
 21
138.2292
 31
0.0000
  0
LINE
  8
119
 10
83.5159
 20
138.2292
 30
0.0000
 11
52.4266
 21
138.2292
 31
0.0000
  0
LINE
  8
119
 10
52.4266
 20
138.2292
 30
0.0000
 11
49.9266
 21
138.2292
 31
0.0000
  0
LINE
  8
119
 10
160.9229
 20
134.2075
 30
0.0000
 11
160.9229
 21
138.2292
 31
0.0000
  0
LINE
  8
119
 10
52.4266
 20
134.2075
 30
0.0000
 11
52.4266
 21
138.2292
 31
0.0000
  0
LINE
  8
119
 10
223.1272
 20
153.5471
 30
0.0000
 11
222.9272
 21
153.5471
 31
0.0000
  0
LINE
  8
119
 10
222.9272
 20
147.5471
 30
0.0000
 11
223.1272
 21
147.5471
 31
0.0000
  0
LINE
  8
119
 10
222.9272
 20
139.5471
 30
0.0000
 11
223.1272
 21
139.5471
 31
0.0000
  0
LINE
  8
119
 10
233.1272
 20
139.5471
 30
0.0000
 11
233.3272
 21
139.5471
 31
0.0000
  0
LINE
  8
119
 10
233.3272
 20
145.5471
 30
0.0000
 11
233.1272
 21
145.5471
 31
0.0000
  0
LINE
  8
119
 10
223.1272
 20
145.5471
 30
0.0000
 11
222.9272
 21
145.5471
 31
0.0000
  0
LINE
  8
119
 10
226.8772
 20
95.9471
 30
0.0000
 11
229.3772
 21
95.9471
 31
0.0000
  0
LINE
  8
119
 10
228.6470
 20
101.9471
 30
0.0000
 11
227.6029
 21
101.9471
 31
0.0000
  0
LINE
  8
119
 10
225.3749
 20
99.2471
 30
0.0000
 11
225.3749
 21
99.2471
 31
0.0000
  0
LINE
  8
119
 10
225.3749
 20
99.2471
 30
0.0000
 11
225.3749
 21
97.2471
 31
0.0000
  0
LINE
  8
119
 10
230.8749
 20
97.2471
 30
0.0000
 11
230.8749
 21
99.2471
 31
0.0000
  0
LINE
  8
119
 10
230.8749
 20
99.2471
 30
0.0000
 11
230.8749
 21
99.2471
 31
0.0000
  0
ARC
  8
119
 10
228.1249
 20
99.2471
 30
0.0000
 40
2.7500
 50
0.0000
 51
180.0000
  0
LINE
  8
119
 10
223.1272
 20
162.0471
 30
0.0000
 11
223.1272
 21
115.0471
 31
0.0000
  0
LINE
  8
119
 10
233.1272
 20
162.0471
 30
0.0000
 11
223.1272
 21
162.0471
 31
0.0000
  0
LINE
  8
119
 10
233.1272
 20
162.0471
 30
0.0000
 11
233.1272
 21
115.0471
 31
0.0000
  0
LINE
  8
119
 10
233.1272
 20
115.0471
 30
0.0000
 11
223.1272
 21
115.0471
 31
0.0000
  0
LINE
  8
119
 10
233.1249
 20
219.2971
 30
0.0000
 11
233.1249
 21
219.1971
 31
0.0000
  0
LINE
  8
119
 10
230.6249
 20
221.6973
 30
0.0000
 11
230.6249
 21
221.5286
 31
0.0000
  0
LINE
  8
119
 10
222.6249
 20
219.2971
 30
0.0000
 11
222.6249
 21
219.1971
 31
0.0000
  0
LINE
  8
119
 10
233.0262
 20
245.2971
 30
0.0000
 11
233.6406
 21
245.2971
 31
0.0000
  0
LINE
  8
119
 10
233.6406
 20
219.2971
 30
0.0000
 11
233.6406
 21
245.2971
 31
0.0000
  0
LINE
  8
119
 10
233.0262
 20
219.2971
 30
0.0000
 11
233.6406
 21
219.2971
 31
0.0000
  0
ARC
  8
119
 10
228.1272
 20
216.7971
 30
0.0000
 40
5.5000
 50
27.0357
 51
152.9643
  0
LINE
  8
119
 10
221.1272
 20
219.2971
 30
0.0000
 11
223.2282
 21
219.2971
 31
0.0000
  0
LINE
  8
119
 10
221.1272
 20
245.2971
 30
0.0000
 11
221.1272
 21
219.2971
 31
0.0000
  0
LINE
  8
119
 10
221.1272
 20
245.2971
 30
0.0000
 11
223.2282
 21
245.2971
 31
0.0000
  0
ARC
  8
119
 10
228.1272
 20
247.7971
 30
0.0000
 40
5.5000
 50
207.0357
 51
332.9643
  0
LINE
  8
119
 10
235.1272
 20
219.2971
 30
0.0000
 11
235.1272
 21
245.2971
 31
0.0000
  0
LINE
  8
119
 10
233.6406
 20
219.2971
 30
0.0000
 11
235.1272
 21
219.2971
 31
0.0000
  0
LINE
  8
119
 10
235.1272
 20
245.2971
 30
0.0000
 11
233.6406
 21
245.2971
 31
0.0000
  0
LINE
  8
119
 10
217.1272
 20
50.9471
 30
0.0000
 11
239.1272
 21
50.9471
 31
0.0000
  0
LINE
  8
119
 10
239.1272
 20
50.9471
 30
0.0000
 11
239.1272
 21
290.9471
 31
0.0000
  0
ARC
  8
119
 10
221.0772
 20
219.3971
 30
0.0000
 40
0.2000
 50
180.0000
 51
270.0000
  0
LINE
  8
119
 10
221.0772
 20
219.1971
 30
0.0000
 11
223.4155
 21
219.1971
 31
0.0000
  0
ARC
  8
119
 10
223.4155
 20
219.3971
 30
0.0000
 40
0.2000
 50
269.9999
 51
334.9729
  0
ARC
  8
119
 10
228.1272
 20
217.1971
 30
0.0000
 40
5.0000
 50
25.0290
 51
154.9710
  0
ARC
  8
119
 10
232.8389
 20
219.3971
 30
0.0000
 40
0.2000
 50
205.0291
 51
270.0009
  0
LINE
  8
119
 10
232.8389
 20
219.1971
 30
0.0000
 11
235.1772
 21
219.1971
 31
0.0000
  0
ARC
  8
119
 10
235.1772
 20
219.3971
 30
0.0000
 40
0.2000
 50
270.0000
 51
0.0000
  0
LINE
  8
119
 10
235.3772
 20
245.4971
 30
0.0000
 11
235.3772
 21
219.3971
 31
0.0000
  0
ARC
  8
119
 10
235.1772
 20
245.4971
 30
0.0000
 40
0.2000
 50
0.0000
 51
90.0000
  0
LINE
  8
119
 10
232.8389
 20
245.6971
 30
0.0000
 11
235.1772
 21
245.6971
 31
0.0000
  0
ARC
  8
119
 10
232.8389
 20
245.4971
 30
0.0000
 40
0.2000
 50
90.0003
 51
154.9701
  0
ARC
  8
119
 10
228.1272
 20
247.6971
 30
0.0000
 40
5.0000
 50
205.0290
 51
334.9710
  0
ARC
  8
119
 10
223.4155
 20
245.4971
 30
0.0000
 40
0.2000
 50
25.0286
 51
90.0000
  0
LINE
  8
119
 10
221.0772
 20
245.6971
 30
0.0000
 11
223.4155
 21
245.6971
 31
0.0000
  0
ARC
  8
119
 10
221.0772
 20
245.4971
 30
0.0000
 40
0.2000
 50
90.0000
 51
180.0000
  0
LINE
  8
119
 10
220.8772
 20
245.4971
 30
0.0000
 11
220.8772
 21
219.3971
 31
0.0000
  0
ARC
  8
119
 10
232.3272
 20
161.9443
 30
0.0000
 40
1.0000
 50
0.0000
 51
108.8492
  0
ARC
  8
119
 10
228.1272
 20
174.2471
 30
0.0000
 40
12.0000
 50
251.1509
 51
288.8491
  0
ARC
  8
119
 10
223.9272
 20
161.9443
 30
0.0000
 40
1.0000
 50
71.1510
 51
179.9998
  0
LINE
  8
119
 10
222.9272
 20
161.9443
 30
0.0000
 11
222.9272
 21
115.3500
 31
0.0000
  0
ARC
  8
119
 10
223.9272
 20
115.3500
 30
0.0000
 40
1.0000
 50
180.0000
 51
288.8489
  0
ARC
  8
119
 10
228.1272
 20
103.0471
 30
0.0000
 40
12.0000
 50
71.1509
 51
108.8491
  0
ARC
  8
119
 10
232.3272
 20
115.3500
 30
0.0000
 40
1.0000
 50
251.1509
 51
360.0000
  0
LINE
  8
119
 10
233.3272
 20
115.3500
 30
0.0000
 11
233.3272
 21
161.9443
 31
0.0000
  0
LINE
  8
119
 10
227.3895
 20
80.9912
 30
0.0000
 11
227.3894
 21
77.9477
 31
0.0000
  0
LINE
  8
119
 10
227.3894
 20
77.9477
 30
0.0000
 11
228.1267
 21
77.9476
 31
0.0000
  0
LINE
  8
119
 10
228.1267
 20
77.9476
 30
0.0000
 11
228.1267
 21
78.9764
 31
0.0000
  0
LINE
  8
119
 10
228.1267
 20
78.9764
 30
0.0000
 11
228.8776
 21
78.9764
 31
0.0000
  0
LINE
  8
119
 10
228.8776
 20
78.9764
 30
0.0000
 11
229.4384
 21
77.9475
 31
0.0000
  0
LINE
  8
119
 10
229.4384
 20
77.9475
 30
0.0000
 11
230.8745
 21
77.9474
 31
0.0000
  0
LINE
  8
119
 10
230.8745
 20
77.9474
 30
0.0000
 11
231.1220
 21
78.3761
 31
0.0000
  0
LINE
  8
119
 10
231.1220
 20
78.3761
 30
0.0000
 11
232.4532
 21
78.3760
 31
0.0000
  0
LINE
  8
119
 10
232.4532
 20
78.3760
 30
0.0000
 11
232.7006
 21
77.9473
 31
0.0000
  0
LINE
  8
119
 10
232.7006
 20
77.9473
 30
0.0000
 11
234.2267
 21
77.9472
 31
0.0000
  0
LINE
  8
119
 10
234.2267
 20
77.9472
 30
0.0000
 11
234.2268
 21
79.5247
 31
0.0000
  0
LINE
  8
119
 10
234.2268
 20
79.5247
 30
0.0000
 11
234.9876
 21
77.9472
 31
0.0000
  0
LINE
  8
119
 10
234.9876
 20
77.9472
 30
0.0000
 11
235.4548
 21
77.9472
 31
0.0000
  0
LINE
  8
119
 10
235.4548
 20
77.9472
 30
0.0000
 11
236.2158
 21
79.5246
 31
0.0000
  0
LINE
  8
119
 10
236.2158
 20
79.5246
 30
0.0000
 11
236.2157
 21
77.9471
 31
0.0000
  0
LINE
  8
119
 10
236.2157
 20
77.9471
 30
0.0000
 11
236.9531
 21
77.9471
 31
0.0000
  0
LINE
  8
119
 10
236.9531
 20
77.9471
 30
0.0000
 11
236.9532
 21
80.9907
 31
0.0000
  0
LINE
  8
119
 10
236.9532
 20
80.9907
 30
0.0000
 11
236.1045
 21
80.9907
 31
0.0000
  0
LINE
  8
119
 10
236.1045
 20
80.9907
 30
0.0000
 11
235.2213
 21
79.1600
 31
0.0000
  0
LINE
  8
119
 10
235.2213
 20
79.1600
 30
0.0000
 11
234.3383
 21
80.9908
 31
0.0000
  0
LINE
  8
119
 10
234.3383
 20
80.9908
 30
0.0000
 11
233.4896
 21
80.9909
 31
0.0000
  0
LINE
  8
119
 10
233.4896
 20
80.9909
 30
0.0000
 11
233.4894
 21
78.0964
 31
0.0000
  0
LINE
  8
119
 10
233.4894
 20
78.0964
 30
0.0000
 11
231.7877
 21
81.0441
 31
0.0000
  0
LINE
  8
119
 10
231.7877
 20
81.0441
 30
0.0000
 11
230.1428
 21
78.1955
 31
0.0000
  0
LINE
  8
119
 10
230.1428
 20
78.1955
 30
0.0000
 11
229.6412
 21
79.1158
 31
0.0000
  0
ARC
  8
119
 10
229.1299
 20
79.9837
 30
0.0000
 40
1.0074
 50
300.4994
 51
89.9963
  0
LINE
  8
119
 10
229.1300
 20
80.9911
 30
0.0000
 11
227.3895
 21
80.9912
 31
0.0000
  0
ARC
  8
119
 10
224.7579
 20
194.6201
 30
0.0000
 40
0.0100
 50
210.0025
 51
329.9975
  0
LINE
  8
119
 10
224.7493
 20
194.6151
 30
0.0000
 11
221.9408
 21
199.4795
 31
0.0000
  0
LINE
  8
119
 10
221.9408
 20
199.4795
 30
0.0000
 11
219.1236
 21
194.6001
 31
0.0000
  0
LINE
  8
119
 10
219.1236
 20
194.6001
 30
0.0000
 11
227.7826
 21
194.6001
 31
0.0000
  0
LINE
  8
119
 10
227.7826
 20
194.6001
 30
0.0000
 11
228.6387
 21
196.0828
 31
0.0000
  0
LINE
  8
119
 10
228.6387
 20
196.0828
 30
0.0000
 11
233.2429
 21
196.0828
 31
0.0000
  0
LINE
  8
119
 10
233.2429
 20
196.0828
 30
0.0000
 11
234.0989
 21
194.6001
 31
0.0000
  0
LINE
  8
119
 10
234.0989
 20
194.6001
 30
0.0000
 11
237.1236
 21
194.6001
 31
0.0000
  0
LINE
  8
119
 10
237.1236
 20
194.6001
 30
0.0000
 11
230.9408
 21
205.3091
 31
0.0000
  0
LINE
  8
119
 10
230.9408
 20
205.3091
 30
0.0000
 11
227.0116
 21
212.3971
 31
0.0000
  0
LINE
  8
119
 10
227.0116
 20
212.3971
 30
0.0000
 11
223.0826
 21
205.3090
 31
0.0000
  0
LINE
  8
119
 10
223.0826
 20
205.3090
 30
0.0000
 11
230.9019
 21
205.3091
 31
0.0000
  0
ARC
  8
119
 10
230.9018
 20
205.2866
 30
0.0000
 40
0.0225
 50
329.8986
 51
89.7850
  0
LINE
  8
119
 10
230.9213
 20
205.2754
 30
0.0000
 11
224.7666
 21
194.6151
 31
0.0000
  0
LINE
  8
119
 10
224.8088
 20
79.1009
 30
0.0000
 11
226.2920
 21
79.1008
 31
0.0000
  0
LINE
  8
119
 10
226.2920
 20
79.1008
 30
0.0000
 11
226.2920
 21
77.9477
 31
0.0000
  0
LINE
  8
119
 10
226.2920
 20
77.9477
 30
0.0000
 11
227.0293
 21
77.9477
 31
0.0000
  0
LINE
  8
119
 10
227.0293
 20
77.9477
 30
0.0000
 11
227.0294
 21
80.9913
 31
0.0000
  0
LINE
  8
119
 10
227.0294
 20
80.9913
 30
0.0000
 11
226.2921
 21
80.9913
 31
0.0000
  0
LINE
  8
119
 10
226.2921
 20
80.9913
 30
0.0000
 11
226.2921
 21
79.8382
 31
0.0000
  0
LINE
  8
119
 10
226.2921
 20
79.8382
 30
0.0000
 11
224.8089
 21
79.8383
 31
0.0000
  0
LINE
  8
119
 10
224.8089
 20
79.8383
 30
0.0000
 11
224.8089
 21
80.9914
 31
0.0000
  0
LINE
  8
119
 10
224.8089
 20
80.9914
 30
0.0000
 11
224.0716
 21
80.9914
 31
0.0000
  0
LINE
  8
119
 10
224.0716
 20
80.9914
 30
0.0000
 11
224.0714
 21
78.0964
 31
0.0000
  0
LINE
  8
119
 10
224.0714
 20
78.0964
 30
0.0000
 11
221.2339
 21
83.0118
 31
0.0000
  0
LINE
  8
119
 10
221.2339
 20
83.0118
 30
0.0000
 11
220.0978
 21
81.0443
 31
0.0000
  0
LINE
  8
119
 10
220.0978
 20
81.0443
 30
0.0000
 11
222.3542
 21
81.0441
 31
0.0000
  0
ARC
  8
119
 10
222.3542
 20
81.0351
 30
0.0000
 40
0.0090
 50
330.0155
 51
90.0097
  0
LINE
  8
119
 10
222.3620
 20
81.0306
 30
0.0000
 11
220.5898
 21
77.9616
 31
0.0000
  0
ARC
  8
119
 10
220.5820
 20
77.9661
 30
0.0000
 40
0.0090
 50
210.0214
 51
329.9786
  0
LINE
  8
119
 10
220.5742
 20
77.9616
 30
0.0000
 11
219.7676
 21
79.3588
 31
0.0000
  0
LINE
  8
119
 10
219.7676
 20
79.3588
 30
0.0000
 11
218.9531
 21
77.9482
 31
0.0000
  0
LINE
  8
119
 10
218.9531
 20
77.9482
 30
0.0000
 11
221.4565
 21
77.9480
 31
0.0000
  0
LINE
  8
119
 10
221.4565
 20
77.9480
 30
0.0000
 11
221.7040
 21
78.3767
 31
0.0000
  0
LINE
  8
119
 10
221.7040
 20
78.3767
 30
0.0000
 11
223.0352
 21
78.3766
 31
0.0000
  0
LINE
  8
119
 10
223.0352
 20
78.3766
 30
0.0000
 11
223.2827
 21
77.9479
 31
0.0000
  0
LINE
  8
119
 10
223.2827
 20
77.9479
 30
0.0000
 11
224.8087
 21
77.9478
 31
0.0000
  0
LINE
  8
119
 10
224.8087
 20
77.9478
 30
0.0000
 11
224.8088
 21
79.1009
 31
0.0000
  0
LINE
  8
119
 10
239.1272
 20
290.9471
 30
0.0000
 11
217.1272
 21
290.9471
 31
0.0000
  0
LINE
  8
119
 10
217.1272
 20
290.9471
 30
0.0000
 11
217.1272
 21
50.9471
 31
0.0000
  0
LINE
  8
119
 10
230.9408
 20
200.6632
 30
0.0000
 11
229.3064
 21
197.8324
 31
0.0000
  0
LINE
  8
119
 10
232.5752
 20
197.8324
 30
0.0000
 11
230.9408
 21
200.6632
 31
0.0000
  0
LINE
  8
119
 10
229.3064
 20
197.8324
 30
0.0000
 11
232.5752
 21
197.8324
 31
0.0000
  0
LINE
  8
119
 10
221.8971
 20
78.8825
 30
0.0000
 11
222.8422
 21
78.8824
 31
0.0000
  0
LINE
  8
119
 10
222.8422
 20
78.8824
 30
0.0000
 11
222.3697
 21
79.7009
 31
0.0000
  0
LINE
  8
119
 10
222.3697
 20
79.7009
 30
0.0000
 11
221.8971
 21
78.8825
 31
0.0000
  0
LINE
  8
119
 10
228.1268
 20
79.6280
 30
0.0000
 11
228.9841
 21
79.6279
 31
0.0000
  0
LINE
  8
119
 10
228.1268
 20
80.3395
 30
0.0000
 11
228.1268
 21
79.6280
 31
0.0000
  0
LINE
  8
119
 10
228.9841
 20
80.3395
 30
0.0000
 11
228.1268
 21
80.3395
 31
0.0000
  0
ARC
  8
119
 10
228.9841
 20
79.9837
 30
0.0000
 40
0.3558
 50
269.9970
 51
89.9995
  0
LINE
  8
119
 10
232.2601
 20
78.8819
 30
0.0000
 11
231.7877
 21
79.7004
 31
0.0000
  0
LINE
  8
119
 10
231.3151
 20
78.8819
 30
0.0000
 11
232.2601
 21
78.8819
 31
0.0000
  0
LINE
  8
119
 10
231.7877
 20
79.7004
 30
0.0000
 11
231.3151
 21
78.8819
 31
0.0000
  0
LINE
  8
119
 10
389.7856
 20
347.1824
 30
0.0000
 11
388.9017
 21
347.6927
 31
0.0000
  0
LINE
  8
119
 10
113.5038
 20
316.3695
 30
0.0000
 11
112.7538
 21
316.3695
 31
0.0000
  0
LINE
  8
119
 10
112.7538
 20
316.3695
 30
0.0000
 11
43.6630
 21
316.3695
 31
0.0000
  0
LINE
  8
119
 10
113.5038
 20
317.8695
 30
0.0000
 11
113.5038
 21
316.3695
 31
0.0000
  0
LINE
  8
119
 10
113.5038
 20
317.8695
 30
0.0000
 11
112.2538
 21
317.8695
 31
0.0000
  0
LINE
  8
119
 10
112.2538
 20
317.8695
 30
0.0000
 11
100.5932
 21
317.8695
 31
0.0000
  0
LINE
  8
119
 10
100.5932
 20
317.8695
 30
0.0000
 11
43.6630
 21
317.8695
 31
0.0000
  0
LINE
  8
119
 10
43.6630
 20
317.8695
 30
0.0000
 11
43.6630
 21
316.3695
 31
0.0000
  0
LINE
  8
119
 10
156.8217
 20
317.8695
 30
0.0000
 11
156.8217
 21
317.8653
 31
0.0000
  0
LINE
  8
119
 10
156.8217
 20
317.8653
 30
0.0000
 11
156.8217
 21
316.3695
 31
0.0000
  0
LINE
  8
119
 10
156.8217
 20
317.8695
 30
0.0000
 11
145.0203
 21
317.8695
 31
0.0000
  0
LINE
  8
119
 10
145.0203
 20
317.8695
 30
0.0000
 11
118.2538
 21
317.8695
 31
0.0000
  0
LINE
  8
119
 10
118.2538
 20
317.8695
 30
0.0000
 11
117.0038
 21
317.8695
 31
0.0000
  0
LINE
  8
119
 10
117.0038
 20
316.3695
 30
0.0000
 11
117.0038
 21
317.8695
 31
0.0000
  0
LINE
  8
119
 10
156.8217
 20
316.3695
 30
0.0000
 11
117.7538
 21
316.3695
 31
0.0000
  0
LINE
  8
119
 10
117.7538
 20
316.3695
 30
0.0000
 11
117.0038
 21
316.3695
 31
0.0000
  0
LINE
  8
119
 10
115.2538
 20
319.1184
 30
0.0000
 11
116.5038
 21
319.8695
 31
0.0000
  0
LINE
  8
119
 10
114.0038
 20
319.8695
 30
0.0000
 11
115.2538
 21
319.1184
 31
0.0000
  0
LINE
  8
119
 10
114.0038
 20
328.8695
 30
0.0000
 11
114.0038
 21
319.8695
 31
0.0000
  0
LINE
  8
119
 10
114.0038
 20
328.8695
 30
0.0000
 11
113.0038
 21
328.8695
 31
0.0000
  0
LINE
  8
119
 10
113.0038
 20
328.8695
 30
0.0000
 11
112.2538
 21
328.8695
 31
0.0000
  0
LINE
  8
119
 10
112.2538
 20
317.8695
 30
0.0000
 11
112.2538
 21
328.8695
 31
0.0000
  0
LINE
  8
119
 10
113.6538
 20
317.8695
 30
0.0000
 11
113.5038
 21
317.8695
 31
0.0000
  0
LINE
  8
119
 10
113.6538
 20
316.3695
 30
0.0000
 11
113.6538
 21
317.8695
 31
0.0000
  0
LINE
  8
119
 10
113.5038
 20
316.3695
 30
0.0000
 11
113.6538
 21
316.3695
 31
0.0000
  0
LINE
  8
119
 10
112.7538
 20
315.8695
 30
0.0000
 11
112.7538
 21
316.3695
 31
0.0000
  0
ARC
  8
119
 10
115.2538
 20
318.4945
 30
0.0000
 40
3.6250
 50
226.3972
 51
313.6028
  0
LINE
  8
119
 10
117.7538
 20
316.3695
 30
0.0000
 11
117.7538
 21
315.8695
 31
0.0000
  0
LINE
  8
119
 10
116.8538
 20
316.3695
 30
0.0000
 11
117.0038
 21
316.3695
 31
0.0000
  0
LINE
  8
119
 10
116.8538
 20
317.8695
 30
0.0000
 11
116.8538
 21
316.3695
 31
0.0000
  0
LINE
  8
119
 10
117.0038
 20
317.8695
 30
0.0000
 11
116.8538
 21
317.8695
 31
0.0000
  0
LINE
  8
119
 10
118.2538
 20
328.8695
 30
0.0000
 11
118.2538
 21
317.8695
 31
0.0000
  0
LINE
  8
119
 10
118.2538
 20
328.8695
 30
0.0000
 11
117.5038
 21
328.8695
 31
0.0000
  0
LINE
  8
119
 10
117.5038
 20
328.8695
 30
0.0000
 11
116.5038
 21
328.8695
 31
0.0000
  0
LINE
  8
119
 10
116.5038
 20
319.8695
 30
0.0000
 11
116.5038
 21
328.8695
 31
0.0000
  0
LINE
  8
119
 10
43.6630
 20
312.3717
 30
0.0000
 11
41.1630
 21
312.3717
 31
0.0000
  0
LINE
  8
119
 10
43.6630
 20
312.3717
 30
0.0000
 11
43.6630
 21
318.1717
 31
0.0000
  0
LINE
  8
119
 10
41.1630
 20
318.1717
 30
0.0000
 11
43.6630
 21
318.1717
 31
0.0000
  0
LINE
  8
119
 10
41.1630
 20
312.3717
 30
0.0000
 11
41.1630
 21
318.1717
 31
0.0000
  0
LINE
  8
119
 10
41.1630
 20
334.3717
 30
0.0000
 11
43.6630
 21
334.3717
 31
0.0000
  0
LINE
  8
119
 10
41.1630
 20
328.5717
 30
0.0000
 11
41.1630
 21
334.3717
 31
0.0000
  0
LINE
  8
119
 10
43.6630
 20
328.5717
 30
0.0000
 11
41.1630
 21
328.5717
 31
0.0000
  0
LINE
  8
119
 10
43.6630
 20
328.5717
 30
0.0000
 11
43.6630
 21
328.8695
 31
0.0000
  0
LINE
  8
119
 10
43.6630
 20
330.3695
 30
0.0000
 11
43.6630
 21
334.3717
 31
0.0000
  0
LINE
  8
119
 10
68.5451
 20
318.3717
 30
0.0000
 11
68.5451
 21
328.3717
 31
0.0000
  0
LINE
  8
119
 10
68.5451
 20
328.3717
 30
0.0000
 11
40.5208
 21
328.3717
 31
0.0000
  0
ARC
  8
119
 10
54.6630
 20
323.3717
 30
0.0000
 40
15.0000
 50
160.5288
 51
199.4712
  0
LINE
  8
119
 10
40.5208
 20
318.3717
 30
0.0000
 11
68.5451
 21
318.3717
 31
0.0000
  0
LINE
  8
119
 10
148.0217
 20
324.6217
 30
0.0000
 11
148.0217
 21
322.1217
 31
0.0000
  0
LINE
  8
119
 10
148.0217
 20
324.6217
 30
0.0000
 11
123.9303
 21
324.6217
 31
0.0000
  0
LINE
  8
119
 10
123.9303
 20
322.1217
 30
0.0000
 11
123.9303
 21
324.6217
 31
0.0000
  0
LINE
  8
119
 10
148.0217
 20
322.1217
 30
0.0000
 11
123.9303
 21
322.1217
 31
0.0000
  0
LINE
  8
119
 10
80.2451
 20
322.9217
 30
0.0000
 11
80.2451
 21
322.1217
 31
0.0000
  0
LINE
  8
119
 10
80.2451
 20
322.1217
 30
0.0000
 11
112.0054
 21
322.1217
 31
0.0000
  0
LINE
  8
119
 10
112.0054
 20
324.6217
 30
0.0000
 11
112.0054
 21
322.1217
 31
0.0000
  0
LINE
  8
119
 10
80.7451
 20
324.6217
 30
0.0000
 11
80.8451
 21
324.6217
 31
0.0000
  0
LINE
  8
119
 10
83.2451
 20
324.6217
 30
0.0000
 11
95.1918
 21
324.6217
 31
0.0000
  0
LINE
  8
119
 10
95.1918
 20
324.6217
 30
0.0000
 11
98.3712
 21
324.6217
 31
0.0000
  0
LINE
  8
119
 10
111.7038
 20
324.6217
 30
0.0000
 11
112.0054
 21
324.6217
 31
0.0000
  0
LINE
  8
119
 10
76.7451
 20
324.6217
 30
0.0000
 11
76.6450
 21
324.6217
 31
0.0000
  0
LINE
  8
119
 10
74.2451
 20
324.6217
 30
0.0000
 11
66.5624
 21
324.6217
 31
0.0000
  0
LINE
  8
119
 10
66.5624
 20
324.6217
 30
0.0000
 11
66.5624
 21
322.1217
 31
0.0000
  0
LINE
  8
119
 10
77.2451
 20
322.1217
 30
0.0000
 11
66.5624
 21
322.1217
 31
0.0000
  0
LINE
  8
119
 10
77.2451
 20
322.9217
 30
0.0000
 11
77.2451
 21
322.1217
 31
0.0000
  0
LINE
  8
119
 10
143.3088
 20
319.4981
 30
0.0000
 11
118.4038
 21
319.4981
 31
0.0000
  0
ARC
  8
119
 10
143.3088
 20
319.2981
 30
0.0000
 40
0.2000
 50
45.0003
 51
89.9994
  0
LINE
  8
119
 10
145.0203
 20
317.8695
 30
0.0000
 11
143.4503
 21
319.4395
 31
0.0000
  0
LINE
  8
119
 10
145.0203
 20
317.8695
 30
0.0000
 11
146.4345
 21
319.2837
 31
0.0000
  0
LINE
  8
119
 10
146.4345
 20
319.2837
 30
0.0000
 11
144.8645
 21
320.8537
 31
0.0000
  0
ARC
  8
119
 10
143.3088
 20
319.2981
 30
0.0000
 40
2.2000
 50
45.0000
 51
89.9998
  0
LINE
  8
119
 10
143.3088
 20
321.4981
 30
0.0000
 11
118.4038
 21
321.4981
 31
0.0000
  0
LINE
  8
119
 10
118.4038
 20
321.4981
 30
0.0000
 11
118.4038
 21
319.4981
 31
0.0000
  0
LINE
  8
119
 10
102.3047
 20
321.4981
 30
0.0000
 11
112.1038
 21
321.4981
 31
0.0000
  0
ARC
  8
119
 10
102.3047
 20
319.2981
 30
0.0000
 40
2.2000
 50
90.0000
 51
135.0000
  0
LINE
  8
119
 10
99.1790
 20
319.2837
 30
0.0000
 11
100.7491
 21
320.8537
 31
0.0000
  0
LINE
  8
119
 10
100.5932
 20
317.8695
 30
0.0000
 11
99.1790
 21
319.2837
 31
0.0000
  0
LINE
  8
119
 10
100.5932
 20
317.8695
 30
0.0000
 11
102.1633
 21
319.4395
 31
0.0000
  0
ARC
  8
119
 10
102.3047
 20
319.2981
 30
0.0000
 40
0.2000
 50
89.9997
 51
134.9997
  0
LINE
  8
119
 10
102.3047
 20
319.4981
 30
0.0000
 11
112.1038
 21
319.4981
 31
0.0000
  0
LINE
  8
119
 10
112.1038
 20
319.4981
 30
0.0000
 11
112.1038
 21
321.4981
 31
0.0000
  0
LINE
  8
119
 10
79.2951
 20
321.4981
 30
0.0000
 11
79.2951
 21
319.4981
 31
0.0000
  0
LINE
  8
119
 10
79.2951
 20
321.4981
 30
0.0000
 11
78.1951
 21
321.4981
 31
0.0000
  0
LINE
  8
119
 10
78.1951
 20
321.4981
 30
0.0000
 11
78.1951
 21
319.4981
 31
0.0000
  0
LINE
  8
119
 10
79.2951
 20
319.4981
 30
0.0000
 11
78.1951
 21
319.4981
 31
0.0000
  0
LINE
  8
119
 10
98.3712
 20
324.6217
 30
0.0000
 11
98.3712
 21
326.6217
 31
0.0000
  0
LINE
  8
119
 10
95.1918
 20
326.6217
 30
0.0000
 11
98.3712
 21
326.6217
 31
0.0000
  0
LINE
  8
119
 10
95.1918
 20
324.6217
 30
0.0000
 11
95.1918
 21
326.6217
 31
0.0000
  0
LINE
  8
119
 10
98.3712
 20
324.6217
 30
0.0000
 11
101.0125
 21
324.6217
 31
0.0000
  0
LINE
  8
119
 10
101.0125
 20
324.6217
 30
0.0000
 11
111.7038
 21
324.6217
 31
0.0000
  0
LINE
  8
119
 10
111.7038
 20
324.6217
 30
0.0000
 11
111.7038
 21
326.6217
 31
0.0000
  0
LINE
  8
119
 10
101.0125
 20
326.6217
 30
0.0000
 11
111.7038
 21
326.6217
 31
0.0000
  0
LINE
  8
119
 10
101.0125
 20
326.6217
 30
0.0000
 11
101.0125
 21
324.6217
 31
0.0000
  0
LINE
  8
119
 10
76.6450
 20
326.6217
 30
0.0000
 11
76.6450
 21
324.6217
 31
0.0000
  0
LINE
  8
119
 10
76.6450
 20
326.6217
 30
0.0000
 11
74.2451
 21
326.6217
 31
0.0000
  0
LINE
  8
119
 10
74.2451
 20
326.6217
 30
0.0000
 11
74.2451
 21
324.6217
 31
0.0000
  0
LINE
  8
119
 10
76.6450
 20
324.6217
 30
0.0000
 11
74.2451
 21
324.6217
 31
0.0000
  0
LINE
  8
119
 10
80.8451
 20
326.6217
 30
0.0000
 11
83.2451
 21
326.6217
 31
0.0000
  0
LINE
  8
119
 10
80.8451
 20
326.6217
 30
0.0000
 11
80.8451
 21
324.6217
 31
0.0000
  0
LINE
  8
119
 10
80.8451
 20
324.6217
 30
0.0000
 11
83.2451
 21
324.6217
 31
0.0000
  0
LINE
  8
119
 10
83.2451
 20
326.6217
 30
0.0000
 11
83.2451
 21
324.6217
 31
0.0000
  0
LINE
  8
119
 10
82.2451
 20
328.2217
 30
0.0000
 11
82.2451
 21
326.9217
 31
0.0000
  0
LINE
  8
119
 10
82.2451
 20
328.2217
 30
0.0000
 11
75.2451
 21
328.2217
 31
0.0000
  0
LINE
  8
119
 10
75.2451
 20
328.2217
 30
0.0000
 11
75.2451
 21
326.9217
 31
0.0000
  0
LINE
  8
119
 10
75.2451
 20
326.9217
 30
0.0000
 11
76.7451
 21
326.9217
 31
0.0000
  0
LINE
  8
119
 10
76.7451
 20
326.9217
 30
0.0000
 11
76.7451
 21
324.6217
 31
0.0000
  0
LINE
  8
119
 10
76.7451
 20
324.6217
 30
0.0000
 11
77.2451
 21
324.6217
 31
0.0000
  0
LINE
  8
119
 10
77.2451
 20
324.6217
 30
0.0000
 11
77.2451
 21
322.9217
 31
0.0000
  0
LINE
  8
119
 10
77.2451
 20
322.9217
 30
0.0000
 11
77.6492
 21
322.2217
 31
0.0000
  0
LINE
  8
119
 10
77.6492
 20
322.2217
 30
0.0000
 11
79.8409
 21
322.2217
 31
0.0000
  0
LINE
  8
119
 10
80.2451
 20
322.9217
 30
0.0000
 11
79.8409
 21
322.2217
 31
0.0000
  0
LINE
  8
119
 10
80.2451
 20
324.6217
 30
0.0000
 11
80.2451
 21
322.9217
 31
0.0000
  0
LINE
  8
119
 10
80.7451
 20
324.6217
 30
0.0000
 11
80.2451
 21
324.6217
 31
0.0000
  0
LINE
  8
119
 10
80.7451
 20
326.9217
 30
0.0000
 11
80.7451
 21
324.6217
 31
0.0000
  0
LINE
  8
119
 10
82.2451
 20
326.9217
 30
0.0000
 11
80.7451
 21
326.9217
 31
0.0000
  0
LINE
  8
119
 10
96.9601
 20
328.2217
 30
0.0000
 11
102.4236
 21
328.2217
 31
0.0000
  0
LINE
  8
119
 10
96.9601
 20
326.9217
 30
0.0000
 11
96.9601
 21
328.2217
 31
0.0000
  0
LINE
  8
119
 10
102.4236
 20
326.9217
 30
0.0000
 11
96.9601
 21
326.9217
 31
0.0000
  0
LINE
  8
119
 10
102.4236
 20
328.2217
 30
0.0000
 11
102.4236
 21
326.9217
 31
0.0000
  0
LINE
  8
119
 10
112.2538
 20
328.8695
 30
0.0000
 11
43.6630
 21
328.8695
 31
0.0000
  0
LINE
  8
119
 10
113.0038
 20
330.3695
 30
0.0000
 11
113.0038
 21
328.8695
 31
0.0000
  0
LINE
  8
119
 10
113.0038
 20
330.3695
 30
0.0000
 11
43.6630
 21
330.3695
 31
0.0000
  0
LINE
  8
119
 10
43.6630
 20
330.3695
 30
0.0000
 11
43.6630
 21
328.8695
 31
0.0000
  0
ARC
  8
119
 10
155.2217
 20
328.7695
 30
0.0000
 40
1.6000
 50
0.0000
 51
90.0000
  0
LINE
  8
119
 10
155.2217
 20
330.3695
 30
0.0000
 11
117.5038
 21
330.3695
 31
0.0000
  0
LINE
  8
119
 10
117.5038
 20
328.8695
 30
0.0000
 11
117.5038
 21
330.3695
 31
0.0000
  0
LINE
  8
119
 10
155.2217
 20
328.8695
 30
0.0000
 11
118.2538
 21
328.8695
 31
0.0000
  0
ARC
  8
119
 10
155.2217
 20
328.7695
 30
0.0000
 40
0.1000
 50
0.0000
 51
90.0000
  0
LINE
  8
119
 10
155.3217
 20
328.7695
 30
0.0000
 11
155.3217
 21
317.8653
 31
0.0000
  0
LINE
  8
119
 10
156.8217
 20
317.8653
 30
0.0000
 11
155.3217
 21
317.8653
 31
0.0000
  0
LINE
  8
119
 10
156.8217
 20
328.7695
 30
0.0000
 11
156.8217
 21
317.8695
 31
0.0000
  0
LINE
  8
119
 10
115.8098
 20
329.2595
 30
0.0000
 11
115.8553
 21
329.2595
 31
0.0000
  0
LINE
  8
119
 10
115.8098
 20
329.2595
 30
0.0000
 11
115.2538
 21
329.0788
 31
0.0000
  0
LINE
  8
119
 10
115.2538
 20
329.0788
 30
0.0000
 11
114.6978
 21
329.2595
 31
0.0000
  0
LINE
  8
119
 10
114.6523
 20
329.2595
 30
0.0000
 11
114.6978
 21
329.2595
 31
0.0000
  0
LINE
  8
119
 10
114.6523
 20
329.2595
 30
0.0000
 11
114.5945
 21
329.3554
 31
0.0000
  0
LINE
  8
119
 10
114.5945
 20
329.3554
 30
0.0000
 11
114.5945
 21
330.7365
 31
0.0000
  0
LINE
  8
119
 10
114.5945
 20
330.7365
 30
0.0000
 11
114.5572
 21
331.2695
 31
0.0000
  0
LINE
  8
119
 10
114.5572
 20
331.2695
 30
0.0000
 11
112.5038
 21
331.2695
 31
0.0000
  0
LINE
  8
119
 10
112.5038
 20
331.2695
 30
0.0000
 11
112.5038
 21
330.8695
 31
0.0000
  0
LINE
  8
119
 10
112.5038
 20
330.8695
 30
0.0000
 11
113.5194
 21
329.8538
 31
0.0000
  0
ARC
  8
119
 10
112.9538
 20
329.2881
 30
0.0000
 40
0.8000
 50
1.9895
 51
45.0001
  0
LINE
  8
119
 10
113.7538
 20
329.3159
 30
0.0000
 11
113.7533
 21
329.3159
 31
0.0000
  0
LINE
  8
119
 10
114.0343
 20
329.1195
 30
0.0000
 11
113.7538
 21
329.3159
 31
0.0000
  0
LINE
  8
119
 10
113.7538
 20
328.9230
 30
0.0000
 11
114.0343
 21
329.1195
 31
0.0000
  0
LINE
  8
119
 10
113.7538
 20
328.9230
 30
0.0000
 11
113.7538
 21
328.8346
 31
0.0000
  0
LINE
  8
119
 10
114.0343
 20
328.6382
 30
0.0000
 11
113.7538
 21
328.8346
 31
0.0000
  0
LINE
  8
119
 10
113.7538
 20
328.4418
 30
0.0000
 11
114.0343
 21
328.6382
 31
0.0000
  0
LINE
  8
119
 10
113.7538
 20
328.4418
 30
0.0000
 11
113.7538
 21
328.3534
 31
0.0000
  0
LINE
  8
119
 10
114.0343
 20
328.1569
 30
0.0000
 11
113.7538
 21
328.3534
 31
0.0000
  0
LINE
  8
119
 10
113.7538
 20
327.9605
 30
0.0000
 11
114.0343
 21
328.1569
 31
0.0000
  0
LINE
  8
119
 10
113.7538
 20
327.9605
 30
0.0000
 11
113.7538
 21
327.8721
 31
0.0000
  0
LINE
  8
119
 10
114.0343
 20
327.6757
 30
0.0000
 11
113.7538
 21
327.8721
 31
0.0000
  0
LINE
  8
119
 10
113.7538
 20
327.4793
 30
0.0000
 11
114.0343
 21
327.6757
 31
0.0000
  0
LINE
  8
119
 10
113.7538
 20
327.4793
 30
0.0000
 11
113.7538
 21
327.3909
 31
0.0000
  0
LINE
  8
119
 10
114.0343
 20
327.1945
 30
0.0000
 11
113.7538
 21
327.3909
 31
0.0000
  0
LINE
  8
119
 10
113.7538
 20
326.9980
 30
0.0000
 11
114.0343
 21
327.1945
 31
0.0000
  0
LINE
  8
119
 10
113.7538
 20
326.9980
 30
0.0000
 11
113.7538
 21
326.9096
 31
0.0000
  0
LINE
  8
119
 10
114.0343
 20
326.7132
 30
0.0000
 11
113.7538
 21
326.9096
 31
0.0000
  0
LINE
  8
119
 10
113.7538
 20
326.5168
 30
0.0000
 11
114.0343
 21
326.7132
 31
0.0000
  0
LINE
  8
119
 10
113.7538
 20
326.5168
 30
0.0000
 11
113.7538
 21
326.4284
 31
0.0000
  0
LINE
  8
119
 10
114.0343
 20
326.2320
 30
0.0000
 11
113.7538
 21
326.4284
 31
0.0000
  0
LINE
  8
119
 10
113.7538
 20
326.0355
 30
0.0000
 11
114.0343
 21
326.2320
 31
0.0000
  0
LINE
  8
119
 10
113.7538
 20
326.0355
 30
0.0000
 11
113.7538
 21
325.9471
 31
0.0000
  0
LINE
  8
119
 10
114.0343
 20
325.7507
 30
0.0000
 11
113.7538
 21
325.9471
 31
0.0000
  0
LINE
  8
119
 10
113.7538
 20
325.5543
 30
0.0000
 11
114.0343
 21
325.7507
 31
0.0000
  0
LINE
  8
119
 10
113.7538
 20
325.5543
 30
0.0000
 11
113.7538
 21
325.4658
 31
0.0000
  0
LINE
  8
119
 10
114.0343
 20
325.2695
 30
0.0000
 11
113.7538
 21
325.4658
 31
0.0000
  0
LINE
  8
119
 10
114.0343
 20
325.2695
 30
0.0000
 11
116.4733
 21
325.2695
 31
0.0000
  0
LINE
  8
119
 10
116.7538
 20
325.4658
 30
0.0000
 11
116.4733
 21
325.2695
 31
0.0000
  0
LINE
  8
119
 10
116.7538
 20
325.4658
 30
0.0000
 11
116.7538
 21
325.5543
 31
0.0000
  0
LINE
  8
119
 10
116.4733
 20
325.7507
 30
0.0000
 11
116.7538
 21
325.5543
 31
0.0000
  0
LINE
  8
119
 10
116.7538
 20
325.9471
 30
0.0000
 11
116.4733
 21
325.7507
 31
0.0000
  0
LINE
  8
119
 10
116.7538
 20
325.9471
 30
0.0000
 11
116.7538
 21
326.0355
 31
0.0000
  0
LINE
  8
119
 10
116.4733
 20
326.2320
 30
0.0000
 11
116.7538
 21
326.0355
 31
0.0000
  0
LINE
  8
119
 10
116.7538
 20
326.4284
 30
0.0000
 11
116.4733
 21
326.2320
 31
0.0000
  0
LINE
  8
119
 10
116.7538
 20
326.4284
 30
0.0000
 11
116.7538
 21
326.5168
 31
0.0000
  0
LINE
  8
119
 10
116.4733
 20
326.7132
 30
0.0000
 11
116.7538
 21
326.5168
 31
0.0000
  0
LINE
  8
119
 10
116.7538
 20
326.9096
 30
0.0000
 11
116.4733
 21
326.7132
 31
0.0000
  0
LINE
  8
119
 10
116.7538
 20
326.9096
 30
0.0000
 11
116.7538
 21
326.9980
 31
0.0000
  0
LINE
  8
119
 10
116.4733
 20
327.1945
 30
0.0000
 11
116.7538
 21
326.9980
 31
0.0000
  0
LINE
  8
119
 10
116.7538
 20
327.3909
 30
0.0000
 11
116.4733
 21
327.1945
 31
0.0000
  0
LINE
  8
119
 10
116.7538
 20
327.3909
 30
0.0000
 11
116.7538
 21
327.4793
 31
0.0000
  0
LINE
  8
119
 10
116.4733
 20
327.6757
 30
0.0000
 11
116.7538
 21
327.4793
 31
0.0000
  0
LINE
  8
119
 10
116.7538
 20
327.8721
 30
0.0000
 11
116.4733
 21
327.6757
 31
0.0000
  0
LINE
  8
119
 10
116.7538
 20
327.8721
 30
0.0000
 11
116.7538
 21
327.9605
 31
0.0000
  0
LINE
  8
119
 10
116.4733
 20
328.1569
 30
0.0000
 11
116.7538
 21
327.9605
 31
0.0000
  0
LINE
  8
119
 10
116.7538
 20
328.3534
 30
0.0000
 11
116.4733
 21
328.1569
 31
0.0000
  0
LINE
  8
119
 10
116.7538
 20
328.3534
 30
0.0000
 11
116.7538
 21
328.4418
 31
0.0000
  0
LINE
  8
119
 10
116.4733
 20
328.6382
 30
0.0000
 11
116.7538
 21
328.4418
 31
0.0000
  0
LINE
  8
119
 10
116.7538
 20
328.8346
 30
0.0000
 11
116.4733
 21
328.6382
 31
0.0000
  0
LINE
  8
119
 10
116.7538
 20
328.8346
 30
0.0000
 11
116.7538
 21
328.9230
 31
0.0000
  0
LINE
  8
119
 10
116.4733
 20
329.1195
 30
0.0000
 11
116.7538
 21
328.9230
 31
0.0000
  0
LINE
  8
119
 10
116.7538
 20
329.3159
 30
0.0000
 11
116.4733
 21
329.1195
 31
0.0000
  0
LINE
  8
119
 10
116.7542
 20
329.3159
 30
0.0000
 11
116.7542
 21
329.3159
 31
0.0000
  0
LINE
  8
119
 10
116.7542
 20
329.3159
 30
0.0000
 11
116.7538
 21
329.3159
 31
0.0000
  0
ARC
  8
119
 10
117.5538
 20
329.2881
 30
0.0000
 40
0.8000
 50
135.0001
 51
178.0104
  0
LINE
  8
119
 10
116.9881
 20
329.8538
 30
0.0000
 11
118.0038
 21
330.8695
 31
0.0000
  0
LINE
  8
119
 10
118.0038
 20
330.8695
 30
0.0000
 11
118.0038
 21
331.2695
 31
0.0000
  0
LINE
  8
119
 10
118.0038
 20
331.2695
 30
0.0000
 11
115.9503
 21
331.2695
 31
0.0000
  0
LINE
  8
119
 10
115.9503
 20
331.2695
 30
0.0000
 11
115.9130
 21
330.7365
 31
0.0000
  0
LINE
  8
119
 10
115.9130
 20
330.7365
 30
0.0000
 11
115.9130
 21
329.3554
 31
0.0000
  0
LINE
  8
119
 10
115.9130
 20
329.3554
 30
0.0000
 11
115.8553
 21
329.2595
 31
0.0000
  0
POLYLINE
  8
119
 66
1
 10
0.0000
 20
0.0000
 30
0.0000
 40
0.1016
 41
0.1016
 70
0
  0
VERTEX
  8
119
 10
80.0000
 20
216.0000
 30
0.0000
  0
VERTEX
  8
119
 10
221.0000
 20
216.0000
 30
0.0000
  0
SEQEND
  8
0
  0
POLYLINE
  8
119
 66
1
 10
0.0000
 20
0.0000
 30
0.0000
 40
0.0508
 41
0.0508
 70
0
  0
VERTEX
  8
119
 10
221.0000
 20
215.9746
 30
0.0000
 42
1.0000
  0
VERTEX
  8
119
 10
221.0000
 20
216.0254
 30
0.0000
  0
SEQEND
  8
0
  0
POLYLINE
  8
119
 66
1
 10
0.0000
 20
0.0000
 30
0.0000
 40
0.0508
 41
0.0508
 70
0
  0
VERTEX
  8
119
 10
80.0000
 20
216.0254
 30
0.0000
 42
1.0000
  0
VERTEX
  8
119
 10
80.0000
 20
215.9746
 30
0.0000
  0
SEQEND
  8
0
  0
POLYLINE
  8
119
 66
1
 10
0.0000
 20
0.0000
 30
0.0000
 40
0.1016
 41
0.1016
 70
0
  0
VERTEX
  8
119
 10
221.0000
 20
216.0000
 30
0.0000
  0
VERTEX
  8
119
 10
234.5000
 20
216.0000
 30
0.0000
  0
SEQEND
  8
0
  0
POLYLINE
  8
119
 66
1
 10
0.0000
 20
0.0000
 30
0.0000
 40
0.0508
 41
0.0508
 70
0
  0
VERTEX
  8
119
 10
234.5000
 20
215.9746
 30
0.0000
 42
1.0000
  0
VERTEX
  8
119
 10
234.5000
 20
216.0254
 30
0.0000
  0
SEQEND
  8
0
  0
POLYLINE
  8
119
 66
1
 10
0.0000
 20
0.0000
 30
0.0000
 40
0.0508
 41
0.0508
 70
0
  0
VERTEX
  8
119
 10
221.0000
 20
216.0254
 30
0.0000
 42
1.0000
  0
VERTEX
  8
119
 10
221.0000
 20
215.9746
 30
0.0000
  0
SEQEND
  8
0
  0
POLYLINE
  8
119
 66
1
 10
0.0000
 20
0.0000
 30
0.0000
 40
0.1016
 41
0.1016
 70
0
  0
VERTEX
  8
119
 10
234.5000
 20
216.0000
 30
0.0000
  0
VERTEX
  8
119
 10
291.0000
 20
216.0000
 30
0.0000
  0
SEQEND
  8
0
  0
POLYLINE
  8
119
 66
1
 10
0.0000
 20
0.0000
 30
0.0000
 40
0.0508
 41
0.0508
 70
0
  0
VERTEX
  8
119
 10
291.0000
 20
215.9746
 30
0.0000
 42
1.0000
  0
VERTEX
  8
119
 10
291.0000
 20
216.0254
 30
0.0000
  0
SEQEND
  8
0
  0
POLYLINE
  8
119
 66
1
 10
0.0000
 20
0.0000
 30
0.0000
 40
0.0508
 41
0.0508
 70
0
  0
VERTEX
  8
119
 10
234.5000
 20
216.0254
 30
0.0000
 42
1.0000
  0
VERTEX
  8
119
 10
234.5000
 20
215.9746
 30
0.0000
  0
SEQEND
  8
0
  0
POLYLINE
  8
119
 66
1
 10
0.0000
 20
0.0000
 30
0.0000
 40
0.1016
 41
0.1016
 70
0
  0
VERTEX
  8
119
 10
75.5000
 20
188.5000
 30
0.0000
  0
VERTEX
  8
119
 10
221.0000
 20
188.5000
 30
0.0000
  0
SEQEND
  8
0
  0
POLYLINE
  8
119
 66
1
 10
0.0000
 20
0.0000
 30
0.0000
 40
0.0508
 41
0.0508
 70
0
  0
VERTEX
  8
119
 10
221.0000
 20
188.4746
 30
0.0000
 42
1.0000
  0
VERTEX
  8
119
 10
221.0000
 20
188.5254
 30
0.0000
  0
SEQEND
  8
0
  0
POLYLINE
  8
119
 66
1
 10
0.0000
 20
0.0000
 30
0.0000
 40
0.0508
 41
0.0508
 70
0
  0
VERTEX
  8
119
 10
75.5000
 20
188.5254
 30
0.0000
 42
1.0000
  0
VERTEX
  8
119
 10
75.5000
 20
188.4746
 30
0.0000
  0
SEQEND
  8
0
  0
POLYLINE
  8
119
 66
1
 10
0.0000
 20
0.0000
 30
0.0000
 40
0.1016
 41
0.1016
 70
0
  0
VERTEX
  8
119
 10
221.0000
 20
188.5000
 30
0.0000
  0
VERTEX
  8
119
 10
234.5000
 20
188.5000
 30
0.0000
  0
SEQEND
  8
0
  0
POLYLINE
  8
119
 66
1
 10
0.0000
 20
0.0000
 30
0.0000
 40
0.0508
 41
0.0508
 70
0
  0
VERTEX
  8
119
 10
234.5000
 20
188.4746
 30
0.0000
 42
1.0000
  0
VERTEX
  8
119
 10
234.5000
 20
188.5254
 30
0.0000
  0
SEQEND
  8
0
  0
POLYLINE
  8
119
 66
1
 10
0.0000
 20
0.0000
 30
0.0000
 40
0.0508
 41
0.0508
 70
0
  0
VERTEX
  8
119
 10
221.0000
 20
188.5254
 30
0.0000
 42
1.0000
  0
VERTEX
  8
119
 10
221.0000
 20
188.4746
 30
0.0000
  0
SEQEND
  8
0
  0
POLYLINE
  8
119
 66
1
 10
0.0000
 20
0.0000
 30
0.0000
 40
0.1016
 41
0.1016
 70
0
  0
VERTEX
  8
119
 10
234.5000
 20
188.5000
 30
0.0000
  0
VERTEX
  8
119
 10
262.5000
 20
188.5000
 30
0.0000
  0
SEQEND
  8
0
  0
POLYLINE
  8
119
 66
1
 10
0.0000
 20
0.0000
 30
0.0000
 40
0.0508
 41
0.0508
 70
0
  0
VERTEX
  8
119
 10
262.5000
 20
188.4746
 30
0.0000
 42
1.0000
  0
VERTEX
  8
119
 10
262.5000
 20
188.5254
 30
0.0000
  0
SEQEND
  8
0
  0
POLYLINE
  8
119
 66
1
 10
0.0000
 20
0.0000
 30
0.0000
 40
0.0508
 41
0.0508
 70
0
  0
VERTEX
  8
119
 10
234.5000
 20
188.5254
 30
0.0000
 42
1.0000
  0
VERTEX
  8
119
 10
234.5000
 20
188.4746
 30
0.0000
  0
SEQEND
  8
0
  0
POLYLINE
  8
119
 66
1
 10
0.0000
 20
0.0000
 30
0.0000
 40
0.1016
 41
0.1016
 70
0
  0
VERTEX
  8
119
 10
75.5000
 20
178.5000
 30
0.0000
  0
VERTEX
  8
119
 10
221.0000
 20
178.5000
 30
0.0000
  0
SEQEND
  8
0
  0
POLYLINE
  8
119
 66
1
 10
0.0000
 20
0.0000
 30
0.0000
 40
0.0508
 41
0.0508
 70
0
  0
VERTEX
  8
119
 10
221.0000
 20
178.4746
 30
0.0000
 42
1.0000
  0
VERTEX
  8
119
 10
221.0000
 20
178.5254
 30
0.0000
  0
SEQEND
  8
0
  0
POLYLINE
  8
119
 66
1
 10
0.0000
 20
0.0000
 30
0.0000
 40
0.0508
 41
0.0508
 70
0
  0
VERTEX
  8
119
 10
75.5000
 20
178.5254
 30
0.0000
 42
1.0000
  0
VERTEX
  8
119
 10
75.5000
 20
178.4746
 30
0.0000
  0
SEQEND
  8
0
  0
POLYLINE
  8
119
 66
1
 10
0.0000
 20
0.0000
 30
0.0000
 40
0.1016
 41
0.1016
 70
0
  0
VERTEX
  8
119
 10
221.0000
 20
178.5000
 30
0.0000
  0
VERTEX
  8
119
 10
234.5000
 20
178.5000
 30
0.0000
  0
SEQEND
  8
0
  0
POLYLINE
  8
119
 66
1
 10
0.0000
 20
0.0000
 30
0.0000
 40
0.0508
 41
0.0508
 70
0
  0
VERTEX
  8
119
 10
234.5000
 20
178.4746
 30
0.0000
 42
1.0000
  0
VERTEX
  8
119
 10
234.5000
 20
178.5254
 30
0.0000
  0
SEQEND
  8
0
  0
POLYLINE
  8
119
 66
1
 10
0.0000
 20
0.0000
 30
0.0000
 40
0.0508
 41
0.0508
 70
0
  0
VERTEX
  8
119
 10
221.0000
 20
178.5254
 30
0.0000
 42
1.0000
  0
VERTEX
  8
119
 10
221.0000
 20
178.4746
 30
0.0000
  0
SEQEND
  8
0
  0
POLYLINE
  8
119
 66
1
 10
0.0000
 20
0.0000
 30
0.0000
 40
0.1016
 41
0.1016
 70
0
  0
VERTEX
  8
119
 10
234.5000
 20
178.5000
 30
0.0000
  0
VERTEX
  8
119
 10
266.5000
 20
178.5000
 30
0.0000
  0
SEQEND
  8
0
  0
POLYLINE
  8
119
 66
1
 10
0.0000
 20
0.0000
 30
0.0000
 40
0.0508
 41
0.0508
 70
0
  0
VERTEX
  8
119
 10
266.5000
 20
178.4746
 30
0.0000
 42
1.0000
  0
VERTEX
  8
119
 10
266.5000
 20
178.5254
 30
0.0000
  0
SEQEND
  8
0
  0
POLYLINE
  8
119
 66
1
 10
0.0000
 20
0.0000
 30
0.0000
 40
0.0508
 41
0.0508
 70
0
  0
VERTEX
  8
119
 10
234.5000
 20
178.5254
 30
0.0000
 42
1.0000
  0
VERTEX
  8
119
 10
234.5000
 20
178.4746
 30
0.0000
  0
SEQEND
  8
0
  0
POLYLINE
  8
119
 66
1
 10
0.0000
 20
0.0000
 30
0.0000
 40
0.1016
 41
0.1016
 70
0
  0
VERTEX
  8
119
 10
76.0000
 20
169.5000
 30
0.0000
  0
VERTEX
  8
119
 10
221.0000
 20
169.5000
 30
0.0000
  0
SEQEND
  8
0
  0
POLYLINE
  8
119
 66
1
 10
0.0000
 20
0.0000
 30
0.0000
 40
0.0508
 41
0.0508
 70
0
  0
VERTEX
  8
119
 10
221.0000
 20
169.4746
 30
0.0000
 42
1.0000
  0
VERTEX
  8
119
 10
221.0000
 20
169.5254
 30
0.0000
  0
SEQEND
  8
0
  0
POLYLINE
  8
119
 66
1
 10
0.0000
 20
0.0000
 30
0.0000
 40
0.0508
 41
0.0508
 70
0
  0
VERTEX
  8
119
 10
76.0000
 20
169.5254
 30
0.0000
 42
1.0000
  0
VERTEX
  8
119
 10
76.0000
 20
169.4746
 30
0.0000
  0
SEQEND
  8
0
  0
POLYLINE
  8
119
 66
1
 10
0.0000
 20
0.0000
 30
0.0000
 40
0.1016
 41
0.1016
 70
0
  0
VERTEX
  8
119
 10
221.0000
 20
169.5000
 30
0.0000
  0
VERTEX
  8
119
 10
234.5000
 20
169.5000
 30
0.0000
  0
SEQEND
  8
0
  0
POLYLINE
  8
119
 66
1
 10
0.0000
 20
0.0000
 30
0.0000
 40
0.0508
 41
0.0508
 70
0
  0
VERTEX
  8
119
 10
234.5000
 20
169.4746
 30
0.0000
 42
1.0000
  0
VERTEX
  8
119
 10
234.5000
 20
169.5254
 30
0.0000
  0
SEQEND
  8
0
  0
POLYLINE
  8
119
 66
1
 10
0.0000
 20
0.0000
 30
0.0000
 40
0.0508
 41
0.0508
 70
0
  0
VERTEX
  8
119
 10
221.0000
 20
169.5254
 30
0.0000
 42
1.0000
  0
VERTEX
  8
119
 10
221.0000
 20
169.4746
 30
0.0000
  0
SEQEND
  8
0
  0
POLYLINE
  8
119
 66
1
 10
0.0000
 20
0.0000
 30
0.0000
 40
0.1016
 41
0.1016
 70
0
  0
VERTEX
  8
119
 10
234.5000
 20
169.5000
 30
0.0000
  0
VERTEX
  8
119
 10
266.5000
 20
169.5000
 30
0.0000
  0
SEQEND
  8
0
  0
POLYLINE
  8
119
 66
1
 10
0.0000
 20
0.0000
 30
0.0000
 40
0.0508
 41
0.0508
 70
0
  0
VERTEX
  8
119
 10
266.5000
 20
169.4746
 30
0.0000
 42
1.0000
  0
VERTEX
  8
119
 10
266.5000
 20
169.5254
 30
0.0000
  0
SEQEND
  8
0
  0
POLYLINE
  8
119
 66
1
 10
0.0000
 20
0.0000
 30
0.0000
 40
0.0508
 41
0.0508
 70
0
  0
VERTEX
  8
119
 10
234.5000
 20
169.5254
 30
0.0000
 42
1.0000
  0
VERTEX
  8
119
 10
234.5000
 20
169.4746
 30
0.0000
  0
SEQEND
  8
0
  0
POLYLINE
  8
119
 66
1
 10
0.0000
 20
0.0000
 30
0.0000
 40
0.1016
 41
0.1016
 70
0
  0
VERTEX
  8
119
 10
221.0000
 20
216.0000
 30
0.0000
  0
VERTEX
  8
119
 10
221.0000
 20
188.5000
 30
0.0000
  0
SEQEND
  8
0
  0
POLYLINE
  8
119
 66
1
 10
0.0000
 20
0.0000
 30
0.0000
 40
0.0508
 41
0.0508
 70
0
  0
VERTEX
  8
119
 10
220.9746
 20
188.5000
 30
0.0000
 42
1.0000
  0
VERTEX
  8
119
 10
221.0254
 20
188.5000
 30
0.0000
  0
SEQEND
  8
0
  0
POLYLINE
  8
119
 66
1
 10
0.0000
 20
0.0000
 30
0.0000
 40
0.0508
 41
0.0508
 70
0
  0
VERTEX
  8
119
 10
221.0254
 20
216.0000
 30
0.0000
 42
1.0000
  0
VERTEX
  8
119
 10
220.9746
 20
216.0000
 30
0.0000
  0
SEQEND
  8
0
  0
POLYLINE
  8
119
 66
1
 10
0.0000
 20
0.0000
 30
0.0000
 40
0.1016
 41
0.1016
 70
0
  0
VERTEX
  8
119
 10
234.5000
 20
216.0000
 30
0.0000
  0
VERTEX
  8
119
 10
234.5000
 20
188.5000
 30
0.0000
  0
SEQEND
  8
0
  0
POLYLINE
  8
119
 66
1
 10
0.0000
 20
0.0000
 30
0.0000
 40
0.0508
 41
0.0508
 70
0
  0
VERTEX
  8
119
 10
234.4746
 20
188.5000
 30
0.0000
 42
1.0000
  0
VERTEX
  8
119
 10
234.5254
 20
188.5000
 30
0.0000
  0
SEQEND
  8
0
  0
POLYLINE
  8
119
 66
1
 10
0.0000
 20
0.0000
 30
0.0000
 40
0.0508
 41
0.0508
 70
0
  0
VERTEX
  8
119
 10
234.5254
 20
216.0000
 30
0.0000
 42
1.0000
  0
VERTEX
  8
119
 10
234.4746
 20
216.0000
 30
0.0000
  0
SEQEND
  8
0
  0
POLYLINE
  8
119
 66
1
 10
0.0000
 20
0.0000
 30
0.0000
 40
0.1016
 41
0.1016
 70
0
  0
VERTEX
  8
119
 10
221.0000
 20
178.5000
 30
0.0000
  0
VERTEX
  8
119
 10
221.0000
 20
169.5000
 30
0.0000
  0
SEQEND
  8
0
  0
POLYLINE
  8
119
 66
1
 10
0.0000
 20
0.0000
 30
0.0000
 40
0.0508
 41
0.0508
 70
0
  0
VERTEX
  8
119
 10
220.9746
 20
169.5000
 30
0.0000
 42
1.0000
  0
VERTEX
  8
119
 10
221.0254
 20
169.5000
 30
0.0000
  0
SEQEND
  8
0
  0
POLYLINE
  8
119
 66
1
 10
0.0000
 20
0.0000
 30
0.0000
 40
0.0508
 41
0.0508
 70
0
  0
VERTEX
  8
119
 10
221.0254
 20
178.5000
 30
0.0000
 42
1.0000
  0
VERTEX
  8
119
 10
220.9746
 20
178.5000
 30
0.0000
  0
SEQEND
  8
0
  0
POLYLINE
  8
119
 66
1
 10
0.0000
 20
0.0000
 30
0.0000
 40
0.1016
 41
0.1016
 70
0
  0
VERTEX
  8
119
 10
234.5000
 20
178.5000
 30
0.0000
  0
VERTEX
  8
119
 10
234.5000
 20
169.5000
 30
0.0000
  0
SEQEND
  8
0
  0
POLYLINE
  8
119
 66
1
 10
0.0000
 20
0.0000
 30
0.0000
 40
0.0508
 41
0.0508
 70
0
  0
VERTEX
  8
119
 10
234.4746
 20
169.5000
 30
0.0000
 42
1.0000
  0
VERTEX
  8
119
 10
234.5254
 20
169.5000
 30
0.0000
  0
SEQEND
  8
0
  0
POLYLINE
  8
119
 66
1
 10
0.0000
 20
0.0000
 30
0.0000
 40
0.0508
 41
0.0508
 70
0
  0
VERTEX
  8
119
 10
234.5254
 20
178.5000
 30
0.0000
 42
1.0000
  0
VERTEX
  8
119
 10
234.4746
 20
178.5000
 30
0.0000
  0
SEQEND
  8
0
  0
POLYLINE
  8
119
 66
1
 10
0.0000
 20
0.0000
 30
0.0000
 40
0.1524
 41
0.1524
 70
0
  0
VERTEX
  8
119
 10
151.5000
 20
225.5000
 30
0.0000
  0
VERTEX
  8
119
 10
157.7500
 20
225.5000
 30
0.0000
  0
SEQEND
  8
0
  0
POLYLINE
  8
119
 66
1
 10
0.0000
 20
0.0000
 30
0.0000
 40
0.0762
 41
0.0762
 70
0
  0
VERTEX
  8
119
 10
157.7500
 20
225.4619
 30
0.0000
 42
1.0000
  0
VERTEX
  8
119
 10
157.7500
 20
225.5381
 30
0.0000
  0
SEQEND
  8
0
  0
POLYLINE
  8
119
 66
1
 10
0.0000
 20
0.0000
 30
0.0000
 40
0.0762
 41
0.0762
 70
0
  0
VERTEX
  8
119
 10
151.5000
 20
225.5381
 30
0.0000
 42
1.0000
  0
VERTEX
  8
119
 10
151.5000
 20
225.4619
 30
0.0000
  0
SEQEND
  8
0
  0
POLYLINE
  8
119
 66
1
 10
0.0000
 20
0.0000
 30
0.0000
 40
0.1524
 41
0.1524
 70
0
  0
VERTEX
  8
119
 10
157.7500
 20
225.5000
 30
0.0000
  0
VERTEX
  8
119
 10
157.7500
 20
207.0000
 30
0.0000
  0
SEQEND
  8
0
  0
POLYLINE
  8
119
 66
1
 10
0.0000
 20
0.0000
 30
0.0000
 40
0.0762
 41
0.0762
 70
0
  0
VERTEX
  8
119
 10
157.7119
 20
207.0000
 30
0.0000
 42
1.0000
  0
VERTEX
  8
119
 10
157.7881
 20
207.0000
 30
0.0000
  0
SEQEND
  8
0
  0
POLYLINE
  8
119
 66
1
 10
0.0000
 20
0.0000
 30
0.0000
 40
0.0762
 41
0.0762
 70
0
  0
VERTEX
  8
119
 10
157.7881
 20
225.5000
 30
0.0000
 42
1.0000
  0
VERTEX
  8
119
 10
157.7119
 20
225.5000
 30
0.0000
  0
SEQEND
  8
0
  0
POLYLINE
  8
119
 66
1
 10
0.0000
 20
0.0000
 30
0.0000
 40
0.1524
 41
0.1524
 70
0
  0
VERTEX
  8
119
 10
157.7500
 20
207.0000
 30
0.0000
  0
VERTEX
  8
119
 10
151.5000
 20
207.0000
 30
0.0000
  0
SEQEND
  8
0
  0
POLYLINE
  8
119
 66
1
 10
0.0000
 20
0.0000
 30
0.0000
 40
0.0762
 41
0.0762
 70
0
  0
VERTEX
  8
119
 10
151.5000
 20
207.0381
 30
0.0000
 42
1.0000
  0
VERTEX
  8
119
 10
151.5000
 20
206.9619
 30
0.0000
  0
SEQEND
  8
0
  0
POLYLINE
  8
119
 66
1
 10
0.0000
 20
0.0000
 30
0.0000
 40
0.0762
 41
0.0762
 70
0
  0
VERTEX
  8
119
 10
157.7500
 20
206.9619
 30
0.0000
 42
1.0000
  0
VERTEX
  8
119
 10
157.7500
 20
207.0381
 30
0.0000
  0
SEQEND
  8
0
  0
POLYLINE
  8
119
 66
1
 10
0.0000
 20
0.0000
 30
0.0000
 40
0.1524
 41
0.1524
 70
0
  0
VERTEX
  8
119
 10
152.2500
 20
110.5000
 30
0.0000
  0
VERTEX
  8
119
 10
157.5000
 20
110.5000
 30
0.0000
  0
SEQEND
  8
0
  0
POLYLINE
  8
119
 66
1
 10
0.0000
 20
0.0000
 30
0.0000
 40
0.0762
 41
0.0762
 70
0
  0
VERTEX
  8
119
 10
157.5000
 20
110.4619
 30
0.0000
 42
1.0000
  0
VERTEX
  8
119
 10
157.5000
 20
110.5381
 30
0.0000
  0
SEQEND
  8
0
  0
POLYLINE
  8
119
 66
1
 10
0.0000
 20
0.0000
 30
0.0000
 40
0.0762
 41
0.0762
 70
0
  0
VERTEX
  8
119
 10
152.2500
 20
110.5381
 30
0.0000
 42
1.0000
  0
VERTEX
  8
119
 10
152.2500
 20
110.4619
 30
0.0000
  0
SEQEND
  8
0
  0
POLYLINE
  8
119
 66
1
 10
0.0000
 20
0.0000
 30
0.0000
 40
0.1524
 41
0.1524
 70
0
  0
VERTEX
  8
119
 10
157.5000
 20
110.5000
 30
0.0000
  0
VERTEX
  8
119
 10
157.5000
 20
99.7500
 30
0.0000
  0
SEQEND
  8
0
  0
POLYLINE
  8
119
 66
1
 10
0.0000
 20
0.0000
 30
0.0000
 40
0.0762
 41
0.0762
 70
0
  0
VERTEX
  8
119
 10
157.4619
 20
99.7500
 30
0.0000
 42
1.0000
  0
VERTEX
  8
119
 10
157.5381
 20
99.7500
 30
0.0000
  0
SEQEND
  8
0
  0
POLYLINE
  8
119
 66
1
 10
0.0000
 20
0.0000
 30
0.0000
 40
0.0762
 41
0.0762
 70
0
  0
VERTEX
  8
119
 10
157.5381
 20
110.5000
 30
0.0000
 42
1.0000
  0
VERTEX
  8
119
 10
157.4619
 20
110.5000
 30
0.0000
  0
SEQEND
  8
0
  0
POLYLINE
  8
119
 66
1
 10
0.0000
 20
0.0000
 30
0.0000
 40
0.1524
 41
0.1524
 70
0
  0
VERTEX
  8
119
 10
157.5000
 20
99.7500
 30
0.0000
  0
VERTEX
  8
119
 10
152.2500
 20
99.7500
 30
0.0000
  0
SEQEND
  8
0
  0
POLYLINE
  8
119
 66
1
 10
0.0000
 20
0.0000
 30
0.0000
 40
0.0762
 41
0.0762
 70
0
  0
VERTEX
  8
119
 10
152.2500
 20
99.7881
 30
0.0000
 42
1.0000
  0
VERTEX
  8
119
 10
152.2500
 20
99.7119
 30
0.0000
  0
SEQEND
  8
0
  0
POLYLINE
  8
119
 66
1
 10
0.0000
 20
0.0000
 30
0.0000
 40
0.0762
 41
0.0762
 70
0
  0
VERTEX
  8
119
 10
157.5000
 20
99.7119
 30
0.0000
 42
1.0000
  0
VERTEX
  8
119
 10
157.5000
 20
99.7881
 30
0.0000
  0
SEQEND
  8
0
  0
POLYLINE
  8
119
 66
1
 10
0.0000
 20
0.0000
 30
0.0000
 40
0.1524
 41
0.1524
 70
0
  0
VERTEX
  8
119
 10
152.2500
 20
99.7500
 30
0.0000
  0
VERTEX
  8
119
 10
152.2500
 20
110.5000
 30
0.0000
  0
SEQEND
  8
0
  0
POLYLINE
  8
119
 66
1
 10
0.0000
 20
0.0000
 30
0.0000
 40
0.0762
 41
0.0762
 70
0
  0
VERTEX
  8
119
 10
152.2881
 20
110.5000
 30
0.0000
 42
1.0000
  0
VERTEX
  8
119
 10
152.2119
 20
110.5000
 30
0.0000
  0
SEQEND
  8
0
  0
POLYLINE
  8
119
 66
1
 10
0.0000
 20
0.0000
 30
0.0000
 40
0.0762
 41
0.0762
 70
0
  0
VERTEX
  8
119
 10
152.2119
 20
99.7500
 30
0.0000
 42
1.0000
  0
VERTEX
  8
119
 10
152.2881
 20
99.7500
 30
0.0000
  0
SEQEND
  8
0
  0
POLYLINE
  8
119
 66
1
 10
0.0000
 20
0.0000
 30
0.0000
 40
0.1524
 41
0.1524
 70
0
  0
VERTEX
  8
119
 10
151.5000
 20
225.5000
 30
0.0000
  0
VERTEX
  8
119
 10
151.5000
 20
207.0000
 30
0.0000
  0
SEQEND
  8
0
  0
POLYLINE
  8
119
 66
1
 10
0.0000
 20
0.0000
 30
0.0000
 40
0.0762
 41
0.0762
 70
0
  0
VERTEX
  8
119
 10
151.4619
 20
207.0000
 30
0.0000
 42
1.0000
  0
VERTEX
  8
119
 10
151.5381
 20
207.0000
 30
0.0000
  0
SEQEND
  8
0
  0
POLYLINE
  8
119
 66
1
 10
0.0000
 20
0.0000
 30
0.0000
 40
0.0762
 41
0.0762
 70
0
  0
VERTEX
  8
119
 10
151.5381
 20
225.5000
 30
0.0000
 42
1.0000
  0
VERTEX
  8
119
 10
151.4619
 20
225.5000
 30
0.0000
  0
SEQEND
  8
0
  0
POLYLINE
  8
119
 66
1
 10
0.0000
 20
0.0000
 30
0.0000
 40
3.0142
 41
3.0142
 70
0
  0
VERTEX
  8
119
 10
501.0219
 20
33.4929
 30
0.0000
 42
1.0000
  0
VERTEX
  8
119
 10
501.0219
 20
36.5071
 30
0.0000
 42
1.0000
  0
VERTEX
  8
119
 10
501.0219
 20
33.4929
 30
0.0000
  0
SEQEND
  8
0
  0
POLYLINE
  8
119
 66
1
 10
0.0000
 20
0.0000
 30
0.0000
 40
1.8232
 41
1.8232
 70
0
  0
VERTEX
  8
119
 10
501.0219
 20
34.0884
 30
0.0000
 42
1.0000
  0
VERTEX
  8
119
 10
501.0219
 20
35.9116
 30
0.0000
 42
1.0000
  0
VERTEX
  8
119
 10
501.0219
 20
34.0884
 30
0.0000
  0
SEQEND
  8
0
  0
POLYLINE
  8
119
 66
1
 10
0.0000
 20
0.0000
 30
0.0000
 40
2.5000
 41
2.5000
 70
0
  0
VERTEX
  8
119
 10
228.1272
 20
183.6971
 30
0.0000
 42
1.0000
  0
VERTEX
  8
119
 10
228.1272
 20
186.1971
 30
0.0000
 42
1.0000
  0
VERTEX
  8
119
 10
228.1272
 20
183.6971
 30
0.0000
  0
SEQEND
  8
0
  0
POLYLINE
  8
119
 66
1
 10
0.0000
 20
0.0000
 30
0.0000
 40
2.5000
 41
2.5000
 70
0
  0
VERTEX
  8
119
 10
228.1272
 20
250.6971
 30
0.0000
 42
1.0000
  0
VERTEX
  8
119
 10
228.1272
 20
253.1971
 30
0.0000
 42
1.0000
  0
VERTEX
  8
119
 10
228.1272
 20
250.6971
 30
0.0000
  0
SEQEND
  8
0
  0
POLYLINE
  8
119
 66
1
 10
0.0000
 20
0.0000
 30
0.0000
 40
2.5000
 41
2.5000
 70
0
  0
VERTEX
  8
119
 10
228.1272
 20
88.6971
 30
0.0000
 42
1.0000
  0
VERTEX
  8
119
 10
228.1272
 20
91.1971
 30
0.0000
 42
1.0000
  0
VERTEX
  8
119
 10
228.1272
 20
88.6971
 30
0.0000
  0
SEQEND
  8
0
  0
POLYLINE
  8
119
 66
1
 10
0.0000
 20
0.0000
 30
0.0000
 40
4.2500
 41
4.2500
 70
0
  0
VERTEX
  8
119
 10
228.1272
 20
63.8221
 30
0.0000
 42
1.0000
  0
VERTEX
  8
119
 10
228.1272
 20
68.0721
 30
0.0000
 42
1.0000
  0
VERTEX
  8
119
 10
228.1272
 20
63.8221
 30
0.0000
  0
SEQEND
  8
0
  0
POLYLINE
  8
119
 66
1
 10
0.0000
 20
0.0000
 30
0.0000
 40
4.7500
 41
4.7500
 70
0
  0
VERTEX
  8
119
 10
228.1272
 20
96.5721
 30
0.0000
 42
1.0000
  0
VERTEX
  8
119
 10
228.1272
 20
101.3221
 30
0.0000
 42
1.0000
  0
VERTEX
  8
119
 10
228.1272
 20
96.5721
 30
0.0000
  0
SEQEND
  8
0
  0
POLYLINE
  8
119
 66
1
 10
0.0000
 20
0.0000
 30
0.0000
 40
4.2500
 41
4.2500
 70
0
  0
VERTEX
  8
119
 10
228.1272
 20
273.8221
 30
0.0000
 42
1.0000
  0
VERTEX
  8
119
 10
228.1272
 20
278.0721
 30
0.0000
 42
1.0000
  0
VERTEX
  8
119
 10
228.1272
 20
273.8221
 30
0.0000
  0
SEQEND
  8
0
  0
POLYLINE
  8
119
 66
1
 10
0.0000
 20
0.0000
 30
0.0000
 40
3.7500
 41
3.7500
 70
0
  0
VERTEX
  8
119
 10
228.1272
 20
88.0721
 30
0.0000
 42
1.0000
  0
VERTEX
  8
119
 10
228.1272
 20
91.8221
 30
0.0000
 42
1.0000
  0
VERTEX
  8
119
 10
228.1272
 20
88.0721
 30
0.0000
  0
SEQEND
  8
0
  0
POLYLINE
  8
119
 66
1
 10
0.0000
 20
0.0000
 30
0.0000
 40
3.7500
 41
3.7500
 70
0
  0
VERTEX
  8
119
 10
228.1272
 20
183.0721
 30
0.0000
 42
1.0000
  0
VERTEX
  8
119
 10
228.1272
 20
186.8221
 30
0.0000
 42
1.0000
  0
VERTEX
  8
119
 10
228.1272
 20
183.0721
 30
0.0000
  0
SEQEND
  8
0
  0
POLYLINE
  8
119
 66
1
 10
0.0000
 20
0.0000
 30
0.0000
 40
3.7500
 41
3.7500
 70
0
  0
VERTEX
  8
119
 10
228.1272
 20
250.0721
 30
0.0000
 42
1.0000
  0
VERTEX
  8
119
 10
228.1272
 20
253.8221
 30
0.0000
 42
1.0000
  0
VERTEX
  8
119
 10
228.1272
 20
250.0721
 30
0.0000
  0
SEQEND
  8
0
  0
POLYLINE
  8
119
 66
1
 10
0.0000
 20
0.0000
 30
0.0000
 40
2.7500
 41
2.7500
 70
0
  0
VERTEX
  8
119
 10
228.1272
 20
274.5721
 30
0.0000
 42
1.0000
  0
VERTEX
  8
119
 10
228.1272
 20
277.3221
 30
0.0000
 42
1.0000
  0
VERTEX
  8
119
 10
228.1272
 20
274.5721
 30
0.0000
  0
SEQEND
  8
0
  0
POLYLINE
  8
119
 66
1
 10
0.0000
 20
0.0000
 30
0.0000
 40
3.2500
 41
3.2500
 70
0
  0
VERTEX
  8
119
 10
228.1272
 20
97.3221
 30
0.0000
 42
1.0000
  0
VERTEX
  8
119
 10
228.1272
 20
100.5721
 30
0.0000
 42
1.0000
  0
VERTEX
  8
119
 10
228.1272
 20
97.3221
 30
0.0000
  0
SEQEND
  8
0
  0
POLYLINE
  8
119
 66
1
 10
0.0000
 20
0.0000
 30
0.0000
 40
2.7500
 41
2.7500
 70
0
  0
VERTEX
  8
119
 10
228.1272
 20
64.5721
 30
0.0000
 42
1.0000
  0
VERTEX
  8
119
 10
228.1272
 20
67.3221
 30
0.0000
 42
1.0000
  0
VERTEX
  8
119
 10
228.1272
 20
64.5721
 30
0.0000
  0
SEQEND
  8
0
  0
POLYLINE
  8
119
 66
1
 10
0.0000
 20
0.0000
 30
0.0000
 40
0.1016
 41
0.1016
 70
0
  0
VERTEX
  8
119
 10
112.0000
 20
221.4000
 30
0.0000
 42
1.0000
  0
VERTEX
  8
119
 10
112.0000
 20
224.6000
 30
0.0000
 42
1.0000
  0
VERTEX
  8
119
 10
112.0000
 20
221.4000
 30
0.0000
  0
SEQEND
  8
0
  0
POLYLINE
  8
119
 66
1
 10
0.0000
 20
0.0000
 30
0.0000
 40
0.1016
 41
0.1016
 70
0
  0
VERTEX
  8
119
 10
123.0000
 20
176.9000
 30
0.0000
 42
1.0000
  0
VERTEX
  8
119
 10
123.0000
 20
180.1000
 30
0.0000
 42
1.0000
  0
VERTEX
  8
119
 10
123.0000
 20
176.9000
 30
0.0000
  0
SEQEND
  8
0
  0
POLYLINE
  8
119
 66
1
 10
0.0000
 20
0.0000
 30
0.0000
 40
0.1016
 41
0.1016
 70
0
  0
VERTEX
  8
119
 10
146.0000
 20
163.4000
 30
0.0000
 42
1.0000
  0
VERTEX
  8
119
 10
146.0000
 20
166.6000
 30
0.0000
 42
1.0000
  0
VERTEX
  8
119
 10
146.0000
 20
163.4000
 30
0.0000
  0
SEQEND
  8
0
  0
POLYLINE
  8
119
 66
1
 10
0.0000
 20
0.0000
 30
0.0000
 40
0.1016
 41
0.1016
 70
0
  0
VERTEX
  8
119
 10
136.5000
 20
113.6500
 30
0.0000
 42
1.0000
  0
VERTEX
  8
119
 10
136.5000
 20
116.8500
 30
0.0000
 42
1.0000
  0
VERTEX
  8
119
 10
136.5000
 20
113.6500
 30
0.0000
  0
SEQEND
  8
0
  0
POLYLINE
  8
119
 66
1
 10
0.0000
 20
0.0000
 30
0.0000
 40
0.1016
 41
0.1016
 70
0
  0
VERTEX
  8
119
 10
150.7500
 20
244.9000
 30
0.0000
 42
1.0000
  0
VERTEX
  8
119
 10
150.7500
 20
248.1000
 30
0.0000
 42
1.0000
  0
VERTEX
  8
119
 10
150.7500
 20
244.9000
 30
0.0000
  0
SEQEND
  8
0
  0
ENDSEC
  0
EOF
